<svg version="1.2" xmlns="http://www.w3.org/2000/svg" viewBox="0 0 498 626" width="498" height="626">
	<title>Баня-svg</title>
	<style>
		.s0 { fill: #000000 } 
	</style>
	<g id="Layer_2">
		<path id="Layer" class="s0" d="m265 625.8h-0.8c-56.6-0.1-115.4-9-174.7-26.5-3.9-1.1-7.6-2.9-11-5.1-3.4-2.2-6.4-4.9-9.1-7.9-2.6-3.1-4.8-6.6-6.4-10.3-1.7-3.7-2.8-7.6-3.3-11.6l-37.7-289.6 4-0.5 37.7 289.6c0.5 3.6 1.5 7.2 3 10.5 1.4 3.4 3.4 6.5 5.8 9.3 2.3 2.8 5.1 5.2 8.2 7.2 3 2 6.4 3.6 9.9 4.6 117.8 34.7 232 34.9 339.3 0.5 3.4-1.1 6.6-2.7 9.6-4.7 2.9-2 5.6-4.5 7.9-7.2 2.3-2.8 4.2-5.8 5.6-9.1 1.5-3.3 2.4-6.8 2.9-10.3l37.7-290.4 4 0.5-37.8 290.4c-0.5 3.9-1.6 7.8-3.2 11.4-1.5 3.6-3.6 7-6.1 10.1-2.6 3-5.5 5.7-8.8 7.9-3.3 2.2-6.8 4-10.6 5.2q-20.1 6.4-40.6 11.3-20.6 4.9-41.4 8.1-20.9 3.3-41.9 5-21.1 1.6-42.2 1.6z"/>
		<path id="Layer" class="s0" d="m247.4 229.1l-1-4.9q-1.6-8.3-2.4-16.6-0.8-8.4-0.8-16.8 0-8.4 0.8-16.8 0.8-8.3 2.4-16.6c1.3-6.8 1.1-13.7-0.5-20.4-1.7-6.7-4.9-12.9-9.3-18.3-4.3-5.3-9.8-9.6-16.1-12.5-6.2-3-13-4.5-19.9-4.5h-20c-6.1 0-12.2 1.2-17.8 3.5-5.7 2.4-10.9 5.8-15.2 10.1-4.3 4.4-7.8 9.5-10.1 15.2-2.4 5.6-3.6 11.7-3.6 17.8q0 1.1 0.1 2.3 0 1.1 0.1 2.3 0.1 1.1 0.3 2.2 0.2 1.2 0.4 2.3 1.5 7.4 2.3 15 0.8 7.5 0.9 15 0.2 7.6-0.3 15.2-0.5 7.5-1.7 15l-4-0.7q1.2-7.3 1.7-14.7 0.5-7.3 0.3-14.7-0.1-7.4-0.9-14.7-0.8-7.4-2.2-14.6-0.3-1.2-0.4-2.5-0.2-1.2-0.4-2.4-0.1-1.3-0.1-2.5-0.1-1.3-0.1-2.5c0-6.6 1.3-13.2 3.9-19.4 2.5-6.1 6.3-11.7 11-16.4 4.7-4.7 10.3-8.4 16.4-11 6.2-2.5 12.8-3.8 19.4-3.8h20c7.5 0 14.9 1.6 21.7 4.8 6.8 3.2 12.7 7.9 17.5 13.7 4.8 5.8 8.2 12.5 10 19.8 1.8 7.3 2 14.8 0.6 22.2q-1.6 8.1-2.4 16.2-0.8 8.2-0.8 16.4 0 8.2 0.8 16.4 0.8 8.1 2.4 16.2l0.9 4.9z"/>
		<path id="Layer" fill-rule="evenodd" class="s0" d="m190.6 189.2c-14.3 0-27.2-8.6-32.6-21.8-5.5-13.2-2.4-28.4 7.7-38.5 10.1-10.1 25.3-13.1 38.5-7.6 13.2 5.5 21.7 18.4 21.7 32.7 0 4.6-0.9 9.2-2.7 13.5-1.8 4.2-4.4 8.1-7.7 11.4-3.3 3.3-7.1 5.9-11.4 7.6-4.3 1.8-8.9 2.7-13.5 2.7zm0-66.5c-12.7 0-24.1 7.6-28.9 19.3-4.9 11.7-2.2 25.2 6.8 34.1 8.9 9 22.4 11.7 34.1 6.8 11.7-4.8 19.3-16.2 19.3-28.9 0-4.1-0.8-8.2-2.4-12-1.6-3.8-3.9-7.2-6.8-10.1-2.9-2.9-6.3-5.2-10.1-6.8-3.8-1.6-7.9-2.4-12-2.4z"/>
		<path id="Layer" fill-rule="evenodd" class="s0" d="m259.8 322.4h-18.5l-10.9-0.2-16.1-0.5-3.7-0.2h-7.7l-3.7-0.2h-0.1l-3.5-0.2h-1.6l-7.4-0.4h-0.3l-2.2-0.2-5.4-0.4-7.8-0.5h-0.5l-5-0.4-8-0.7-5.1-0.5-12.2-1.3-5-0.6-10.9-1.4-6.9-1-1.3-0.2h-1.2c-10-1.6-19.4-3.2-28-5l-2.9-0.7-4-0.9-2.2-0.5h-0.3l-2.2-0.6c-4.6-1.1-9-2.2-13.1-3.5l-2.3-0.6-3.7-1.2-5.8-2c-2.4-1-4.6-1.8-6.5-2.7l-1.5-0.6-2.9-1.4-1.4-0.7-1.3-0.7-2.5-1.4h-0.2l-1-0.7q-0.8-0.5-1.5-1-0.8-0.5-1.5-1.1-0.7-0.6-1.4-1.2-0.7-0.6-1.4-1.2l-0.7-0.8q-0.1-0.1-0.2-0.2-0.1-0.1-0.2-0.2-0.1-0.1-0.2-0.2-0.1-0.1-0.2-0.2l-0.2-0.3-0.5-0.5-0.5-0.8q-0.1-0.1-0.1-0.2-0.1-0.1-0.2-0.2 0-0.1-0.1-0.2-0.1-0.1-0.1-0.2-0.1-0.2-0.2-0.3-0.1-0.2-0.2-0.4-0.1-0.2-0.2-0.3-0.1-0.2-0.2-0.4l-0.3-0.4v-0.6q0-0.1-0.1-0.1 0-0.1 0-0.2-0.1-0.1-0.1-0.1 0-0.1 0-0.2l-0.3-0.2v-0.6q-0.1-0.3-0.1-0.6-0.1-0.4-0.1-0.7-0.1-0.3-0.1-0.6 0-0.4 0-0.7c0-19.5 51.2-31.1 81.7-36.4l0.7 4c-49.1 8.4-78.4 20.5-78.4 32.4q0 0.2 0 0.4 0 0.1 0.1 0.3 0 0.2 0 0.4 0.1 0.1 0.1 0.3v0.5q0 0 0 0.1 0 0 0 0.1 0 0 0.1 0 0 0.1 0 0.1v1.2l0.6 1 0.8 1.2 0.4 0.5v0.2l0.6 0.7 0.7 0.6q0.6 0.6 1.2 1.1 0.6 0.6 1.3 1.1 0.6 0.5 1.3 1 0.7 0.5 1.4 0.9l1 0.6h0.1l2.3 1.3 1.2 0.6 1.3 0.7 2.8 1.3 1.5 0.7 6.3 2.5 5.6 2 3.7 1.1 2.2 0.7c4.1 1.2 8.4 2.4 12.9 3.5l2.1 0.4h0.2l2.4 0.5 3.9 0.9 2.9 0.6c8.5 1.8 17.9 3.5 27.8 5l1.2 0.2 1.3 0.2 6.8 0.9 10.9 1.4 4.9 0.6 12.2 1.3 5.1 0.5 8 0.7 4.9 0.4h0.5l7.8 0.6 5.3 0.3 2.3 0.2h0.3l7.3 0.4h1.7l3.4 0.2h0.2l3.6 0.2h7.7l3.7 0.2 16 0.5 10.9 0.2h14.7c5.3 0.1 10.5 0 15.7 0l17.3-0.3 8-0.2 3.9-0.2h3.9l7.8-0.3 3.9-0.2 3.8-0.2 5.2-0.3 6.1-30.8c0.2-1.3 0.5-2.7 0.7-4l0.3-2q0.1-0.2 0.1-0.5 0.1-0.2 0.1-0.5 0.1-0.2 0.1-0.5 0-0.2 0-0.5 0.1-0.3 0.1-0.5 0.1-0.3 0.1-0.5 0.1-0.3 0.1-0.6 0-0.2 0-0.5l0.3-2.3c0.2-1.2 0.3-2.4 0.4-3.6l0.3-2.8q0-0.1 0-0.3 0-0.1 0-0.2 0-0.1 0-0.3 0.1-0.1 0.1-0.2v-0.5c0.2-2.2 0.3-4.5 0.3-6.7q0-0.2 0.1-0.4 0-0.2 0-0.3 0-0.2 0-0.4 0-0.2 0-0.4v-9q0-0.3-0.1-0.5 0-0.3 0-0.5 0-0.3 0-0.6 0-0.2 0-0.5v-2c0-0.7-0.1-1.4-0.1-2v-0.6c0-0.7-0.1-1.4-0.1-2l-0.3-3.1q0-0.3-0.1-0.6 0-0.3 0-0.6-0.1-0.3-0.1-0.6 0-0.3 0-0.6-0.1-0.3-0.1-0.7-0.1-0.3-0.1-0.6-0.1-0.4-0.1-0.7-0.1-0.4-0.1-0.7c-0.5-3.6-1-7.2-1.7-10.7-1.4-7.3-1.3-14.9 0.6-22.2 1.8-7.2 5.2-14 10-19.8 4.7-5.7 10.7-10.4 17.5-13.6 6.7-3.2 14.1-4.8 21.6-4.8h20c6.6 0 13.2 1.3 19.4 3.8 6.1 2.6 11.7 6.3 16.4 11 4.7 4.7 8.4 10.2 11 16.4 2.5 6.1 3.9 12.7 3.9 19.3q0 1.2-0.1 2.5 0 1.2-0.1 2.5-0.1 1.2-0.3 2.4-0.2 1.3-0.4 2.5-0.6 3-1.1 6-0.5 3.1-0.8 6.1-0.4 3-0.7 6.1-0.2 3-0.4 6.1c32.8 8.4 49.4 18.3 49.4 29.6q0 0.3 0 0.7 0 0.3-0.1 0.6 0 0.3-0.1 0.7 0 0.3-0.1 0.6v0.3c-1.2 4.5-5.1 8.8-11.8 12.9-6.7 4.1-18.5 8.8-32.8 12.7l-2 0.6-3.4-17c-0.8-4.3-1.5-8.8-2-13.2q-0.4-3.4-0.7-6.8-0.2-3.3-0.4-6.7-0.1-3.4-0.1-6.8 0-3.4 0.1-6.8 0.1-3.3 0.4-6.7 0.3-3.3 0.7-6.6 0.4-3.3 0.9-6.6 0.5-3.3 1.1-6.6 0.2-1.1 0.4-2.3 0.2-1.1 0.3-2.2 0.1-1.2 0.1-2.3 0.1-1.2 0.1-2.3c0-6.1-1.2-12.2-3.6-17.8-2.3-5.7-5.8-10.8-10.1-15.1-4.4-4.3-9.5-7.8-15.2-10.1-5.6-2.3-11.7-3.5-17.8-3.5h-20c-6.9 0-13.7 1.5-19.9 4.4-6.3 3-11.8 7.3-16.1 12.6-4.4 5.3-7.6 11.5-9.3 18.2-1.6 6.7-1.8 13.6-0.5 20.4 0.7 3.6 1.3 7.3 1.8 11l0.3 2.8 0.3 2.4 0.3 3.1c0 0.7 0.1 1.4 0.1 2.2v0.3c0.1 0.1 0.1 0.2 0.1 0.4 0 0.2 0.1 1.3 0.1 2v1.1q0 0.1 0.1 0.2 0 0.1 0 0.2 0 0.2 0 0.3 0 0.1 0 0.2 0 0.3 0 0.5 0 0.3 0 0.6 0 0.2 0 0.5 0.1 0.2 0.1 0.5v9.3q0 0.2 0 0.4 0 0.2 0 0.4 0 0.1 0 0.3-0.1 0.2-0.1 0.4 0 3.5-0.3 6.9v1.6l-0.3 2.8c-0.1 1.2-0.2 2.5-0.4 3.7l-0.3 2.4-0.3 2.1-0.3 2q0 0.3-0.1 0.5 0 0.3-0.1 0.6 0 0.2-0.1 0.5 0 0.2-0.1 0.5c-0.2 1.3-0.4 2.7-0.7 4.1l-6.7 33.8-8.3 0.5-3.8 0.2-3.9 0.2-7.8 0.3h-4l-3.9 0.2-8 0.2-17.4 0.3zm188.2-73.4q-0.1 3 0 6 0 3 0.1 6 0.2 3 0.4 5.9 0.3 3 0.6 6 0.8 6.6 2.1 12.9l2.5 12.8c12.8-3.6 22.8-7.6 29.7-11.8 6.9-4.2 8.9-6.8 9.9-10.2v-0.2q0-0.2 0.1-0.5 0-0.2 0-0.4 0.1-0.3 0.1-0.5 0-0.3 0-0.5c0.1-8.7-16.5-18-45.5-25.5z"/>
		<path id="Layer" class="s0" d="m335.6 233.1h-0.2c-24.4-1.6-49.8-2.5-75.6-2.5h-10.4l-22.2 0.4v-4l22.2-0.4h10.5c25.9 0 51.3 0.9 75.7 2.5h0.2z"/>
		<path id="Layer" fill-rule="evenodd" class="s0" d="m391.4 251.6c-14.2 0-27.1-8.6-32.5-21.7-5.5-13.2-2.5-28.3 7.6-38.4 10.1-10.1 25.2-13.1 38.4-7.6 13.1 5.4 21.7 18.3 21.7 32.5 0 4.6-0.9 9.2-2.7 13.5-1.8 4.2-4.4 8.1-7.6 11.4-3.3 3.2-7.2 5.8-11.4 7.6-4.3 1.8-8.9 2.7-13.5 2.7zm0-66.4c-12.6 0-24 7.6-28.8 19.3-4.9 11.6-2.2 25 6.7 34 9 8.9 22.4 11.6 34 6.7 11.7-4.8 19.3-16.2 19.3-28.8 0-4.1-0.8-8.2-2.4-11.9-1.5-3.8-3.8-7.3-6.7-10.2-2.9-2.9-6.4-5.2-10.2-6.7-3.7-1.6-7.8-2.4-11.9-2.4z"/>
		<path id="Layer" class="s0" d="m270.1 408.2q-11.6 0-23.2-0.4-11.6-0.3-23.1-1-11.6-0.7-23.1-1.7-11.6-1-23.1-2.3c-83.5-9.6-141-28.9-141.6-29.1l1.3-3.8c0.6 0.2 57.8 19.4 140.9 28.9 76.6 8.8 191.6 10.9 304.1-28.9l1.3 3.8c-50 17.7-104.7 28.7-162.4 32.7-16.8 1.2-33.8 1.8-51.1 1.8z"/>
		<path id="Layer" class="s0" d="m270.6 479q-32 0-65.1-2.7c-77.9-6.3-137.7-22.2-159.8-28.8l1.1-3.8c37.7 11.1 235.4 63.7 425.9 0.3l1.2 3.8c-62.3 20.8-130.5 31.2-203.3 31.2z"/>
		<path id="Layer" class="s0" d="m270.4 549.7c-18 0-36.3-0.6-54.9-1.9-73.2-5-131.8-18.9-160.2-26.8l1.1-3.8c50.9 14 230.7 55.7 406.7 0.7l1.2 3.8c-59.7 18.6-124.7 28-193.9 28z"/>
		<path id="Layer" class="s0" d="m483.2 290.2c-7.2-5.5-19.5-10.5-36.6-15.1l1.1-3.9c17.5 4.7 30.3 10 37.9 15.8z"/>
		<path id="Layer" class="s0" d="m336.6 258.9c-15.4-1-31.4-1.8-47.6-2.2v-4c16.3 0.4 32.4 1.2 47.7 2.2z"/>
		<path id="Layer" class="s0" d="m236.2 256.6h-0.1v-4l0.1 4z"/>
		<path id="Layer" class="s0" d="m36.4 290.2l-2.4-3.2c11.1-8.4 33.6-16 65.1-21.9l0.7 3.9c-30.8 5.8-52.7 13.2-63.4 21.2z"/>
		<path id="Layer" class="s0" d="m395.3 607.3l19.4-217 4 0.3-19.4 217.1z"/>
		<path id="Layer" class="s0" d="m101.8 389.4l4-0.4 19.4 217.4-4 0.4z"/>
		<path id="Layer" class="s0" d="m197.4 405.5l4-0.2 6.5 215.9-4 0.1z"/>
		<path id="Layer" class="s0" d="m309.6 622l8.3-216.8 4 0.1-8.3 216.9z"/>
		<path id="Layer" class="s0" d="m103.3 238.9c-4.8-9.7-10.4-19.7-16.5-29.7l3.4-2.1c6.2 10.1 11.8 20.2 16.7 30.1z"/>
		<path id="Layer" class="s0" d="m111.9 219.1l-1.1-1.5 0.6-1.8 1.4 1.5 0.9-1.8-0.9 1.8 2-0.3-2 0.3-0.9 1.8z"/>
		<path id="Layer" class="s0" d="m78.6 196.3c-3.5-5.3-7.3-10.8-11.2-16.2l3.3-2.3c3.9 5.4 7.7 10.9 11.2 16.3z"/>
		<path id="Layer" class="s0" d="m58 167.5c-3.1-4.1-6.4-8.3-9.8-12.5l3.1-2.5c3.4 4.2 6.8 8.5 9.9 12.6z"/>
		<path id="Layer" class="s0" d="m38.6 143.6q-4.1-4.8-8.3-9.5-4.3-4.7-8.6-9.3-4.4-4.6-8.8-9.1-4.5-4.4-9.1-8.8-0.8-0.7-1.4-1.5-0.6-0.8-1-1.7-0.4-0.9-0.7-1.8-0.2-1-0.3-2c-0.1-2 0.4-4.1 1.4-5.8 1-1.8 2.6-3.2 4.4-4 1.9-0.9 3.9-1.2 5.9-0.9 2 0.3 3.9 1.2 5.4 2.6 0.3 0.2 7.9 7.2 19.5 19.5h0.2v0.2l-1.6 1.1-1.5 1.5c-11.5-12.2-19.1-19.1-19.4-19.4q-0.9-0.8-2.1-1.2-1.2-0.5-2.4-0.4-1.2 0.1-2.4 0.6-1.1 0.6-1.9 1.5-0.4 0.5-0.7 1-0.4 0.5-0.6 1.1-0.2 0.6-0.3 1.2 0 0.6 0 1.2 0 0.6 0.2 1.2 0.1 0.6 0.4 1.1 0.2 0.6 0.6 1.1 0.4 0.5 0.8 0.9c0.2 0.1 15.4 13.9 35.2 37z"/>
		<path id="Layer" class="s0" d="m80.4 140.5c-18.9-35.2-28.7-62.6-29.7-65.6q-0.2-0.6-0.5-1.1-0.3-0.6-0.7-1-0.5-0.5-0.9-0.9-0.5-0.3-1.1-0.6-0.5-0.3-1.1-0.5-0.6-0.1-1.3-0.2-0.6 0-1.2 0.1-0.6 0.1-1.2 0.3-1.2 0.4-2.1 1.2-0.9 0.8-1.5 1.9-0.5 1.2-0.6 2.4 0 1.2 0.4 2.4v0.2c1.5 4.1 3.5 9.3 5.7 14.6v0.8h-2v2l-1.4-1.4-0.4 0.2c-2.2-5.5-4.3-10.7-5.8-14.9v-0.2c-0.7-1.9-0.8-4-0.2-6 0.5-1.9 1.6-3.7 3.1-5 1.5-1.4 3.4-2.2 5.4-2.5 2-0.3 4.1 0.1 5.9 1q0.9 0.4 1.7 1 0.8 0.6 1.4 1.4 0.7 0.7 1.2 1.6 0.5 0.9 0.8 1.8 3.1 8.4 6.5 16.7 3.4 8.2 7.1 16.4 3.7 8.1 7.7 16.1 3.9 8 8.2 15.9z"/>
		<path id="Layer" class="s0" d="m94.9 165.9l-7.4-12.5 3.5-2c2.4 4.2 4.9 8.4 7.4 12.4z"/>
		<path id="Layer" class="s0" d="m114.1 194.9c-3.6-5.1-7.2-10.4-10.7-15.7l3.3-2.2c3.5 5.3 7.1 10.5 10.7 15.6z"/>
		<path id="Layer" class="s0" d="m136.2 223l-0.4-0.6-3.3-3.9c-2.9-3.3-5.6-6.7-8.2-10l3.2-2.5c2.5 3.3 5.2 6.6 8 10l3.3 3.8q0.1 0.1 0.2 0.2 0.1 0.1 0.2 0.3 0.1 0.1 0.2 0.2 0 0.2 0.1 0.3z"/>
		<path id="Layer" class="s0" d="m116.9 225.6h-0.1l-0.3-0.4-5-6.2-0.5-0.3v-0.5c-2.5-3.2-5.1-6.7-7.9-10.5l3.3-2.3c2.8 3.9 5.5 7.4 8.1 10.7l1.1 1.4 4.2 5.2v0.2h0.2z"/>
		<path id="Layer" class="s0" d="m122.7 232.4l2.9-2.7-2.9 2.7z"/>
		<path id="Layer" class="s0" d="m123.7 223.7c-2.3-4.9-5.1-10.3-8.3-16.2l3.5-1.9c3.3 6 6.1 11.5 8.4 16.4zm-34.9-29.1c-3-5-6.4-10.3-10-15.9l3.3-2.2c3.7 5.6 7.1 11 10.1 16zm18.9-0.5c-2.9-5-6.1-10.1-9.4-15.4l3.4-2.1c3.3 5.3 6.5 10.4 9.5 15.4zm-37.6-28.7l-8.5-12.4 3.3-2.3c3 4.3 5.8 8.5 8.5 12.5zm19.6-0.1c-3-4.6-5.6-8.6-8.2-12.4l3.4-2.2c2.5 3.8 5.2 7.8 8.1 12.4zm-37.1-25.3c-6-8.6-12.2-17.3-18.5-25.9v-0.2c-9.9-13.7-16.5-22.3-16.5-22.4-0.8-1.1-1.4-2.3-1.8-3.6-0.3-1.3-0.4-2.7-0.2-4 0.2-1.3 0.6-2.6 1.3-3.8 0.6-1.2 1.5-2.2 2.6-3q0.8-0.6 1.7-1 0.9-0.5 1.9-0.7 1-0.3 2-0.3 1 0 2 0.1 1 0.1 1.9 0.4 1 0.3 1.9 0.8 0.8 0.5 1.6 1.2 0.7 0.7 1.3 1.5c0.2 0.2 4 5.2 10 13.4l0.6 0.8c7.5 10.1 18.9 25.9 31.4 44l-3.3 2.3c-12.1-17.6-23.3-33-30.7-43.1h-1v-1.3c-6.1-8.4-10-13.5-10.1-13.7q-0.4-0.5-0.9-0.9-0.4-0.4-1-0.7-0.5-0.3-1.1-0.5-0.6-0.2-1.2-0.3-0.6-0.1-1.2 0-0.6 0-1.2 0.1-0.6 0.2-1.2 0.5-0.5 0.2-1 0.6-0.5 0.4-0.9 0.8-0.4 0.5-0.7 1-0.3 0.5-0.5 1.1-0.2 0.6-0.3 1.2-0.1 0.6 0 1.2 0 0.7 0.2 1.3 0.1 0.6 0.4 1.1 0.2 0.6 0.6 1.1c0.1 0 6.6 8.7 16.5 22.3l0.2 0.2c6.3 8.7 12.6 17.5 18.6 26.1z"/>
		<path id="Layer" fill-rule="evenodd" class="s0" d="m48.4 156q-0.6 0-1.1-0.1-0.5-0.1-1-0.4-0.5-0.2-0.9-0.6-0.5-0.4-0.8-0.8l-5.8-7.3q-0.5-0.6-0.7-1.3-0.3-0.6-0.4-1.4 0-0.7 0.1-1.4 0.2-0.8 0.6-1.4 0.3-0.4 0.6-0.8 0.3-0.4 0.8-0.7 0.4-0.3 0.8-0.5 0.5-0.2 1-0.3 1.5-0.4 3.1-0.7 1.5-0.3 3.1-0.6 1.5-0.2 3.1-0.5 1.5-0.2 3.1-0.4 2.5-0.3 5-0.5 2.6-0.1 5.1-0.2 2.5 0 5 0 2.6 0.1 5.1 0.3 1 0.1 2.1 0.2 1 0.1 2.1 0.3 1 0.1 2 0.3 1.1 0.2 2.1 0.4c1.9 0.3 3.6 0.7 5.2 1.1q0.4 0.1 0.7 0.2 0.3 0.2 0.6 0.4 0.3 0.2 0.6 0.5 0.2 0.3 0.4 0.6c0.8 1.5 2.7 4.6 5.2 8.7q0.3 0.4 0.4 0.9 0.2 0.5 0.2 1.1 0 0.5-0.2 1-0.1 0.5-0.4 0.9-0.3 0.4-0.7 0.8-0.4 0.3-0.9 0.6-0.4 0.2-1 0.3-0.5 0.1-1 0l-2.5-0.3-6-0.6c-4.5-0.3-8.9-0.4-13.1-0.3h-0.9l-5.7 0.3q-1.7 0.1-3.3 0.3-1.7 0.2-3.4 0.4-1.6 0.2-3.3 0.5-1.7 0.3-3.3 0.6h-1.7zm17.9-15.9q-1.5 0-3 0-1.4 0.1-2.9 0.2-1.5 0.1-3 0.2-1.4 0.1-2.9 0.3c-3.9 0.5-8 1.2-12 2.1-0.4 0-0.5 0.3-0.6 0.4q-0.1 0.1-0.1 0.3 0 0.1 0 0.2 0 0.2 0 0.3 0 0.2 0.1 0.3l5.8 7.2q0.1 0.1 0.2 0.2 0.1 0.1 0.2 0.1 0.1 0 0.3 0 0.1 0 0.2 0h0.8q1.7-0.3 3.4-0.6 1.7-0.3 3.4-0.5 1.7-0.3 3.5-0.5 1.7-0.2 3.4-0.3l5.8-0.3h1.1c4.3-0.1 8.8 0 13.3 0.3l6.2 0.6 2 0.2c-1.8-2.8-3.9-6.2-4.9-8.1l-4.8-1q-1-0.2-2-0.4-0.9-0.1-1.9-0.3-1-0.1-2-0.2-1-0.1-2-0.2c-2.5-0.4-5.1-0.5-7.6-0.5z"/>
		<path id="Layer" fill-rule="evenodd" class="s0" d="m64.4 181.8q-0.6 0-1.1-0.1-0.5-0.1-1-0.4-0.5-0.2-0.9-0.6-0.5-0.4-0.8-0.8l-5.8-7.3q-0.4-0.5-0.7-1.1-0.2-0.6-0.3-1.2-0.1-0.6-0.1-1.3 0.1-0.6 0.3-1.2 0.2-0.6 0.6-1.1 0.3-0.5 0.8-1 0.5-0.4 1-0.7 0.6-0.3 1.2-0.4h0.6l1-0.2c4.2-0.9 8.3-1.5 12.3-2l5.3-0.4q1.8-0.1 3.7-0.2 1.9 0 3.7 0 1.9 0.1 3.7 0.2 1.9 0.1 3.7 0.3 0.7 0.1 1.4 0.1 0.6 0.1 1.3 0.2 0.7 0.1 1.4 0.2 0.6 0.1 1.3 0.2c2.4 0.4 4.8 0.9 7.1 1.5q0.4 0.1 0.7 0.2 0.4 0.2 0.7 0.4 0.3 0.3 0.6 0.6 0.2 0.3 0.4 0.6c1.2 2.2 4.3 7.2 5.2 8.6q0.3 0.4 0.5 1 0.1 0.5 0.1 1 0 0.5-0.1 1-0.2 0.6-0.5 1-0.3 0.4-0.7 0.8-0.4 0.3-0.9 0.6-0.4 0.2-1 0.3-0.5 0.1-1 0l-3.3-0.4c-1.9-0.2-3.5-0.4-4.9-0.4q-1.5-0.1-3-0.2-1.5-0.1-2.9-0.2-1.5 0-3 0-1.5 0-3 0h-2.9l-4.5 0.3c-3.9 0.3-7.6 0.7-11.2 1.3l-3.9 0.8zm18.2-16.1l-5.5 0.2-5.2 0.4c-3.8 0.4-7.8 1.1-11.9 1.9l-1 0.2-0.6 0.2q-0.1 0-0.2 0-0.1 0.1-0.2 0.2-0.1 0.1-0.2 0.2 0 0.1 0 0.2-0.1 0.1-0.1 0.2 0 0.1 0 0.3 0 0.1 0.1 0.2 0 0.1 0.1 0.2l5.8 7.3q0.1 0.1 0.2 0.2 0.1 0.1 0.3 0.1 0.1 0.1 0.2 0.1 0.2 0 0.3 0l4-0.8c3.7-0.6 7.6-1.1 11.6-1.4l4.6-0.3h3.1c4-0.1 8.1 0.1 12.2 0.4l5.1 0.4 2.7 0.3-5-8.2-6.7-1.4-5.1-0.7c-2.8-0.2-5.7-0.4-8.6-0.4z"/>
		<path id="Layer" fill-rule="evenodd" class="s0" d="m84.5 210.9q-0.6 0-1.1-0.1-0.6-0.2-1.1-0.4-0.5-0.3-0.9-0.6-0.4-0.4-0.8-0.8l-5.8-7.4q-0.4-0.5-0.7-1.1-0.2-0.5-0.3-1.1-0.1-0.7-0.1-1.3 0.1-0.6 0.3-1.2 0.2-0.6 0.6-1.1 0.3-0.5 0.8-1 0.5-0.4 1-0.7 0.6-0.3 1.2-0.4h0.2l2.1-0.5c3.4-0.7 6.9-1.2 10.4-1.7l4.8-0.4 3.2-0.2q1.4-0.1 2.8-0.1 1.4 0 2.9 0 1.4 0 2.8 0.1 1.4 0 2.8 0.1l6.5 0.8c2.7 0.4 5.5 1 8.1 1.6q0.4 0.1 0.7 0.3 0.4 0.2 0.7 0.4 0.3 0.2 0.5 0.5 0.3 0.3 0.5 0.6c1.2 2.2 4.3 7.2 5.2 8.7q0.3 0.4 0.5 1 0.1 0.5 0.1 1 0 0.5-0.1 1-0.2 0.6-0.5 1-0.3 0.4-0.7 0.8-0.4 0.3-0.9 0.5-0.4 0.3-1 0.3-0.5 0.1-1 0.1l-2.3-0.3h-0.2l-8.6-0.7c-3.6-0.2-7.1-0.2-10.4-0.1h-2l-6.1 0.4c-3.2 0.3-6.5 0.7-9.8 1.3l-3.3 0.7zm18.1-16.1h-4.2l-3 0.2-4.7 0.4c-3.3 0.4-6.7 1-10 1.7l-2.1 0.4h-0.1q-0.1 0-0.2 0.1-0.1 0-0.2 0.1-0.1 0.1-0.2 0.2-0.1 0.1-0.1 0.2-0.1 0.1-0.1 0.2 0 0.1 0 0.3 0 0.1 0.1 0.2 0 0.1 0.1 0.2l5.8 7.4q0.1 0.1 0.2 0.2 0.1 0.1 0.3 0.1 0.1 0 0.2 0 0.2 0 0.3 0l3.5-0.6c3.4-0.6 6.8-1.1 10.1-1.4l6.3-0.4h2c3.4-0.1 7-0.1 10.7 0.1 3.7 0.2 5.9 0.4 8.8 0.8h0.3l1.7 0.2c-1.3-2.1-3.8-6.1-5-8.2-1.2-2.1-5-1.2-7.6-1.6l-6.2-0.7z"/>
		<path id="Layer" class="s0" d="m182.3 266.5q-1.4 0-2.8-0.1-1.4 0-2.8-0.1-1.4-0.1-2.7-0.3-1.4-0.1-2.8-0.3c-24.1-3.4-39.5-17.1-40.1-18.2l3.5-1.9-0.2-0.3c1.8 2 16.3 13.4 37.3 16.4q3 0.4 6.1 0.6 3.1 0.2 6.2 0.2 3-0.1 6.1-0.4 3.1-0.3 6.1-0.9c-2.9-5.2-11.1-18.4-25.4-27.6q-3.7-2.4-7.6-4.2-4-1.8-8.2-3-4.2-1.3-8.5-1.9-4.3-0.6-8.7-0.6h-4.5q-1.8 0.1-3.6 0.3-1.7 0.2-3.5 0.4-1.8 0.3-3.5 0.7-1.8 0.3-3.5 0.8h-0.5l-0.9 0.2h-0.2l-1-3.8h0.1l1-0.2h0.5q0.9-0.2 1.7-0.4 0.9-0.2 1.8-0.4 0.9-0.2 1.7-0.3 0.9-0.2 1.8-0.3 1-0.2 2-0.3 0.9-0.2 1.9-0.3 1-0.1 2-0.2 1-0.1 2-0.1h4.8q4.6 0 9.2 0.7 4.6 0.6 9.1 1.9 4.4 1.3 8.7 3.3 4.2 1.9 8.1 4.4 4.5 2.9 8.5 6.4 4.1 3.5 7.6 7.5 3.6 4 6.5 8.4 3 4.4 5.4 9.2l1 2.3-2.4 0.5q-2.1 0.5-4.3 0.8-2.1 0.4-4.3 0.6-2.2 0.3-4.3 0.4-2.2 0.1-4.4 0.1z"/>
		<path id="Layer" class="s0" d="m198.8 262l-0.2-4c0.2 0 17-0.7 31.3-3.9h0.2l5.5-1.4h0.3q1.1-0.3 2.1-0.6 1.1-0.4 2.1-0.8 1.1-0.4 2.1-0.9 1-0.5 2-1-1.3-1.8-2.7-3.6-1.4-1.7-2.9-3.4-1.5-1.7-3.1-3.3-1.5-1.6-3.2-3.1l-0.4-0.4q-0.7-0.7-1.4-1.3-0.7-0.6-1.5-1.2-0.7-0.6-1.5-1.2-0.7-0.6-1.5-1.1c-18-13-35.8-12.4-53 1.8l-2.6-3.1c23.5-19.3 44.5-11.7 58-1.9 1.9 1.3 3.7 2.9 5.6 4.5l0.6 0.5q2 1.8 3.9 3.8 1.9 1.9 3.7 3.9 1.7 2.1 3.4 4.3 1.6 2.1 3.1 4.4l1.1 1.6-1.6 1.1q-1.3 0.8-2.7 1.5-1.4 0.8-2.9 1.4-1.4 0.6-2.9 1.1-1.5 0.5-3 0.9h-0.3c-1.7 0.5-3.6 1-5.7 1.4h-0.2c-14.6 3.3-31.6 4-31.7 4z"/>
		<path id="Layer" class="s0" d="m184.8 318.3q-0.3-4.3-0.6-8.4c-1.3-14-4.9-33.1-14.3-44.9l-0.3-0.4 3.1-2.5 0.3 0.4c10.1 12.6 13.8 32.5 15.2 47l0.6 8.6z"/>
		<path id="Layer" class="s0" d="m169.9 318.7c-19.7-13.4-32.9-32.5-35.3-36.2l-0.4-0.5 3.4-2.2 0.3 0.5c2.4 3.6 15.2 22.1 34.3 35.1z"/>
		<path id="Layer" class="s0" d="m82.3 304.3h-4c0.6-24 15.6-34.9 20.3-37.6l1.9-1.1 1.7 3.7q-0.2 0.1-0.4 0.2-0.2 0.1-0.4 0.2-0.2 0.1-0.4 0.2-0.2 0.1-0.4 0.2c-5.3 3.2-17.8 12.9-18.3 34.2z"/>
		<path id="Layer" class="s0" d="m228.5 320.4c-0.8-4-1.7-8-2.9-12l-0.2-0.8c-3.9-13-11.8-31.4-27.2-44.8l2.7-3c15.5 13.6 23.7 31.8 27.9 45.3l0.4 1.4q0.5 1.6 0.9 3.3 0.5 1.6 0.9 3.3 0.4 1.6 0.7 3.3 0.4 1.6 0.7 3.3z"/>
		<path id="Layer" class="s0" d="m198.1 320.6q-1.7-1.1-3.4-2.2-1.7-1.1-3.3-2.3-1.7-1.2-3.3-2.4-1.6-1.2-3.2-2.5l2.5-3.1q1.5 1.2 3.1 2.4 1.6 1.2 3.2 2.3 1.6 1.2 3.2 2.3 1.6 1.1 3.3 2.1z"/>
		<path id="Layer" class="s0" d="m266.4 319.1c-19.2 0-36.2-8.3-39.6-10h-0.3l-0.4-0.4-0.8-0.4v-1.2h2v-2h2v0.8c4.5 2.2 20.3 9.4 37.8 9.2l-0.8-2.7c-2.6-8.9-8.6-25.9-19.6-39.6l-0.4-0.5q-1.8-2.2-3.7-4.2-2-2-4.1-3.9-2.1-1.8-4.4-3.4-2.4-1.6-4.8-3l1-1.7v-2h0.5l0.5 0.2q2.5 1.4 4.8 3.1 2.4 1.6 4.6 3.4 2.2 1.9 4.2 3.9 2 2.1 3.8 4.3h0.1l0.6 0.7c11.7 14.4 18.1 32.3 20.8 41.6 0.9 3.3 1.4 5.2 1.4 5.3l0.5 2.3h-5.7z"/>
		<path id="Layer" class="s0" d="m268.1 274.4q-2.6 0-5.2-0.1-2.5-0.1-5.1-0.2-2.6-0.2-5.2-0.5-2.5-0.2-5.1-0.6l0.3-2v-2h0.3c0.3 0.1 25.9 4.2 48.6-2q-1-1.4-2.1-2.9-1.1-1.4-2.2-2.7-1.2-1.4-2.4-2.7-1.2-1.3-2.4-2.6c-11.5-11.8-30.1-24.9-54-20.1h-0.4v-2l-0.3-1.9c25.6-5.2 45.4 8.7 57.6 21.2q1.5 1.6 3 3.2 1.5 1.7 2.8 3.4 1.4 1.8 2.7 3.5 1.3 1.8 2.5 3.7l1.4 2.2-2.5 0.8c-10.8 3.4-22.6 4.3-32.3 4.3z"/>
		<path id="Layer" class="s0" d="m318.6 319.4c-2.8-11.4-10.4-32.6-29.2-47.4l2.5-3.1c19.7 15.5 27.6 37.7 30.6 49.5z"/>
		<path id="Layer" class="s0" d="m288.6 322c-13.4-3.8-21-8.2-21.4-8.4l2.1-3.4q2.4 1.3 4.9 2.4 2.5 1.1 5.1 2.1 2.5 1 5.1 1.9 2.7 0.9 5.3 1.6z"/>
		<path id="Layer" class="s0" d="m270.1 321.4l-2.1-3.2 3.3-2.3c0.7 1.1 1.5 2.2 2.2 3.4z"/>
		<path id="Layer" class="s0" d="m113.4 311.9c-1.4-2.2-13.5-21.4-15.8-43.3q0-0.2-0.1-0.3 0-0.2 0-0.4 0-0.2 0-0.3 0-0.2 0-0.4c-1-10.5 0.6-19.9 4.7-28l1.2-2.2q0.6-1.1 1.3-2.1 0.7-1.1 1.5-2.1 0.7-1 1.5-1.9 0.8-1 1.7-1.9 0.7-0.8 1.5-1.5 0.7-0.8 1.5-1.5 0.8-0.7 1.6-1.4 0.8-0.7 1.7-1.3h0.1l0.3-0.2 0.9-0.7 2.3 3.3-0.8 0.5h-0.2c0 0.1 0 0.1-0.1 0.1h-0.1q-0.8 0.6-1.5 1.2-0.8 0.7-1.5 1.3-0.7 0.7-1.4 1.4-0.7 0.7-1.4 1.4-0.8 0.8-1.5 1.7-0.7 0.9-1.4 1.8-0.7 0.9-1.3 1.9-0.6 0.9-1.2 1.9-0.2 0.2-0.3 0.5-0.1 0.2-0.3 0.5-0.1 0.2-0.2 0.5-0.2 0.2-0.3 0.5c-3.7 7.4-5.2 16.1-4.4 25.9 0.1 0.4 0.1 0.8 0.2 1.2 2.2 21.3 14.6 40.7 15.2 41.5z"/>
		<path id="Layer" class="s0" d="m116.6 312.4l-2.5-3.2c10.6-8.4 17.4-17.9 20.2-28.3 2.8-10.4 1.8-21.7-3.3-33.5q-0.5-1.3-1.1-2.5-0.6-1.3-1.2-2.5-0.6-1.2-1.3-2.4-0.7-1.2-1.4-2.4l-3.4-5.3h-0.1q-0.6-0.9-1.2-1.7-0.7-0.9-1.3-1.7-0.7-0.8-1.4-1.6-0.7-0.8-1.4-1.6l3-2.7q0.7 0.8 1.5 1.7 0.7 0.8 1.4 1.7 0.6 0.8 1.3 1.7 0.7 0.9 1.3 1.8h0.1c1.2 1.8 2.5 3.7 3.6 5.6q0.8 1.2 1.5 2.5 0.7 1.3 1.4 2.5 0.6 1.3 1.2 2.6 0.6 1.4 1.2 2.7c5.4 12.7 6.6 24.9 3.5 36.2-3.1 11.3-10.3 21.4-21.6 30.4z"/>
		<path id="Layer" class="s0" d="m259.8 322.4c-116.9 0-237.8-17.9-237.8-47.9h4c0 21.2 94 43.9 233.8 43.9 22.4 0 44.5-0.6 65.8-1.8l6.1-30.8q1.2-6.1 2-12.3 0.7-6.1 1-12.3 0.3-6.2 0.1-12.4-0.2-6.2-0.8-12.4l-0.6-5.1 4-0.5 0.6 5.2q0.6 6.3 0.8 12.7 0.2 6.3-0.1 12.7-0.3 6.3-1.1 12.7-0.8 6.3-2 12.5l-6.7 33.8h-1.5c-21.8 1.4-44.6 2-67.6 2z"/>
		<path id="Layer" class="s0" d="m329.6 109.9q-0.4 0-0.8-0.2-0.3-0.1-0.6-0.4-0.3-0.3-0.4-0.6-0.2-0.4-0.2-0.8 0-1.5 0.2-3 0.1-1.5 0.6-3 0.4-1.5 1-2.8 0.7-1.4 1.5-2.7c1.4-2.6 2.7-4.8 2.7-9.6 0-4.8-1.3-7-2.7-9.6q-1.6-2.6-2.5-5.5-0.8-3-0.8-6.1 0-3 0.8-6 0.9-2.9 2.5-5.5c1.4-2.6 2.7-4.8 2.7-9.6q0-1.3-0.1-2.5-0.2-1.3-0.5-2.5-0.4-1.2-0.9-2.4-0.5-1.1-1.2-2.2-0.8-1.3-1.5-2.7-0.6-1.3-1-2.8-0.5-1.5-0.6-3-0.2-1.5-0.2-3 0-1.5 0.2-3.1 0.1-1.5 0.6-3 0.4-1.4 1-2.8 0.7-1.4 1.5-2.7c1.4-2.6 2.7-4.8 2.7-9.6 0-0.5 0.2-1 0.6-1.4 0.4-0.4 0.9-0.6 1.4-0.6 0.5 0 1 0.2 1.4 0.6 0.4 0.4 0.6 0.9 0.6 1.4q0 1.5-0.1 3.1-0.2 1.5-0.7 3-0.4 1.4-1 2.8-0.7 1.4-1.5 2.7c-1.4 2.6-2.7 4.8-2.7 9.6q0 1.3 0.1 2.5 0.2 1.3 0.5 2.5 0.4 1.2 0.9 2.4 0.5 1.1 1.2 2.2 0.8 1.3 1.5 2.7 0.6 1.3 1 2.8 0.5 1.5 0.6 3 0.2 1.5 0.2 3 0 1.5-0.2 3.1-0.1 1.5-0.6 3-0.4 1.4-1 2.8-0.7 1.4-1.5 2.7c-1.4 2.6-2.7 4.8-2.7 9.6q0 1.3 0.1 2.5 0.2 1.2 0.5 2.5 0.4 1.2 0.9 2.3 0.5 1.1 1.2 2.2 1.6 2.6 2.5 5.6 0.8 2.9 0.8 6 0 3.1-0.8 6-0.9 3-2.5 5.6-0.7 1.1-1.2 2.2-0.5 1.1-0.9 2.3-0.3 1.3-0.5 2.5-0.1 1.2-0.1 2.5 0 0.4-0.2 0.8-0.1 0.3-0.4 0.6-0.3 0.3-0.6 0.4-0.4 0.2-0.8 0.2z"/>
		<path id="Layer" class="s0" d="m275.9 154.6q-0.4 0-0.8-0.2-0.3-0.1-0.6-0.4-0.3-0.3-0.4-0.6-0.2-0.4-0.2-0.8 0-1.5 0.2-3 0.2-1.6 0.6-3 0.4-1.5 1-2.9 0.6-1.4 1.4-2.7 0.7-1 1.3-2.2 0.5-1.1 0.9-2.3 0.3-1.2 0.5-2.5 0.1-1.2 0.1-2.5 0-1.3-0.1-2.5-0.2-1.3-0.5-2.5-0.4-1.2-0.9-2.4-0.6-1.1-1.3-2.2-0.8-1.3-1.4-2.7-0.6-1.4-1-2.9-0.4-1.4-0.6-3-0.2-1.5-0.2-3 0-1.5 0.2-3 0.2-1.5 0.6-3 0.4-1.4 1-2.8 0.6-1.4 1.4-2.7 0.7-1.1 1.2-2.2 0.6-1.2 0.9-2.4 0.4-1.2 0.6-2.5 0.1-1.2 0.1-2.5 0-1.3-0.1-2.5-0.2-1.3-0.5-2.5-0.4-1.2-0.9-2.4-0.6-1.1-1.3-2.2-1.6-2.6-2.4-5.6-0.8-2.9-0.8-6 0-3 0.8-5.9 0.8-3 2.4-5.6 0.7-1.1 1.3-2.2 0.5-1.2 0.9-2.4 0.3-1.2 0.5-2.5 0.1-1.2 0.1-2.5c0-0.5 0.2-1 0.6-1.4 0.4-0.4 0.9-0.6 1.4-0.6 0.5 0 1 0.2 1.4 0.6 0.4 0.4 0.6 0.9 0.6 1.4q0 1.5-0.2 3-0.2 1.6-0.6 3-0.4 1.5-1.1 2.9-0.6 1.4-1.4 2.7-0.7 1-1.2 2.2-0.6 1.1-0.9 2.3-0.3 1.2-0.5 2.5-0.1 1.2-0.1 2.5 0 1.3 0.1 2.5 0.2 1.3 0.5 2.5 0.3 1.2 0.9 2.4 0.5 1.1 1.2 2.2 0.8 1.3 1.4 2.7 0.7 1.4 1.1 2.9 0.4 1.4 0.6 3 0.2 1.5 0.2 3 0 1.5-0.2 3-0.2 1.5-0.6 3-0.4 1.5-1 2.8-0.7 1.4-1.5 2.7-0.7 1.1-1.2 2.2-0.5 1.2-0.9 2.4-0.3 1.2-0.5 2.5-0.1 1.2-0.1 2.5 0 1.3 0.1 2.5 0.2 1.3 0.5 2.5 0.3 1.2 0.9 2.4 0.5 1.1 1.2 2.2 1.6 2.6 2.5 5.5 0.8 3 0.8 6 0 3.1-0.8 6.1-0.9 2.9-2.5 5.5-0.7 1.1-1.2 2.2-0.6 1.2-0.9 2.4-0.3 1.2-0.5 2.5-0.1 1.2-0.1 2.5 0 0.4-0.2 0.8-0.1 0.3-0.4 0.6-0.3 0.3-0.6 0.4-0.4 0.2-0.8 0.2z"/>
		<path id="Layer" class="s0" d="m386.3 131.9q-0.4 0-0.8-0.2-0.3-0.1-0.6-0.4-0.3-0.3-0.4-0.6-0.2-0.4-0.2-0.8 0-1.5 0.2-3 0.2-1.5 0.6-3 0.4-1.5 1-2.8 0.7-1.4 1.5-2.7 0.7-1.1 1.2-2.2 0.5-1.2 0.9-2.4 0.3-1.2 0.5-2.5 0.1-1.2 0.1-2.5 0-1.3-0.1-2.5-0.2-1.3-0.5-2.5-0.3-1.2-0.9-2.4-0.5-1.1-1.2-2.2-0.8-1.3-1.4-2.7-0.7-1.4-1.1-2.9-0.4-1.4-0.6-3-0.2-1.5-0.2-3 0-1.5 0.2-3 0.2-1.5 0.6-3 0.4-1.5 1-2.8 0.7-1.4 1.5-2.7 1.3-2.2 2-4.6 0.7-2.5 0.7-5 0-2.5-0.7-5-0.7-2.4-2-4.6-1.6-2.6-2.5-5.5-0.8-3-0.8-6.1 0-3 0.8-6 0.9-2.9 2.5-5.5 0.7-1.1 1.2-2.2 0.6-1.2 0.9-2.4 0.3-1.2 0.5-2.5 0.1-1.2 0.1-2.5c0-0.5 0.2-1 0.6-1.4 0.4-0.4 0.9-0.6 1.4-0.6 0.5 0 1 0.2 1.4 0.6 0.4 0.4 0.6 0.9 0.6 1.4q0 1.5-0.2 3-0.2 1.6-0.6 3-0.4 1.5-1 2.9-0.6 1.4-1.4 2.7-1.4 2.1-2.1 4.6-0.7 2.4-0.7 4.9 0 2.6 0.7 5 0.7 2.5 2.1 4.6 1.6 2.6 2.4 5.6 0.8 2.9 0.8 6 0 3.1-0.8 6-0.8 3-2.4 5.6-0.7 1-1.3 2.2-0.5 1.1-0.9 2.3-0.3 1.2-0.5 2.5-0.1 1.2-0.1 2.5 0 1.3 0.1 2.5 0.2 1.3 0.5 2.5 0.4 1.2 0.9 2.4 0.6 1.1 1.3 2.2 0.8 1.3 1.4 2.7 0.6 1.4 1 2.9 0.4 1.4 0.6 3 0.2 1.5 0.2 3 0 1.5-0.2 3-0.2 1.5-0.6 3-0.4 1.4-1 2.8-0.6 1.4-1.4 2.7-0.7 1.1-1.2 2.2-0.6 1.2-0.9 2.4-0.4 1.2-0.6 2.5-0.1 1.2-0.1 2.5 0 0.4-0.2 0.8-0.1 0.3-0.4 0.6-0.3 0.3-0.6 0.4-0.4 0.2-0.8 0.2z"/>
	</g>
</svg>