<svg version="1.2" xmlns="http://www.w3.org/2000/svg" viewBox="0 0 302 277" width="302" height="277"><style>.a{fill:#20120f}</style><path class="a" d="m21.4 151.4h259.2c11.4 0 20.7 9.2 20.7 20.7v64.7c0 11.5-9.3 20.8-20.7 20.8h-259.2c-11.4 0-20.7-9.3-20.7-20.8v-64.7c0-11.5 9.3-20.7 20.7-20.7v2.1 2.2c-9 0-16.4 7.3-16.4 16.4v64.7c0 9.1 7.4 16.4 16.4 16.4h259.2c9 0 16.4-7.3 16.4-16.4v-64.7c0-9.1-7.4-16.4-16.4-16.4h-259.2v-2.2zm39 102.8c1.2 0 2.2 1 2.2 2.2v9c0 6.3-5.2 11.4-11.5 11.4h-7.4c-6.3 0-11.5-5.1-11.5-11.4v-9c0-1.2 1-2.2 2.2-2.2 1.2 0 2.2 1 2.2 2.2v9c0 3.9 3.2 7.1 7.1 7.1h7.4c3.9 0 7.1-3.2 7.1-7.1v-9c0-1.2 1-2.2 2.2-2.2zm206.9 0c1.2 0 2.1 1 2.1 2.2v9c0 6.3-5.1 11.4-11.4 11.4h-7.4c-6.3 0-11.5-5.1-11.5-11.4v-9c0-1.2 1-2.2 2.2-2.2 1.2 0 2.2 1 2.2 2.2v9c0 3.9 3.2 7.1 7.1 7.1h7.4c3.9 0 7.1-3.2 7.1-7.1v-9c0-1.2 1-2.2 2.2-2.2zm-216.5-99.7c-1.2 0-2.2-1-2.2-2.2v-21.6c0-11.5 9.3-20.8 20.8-20.8h45.4c11.5 0 20.7 9.3 20.7 20.8v21.6c0 1.2-0.9 2.2-2.1 2.2-1.2 0-2.2-1-2.2-2.2v-21.6c0-9.1-7.3-16.4-16.4-16.4h-45.4c-9.1 0-16.4 7.3-16.4 16.4v21.6c0 1.2-1 2.2-2.2 2.2zm-47.6 37.8c-1.2 0-2.2-1-2.2-2.2 0-1.2 1-2.1 2.2-2.1h294.4c1.2 0 2.2 0.9 2.2 2.1 0 1.2-1 2.2-2.2 2.2h-294.4m165.7-37.8c-1.2 0-2.1-1-2.1-2.2v-21.6c0-11.5 9.2-20.8 20.7-20.8h45.5c11.4 0 20.7 9.3 20.7 20.8v21.6c0 1.2-1 2.2-2.2 2.2-1.2 0-2.2-1-2.2-2.2v-21.6c0-9.1-7.3-16.4-16.3-16.4h-45.5c-9.1 0-16.4 7.3-16.4 16.4v21.6c0 1.2-1 2.2-2.2 2.2zm96.2-128.8c1.2 0 2.2 1 2.2 2.2 0 4.5 0 5.8 0 5.8 0 0.6-0.3 1.1-0.7 1.5-0.4 0.4-0.9 0.7-1.5 0.7-0.6 0-1.1-0.3-1.5-0.7-0.4-0.4-0.6-0.9-0.6-1.5 0 0 0-0.5 0-1 0-0.6 0-1.1 0-1.1 0-0.6 0.2-1.1 0.6-1.5 0.4-0.4 0.9-0.7 1.5-0.7 0.6 0 1.1 0.3 1.5 0.7 0.4 0.4 0.7 0.9 0.7 1.5 0 0 0 0.3 0 1-0.1 6.2-4.8 11.9-11 13.5h-0.1q-52.8 11.8-105.2 11.8-52.4 0-104.5-11.8c-6.1-1.6-10.8-7.3-10.9-13.5 0-3.2 0-4.3 0-4.3 0-0.5 0.3-1.1 0.7-1.5 0.4-0.4 0.9-0.6 1.5-0.6 0.6 0 1.1 0.2 1.5 0.6 0.4 0.4 0.7 1 0.7 1.5 0 0 0 3.8 0 3.8 0 0.6-0.3 1.1-0.7 1.5-0.4 0.4-0.9 0.7-1.5 0.7-0.6 0-1.1-0.3-1.5-0.7-0.4-0.4-0.7-0.9-0.7-1.5 0 0 0-1 0-4.2 0-1.2 1-2.2 2.2-2.2 1.2 0 2.2 1 2.2 2.2 0 3.2 0 4.2 0 4.2 0 0.6-0.3 1.1-0.7 1.5-0.4 0.4-0.9 0.7-1.5 0.7-0.6 0-1.1-0.3-1.5-0.7-0.4-0.4-0.7-0.9-0.7-1.5 0 0 0-0.9 0-1.9 0-0.9 0-1.9 0-1.9 0-0.5 0.3-1.1 0.7-1.5 0.4-0.4 0.9-0.6 1.5-0.6 0.6 0 1.1 0.2 1.5 0.6 0.4 0.4 0.7 1 0.7 1.5 0 0 0 1.1 0 4.3-0.1 3.8 3.5 8.4 7.5 9.3l-0.5 2.1 0.5-2.1q51.6 11.7 103.5 11.7 51.9 0 104.3-11.7l0.5 2.1-0.5-2.1c4.1-0.9 7.7-5.5 7.7-9.3q0-0.6 0-0.8 0-0.2 0-0.2c0-0.6 0.2-1.1 0.6-1.5 0.4-0.4 0.9-0.7 1.5-0.7 0.6 0 1.1 0.3 1.5 0.7 0.4 0.4 0.7 0.9 0.7 1.5 0 0 0 2.1 0 2.1 0 0.6-0.3 1.1-0.7 1.5-0.4 0.4-0.9 0.7-1.5 0.7-0.6 0-1.1-0.3-1.5-0.7-0.4-0.4-0.6-0.9-0.6-1.5 0 0 0-1.3 0-5.8 0-1.2 0.9-2.2 2.1-2.2zm-243.1 3.3c0-1.2 1-2.2 2.2-2.2 1.2 0 2.2 1 2.2 2.2v123.1c0 1.2-1 2.2-2.2 2.2-1.2 0-2.2-1-2.2-2.2v-123.1m254.2 0c0-1.2 1-2.2 2.2-2.2 1.2 0 2.2 1 2.2 2.2v123.1c0 1.2-1 2.2-2.2 2.2-1.2 0-2.2-1-2.2-2.2v-123.1m-246.3-28.7c8.5 0 15.3 6.9 15.3 15.3 0 8.5-6.8 15.4-15.3 15.4-8.4 0-15.3-6.9-15.3-15.4 0-8.4 6.9-15.3 15.3-15.3v2.2 2.1c-6 0-10.9 5-11 11 0.1 6.1 5 11 11 11 6.1 0 11-4.9 11-11 0-6-4.9-11-11-11v-2.1zm242.8 0c8.4 0 15.3 6.8 15.3 15.3 0 8.5-6.9 15.3-15.3 15.3-8.5 0-15.3-6.8-15.3-15.3 0-8.5 6.8-15.3 15.3-15.3v2.1 2.2c-6.1 0-11 4.9-11 11 0 6.1 4.9 11 11 11 6.1 0 11-4.9 11-11 0-6.1-4.9-11-11-11v-2.2z"/></svg>