<svg version="1.2" xmlns="http://www.w3.org/2000/svg" viewBox="0 0 830 500" width="830" height="500">
	<title>Велосипед-svg</title>
	<style>
		.s0 { fill: #000000 } 
	</style>
	<g id="Layer_2">
		<path id="Layer" class="s0" d="m250.9 473.9c-63.2 0-114.6-51.5-114.6-114.6 0-20.8 5.7-41.2 16.4-59.1 10.7-17.8 26.1-32.4 44.5-42.2 18.4-9.7 39.1-14.3 59.9-13.2 20.8 1.2 40.9 7.9 58.1 19.6l-2.3 3.3c-40.9-27.8-95.3-25-133.2 6.9-37.9 31.8-50 84.9-29.7 130 20.2 45.1 68 71.3 116.9 64.1 49-7.2 87.2-46.1 93.6-95.1l4 0.5c-1.8 13.7-6.1 26.9-12.6 39.1-6.4 12.1-15.1 23-25.4 32.1-10.4 9.1-22.3 16.3-35.2 21.2-12.9 4.9-26.6 7.4-40.4 7.4z"/>
		<path id="Layer" class="s0" d="m361.3 353.8c-0.3-6.9-1.3-13.7-2.9-20.4-1.6-6.7-3.8-13.2-6.6-19.5-2.9-6.2-6.3-12.2-10.2-17.9-3.9-5.6-8.4-10.9-13.3-15.7l2.8-2.9c5.1 5 9.7 10.4 13.8 16.3 4.1 5.8 7.6 12.1 10.5 18.6 2.9 6.5 5.2 13.2 6.9 20.2 1.6 6.9 2.7 14 3 21.1z"/>
		<path id="Layer" class="s0" d="m688.9 473.9c-63.2 0-114.6-51.5-114.6-114.6 0-10.8 1.5-21.5 4.5-31.9 3-10.3 7.4-20.2 13.2-29.3 5.7-9.1 12.7-17.4 20.8-24.5 8-7.2 17.1-13.2 26.8-17.8l1.7 3.6c-50.9 24.2-75.6 82.8-57.2 136.1 18.4 53.3 73.9 84.3 129 71.9 55-12.4 91.9-64.1 85.7-120.2-6.2-56-53.5-98.4-109.9-98.5q-3.7 0-7.3 0.2-3.7 0.3-7.3 0.8-3.7 0.4-7.3 1.1-3.6 0.8-7.1 1.7l-1.1-3.8q3.7-1 7.4-1.8 3.7-0.7 7.5-1.2 3.8-0.5 7.6-0.8 3.8-0.2 7.6-0.2c15 0 29.9 3 43.8 8.8 13.9 5.7 26.6 14.2 37.2 24.8 10.6 10.6 19.1 23.3 24.8 37.2 5.8 13.9 8.8 28.8 8.8 43.8 0 63.1-51.4 114.6-114.6 114.6z"/>
		<path id="Layer" class="s0" d="m386.2 343.1c-0.9-7.8-2.6-15.5-4.8-23.1-2.3-7.5-5.2-14.9-8.7-21.9-3.6-7.1-7.7-13.8-12.4-20.1-4.7-6.3-9.9-12.3-15.6-17.7l2.7-2.9c5.9 5.6 11.3 11.7 16.1 18.2 4.9 6.5 9.1 13.4 12.8 20.6 3.6 7.3 6.6 14.9 8.9 22.6 2.4 7.8 4 15.7 5 23.8z"/>
		<path id="Layer" class="s0" d="m250.9 499.6c-77.4 0-140.4-63-140.4-140.3 0-77.3 63-140.4 140.4-140.4 7.2 0 14.3 0.5 21.4 1.6 7.1 1.1 14.1 2.8 20.9 4.9 6.9 2.2 13.5 4.9 20 8.1 6.4 3.2 12.5 6.9 18.4 11l-2.4 3.2q-8.5-6-17.9-10.7-9.4-4.6-19.3-7.8-10-3.1-20.3-4.7-10.3-1.6-20.8-1.6c-75.2 0-136.4 61.2-136.4 136.4 0 75.2 61.2 136.3 136.4 136.3 15.1 0 30.2-2.5 44.5-7.4 14.3-4.9 27.7-12.2 39.6-21.5 11.9-9.3 22.2-20.6 30.4-33.3 8.2-12.7 14.2-26.7 17.8-41.4l3.9 0.9c-1.9 7.5-4.3 14.8-7.4 21.8-3.1 7.1-6.7 13.9-10.9 20.4-4.1 6.5-8.8 12.6-14 18.3-5.1 5.7-10.8 11-16.8 15.8-6.1 4.9-12.6 9.3-19.5 13.1-6.9 3.8-14 7-21.4 9.6-7.4 2.6-15.1 4.5-22.8 5.8-7.7 1.3-15.6 1.9-23.4 1.9z"/>
		<path id="Layer" class="s0" d="m688.9 499.6c-77.4 0-140.3-63-140.3-140.3 0-13.4 2-26.7 5.7-39.5 3.8-12.9 9.4-25.1 16.6-36.3 7.3-11.3 16-21.5 26.1-30.2 10.1-8.8 21.4-16.1 33.6-21.7q0.2-0.1 0.4-0.1 0.2-0.1 0.4-0.1 0.2 0 0.4 0.1 0.2 0 0.4 0.1 0.2 0.1 0.4 0.2 0.1 0.1 0.3 0.2 0.1 0.2 0.2 0.3 0.1 0.2 0.2 0.4l41.7 112.3-3.8 1.4-40.9-110.3c-11.6 5.5-22.3 12.7-31.9 21.2-9.5 8.5-17.9 18.4-24.7 29.2-6.8 10.9-12.1 22.6-15.7 34.9-3.6 12.3-5.4 25.1-5.4 37.9 0 75.1 61.2 136.3 136.3 136.3 75.1 0 136.3-61.2 136.3-136.3 0-75.1-61.1-136.4-136.3-136.4q-4.5 0-9.1 0.3-4.5 0.3-9 0.9-4.5 0.6-9 1.5-4.4 0.9-8.8 2.1l41.2 111.1-3.7 1.4-42-113.1q-0.1-0.2-0.1-0.4 0-0.2 0-0.4 0-0.2 0.1-0.4 0-0.2 0.1-0.4 0.1-0.2 0.2-0.3 0.1-0.2 0.3-0.3 0.1-0.2 0.3-0.3 0.2 0 0.4-0.1 4.8-1.4 9.6-2.4 4.8-1.1 9.8-1.8 4.9-0.7 9.8-1 4.9-0.4 9.9-0.4c77.4 0 140.3 63 140.3 140.4 0 77.4-62.9 140.3-140.3 140.3z"/>
		<path id="Layer" class="s0" d="m379.2 376.5l-23.5-0.9-88.6-2.7 0.2-4 88.5 2.7 23.6 0.9-0.2 4z"/>
		<path id="Layer" class="s0" d="m381.8 356.4l-25.3-1-87.2-3 0.1-3.9 87.2 2.9 25.3 1-0.1 4z"/>
		<path id="Layer" class="s0" d="m449.9 333.9l-2.8-2.8 143.4-145.7h-201.3l35.2 139.2-3.9 1-35.8-141.7q-0.1-0.2-0.1-0.4 0-0.3 0-0.5 0.1-0.2 0.2-0.4 0.1-0.2 0.2-0.4 0.1-0.2 0.3-0.3 0.2-0.2 0.4-0.3 0.2-0.1 0.4-0.1 0.3-0.1 0.5-0.1h208.7q0.3 0 0.6 0.1 0.3 0.1 0.5 0.3 0.3 0.1 0.4 0.4 0.2 0.2 0.3 0.5 0.1 0.3 0.2 0.6 0 0.3-0.1 0.6 0 0.3-0.2 0.5-0.1 0.3-0.3 0.5z"/>
		<path id="Layer" class="s0" d="m423.9 416.7c-4.1 0-8.1-0.5-12.1-1.6-3.9-1.1-7.7-2.6-11.3-4.7-3.5-2-6.7-4.5-9.6-7.4-2.9-2.8-5.4-6.1-7.5-9.6q-1.3-2.1-2.3-4.4-1-2.3-1.8-4.6-0.7-2.4-1.3-4.8-0.5-2.4-0.7-4.9-0.1-0.6-0.1-1.2-0.1-0.6-0.1-1.2 0-0.6 0-1.2 0-0.6 0-1.2 0-2.1 0.2-4.1 0.1-2.1 0.5-4.1 0.4-2.1 0.9-4.1 0.6-2 1.3-3.9 1.5-4 3.7-7.7 2.1-3.7 5-6.9 2.8-3.3 6.1-5.9 3.4-2.7 7.2-4.7 2.4-1.2 4.8-2.2 2.5-1 5.1-1.7 2.6-0.7 5.2-1 2.6-0.4 5.3-0.5h1.5c10.2 0 20.2 3.3 28.4 9.6 8.1 6.2 14 14.9 16.8 24.8 2.7 9.8 2.1 20.3-1.7 29.8-3.9 9.6-10.7 17.6-19.5 22.8l-2.1-3.4c6.2-3.7 11.4-8.9 15-15.2 3.7-6.3 5.7-13.4 5.9-20.6 0.1-7.3-1.6-14.4-4.9-20.8-3.4-6.5-8.3-11.9-14.4-15.9q-2.6-1.7-5.4-3.1-2.8-1.3-5.8-2.2-3-0.9-6.1-1.4-3.1-0.4-6.2-0.4h-1.4q-2.4 0.1-4.8 0.4-2.4 0.4-4.8 1-2.3 0.7-4.6 1.5-2.3 0.9-4.4 2.1-3.5 1.8-6.6 4.2-3 2.5-5.6 5.4-2.6 3-4.6 6.3-2 3.4-3.4 7.1-0.6 1.8-1.1 3.6-0.5 1.8-0.8 3.7-0.4 1.8-0.5 3.7-0.2 1.9-0.2 3.8 0 0.6 0 1.1 0 0.6 0 1.1 0 0.6 0.1 1.1 0 0.6 0.1 1.1 0.2 2.3 0.7 4.5 0.5 2.2 1.2 4.4 0.7 2.1 1.6 4.2 0.9 2 2.1 4c1.9 3.2 4.2 6.2 6.8 8.8 2.6 2.7 5.6 4.9 8.8 6.8 3.3 1.9 6.7 3.3 10.3 4.3 3.7 0.9 7.4 1.4 11.1 1.4h3.5l0.4 4z"/>
		<path id="Layer" class="s0" d="m433.8 439.2l-8.1-24q-0.1-0.4-0.1-0.9 0.1-0.4 0.3-0.8 0.3-0.4 0.7-0.6 0.4-0.3 0.8-0.3 2.4-0.2 4.8-0.7 2.4-0.4 4.7-1.2 2.4-0.7 4.6-1.7 2.2-1 4.3-2.3 0.2-0.1 0.4-0.2 0.2-0.1 0.4-0.1 0.2 0 0.5 0 0.2 0 0.4 0.1 0.2 0.1 0.4 0.2 0.2 0.1 0.4 0.3 0.1 0.1 0.3 0.3 0.1 0.2 0.2 0.4l10.1 30.2-3.8 1.3-9.4-27.9q-1.8 1-3.7 1.8-1.8 0.8-3.8 1.4-1.9 0.6-3.9 1.1-2 0.4-4 0.7l7.3 21.6z"/>
		<path id="Layer" fill-rule="evenodd" class="s0" d="m473.2 460.7h-42.3q-1.2 0-2.2-0.4-1.1-0.5-1.9-1.3-0.8-0.8-1.3-1.9-0.4-1-0.4-2.2v-12.6q0-1.2 0.4-2.2 0.5-1.1 1.3-1.9 0.8-0.8 1.9-1.3 1-0.4 2.2-0.4h42.3q1.2 0 2.2 0.4 1.1 0.5 1.9 1.3 0.8 0.8 1.3 1.9 0.4 1 0.4 2.2v12.6q0 1.2-0.4 2.2-0.5 1.1-1.3 1.9-0.8 0.8-1.9 1.3-1 0.4-2.2 0.4zm-42.3-20.2q-0.4 0-0.7 0.1-0.3 0.2-0.6 0.4-0.2 0.3-0.4 0.6-0.1 0.3-0.1 0.7v12.6q0 0.4 0.1 0.7 0.2 0.3 0.4 0.6 0.3 0.2 0.6 0.4 0.3 0.1 0.7 0.1h42.3q0.4 0 0.7-0.1 0.3-0.2 0.6-0.4 0.2-0.3 0.4-0.6 0.1-0.3 0.1-0.7v-12.6q0-0.4-0.1-0.7-0.2-0.3-0.4-0.6-0.3-0.2-0.6-0.4-0.3-0.1-0.7-0.1z"/>
		<path id="Layer" fill-rule="evenodd" class="s0" d="m329.3 119.3c-7.9 0-14-1-17.5-3.2-10.5-6.5-16.2-13.3-17-20.4-0.8-7.1 1.9-11.4 7.6-16.9q1.1-1.1 2.3-1.9 1.3-0.8 2.7-1.4 1.4-0.6 2.9-0.8 1.5-0.3 3-0.3h84.4c1.7 0 3.4 0.3 5.1 0.8 1.6 0.5 3.1 1.4 4.5 2.4 1.4 1 2.5 2.3 3.5 3.7 0.9 1.5 1.7 3 2.1 4.7 1.4 6-0.2 14.3-15.8 19.6-25.6 8.8-50.9 13.7-67.8 13.7zm-16-40.9q-1.1 0-2.2 0.2-1.1 0.2-2.2 0.6-1 0.4-1.9 1-1 0.6-1.8 1.4c-4.7 4.7-6.9 9.3-6.4 13.7 0.5 4.4 5.7 11.6 15.1 17.4 9.4 5.8 41.9 2.9 81.9-10.8 10.3-3.6 14.7-8.6 13.2-14.9q-0.5-1.9-1.6-3.5-1-1.6-2.6-2.8-1.5-1.1-3.3-1.7-1.9-0.6-3.8-0.6z"/>
		<path id="Layer" class="s0" d="m541.7 54.5q-0.1 0-0.2 0-0.2 0-0.3-0.1-0.1 0-0.2-0.1-0.1 0-0.2-0.1-0.2-0.1-0.4-0.2-0.1-0.1-0.2-0.3-0.2-0.1-0.3-0.3-0.1-0.2-0.1-0.4l-5.7-19.4q-0.1-0.4 0-0.7 0-0.4 0.2-0.8 0.2-0.3 0.4-0.5 0.3-0.3 0.7-0.4l40.6-12.3 1.2 3.8-38.7 11.7 4.6 15.6 39.2-11.9 1.2 3.8-41.2 12.5z"/>
		<path id="Layer" class="s0" d="m463.9 348.5l-2.9-2.8 153.4-155.7q0.2-0.2 0.4-0.3 0.2-0.1 0.4-0.2 0.3-0.1 0.5-0.1 0.3 0 0.5 0 0.3 0 0.5 0.1 0.2 0.2 0.4 0.3 0.2 0.2 0.4 0.4 0.1 0.2 0.2 0.5l56.6 152.6-3.7 1.3-55.6-149.6z"/>
		<path id="Layer" class="s0" d="m689.5 337.6l-74.4-200.5q-0.9-2.3-1.5-4.8-0.7-2.4-1.1-4.8-0.5-2.5-0.7-5-0.2-2.5-0.2-5v-31.3q0-1.4 0.3-2.7 0.4-1.4 1-2.6 0.7-1.2 1.6-2.2 1-1 2.1-1.8l7.2-4.7q3.3-2.1 5.9-4.9 2.6-2.9 4.5-6.3 1.8-3.4 2.8-7.2 0.9-3.7 0.9-7.6c0-4.1-0.8-8.1-2.3-11.9-1.6-3.8-3.9-7.2-6.7-10.1-2.9-2.9-6.3-5.2-10.1-6.7-3.8-1.6-7.8-2.4-11.9-2.4q-1.1 0-2.1 0.1-1.1 0.1-2.1 0.2-1.1 0.2-2.1 0.4-1.1 0.2-2.1 0.5l-1.9 0.6-1.2-3.9 1.9-0.6c8.1-2.3 16.7-1.6 24.3 1.9 7.7 3.6 13.8 9.7 17.2 17.4 3.5 7.6 4.1 16.2 1.8 24.3-2.4 8.1-7.6 15-14.6 19.6l-7.2 4.7q-0.7 0.5-1.3 1.1-0.6 0.7-1.1 1.4-0.4 0.8-0.6 1.7-0.2 0.8-0.2 1.7v31.3q0 2.3 0.2 4.6 0.2 2.4 0.6 4.6 0.4 2.3 1.1 4.6 0.6 2.2 1.4 4.4l74.4 200.5z"/>
		<path id="Layer" class="s0" d="m271.9 352.6l-3.1-2.5 105.3-128.7q0.2-0.2 0.4-0.4 0.2-0.1 0.5-0.2 0.3-0.1 0.5-0.1 0.3 0 0.6 0 0.3 0.1 0.5 0.2 0.3 0.1 0.5 0.3 0.2 0.2 0.3 0.5 0.1 0.2 0.2 0.5l27.3 107.6-3.9 1-26.3-103.8z"/>
		<path id="Layer" class="s0" d="m255.6 340.7l-3.1-2.5 114.8-140.4-20.4-80.8q0-0.2-0.1-0.4 0-0.2 0.1-0.4 0-0.2 0-0.3 0.1-0.2 0.2-0.4 0.1-0.2 0.2-0.3 0.1-0.2 0.3-0.3 0.2-0.1 0.3-0.2 0.2-0.1 0.4-0.1l9.7-2.5h0.1l9.8-2.5q0.2 0 0.4 0 0.2 0 0.4 0 0.2 0 0.4 0.1 0.2 0.1 0.4 0.2 0.2 0.1 0.3 0.2 0.1 0.2 0.3 0.3 0.1 0.2 0.2 0.3 0 0.2 0.1 0.4v0.3l12.6 49.8h219.5l-6.3-17.1q-1.2-3.2-2.1-6.5-0.9-3.2-1.5-6.6-0.6-3.3-0.9-6.7-0.3-3.4-0.3-6.8v-31.3q0-3.9 1-7.7 0.9-3.8 2.8-7.2 1.8-3.4 4.5-6.3 2.6-2.9 5.9-5l7.2-4.7c2-1.3 3.4-3.2 4.2-5.4 0.8-2.2 0.9-4.5 0.3-6.8-0.7-2.2-2.1-4.2-3.9-5.6-1.9-1.4-4.2-2.2-6.5-2.2q-0.4 0-0.7 0-0.4 0-0.8 0.1-0.3 0-0.7 0.1-0.3 0.1-0.7 0.2l-1.2 0.4-1.1-3.9 1.2-0.3q0.5-0.1 1-0.3 0.5-0.1 1-0.1 0.5-0.1 1-0.2 0.5 0 1 0c3.2 0 6.3 1.1 8.8 3 2.6 1.9 4.4 4.6 5.3 7.7 0.9 3 0.8 6.3-0.3 9.3-1 3-3 5.5-5.7 7.3l-7.2 4.7q-2.9 1.9-5.2 4.4-2.3 2.5-3.9 5.5-1.6 3-2.5 6.3-0.8 3.3-0.8 6.7v31.3q0 3.2 0.3 6.4 0.3 3.2 0.8 6.4 0.6 3.2 1.4 6.3 0.9 3.1 2 6.1l7.4 19.8q0.1 0.2 0.1 0.5 0 0.2 0 0.5-0.1 0.2-0.2 0.5-0.1 0.2-0.2 0.4-0.1 0.2-0.3 0.4-0.2 0.1-0.4 0.2-0.2 0.1-0.4 0.2-0.3 0-0.5 0h-223.9q-0.3 0-0.7-0.1-0.3-0.1-0.5-0.3-0.3-0.2-0.5-0.5-0.2-0.3-0.3-0.6l-12.5-49.7-7.8 2h-0.1l-7.8 2 20.2 79.8q0 0.2 0 0.5 0 0.2 0 0.4-0.1 0.3-0.2 0.5-0.1 0.2-0.2 0.4z"/>
		<path id="Layer" fill-rule="evenodd" class="s0" d="m250.9 381.3c-9 0-17.1-5.3-20.5-13.6-3.4-8.3-1.6-17.8 4.8-24.1 6.3-6.4 15.8-8.2 24.1-4.8 8.3 3.4 13.6 11.5 13.6 20.5 0 2.9-0.6 5.7-1.7 8.4-1.1 2.7-2.7 5.1-4.8 7.1-2 2.1-4.4 3.7-7.1 4.8-2.7 1.1-5.5 1.7-8.4 1.7zm0-40.1c-7.3 0-14 4.3-16.8 11.1-2.8 6.8-1.3 14.6 3.9 19.8 5.1 5.2 12.9 6.7 19.7 3.9 6.8-2.8 11.2-9.4 11.2-16.7 0-2.4-0.5-4.7-1.4-6.9-0.9-2.2-2.2-4.2-3.9-5.9-1.6-1.6-3.6-3-5.8-3.9-2.2-0.9-4.5-1.4-6.9-1.4z"/>
		<path id="Layer" fill-rule="evenodd" class="s0" d="m688.9 381.3c-5.1 0-10.1-1.8-14-5.1-3.9-3.3-6.6-7.8-7.6-12.9-0.9-5-0.1-10.2 2.4-14.7 2.4-4.5 6.4-8 11.1-9.9h0.2l0.7-0.3h0.1q0.9-0.3 1.7-0.5 0.9-0.2 1.8-0.4 0.9-0.1 1.8-0.2 0.9-0.1 1.8-0.1c6.1-0.4 12.1 1.7 16.6 5.9 4.4 4.2 7 10 7 16.1 0 6.2-2.6 12-7 16.2-4.5 4.2-10.5 6.3-16.6 5.9zm-6.7-38.8c-8.7 3.5-13.3 13-10.6 21.9 2.6 9 11.6 14.4 20.8 12.7 9.1-1.8 15.5-10.3 14.6-19.5-1-9.3-8.8-16.4-18.1-16.4q-0.7 0-1.4 0.1-0.8 0-1.5 0.1-0.7 0.1-1.4 0.3-0.7 0.2-1.4 0.4h-0.1l-0.9 0.3z"/>
		<path id="Layer" fill-rule="evenodd" class="s0" d="m590.1 55.1q-1 0-1.9-0.3-0.9-0.3-1.6-0.9-0.8-0.5-1.4-1.3-0.5-0.8-0.8-1.7l-12.7-38.8q-0.4-1.1-0.3-2.3 0.1-1.2 0.7-2.3 0.5-1.1 1.4-1.9 1-0.7 2.1-1.1l11.5-3.8q0.6-0.2 1.2-0.3 0.5 0 1.1 0 0.6 0.1 1.2 0.2 0.6 0.2 1.1 0.5 0.5 0.3 1 0.6 0.5 0.4 0.8 0.9 0.4 0.4 0.7 0.9 0.3 0.5 0.5 1.1l12.7 38.8q0.4 1.2 0.3 2.4-0.1 1.2-0.7 2.2-0.5 1.1-1.4 1.9-1 0.8-2.1 1.2l-11.5 3.7q-0.2 0.1-0.5 0.1-0.2 0.1-0.4 0.1-0.3 0.1-0.5 0.1-0.3 0-0.5 0zm-1.2-50.7h-0.6l-11.5 3.8q-0.4 0.1-0.7 0.4-0.3 0.3-0.5 0.6-0.2 0.4-0.2 0.8 0 0.4 0.1 0.8l12.7 38.8q0.1 0.4 0.4 0.7 0.3 0.3 0.6 0.5 0.4 0.2 0.8 0.2 0.4 0 0.8-0.1l11.5-3.7q0.4-0.2 0.7-0.5 0.3-0.2 0.5-0.6 0.1-0.4 0.2-0.8 0-0.4-0.1-0.8l-12.7-38.8q-0.1-0.2-0.2-0.3-0.1-0.2-0.2-0.4-0.1-0.1-0.3-0.2-0.1-0.1-0.3-0.2-0.1-0.1-0.2-0.1-0.2-0.1-0.3-0.1-0.1 0-0.2 0-0.2 0-0.3 0z"/>
		<path id="Layer" fill-rule="evenodd" class="s0" d="m423.9 396.7c-10.8 0-20.7-6.5-24.8-16.5-4.2-10-1.9-21.5 5.7-29.2 7.7-7.7 19.2-10 29.2-5.9 10.1 4.2 16.6 14 16.6 24.8 0 3.5-0.7 7-2 10.2-1.4 3.3-3.3 6.2-5.8 8.7-2.5 2.5-5.4 4.5-8.7 5.8-3.2 1.4-6.7 2.1-10.2 2.1zm0-49.5c-9.2 0-17.6 5.5-21.1 14-3.6 8.6-1.7 18.4 4.9 24.9 6.5 6.6 16.3 8.5 24.9 4.9 8.5-3.5 14-11.9 14-21.1 0-3-0.6-5.9-1.8-8.7-1.1-2.7-2.8-5.2-4.9-7.3-2.1-2.1-4.6-3.8-7.3-4.9-2.8-1.2-5.7-1.8-8.7-1.8z"/>
		<path id="Layer" class="s0" d="m142 489.4h-97.2c-0.5 0-1-0.2-1.4-0.6-0.4-0.4-0.6-0.9-0.6-1.4 0-0.5 0.2-1 0.6-1.4 0.4-0.4 0.9-0.6 1.4-0.6h97.2c0.5 0 1 0.2 1.4 0.6 0.4 0.4 0.6 0.9 0.6 1.4 0 0.5-0.2 1-0.6 1.4-0.4 0.4-0.9 0.6-1.4 0.6z"/>
		<path id="Layer" class="s0" d="m585.6 489.4h-62.6c-0.5 0-1-0.2-1.4-0.6-0.4-0.4-0.6-0.9-0.6-1.4 0-0.5 0.2-1 0.6-1.4 0.4-0.4 0.9-0.6 1.4-0.6h62.6c0.5 0 1 0.2 1.4 0.6 0.4 0.4 0.6 0.9 0.6 1.4 0 0.5-0.2 1-0.6 1.4-0.4 0.4-0.9 0.6-1.4 0.6z"/>
		<path id="Layer" class="s0" d="m70.1 452.3h-67.3c-0.5 0-1-0.2-1.4-0.6-0.4-0.4-0.6-0.9-0.6-1.4 0-0.5 0.2-1 0.6-1.4 0.4-0.4 0.9-0.6 1.4-0.6h67.3c0.5 0 1 0.2 1.4 0.6 0.4 0.4 0.6 0.9 0.6 1.4 0 0.5-0.2 1-0.6 1.4-0.4 0.4-0.9 0.6-1.4 0.6z"/>
	</g>
</svg>