<svg version="1.2" xmlns="http://www.w3.org/2000/svg" viewBox="0 0 832 338" width="832" height="338">
	<title>boatTrip-ic-svg</title>
	<style>
		.s0 { fill: #000000 } 
	</style>
	<g id="Layer_2">
		<path id="Layer" class="s0" d="m597.2 274.9c-30.8 0-46.5-5.9-61.6-11.7-15.1-5.8-30.2-11.4-60.3-11.4-30.1 0-44.7 5.6-60.2 11.4-15.5 5.8-30.8 11.7-61.6 11.7-30.8 0-46.5-5.9-61.7-11.7-15.2-5.8-30.1-11.4-60.2-11.4-30.1 0-44.7 5.6-60.2 11.4-15.5 5.8-30.9 11.7-61.7 11.7-30.8 0-46.5-5.9-61.6-11.7q-2.6-1-5.2-2-2.6-0.9-5.3-1.8-2.6-0.9-5.3-1.7-2.7-0.8-5.4-1.5-0.4-0.1-0.7-0.4-0.3-0.2-0.5-0.6-0.2-0.3-0.3-0.7 0-0.4 0.1-0.8 0.1-0.4 0.3-0.7 0.3-0.3 0.6-0.5 0.3-0.2 0.7-0.3 0.4 0 0.8 0.1 2.7 0.7 5.5 1.6 2.7 0.8 5.4 1.7 2.7 0.9 5.4 1.9 2.7 0.9 5.3 2c15.5 5.8 30.1 11.4 60.2 11.4 30.1 0 44.8-5.6 60.2-11.4 15.4-5.8 30.9-11.7 61.7-11.7 30.8 0 46.5 5.9 61.6 11.7 15.1 5.8 30.2 11.4 60.3 11.4 30.1 0 44.7-5.6 60.2-11.4 15.5-5.8 30.8-11.7 61.6-11.7 30.8 0 46.5 5.9 61.7 11.7 15.2 5.8 30.1 11.4 60.2 11.4 30.1 0 44.7-5.6 60.2-11.4 15.5-5.8 30.8-11.7 61.7-11.7 0.5 0 1 0.2 1.4 0.6 0.4 0.4 0.6 0.9 0.6 1.4 0 0.5-0.2 1-0.6 1.4-0.4 0.4-0.9 0.6-1.4 0.6-30.1 0-44.8 5.6-60.3 11.4-15.5 5.8-30.8 11.7-61.6 11.7z"/>
		<path id="Layer" class="s0" d="m562.6 338.1h-0.2c-30.8 0-46.5-6-61.6-11.7-15.1-5.7-30.2-11.5-60.3-11.5h-0.1c-30 0-44.6 5.5-60.1 11.4-15.5 5.9-30.8 11.6-61.5 11.6h-0.1c-30.9 0-46.5-5.9-61.7-11.7-15.2-5.8-30.1-11.4-60.2-11.4h-0.2c-30 0-44.6 5.5-60 11.3-15.4 5.8-30.8 11.7-61.5 11.7h-0.2c-25.5-0.1-40.6-4.2-53.1-8.6l-8.5-3.2c-3.7-1.4-7.5-2.8-11.5-4.1q-0.4-0.1-0.7-0.4-0.3-0.3-0.4-0.6-0.2-0.4-0.2-0.8 0-0.4 0.1-0.8 0.1-0.4 0.4-0.7 0.2-0.3 0.6-0.4 0.3-0.2 0.7-0.2 0.4 0 0.8 0.1c4 1.3 7.9 2.8 11.6 4.2l8.4 3.1c12.2 4.3 26.9 8.3 51.8 8.4h0.2c30 0 44.6-5.6 60.1-11.4 15.5-5.8 30.7-11.6 61.4-11.6h0.2c30.8 0 46.5 5.9 61.6 11.7 15.1 5.8 30.2 11.4 60.3 11.4h0.1c30 0 44.6-5.5 60.1-11.4 15.5-5.9 30.8-11.6 61.5-11.6h0.1c30.9 0 46.5 6 61.7 11.7 15.2 5.7 30.1 11.5 60.2 11.5h0.2c30 0 44.6-5.5 60-11.4 15.4-5.9 30.8-11.6 61.5-11.6h0.2c0.5 0 1 0.2 1.4 0.6 0.4 0.4 0.6 0.9 0.6 1.4 0 0.5-0.2 1-0.6 1.4-0.4 0.4-0.9 0.6-1.4 0.6h-0.2c-30 0-44.6 5.5-60 11.4-15.4 5.9-30.8 11.6-61.5 11.6z"/>
		<path id="Layer" class="s0" d="m320.3 128.3l-2.7-3c0.7-0.6 17.3-15.2 48.7-30.9 28.9-14.4 76.2-32.2 137.4-35.6h0.5l0.5 0.2c0.5 0.2 49.1 22.4 70 35l-2.1 3.4c-19.6-11.8-64.2-32.3-69.1-34.5-115.6 6.4-182.5 64.8-183.2 65.4z"/>
		<path id="Layer" class="s0" d="m524.6 101.9c-27.7-19.2-70-33-70.5-33.2l1.3-3.8c0.4 0.2 43.3 14.1 71.5 33.8z"/>
		<path id="Layer" class="s0" d="m92 251.8l-0.3-4c0.8 0 85.5-6.3 197.4-18.6l29.6-3.4c28.3-3.2 56-6.6 82.3-10l29.8-3.9c27-3.7 53.4-7.5 78.2-11.4l30-4.8c116.6-19.1 203.9-39.8 259.5-61.5l1.4 3.7c-55.8 21.8-143.4 42.6-260.2 61.8l-30.1 4.8c-24.9 3.8-51.2 7.6-78.2 11.3l-29.9 4c-26.3 3.4-54 6.8-82.3 10l-29.7 3.3c-111.9 12.3-196.7 18.6-197.5 18.7z"/>
		<path id="Layer" class="s0" d="m102.7 223.6l-0.3-4 25.7-2q1.9-0.2 3.7-0.6 1.8-0.5 3.5-1.3 1.7-0.7 3.3-1.7 1.6-1 3-2.3l9.3-8.2q2.9-2.6 6.1-4.9 3.2-2.3 6.6-4.2 3.5-1.9 7.1-3.4 3.6-1.4 7.4-2.5c22.4-6.4 68.7-17.5 131.2-29.2l30.3-5.5c27.7-4.9 55.7-9.4 83.4-13.5l29.9-4.2c25.8-3.5 52-6.8 77.8-9.6 9.4-1.1 19.4-2.1 29.6-3.1 89.7-9 175.9-13.3 256.3-12.8v4c-80.1-0.5-166.2 3.8-255.8 12.8-10.2 1-20.2 2-29.6 3.1-25.7 2.8-51.9 6-77.6 9.6l-29.9 4.2c-27.7 4.1-55.7 8.6-83.3 13.4l-30.2 5.6c-62.4 11.7-108.5 22.6-130.9 29q-3.6 1-7 2.4-3.4 1.4-6.7 3.2-3.2 1.8-6.2 4-3 2.1-5.8 4.6l-9.2 8.2q-1.6 1.5-3.5 2.7-1.9 1.1-3.9 2-2 0.9-4.2 1.4-2.1 0.5-4.3 0.7z"/>
		<path id="Layer" class="s0" d="m101.9 273.7l-11.3-21.8-29.9 2.7q-1.1 0.1-2.1-0.1-1-0.3-1.9-0.8-0.9-0.6-1.6-1.4-0.7-0.8-1.1-1.8l-3.3-8.4q-0.2-0.6-0.3-1.2-0.2-0.6-0.2-1.2 0-0.6 0.2-1.2 0.1-0.6 0.3-1.2l3.8-10q0.3-0.9 0.9-1.6 0.5-0.8 1.3-1.3 0.7-0.6 1.6-0.9 0.9-0.3 1.8-0.4l41.5-3.4 63.8-69.9h0.6c0.7-0.1 64.4-11.8 152.9-25 74.1-11.1 143.7-20 206.6-26.5h0.1l47.8-4.5h0.1c114-10 199.8-10.5 255.1-1.7l2.7 0.5-1.3 2.4c-0.2 0.4-20.2 38-62.5 78.5q-9.2 8.8-18.9 17-9.7 8.1-20 15.6-10.3 7.5-21 14.3-10.7 6.8-21.9 12.8-13.9 7.4-28.3 13.6-14.5 6.3-29.4 11.2-14.9 4.9-30.2 8.6-15.3 3.6-30.9 5.9l-0.6-4c94-14 159.8-60.9 198.3-97.8 35.7-34.1 55.4-66.1 60.5-75.1-55-8.3-139.5-7.6-251.3 2.2h-0.1l-47.8 4.5h-0.1c-62.8 6.5-132.3 15.4-206.4 26.4-83.5 12.5-145 23.7-152 24.9l-63.9 70.1-43 3.5q-0.4 0-0.7 0.1-0.4 0.1-0.6 0.4-0.3 0.2-0.6 0.5-0.2 0.3-0.3 0.6l-3.9 10.1q-0.1 0.2-0.1 0.4 0 0.3 0 0.5 0 0.2 0 0.5 0 0.2 0.1 0.4l3.3 8.4q0.2 0.4 0.4 0.7 0.3 0.3 0.7 0.6 0.3 0.2 0.8 0.3 0.4 0 0.8 0l32.6-2.9 12.5 24.2z"/>
		<path id="Layer" class="s0" d="m129.8 194.5l-3.7-1.4 9.6-25.9q1-2.8 2.7-5.2 1.7-2.4 3.9-4.3 2.2-1.9 4.9-3.2 2.6-1.3 5.5-1.9l13.3-2.9 0.8 3.9-13.2 2.9q-2.4 0.5-4.6 1.6-2.2 1-4 2.6-1.9 1.6-3.3 3.6-1.3 2-2.2 4.3z"/>
		<path id="Layer" class="s0" d="m291.2 229.9l24.5-70.3 3.8 1.3-24.5 70.3z"/>
		<path id="Layer" class="s0" d="m321.3 225.8l25.6-72.6 3.8 1.3-25.6 72.6z"/>
		<path id="Layer" class="s0" d="m388.6 218l26.7-75.7 3.7 1.4-26.6 75.6z"/>
		<path id="Layer" class="s0" d="m418.9 214.9l27.3-77.4 3.7 1.3-27.2 77.5z"/>
		<path id="Layer" class="s0" d="m799.2 43.6h-106.3c-0.5 0-1-0.2-1.4-0.6-0.4-0.4-0.6-0.9-0.6-1.4 0-0.5 0.2-1 0.6-1.4 0.4-0.4 0.9-0.6 1.4-0.6h106.3c0.5 0 1 0.2 1.4 0.6 0.4 0.4 0.6 0.9 0.6 1.4 0 0.5-0.2 1-0.6 1.4-0.4 0.4-0.9 0.6-1.4 0.6z"/>
		<path id="Layer" class="s0" d="m649 4.6h-85.3c-0.5 0-1-0.2-1.4-0.6-0.4-0.4-0.6-0.9-0.6-1.4 0-0.5 0.2-1 0.6-1.4 0.4-0.4 0.9-0.6 1.4-0.6h85.3c0.5 0 1 0.2 1.4 0.6 0.4 0.4 0.6 0.9 0.6 1.4 0 0.5-0.2 1-0.6 1.4-0.4 0.4-0.9 0.6-1.4 0.6z"/>
	</g>
</svg>