<svg version="1.2" xmlns="http://www.w3.org/2000/svg" viewBox="0 0 668 544" width="668" height="544">
	<title>excursions-ic-svg</title>
	<style>
		.s0 { fill: #000000 } 
	</style>
	<g id="Layer_2">
		<path id="Layer" class="s0" d="m606.2 543.8h-217q-0.4 0-0.8-0.2-0.3-0.1-0.6-0.4-0.3-0.3-0.4-0.6-0.2-0.4-0.2-0.8v-129.2h4v127.2h213v-105h4v107q0 0.4-0.2 0.8-0.1 0.3-0.4 0.6-0.3 0.3-0.6 0.4-0.4 0.2-0.8 0.2z"/>
		<path id="Layer" class="s0" d="m389.3 266.7h-0.1v-1.7h-2v-0.3q0-0.4 0.2-0.8 0.1-0.3 0.4-0.6 0.3-0.3 0.6-0.4 0.4-0.2 0.8-0.2h0.1v2h1.9v0.3h-1.9z"/>
		<path id="Layer" class="s0" d="m479.8 483.1h-55.5q-0.4 0-0.8-0.2-0.3-0.1-0.6-0.4-0.3-0.3-0.4-0.6-0.2-0.4-0.2-0.8v-37q0-0.4 0.2-0.8 0.1-0.3 0.4-0.6 0.3-0.3 0.6-0.4 0.4-0.2 0.8-0.2h43.4v4h-41.4v33h51.5v-30.1h4v32.1q0 0.4-0.2 0.8-0.1 0.3-0.4 0.6-0.3 0.3-0.6 0.4-0.4 0.2-0.8 0.2z"/>
		<path id="Layer" class="s0" d="m559.8 483.1h-42.7q-0.4 0-0.8-0.1-0.4-0.2-0.6-0.5-0.3-0.2-0.5-0.6-0.1-0.4-0.1-0.8v-17.2h4v15.2h40.7z"/>
		<path id="Layer" class="s0" d="m387.6 366.5c-4.4-5.9-8-12.3-10.8-19.1-2.8-6.8-4.7-13.9-5.6-21.2-1-7.2-1-14.6-0.1-21.9 1-7.3 2.8-14.4 5.6-21.2q1-2.6 2.3-5.1 1.2-2.5 2.5-4.9 1.4-2.4 2.9-4.7 1.5-2.4 3.2-4.6l3.2 2.4q-1.6 2.1-3 4.3-1.5 2.2-2.8 4.6-1.3 2.3-2.4 4.7-1.1 2.3-2.1 4.8c-2.6 6.5-4.4 13.3-5.3 20.2-0.9 6.9-0.9 14 0 20.9 0.9 6.9 2.6 13.7 5.3 20.2 2.6 6.5 6.1 12.6 10.3 18.2z"/>
		<path id="Layer" class="s0" d="m281.5 371.5l-25.7-10.4c-2-0.8-3.8-2-5.4-3.4-1.5-1.5-2.7-3.3-3.6-5.3-0.8-2-1.3-4.1-1.3-6.2 0-2.2 0.4-4.3 1.2-6.3l33.6-83.7 3.7 1.5-33.6 83.7c-0.6 1.5-0.9 3.1-0.9 4.7 0 1.6 0.4 3.2 1 4.7 0.6 1.5 1.5 2.8 2.7 4 1.1 1.1 2.5 2 4 2.6l25.8 10.4z"/>
		<path id="Layer" class="s0" d="m389.2 543.8h-145.8q-0.4 0-0.8-0.2-0.3-0.1-0.6-0.4-0.3-0.3-0.4-0.6-0.2-0.4-0.2-0.8v-466.7q0-0.4 0.2-0.8 0.1-0.3 0.4-0.6 0.3-0.3 0.6-0.4 0.4-0.2 0.8-0.2h145.8q0.4 0 0.8 0.2 0.3 0.1 0.6 0.4 0.3 0.3 0.4 0.6 0.2 0.4 0.2 0.8v88.5h-4v-86.5h-141.8v462.7h141.8v-125.9l-30.8-12.3 1.5-3.7 32 12.8q0.3 0.1 0.5 0.3 0.3 0.2 0.4 0.5 0.2 0.2 0.3 0.5 0.1 0.3 0.1 0.6v129.2q0 0.4-0.2 0.8-0.1 0.3-0.4 0.6-0.3 0.3-0.6 0.4-0.4 0.2-0.8 0.2z"/>
		<path id="Layer" class="s0" d="m300.3 207l12.7-31.7 3.7 1.5-12.7 31.7z"/>
		<path id="Layer" class="s0" d="m383.3 208.5q-0.3 0-0.5 0-0.3-0.1-0.5-0.1-0.3-0.1-0.5-0.1-0.3-0.1-0.5-0.2l-41.8-16.8q-0.5-0.2-1-0.5-0.4-0.3-0.8-0.6-0.4-0.4-0.7-0.9-0.3-0.4-0.5-0.9-0.2-0.5-0.3-1-0.1-0.6-0.2-1.1 0-0.5 0.1-1.1 0.1-0.5 0.3-1l3.7-9 3.7 1.5-3.7 9q0 0.1-0.1 0.3 0 0.1 0 0.3 0 0.1 0.1 0.2 0 0.2 0.1 0.3 0.1 0.1 0.1 0.3 0.1 0.1 0.2 0.2 0.1 0.1 0.2 0.2 0.2 0 0.3 0.1l41.7 16.8q0.3 0.1 0.6 0.1 0.3 0 0.6-0.1 0.2-0.2 0.4-0.4 0.2-0.2 0.3-0.5l2.7-6.6 3.7 1.5-2.7 6.6q-0.3 0.8-0.8 1.4-0.5 0.7-1.1 1.1-0.7 0.5-1.5 0.8-0.8 0.2-1.6 0.2z"/>
		<path id="Layer" fill-rule="evenodd" class="s0" d="m243.4 543.8h-241q-0.4 0-0.8-0.1-0.4-0.2-0.6-0.5-0.3-0.2-0.5-0.6-0.1-0.4-0.1-0.8v-450.3q0-0.3 0.1-0.6 0.1-0.3 0.3-0.6 0.2-0.2 0.4-0.4 0.3-0.2 0.6-0.3l240.9-86.9q0.2-0.1 0.5-0.1 0.2 0 0.4 0 0.3 0.1 0.5 0.2 0.2 0.1 0.4 0.2 0.2 0.1 0.4 0.3 0.1 0.2 0.2 0.4 0.2 0.2 0.2 0.4 0.1 0.3 0.1 0.5v537.2q0 0.4-0.1 0.8-0.2 0.4-0.5 0.6-0.2 0.3-0.6 0.5-0.4 0.1-0.8 0.1zm-239-4h237v-532.3l-237 85.4z"/>
		<path id="Layer" fill-rule="evenodd" class="s0" d="m65.2 288.2h-27q-0.4 0-0.8-0.2-0.3-0.1-0.6-0.4-0.3-0.3-0.4-0.6-0.2-0.4-0.2-0.8v-136q0-0.4 0.2-0.8 0.1-0.3 0.4-0.6 0.3-0.3 0.6-0.4 0.4-0.2 0.8-0.2h27q0.4 0 0.8 0.2 0.3 0.1 0.6 0.4 0.3 0.3 0.4 0.6 0.2 0.4 0.2 0.8v136q0 0.4-0.2 0.8-0.1 0.3-0.4 0.6-0.3 0.3-0.6 0.4-0.4 0.2-0.8 0.2zm-25-4h23v-132h-23z"/>
		<path id="Layer" fill-rule="evenodd" class="s0" d="m136.4 288.2h-27q-0.4 0-0.8-0.2-0.3-0.1-0.6-0.4-0.3-0.3-0.4-0.6-0.2-0.4-0.2-0.8v-136q0-0.4 0.2-0.8 0.1-0.3 0.4-0.6 0.3-0.3 0.6-0.4 0.4-0.2 0.8-0.2h27q0.4 0 0.8 0.2 0.3 0.1 0.6 0.4 0.3 0.3 0.4 0.6 0.2 0.4 0.2 0.8v136q0 0.4-0.2 0.8-0.1 0.3-0.4 0.6-0.3 0.3-0.6 0.4-0.4 0.2-0.8 0.2zm-25-4h23v-132h-23z"/>
		<path id="Layer" fill-rule="evenodd" class="s0" d="m207.6 288.2h-27q-0.4 0-0.8-0.2-0.3-0.1-0.6-0.4-0.3-0.3-0.4-0.6-0.2-0.4-0.2-0.8v-136q0-0.4 0.2-0.8 0.1-0.3 0.4-0.6 0.3-0.3 0.6-0.4 0.4-0.2 0.8-0.2h27q0.4 0 0.8 0.2 0.3 0.1 0.6 0.4 0.3 0.3 0.4 0.6 0.2 0.4 0.2 0.8v136q0 0.4-0.2 0.8-0.1 0.3-0.4 0.6-0.3 0.3-0.6 0.4-0.4 0.2-0.8 0.2zm-25-4h23v-132h-23z"/>
		<path id="Layer" fill-rule="evenodd" class="s0" d="m65.2 475.2h-27q-0.4 0-0.8-0.2-0.3-0.1-0.6-0.4-0.3-0.3-0.4-0.6-0.2-0.4-0.2-0.8v-136q0-0.4 0.2-0.8 0.1-0.3 0.4-0.6 0.3-0.3 0.6-0.4 0.4-0.2 0.8-0.2h27q0.4 0 0.8 0.2 0.3 0.1 0.6 0.4 0.3 0.3 0.4 0.6 0.2 0.4 0.2 0.8v136q0 0.4-0.2 0.8-0.1 0.3-0.4 0.6-0.3 0.3-0.6 0.4-0.4 0.2-0.8 0.2zm-25-4h23v-132h-23z"/>
		<path id="Layer" fill-rule="evenodd" class="s0" d="m136.4 475.2h-27q-0.4 0-0.8-0.2-0.3-0.1-0.6-0.4-0.3-0.3-0.4-0.6-0.2-0.4-0.2-0.8v-136q0-0.4 0.2-0.8 0.1-0.3 0.4-0.6 0.3-0.3 0.6-0.4 0.4-0.2 0.8-0.2h27q0.4 0 0.8 0.2 0.3 0.1 0.6 0.4 0.3 0.3 0.4 0.6 0.2 0.4 0.2 0.8v136q0 0.4-0.2 0.8-0.1 0.3-0.4 0.6-0.3 0.3-0.6 0.4-0.4 0.2-0.8 0.2zm-25-4h23v-132h-23z"/>
		<path id="Layer" fill-rule="evenodd" class="s0" d="m207.6 475.2h-27q-0.4 0-0.8-0.2-0.3-0.1-0.6-0.4-0.3-0.3-0.4-0.6-0.2-0.4-0.2-0.8v-136q0-0.4 0.2-0.8 0.1-0.3 0.4-0.6 0.3-0.3 0.6-0.4 0.4-0.2 0.8-0.2h27q0.4 0 0.8 0.2 0.3 0.1 0.6 0.4 0.3 0.3 0.4 0.6 0.2 0.4 0.2 0.8v136q0 0.4-0.2 0.8-0.1 0.3-0.4 0.6-0.3 0.3-0.6 0.4-0.4 0.2-0.8 0.2zm-25-4h23v-132h-23z"/>
		<path id="Layer" fill-rule="evenodd" class="s0" d="m389.2 77.1h-145.8q-0.3 0-0.6-0.1-0.3-0.1-0.5-0.3-0.3-0.1-0.5-0.4-0.2-0.2-0.3-0.5-0.1-0.3-0.1-0.6-0.1-0.3 0-0.6 0.1-0.2 0.2-0.5 0.1-0.3 0.3-0.5l73-72.9q0.3-0.3 0.7-0.4 0.3-0.1 0.7-0.1 0.4 0 0.7 0.1 0.4 0.1 0.7 0.4l72.9 72.9q0.2 0.2 0.3 0.5 0.2 0.2 0.2 0.5 0.1 0.3 0.1 0.6-0.1 0.3-0.2 0.6-0.1 0.3-0.3 0.5-0.1 0.3-0.4 0.4-0.2 0.2-0.5 0.3-0.3 0.1-0.6 0.1zm-141-4h136.1l-68-68.1z"/>
		<path id="Layer" class="s0" d="m282.2 258.9h-6.8q-0.4 0-0.8-0.1-0.4-0.2-0.6-0.5-0.3-0.2-0.5-0.6-0.1-0.4-0.1-0.8v-49.3q0-0.4 0.1-0.8 0.2-0.4 0.5-0.6 0.2-0.3 0.6-0.5 0.4-0.1 0.8-0.1h26.6v4h-24.6v45.3h4.8z"/>
		<path id="Layer" class="s0" d="m357.2 421h-81.8q-0.4 0-0.8-0.1-0.4-0.2-0.6-0.5-0.3-0.2-0.5-0.6-0.1-0.4-0.1-0.8v-49.4q0-0.4 0.1-0.8 0.2-0.4 0.5-0.6 0.2-0.3 0.6-0.5 0.4-0.1 0.8-0.1h6.9v4h-4.9v45.4h77.8v-17.3h4v19.3q0 0.4-0.2 0.8-0.1 0.3-0.4 0.6-0.3 0.3-0.6 0.4-0.4 0.2-0.8 0.2z"/>
		<path id="Layer" fill-rule="evenodd" class="s0" d="m357.2 502h-81.8q-0.4 0-0.8-0.2-0.3-0.1-0.6-0.4-0.3-0.3-0.4-0.6-0.2-0.4-0.2-0.8v-49.3q0-0.4 0.2-0.8 0.1-0.3 0.4-0.6 0.3-0.3 0.6-0.4 0.4-0.2 0.8-0.2h81.8q0.4 0 0.8 0.2 0.3 0.1 0.6 0.4 0.3 0.3 0.4 0.6 0.2 0.4 0.2 0.8v49.3q0 0.4-0.2 0.8-0.1 0.3-0.4 0.6-0.3 0.3-0.6 0.4-0.4 0.2-0.8 0.2zm-79.8-4h77.8v-45.3h-77.8z"/>
		<path id="Layer" class="s0" d="m314.7 177.9h-39.3q-0.4 0-0.8-0.1-0.4-0.2-0.6-0.5-0.3-0.2-0.5-0.6-0.1-0.4-0.1-0.8v-49.3q0-0.4 0.1-0.8 0.2-0.4 0.5-0.6 0.2-0.3 0.6-0.5 0.4-0.1 0.8-0.1h81.8q0.4 0 0.8 0.2 0.3 0.1 0.6 0.4 0.3 0.3 0.4 0.6 0.2 0.4 0.2 0.8v24.1h-4v-22.1h-77.8v45.3h37.3z"/>
		<path id="Layer" class="s0" d="m280.4 256.4l19.8-49.3 3.7 1.5-19.8 49.3z"/>
		<path id="Layer" class="s0" d="m281.5 371.8l1.5-3.7 74.9 30.1-1.5 3.7z"/>
		<path id="Layer" class="s0" d="m383.3 208.5q-0.3 0-0.5 0-0.3-0.1-0.5-0.1-0.3-0.1-0.5-0.1-0.3-0.1-0.5-0.2l-41.8-16.8q-0.5-0.2-1-0.5-0.4-0.3-0.8-0.6-0.4-0.4-0.7-0.9-0.3-0.4-0.5-0.9-0.2-0.5-0.3-1-0.1-0.6-0.2-1.1 0-0.5 0.1-1.1 0.1-0.5 0.3-1l3.7-9 3.7 1.5-3.7 9q0 0.1-0.1 0.3 0 0.1 0 0.3 0 0.1 0.1 0.2 0 0.2 0.1 0.3 0.1 0.1 0.1 0.3 0.1 0.1 0.2 0.2 0.1 0.1 0.2 0.2 0.2 0 0.3 0.1l41.7 16.8q0.3 0.1 0.6 0.1 0.3 0 0.6-0.1 0.2-0.2 0.4-0.4 0.2-0.2 0.3-0.5l2.7-6.6 3.7 1.5-2.7 6.6q-0.3 0.8-0.8 1.4-0.5 0.7-1.1 1.1-0.7 0.5-1.5 0.8-0.8 0.2-1.6 0.2z"/>
		<path id="Layer" class="s0" d="m387.6 366.5c-4.4-5.9-8-12.3-10.8-19.1-2.8-6.8-4.7-13.9-5.6-21.2-1-7.2-1-14.6-0.1-21.9 1-7.3 2.8-14.4 5.6-21.2q1-2.6 2.3-5.1 1.2-2.5 2.5-4.9 1.4-2.4 2.9-4.7 1.5-2.4 3.2-4.6l1.3 0.9h2.3v0.3q0 0.2 0 0.3-0.1 0.2-0.1 0.3-0.1 0.2-0.1 0.3-0.1 0.2-0.2 0.3-1.6 2.1-3 4.3-1.5 2.2-2.8 4.6-1.3 2.3-2.4 4.7-1.1 2.3-2.1 4.8c-2.6 6.5-4.4 13.3-5.3 20.2-0.9 6.9-0.9 14 0 20.9 0.9 6.9 2.6 13.7 5.3 20.2 2.6 6.5 6.1 12.6 10.3 18.2z"/>
		<path id="Layer" class="s0" d="m575.8 488.4q-0.8 0-1.6-0.1-0.7-0.1-1.5-0.2-0.8-0.2-1.5-0.4-0.8-0.2-1.5-0.5l-181.3-72.8 1.5-3.7 181.3 72.8c1.5 0.6 3.1 0.9 4.7 0.9 1.6 0 3.2-0.4 4.7-1 1.5-0.6 2.8-1.5 4-2.7 1.1-1.1 2-2.5 2.6-4l75.5-187.8q0.4-1.1 0.6-2.3 0.3-1.2 0.2-2.5 0-1.2-0.2-2.4-0.2-1.2-0.7-2.3-0.5-1.1-1.2-2.1-0.7-1-1.6-1.9-0.8-0.8-1.9-1.5-1-0.6-2.1-1.1l-94.5-37.9q-0.7-0.3-1.2-0.7-0.6-0.4-1.1-0.9-0.5-0.5-0.9-1.1-0.4-0.5-0.7-1.2-0.3-0.6-0.4-1.3-0.2-0.7-0.2-1.4 0-0.7 0.1-1.4 0.1-0.7 0.4-1.4l9.2-22.7q0.3-0.9 0.3-1.8 0-0.9-0.4-1.7-0.4-0.9-1-1.5-0.7-0.6-1.5-1l-103-41.4q-0.4-0.2-0.9-0.3-0.4 0-0.9 0-0.5 0-0.9 0-0.5 0.1-0.9 0.3-0.4 0.2-0.8 0.5-0.4 0.2-0.7 0.6-0.3 0.3-0.6 0.7-0.2 0.4-0.4 0.8l-9.1 22.7q-0.3 0.7-0.6 1.2-0.4 0.6-0.9 1.1-0.5 0.5-1.1 0.9-0.6 0.4-1.2 0.7-0.7 0.3-1.4 0.4-0.7 0.2-1.4 0.2-0.7 0-1.4-0.1-0.7-0.1-1.4-0.4l-94.4-38c-1.5-0.6-3.1-0.9-4.8-0.9-1.6 0-3.2 0.3-4.7 1-1.5 0.6-2.8 1.6-4 2.7-1.1 1.2-2 2.6-2.6 4.1l-9.2 23.1-3.7-1.5 9.2-23.1c0.8-2 2-3.8 3.5-5.3 1.5-1.5 3.3-2.7 5.3-3.6 2-0.8 4.1-1.3 6.2-1.3 2.2 0 4.3 0.3 6.3 1.1l94.4 38q0.3 0.1 0.6 0.2 0.3 0 0.7 0 0.3 0 0.6-0.1 0.3-0.1 0.6-0.2 0.3-0.1 0.6-0.3 0.2-0.1 0.4-0.4 0.3-0.2 0.4-0.4 0.2-0.3 0.3-0.6l9.1-22.7q0.3-0.8 0.8-1.5 0.5-0.7 1.1-1.3 0.6-0.6 1.3-1.1 0.7-0.5 1.5-0.8 0.8-0.3 1.6-0.5 0.8-0.2 1.7-0.2 0.8 0 1.7 0.1 0.8 0.2 1.6 0.5l103 41.3c1 0.4 2 1.1 2.8 1.9 0.8 0.8 1.5 1.7 1.9 2.8 0.4 1 0.7 2.1 0.7 3.3 0 1.1-0.2 2.2-0.6 3.3l-9.2 22.7q-0.1 0.3-0.2 0.6 0 0.3 0 0.7 0 0.3 0.1 0.6 0.1 0.3 0.2 0.6 0.1 0.3 0.3 0.6 0.1 0.2 0.4 0.4 0.2 0.3 0.4 0.4 0.3 0.2 0.6 0.3l94.5 37.9c2 0.8 3.8 2 5.3 3.5 1.5 1.5 2.7 3.3 3.6 5.3 0.8 2 1.3 4.1 1.3 6.2 0 2.2-0.3 4.3-1.1 6.3l-75.5 187.8q-0.9 2.3-2.4 4.2-1.6 1.9-3.6 3.2-2 1.4-4.3 2.1-2.4 0.7-4.8 0.7z"/>
		<path id="Layer" fill-rule="evenodd" class="s0" d="m456.4 401.2q-4.1 0-8.2-0.4-4-0.4-8.1-1.2-4-0.8-7.9-2-3.9-1.1-7.7-2.7l-1-0.4c-10.3-4.3-19.7-10.6-27.7-18.5-7.9-7.9-14.2-17.3-18.6-27.6-4.3-10.3-6.6-21.4-6.7-32.6-0.1-11.2 2-22.3 6.2-32.7q1-2.6 2.2-5.1 1.2-2.5 2.6-4.9 1.3-2.4 2.8-4.7 1.5-2.4 3.2-4.6c0.1-0.1 0.1-0.1 0.1-0.2 0-0.1 0.1 0 0.1-0.1 10.4-13.9 24.8-24.3 41.2-29.8 16.4-5.6 34.1-6.1 50.8-1.4 16.7 4.7 31.6 14.3 42.7 27.6 11.2 13.3 18 29.6 19.7 46.9q0.5 4.8 0.4 9.6 0 4.8-0.6 9.6-0.6 4.8-1.8 9.5-1.1 4.7-2.8 9.2-0.1 0.3-0.2 0.6-0.1 0.3-0.3 0.6-0.1 0.3-0.2 0.6-0.2 0.3-0.3 0.6c-2.4 6.1-5.5 11.8-9.2 17.2-3.7 5.4-8 10.3-12.9 14.7-4.8 4.4-10.1 8.2-15.9 11.3-5.7 3.2-11.7 5.7-18 7.5q-2.9 0.8-5.9 1.5-2.9 0.6-5.9 1-3 0.4-6.1 0.7-3 0.2-6 0.2zm-65.5-135.3c0 0.1 0 0.1-0.1 0.1v0.2q-1.6 2.1-3 4.3-1.5 2.2-2.8 4.6-1.3 2.3-2.4 4.7-1.1 2.3-2.1 4.8c-4 9.9-6 20.5-5.9 31.2 0 10.7 2.2 21.2 6.3 31.1 4.2 9.8 10.2 18.8 17.8 26.3 7.6 7.5 16.5 13.5 26.4 17.6l0.9 0.4c10 4 20.7 6 31.4 5.9 10.8-0.1 21.4-2.4 31.3-6.6 9.9-4.2 18.9-10.3 26.4-18 7.5-7.7 13.5-16.8 17.5-26.8l0.9-2.4q1.6-4.3 2.7-8.8 1.1-4.4 1.7-9 0.5-4.5 0.6-9.1 0.1-4.6-0.4-9.2c-1.6-16.5-8.1-32-18.7-44.7-10.7-12.7-24.8-21.9-40.8-26.3-15.9-4.5-32.8-4-48.4 1.3-15.7 5.3-29.4 15.2-39.3 28.4z"/>
		<path id="Layer" fill-rule="evenodd" class="s0" d="m456.5 367.2q-2.5 0-5-0.3-2.4-0.2-4.9-0.7-2.4-0.5-4.8-1.2-2.4-0.7-4.7-1.6c-23-9.3-36.3-33.5-31.7-57.9 4.6-24.3 25.8-42.1 50.6-42.3 24.8-0.3 46.3 17 51.4 41.3 5.1 24.3-7.7 48.8-30.5 58.5q-2.4 1-4.9 1.8-2.5 0.8-5.1 1.3-2.6 0.6-5.2 0.8-2.6 0.3-5.2 0.3zm0-100.1q-2.4 0-4.8 0.2-2.4 0.3-4.8 0.8-2.4 0.5-4.7 1.2-2.3 0.7-4.5 1.7c-14.7 6.3-25.4 19.5-28.3 35.3-3 15.8 2.1 32 13.6 43.2 11.4 11.2 27.8 15.9 43.4 12.6 15.7-3.3 28.7-14.2 34.7-29.1 2.9-7.3 4-15.2 3.1-23-0.8-7.8-3.6-15.3-8-21.8-4.3-6.5-10.3-11.8-17.2-15.5-6.9-3.7-14.7-5.6-22.5-5.6z"/>
		<path id="Layer" fill-rule="evenodd" class="s0" d="m383.3 208.5q-0.3 0-0.5 0-0.3-0.1-0.5-0.1-0.3-0.1-0.5-0.1-0.3-0.1-0.5-0.2l-41.8-16.8q-0.5-0.2-1-0.5-0.4-0.3-0.8-0.6-0.4-0.4-0.7-0.9-0.3-0.4-0.5-0.9-0.2-0.5-0.3-1-0.1-0.6-0.2-1.1 0-0.5 0.1-1.1 0.1-0.5 0.3-1l5.4-13.4q0.2-0.5 0.5-0.9 0.3-0.5 0.7-0.9 0.3-0.4 0.8-0.7 0.4-0.3 0.9-0.5 0.5-0.2 1-0.3 0.6-0.2 1.1-0.2 0.5 0 1.1 0.2 0.5 0.1 1 0.3l41.8 16.7q1 0.4 1.8 1.2 0.7 0.7 1.2 1.7 0.4 1 0.4 2.1 0 1.1-0.4 2.1l-5.4 13.4q-0.3 0.8-0.8 1.4-0.5 0.7-1.1 1.1-0.7 0.5-1.5 0.8-0.8 0.2-1.6 0.2zm-37-37.1q-0.1 0.1-0.3 0.1-0.1 0.1-0.2 0.2-0.1 0.1-0.2 0.2 0 0.2-0.1 0.3l-5.4 13.4q0 0.1-0.1 0.3 0 0.1 0 0.3 0 0.1 0.1 0.2 0 0.2 0.1 0.3 0.1 0.1 0.1 0.3 0.1 0.1 0.2 0.2 0.1 0.1 0.2 0.2 0.2 0 0.3 0.1l41.7 16.8q0.3 0.1 0.6 0.1 0.3 0 0.6-0.1 0.2-0.2 0.4-0.4 0.2-0.2 0.3-0.5l5.4-13.4q0.1-0.3 0.1-0.6 0-0.3-0.1-0.5-0.1-0.3-0.3-0.5-0.2-0.2-0.5-0.3l-0.8-0.3-41-16.4z"/>
		<path id="Layer" class="s0" d="m446.5 125.4q-0.3 0-0.6-0.1-0.3-0.1-0.5-0.3-0.3-0.1-0.5-0.4-0.2-0.2-0.3-0.5l-17.6-49.7q-0.1-0.4-0.1-0.8 0-0.4 0.2-0.8 0.2-0.3 0.5-0.6 0.3-0.3 0.7-0.4 0.4-0.1 0.8-0.1 0.4 0 0.7 0.2 0.4 0.1 0.6 0.4 0.3 0.3 0.4 0.7l17.6 49.8q0.1 0.4 0.1 0.8 0 0.3-0.2 0.7-0.2 0.3-0.5 0.6-0.2 0.3-0.6 0.4z"/>
		<path id="Layer" class="s0" d="m593.4 182.5q-0.3 0-0.5-0.1-0.3 0-0.5-0.2-0.3-0.1-0.5-0.3-0.2-0.2-0.3-0.4-0.2-0.4-0.2-0.8 0-0.4 0.1-0.7 0.1-0.4 0.4-0.7 0.2-0.3 0.6-0.5l46.5-24.8q0.3-0.2 0.7-0.3 0.4 0 0.8 0.1 0.4 0.1 0.7 0.4 0.3 0.2 0.5 0.6 0.2 0.3 0.2 0.7 0.1 0.4 0 0.8-0.2 0.4-0.4 0.7-0.3 0.3-0.6 0.5l-46.6 24.8z"/>
		<path id="Layer" class="s0" d="m525.5 139.7h-0.7q-0.4-0.2-0.7-0.4-0.2-0.3-0.4-0.7-0.2-0.3-0.2-0.7 0-0.4 0.1-0.8l17.9-46q0.2-0.4 0.4-0.6 0.3-0.3 0.7-0.5 0.3-0.1 0.7-0.1 0.4 0 0.8 0.1 0.4 0.2 0.6 0.4 0.3 0.3 0.5 0.7 0.1 0.3 0.1 0.7 0 0.4-0.1 0.8l-17.8 45.9q-0.1 0.3-0.3 0.5-0.2 0.2-0.5 0.4-0.2 0.1-0.5 0.2-0.3 0.1-0.6 0.1z"/>
	</g>
</svg>