<svg version="1.2" xmlns="http://www.w3.org/2000/svg" viewBox="0 0 590 660" width="590" height="660">
	<title>horseClub-ic-svg</title>
	<style>
		.s0 { fill: #000000 } 
	</style>
	<g id="Layer_2">
		<path id="Layer" class="s0" d="m403.9 303.3q-5.2 0-10.4-0.6-5.2-0.7-10.3-2-5-1.4-9.8-3.4-4.9-2-9.4-4.6-1.7-1-3.3-2-1.7-1.1-3.3-2.2-1.6-1.1-3.1-2.3-1.6-1.2-3.1-2.4c-38.9-32.8-11.3-82.1 8.6-108.6l3.2 2.4c-19.1 25.4-45.6 72.5-9.2 103.1q1.4 1.2 2.9 2.4 1.5 1.1 3 2.2 1.5 1.1 3.1 2.1 1.6 1 3.2 1.9c14.9 8.6 31.8 11.6 50.1 9.1q3.3-0.5 6.5-1.2 3.2-0.6 6.4-1.5 3.2-0.8 6.3-1.9 3.1-1 6.2-2.2l1.5 3.7q-3.2 1.3-6.4 2.4-3.3 1-6.6 1.9-3.3 0.9-6.7 1.6-3.3 0.7-6.7 1.2-1.6 0.2-3.2 0.4-1.5 0.2-3.1 0.3-1.6 0.1-3.2 0.1-1.6 0.1-3.2 0.1z"/>
		<path id="Layer" class="s0" d="m463.7 285.1l-2.1-3.4q1.3-0.7 2.6-1.5 1.2-0.8 2.5-1.6 1.3-0.9 2.5-1.7 1.2-0.9 2.4-1.8l2.5 3.1q-1.3 0.9-2.5 1.8-1.3 0.9-2.6 1.8-1.3 0.8-2.6 1.7-1.4 0.8-2.7 1.6z"/>
		<path id="Layer" class="s0" d="m360.7 484.1c-26-46.8-37.8-88.1-35.1-122.6 2.4-29.6 15.2-53.9 38.1-72.1l2.5 3.2c-22 17.4-34.3 40.7-36.6 69.2-2.7 33.8 9 74.3 34.6 120.4z"/>
		<path id="Layer" class="s0" d="m120.4 548.8c-25.3-25.9-43.6-55.9-54.4-89.3-8.6-26.6-12.5-55.4-11.4-85.6q0.4-11.1 1.6-22.1 1.2-11.1 3.3-22 2-10.9 4.9-21.7 2.8-10.7 6.5-21.2c-24.5 1.5-56.7 24.9-57 25.1l-4.4 3.3 1.3-5.3c11.2-46.4 56.7-91.9 92.9-121.9q8.5-7 17.3-13.8 8.7-6.7 17.7-13.2 9-6.4 18.2-12.6 9.1-6.1 18.5-12c-21.7-2-54.8 6-55.1 6.1l-1-3.9c0.4-0.1 40.4-9.7 62.3-5.3l5.1 1-4.5 2.6q-10 6.1-19.7 12.6-9.7 6.4-19.2 13.2-9.5 6.8-18.8 13.9-9.3 7.1-18.3 14.5c-34.3 28.5-77.2 71-90.1 114.5 10.4-7.1 36.8-23.2 57.8-22.9h3l-1.2 2.8c-0.1 0.3-15.4 37.9-17.1 88.5-1.6 46.7 8.3 114.4 64.6 171.9z"/>
		<path id="Layer" class="s0" d="m386.4 659.8l-1.3-0.2c-102.9-14.6-183.2-44-238.8-87.7l2.5-3.1c54.7 43 133.9 72.1 235.5 86.6 2-3.8 8.2-17.2 10.4-38.7 2.4-23.7 0.3-62.5-23.4-112.2l3.6-1.7c24.2 50.7 26.3 90.3 23.7 114.6-2.7 26.4-11.2 40.7-11.5 41.2z"/>
		<path id="Layer" class="s0" d="m415 302.4l2.8-2.9 52.5 50.4-2.7 2.9z"/>
		<path id="Layer" class="s0" d="m488.2 192.7h-0.1c-13.9-0.5-26.1-4.5-36.3-11.9q-0.3-0.2-0.5-0.5-0.3-0.4-0.3-0.8-0.1-0.3 0-0.7 0.1-0.4 0.4-0.7 0.2-0.3 0.6-0.5 0.3-0.3 0.7-0.3 0.4-0.1 0.8 0 0.4 0.1 0.7 0.3c9.5 6.9 21 10.6 34 11.1q0.4 0 0.8 0.2 0.3 0.2 0.6 0.4 0.3 0.3 0.5 0.7 0.1 0.4 0.1 0.8 0 0.4-0.2 0.7-0.2 0.4-0.4 0.6-0.3 0.3-0.7 0.4-0.3 0.2-0.7 0.2z"/>
		<path id="Layer" class="s0" d="m549.6 406.2c-0.2-0.2-19.9-20.2-31.5-33.9l3-2.6c11.6 13.6 31.2 33.4 31.4 33.6z"/>
		<path id="Layer" class="s0" d="m552.3 365.8l-4-0.6c0.1-0.3 5.3-35.4 38.8-35.4v4c-30 0-34.6 30.7-34.8 32z"/>
		<path id="Layer" class="s0" d="m439.3 88.5h-0.2q-0.4 0-0.8-0.2-0.3-0.2-0.6-0.5-0.2-0.3-0.3-0.7-0.1-0.4-0.1-0.8c1.2-11.9 3.2-25.6 6.2-40.8v-0.2c3.1-16.4 6.5-30.6 8.2-37.4-44.7 23.9-61.5 48-67.6 60.5l-0.7 1.4-1.6-0.4c0 0-3.6-0.8-9.9-1.7-0.4-0.1-0.8-0.4-1.1-0.8-0.2-0.4-0.3-0.9-0.3-1.4 0.1-0.4 0.3-0.8 0.7-1.2 0.3-0.3 0.7-0.5 1.2-0.5l8.8 1.4c7-13.6 25.5-38.7 72.6-62.9l4-2.1-1.2 4.4c0 0.1-4.8 18.5-9.1 41.2v0.2c-2.9 15.2-5 28.9-6.1 40.7q0 0.4-0.2 0.7-0.2 0.4-0.5 0.6-0.3 0.3-0.6 0.4-0.4 0.1-0.8 0.1z"/>
		<path id="Layer" class="s0" d="m119.8 142.7v-2l-1.5-1.4 0.2-0.2c91.3-75.2 187.4-80.6 236.5-77.1l-0.3 4c-48.5-3.5-143.3 1.9-233.5 76.1l-0.5 0.6z"/>
		<path id="Layer" class="s0" d="m533.7 408.9q-2.5 0-4.9-0.2-2.5-0.1-5-0.4-2.4-0.2-4.8-0.6-2.5-0.4-4.9-0.9c-3.2-0.6-6.4-1.7-9.3-3.2-3-1.4-5.7-3.3-8.2-5.5-2.4-2.3-4.5-4.8-6.3-7.6-1.7-2.8-3.1-5.8-4-9l-3.5-11.5 3.9-1.1 3.4 11.5c0.8 2.8 2 5.5 3.6 8 1.6 2.5 3.5 4.8 5.6 6.7 2.2 2 4.7 3.7 7.3 5 2.6 1.3 5.4 2.2 8.3 2.8 13.4 2.7 25.3 2.6 35.6-0.1 21.3-5.6 32-51.4 34.7-65.4q0.3-1.3 0.3-2.5 0.1-1.3-0.1-2.6-0.1-1.3-0.5-2.5-0.3-1.2-0.9-2.4l-75-163.9q-1.3-2.8-2.7-5.5-1.3-2.7-2.8-5.4-1.5-2.7-3.1-5.3-1.5-2.6-3.2-5.2l-2.2-3.2 3.3-2.3 2.2 3.3q1.7 2.6 3.3 5.3 1.7 2.7 3.2 5.5 1.5 2.7 2.9 5.5 1.4 2.8 2.7 5.7l75.1 163.8q0.7 1.5 1.1 3 0.4 1.5 0.6 3.1 0.2 1.6 0.1 3.2-0.1 1.6-0.4 3.2c-3.6 18.6-14.7 62.5-37.5 68.5q-2.2 0.5-4.4 1-2.2 0.4-4.5 0.6-2.2 0.3-4.5 0.5-2.2 0.1-4.5 0.1z"/>
		<path id="Layer" class="s0" d="m486.2 127.3q-2.1-2.5-4.4-5-2.2-2.5-4.5-4.9-2.4-2.3-4.8-4.6-2.4-2.3-4.9-4.5l-0.6-0.4v-0.7c-6.1-36 3.5-70.5 7.9-83.6q-3.8 2.5-7.5 5.2-3.7 2.7-7.2 5.7-3.5 2.9-6.8 6-3.4 3.2-6.5 6.5l-0.6 0.6h-0.8v-1.9l-1.4 1.4-0.5-2.2 0.6-0.4-0.2-0.2q3.7-4 7.7-7.7 3.9-3.7 8.2-7.1 4.2-3.4 8.6-6.5 4.5-3.1 9.1-5.9l5.2-3.1-2.3 5.6c-0.2 0.4-17 42.1-9.8 86.2q2.5 2.2 4.9 4.5 2.5 2.2 4.8 4.6 2.3 2.4 4.6 4.9 2.2 2.4 4.3 5z"/>
		<path id="Layer" class="s0" d="m485.7 178.3q-0.2 0-0.3-0.1-0.2 0-0.4-0.1-0.2 0-0.3-0.1-0.2-0.1-0.3-0.2-2.2-1.9-4.8-3.2-2.5-1.4-5.3-2.2-2.8-0.8-5.6-1.1-2.9-0.2-5.8 0.2-0.4 0.1-0.8 0-0.3-0.1-0.6-0.3-0.4-0.2-0.6-0.5-0.2-0.3-0.3-0.7-0.1-0.4 0-0.8 0-0.4 0.3-0.7 0.2-0.3 0.5-0.6 0.3-0.2 0.7-0.3 3.3-0.5 6.7-0.3 3.3 0.2 6.5 1.2 3.2 0.9 6.2 2.5 2.9 1.5 5.5 3.7 0.3 0.3 0.5 0.6 0.2 0.4 0.2 0.8 0.1 0.4 0 0.8-0.1 0.4-0.4 0.7-0.2 0.2-0.3 0.3-0.2 0.1-0.4 0.2-0.2 0.1-0.5 0.1-0.2 0.1-0.4 0.1z"/>
		<path id="Layer" class="s0" d="m142.6 572.4h-2.3l-20.5-18.3v-8.7h6.1c115 2.4 191.3-33.3 235.1-63.7l0.3-0.2q7.2-5 14.1-10.4 6.9-5.4 13.5-11.2 6.5-5.8 12.7-12 6.2-6.2 12-12.8 8.2-9.4 15.6-19.4 7.4-9.9 14.1-20.5 6.6-10.5 12.4-21.5 5.8-11 10.8-22.4l0.6-1.4c1.6-3.8 3-7.2 4.2-10.5 1.2-3.3 1.5-4 2.1-5.9 0.6-1.9 1.1-3 1.5-4.4l-3.6-3-4.8-4.2-0.6-0.6q-3.3-3-6.5-6.1-3.2-3.1-6.3-6.3-3-3.2-6-6.5-2.9-3.4-5.7-6.8l-0.7-0.9c-25.3-31.6-33.3-61.5-37.2-81.2-4.9-25.3-1.7-49.4 0.8-62.1-29.6-32.1-51.2-77-55.3-85.7q-0.1-0.2-0.2-0.4 0-0.2-0.1-0.4-0.1-0.2-0.1-0.4-0.1-0.2-0.1-0.4-0.1-0.7-0.2-1.5 0-0.7 0.2-1.5 0.1-0.7 0.4-1.4 0.3-0.7 0.7-1.3 0.5-0.8 1.2-1.4 0.8-0.7 1.6-1.1 0.9-0.4 1.8-0.6 0.9-0.2 1.9-0.2l10.8 0.5h0.1q1.6 0 3.1 0.4 1.5 0.5 2.8 1.3 1.4 0.9 2.4 2.1 1 1.2 1.7 2.6l1.7 3.6c6.1 12.7 22.7 44.7 45.7 69.3q7.7 0.2 15.5-0.6 7.7-0.8 15.2-2.6 7.6-1.7 14.8-4.4 7.3-2.7 14.2-6.2l0.6-0.2 0.2-0.2q0.7-0.5 1.4-0.8 0.8-0.4 1.6-0.5 0.8-0.2 1.7-0.2 0.8-0.1 1.6 0.1 0.8 0.1 1.6 0.4 0.8 0.3 1.5 0.7 0.7 0.5 1.3 1.1 0.6 0.5 1.1 1.2l5.6 8q0.5 0.7 0.9 1.6 0.3 0.8 0.5 1.7 0.2 0.9 0.1 1.8 0 0.9-0.2 1.8-0.2 0.8-0.5 1.5-0.3 0.8-0.8 1.4-0.5 0.7-1.1 1.2-0.6 0.6-1.3 1l-0.6 0.4c-24.8 12.8-53 17.6-70.3 17.8-2 12.3-3.5 30.1 0.2 48.4 5.4 26.7 16.7 50.3 34.6 72.3l0.4 0.5q2.2 2.7 4.6 5.4 2.3 2.7 4.7 5.3 2.5 2.5 5 5 2.5 2.5 5.1 4.9c1.4 1.4 3 2.8 4.5 4.1l4.4 3.9-2.5 3c-1.8-1.4-3.2-2.7-4.6-3.9l-4.6-4.2q-2.6-2.4-5.2-5-2.5-2.5-5-5.1-2.5-2.6-4.8-5.3-2.4-2.7-4.7-5.5l-0.4-0.5c-18.4-22.6-29.9-46.8-35.4-74.1-4-19.8-2.2-38.9 0.1-51.5l0.2-1.7h2.2c16.6 0 44.9-4.5 69.7-17.4h0.3q0.4-0.2 0.7-0.5 0.3-0.3 0.6-0.6 0.2-0.4 0.4-0.8 0.2-0.4 0.3-0.8 0.1-0.5 0.1-0.9 0-0.5-0.1-1-0.1-0.4-0.3-0.9-0.1-0.4-0.4-0.8l-5.7-8q-0.3-0.4-0.6-0.6-0.3-0.3-0.7-0.6-0.4-0.2-0.8-0.4-0.4-0.1-0.8-0.2-0.4-0.1-0.9-0.1-0.4 0.1-0.8 0.2-0.5 0.1-0.9 0.3-0.3 0.1-0.7 0.4h-0.1c-0.1 0.1-0.3 0.1-0.3 0.2h-0.3l-0.6 0.3c-26.5 13.9-52.6 14.5-62.5 14.1h-0.8l-0.6-0.6c-23.7-25.1-40.7-57.9-46.9-70.9l-1.7-3.6q-0.4-0.9-1.1-1.7-0.6-0.8-1.5-1.3-0.8-0.6-1.8-0.8-1-0.3-2-0.3h-0.2l-10.9-0.5q-0.4 0-0.9 0.1-0.4 0.1-0.8 0.3-0.4 0.2-0.7 0.5-0.3 0.2-0.6 0.6-0.2 0.3-0.3 0.6-0.1 0.4-0.2 0.7-0.1 0.3-0.1 0.7 0 0.4 0.1 0.7c0.1 0.2 0.1 0.5 0.3 0.7 4 8.7 25.7 53.7 55.2 85.5l0.7 0.7-0.2 1c-2.5 12.1-5.9 36.2-0.9 61.5q2 10.9 5.3 21.4 3.3 10.6 7.9 20.6 4.5 10.1 10.4 19.5 5.8 9.4 12.7 18l0.7 0.9q2.8 3.5 5.8 6.8 3 3.3 6.1 6.6 3.1 3.2 6.3 6.3 3.2 3.1 6.5 6.1l0.7 0.6 4.1 3.6 4.2 3.5 1.3 1.1-0.5 1.7q-0.7 2.4-1.8 5.4c-0.7 2-1.4 4-2.2 6-0.8 2-2.6 6.8-4.2 10.7l-0.6 1.4q-5 11.6-10.9 22.7-5.9 11.1-12.7 21.8-6.7 10.7-14.2 20.8-7.5 10.1-15.8 19.6-5.9 6.7-12.2 12.9-6.2 6.3-12.9 12.2-6.6 5.9-13.6 11.4-7 5.5-14.3 10.5l-0.3 0.2c-42.8 29.7-116.4 64.5-226.2 64.5h-13.3v2.9l18.1 16.1h5.6c63.8-0.7 121.4-12.8 171.4-35.8q7-3.2 13.8-6.8 6.8-3.5 13.4-7.3 6.7-3.9 13.2-8 6.4-4.2 12.7-8.6l0.5-0.4q7.9-5.6 15.5-11.7 7.6-6.1 14.9-12.6 7.2-6.5 14-13.4 6.8-7 13.2-14.3 8-9.1 15.3-18.8 7.3-9.7 14-19.8 6.6-10.2 12.5-20.8 5.9-10.6 11-21.6c0.6-1.3 1.2-2.5 1.7-3.7 1.8-4 3.5-8 5.1-11.9l1.8 0.7h2v0.8q-2.4 6-5.1 12c-0.6 1.2-1.1 2.5-1.7 3.8q-5.2 11.1-11.2 21.8-6 10.7-12.7 21-6.7 10.3-14.1 20.1-7.4 9.8-15.5 19-6.5 7.4-13.4 14.5-6.9 7-14.2 13.6-7.3 6.6-15 12.8-7.7 6.1-15.7 11.8l-0.6 0.4q-6.3 4.5-12.8 8.7-6.6 4.1-13.3 8-6.7 3.9-13.6 7.4-6.9 3.6-13.9 6.8c-50.5 23.3-108.7 35.5-173 36.2zm361.3-243.6l-3.7-1.6 0.5-1.2 3.7 1.6z"/>
		<path id="Layer" class="s0" d="m498.3 365.8c-1.3-1.5-4.6-5.5-8.4-10.9l-0.4-0.6c-1.4-2.1-2.8-4.1-3.9-6q-0.9-1.4-1.7-2.9-0.8-1.4-1.6-2.9-0.7-1.5-1.5-3-0.7-1.5-1.3-3 0-0.1 0-0.2 0-0.1-0.1-0.2 0-0.1 0-0.2-0.1-0.1-0.1-0.2-0.4-1.2-0.5-2.5-0.2-1.4-0.1-2.7 0.2-1.3 0.6-2.5 0.4-1.3 1-2.4 0.7-1.3 1.6-2.3 0.9-1.1 2.1-2 1.1-0.8 2.4-1.4 1.3-0.5 2.7-0.8 0.3-0.1 0.6-0.1 0.4-0.1 0.7-0.1 0.3-0.1 0.6-0.1 0.4 0 0.7 0 2 0 3.8 0.6 1.9 0.5 3.5 1.6 1.6 1.1 2.9 2.6 1.2 1.6 1.9 3.4v0.4q0 0 0 0 0.1 0.1 0.1 0.1 0 0 0 0 0 0.1 0 0.1h0.1q0.2 0.5 0.5 1.1 0.2 0.5 0.4 1 0.3 0.6 0.6 1.1 0.2 0.5 0.5 1 0.3 0.7 0.7 1.3 0.4 0.6 0.8 1.3 0.4 0.6 0.8 1.2 0.4 0.6 0.9 1.2c3.3 4.6 7.6 9.8 9.6 12.1l-1.4 1.3-1.5 1.5h-0.1c-0.6-0.7-5.7-6.7-9.9-12.5-1.4-2-2.6-3.9-3.4-5.3q-0.3-0.6-0.6-1.1-0.3-0.6-0.6-1.2-0.3-0.6-0.5-1.2-0.3-0.6-0.5-1.2l-0.3-0.5v-0.2q-0.5-1.3-1.3-2.3-0.9-1.1-2-1.8-1.1-0.8-2.4-1.2-1.3-0.4-2.7-0.4l-1.8 0.2q-1 0.2-1.9 0.6-0.9 0.4-1.7 1-0.8 0.5-1.4 1.3-0.6 0.7-1.1 1.6-0.4 0.8-0.7 1.7-0.3 0.8-0.4 1.7-0.1 0.9 0 1.8 0.1 0.9 0.4 1.8l0.2 0.5q0.6 1.5 1.2 2.9 0.7 1.4 1.4 2.8 0.7 1.4 1.5 2.8 0.8 1.4 1.6 2.7c1.2 2 2.6 4.2 4.2 6.4l0.3 0.5c3.6 5 6.7 8.7 7.8 10.1z"/>
		<path id="Layer" fill-rule="evenodd" class="s0" d="m511.8 375.8c-1.6 0-3.2-0.3-4.7-0.8-1.5-0.5-2.9-1.2-4.1-2.2-1.3-1-2.3-2.2-3.2-3.5-0.9-1.3-1.5-2.8-1.9-4.3q-0.1-0.4-0.2-0.9-0.1-0.4-0.2-0.9 0-0.4-0.1-0.9 0-0.4 0-0.9c0-1.9 0.4-3.8 1.1-5.5 0.8-1.7 1.8-3.3 3.1-4.7 1.4-1.3 3-2.3 4.7-3.1 1.7-0.7 3.6-1.1 5.5-1.1q0.8 0 1.7 0.1 0.8 0.1 1.7 0.3 0.8 0.2 1.6 0.5 0.8 0.3 1.5 0.7h0.3c2.1 1.1 3.9 2.8 5.2 4.7 1.3 2 2.1 4.3 2.3 6.7 0.2 2.3-0.1 4.7-1.1 6.9-0.9 2.2-2.3 4.1-4.2 5.6q-0.9 0.8-2 1.4-1.1 0.6-2.2 1-1.2 0.5-2.4 0.7-1.2 0.2-2.4 0.2zm0-24.8c-1.4 0-2.7 0.3-4 0.8-1.2 0.5-2.4 1.3-3.3 2.3-1 0.9-1.8 2.1-2.3 3.3-0.5 1.3-0.8 2.6-0.8 4q0 0.3 0 0.7 0 0.3 0.1 0.6 0 0.3 0.1 0.7 0.1 0.3 0.2 0.6 0.4 1.7 1.4 3.1 0.9 1.5 2.3 2.5 1.3 1.1 2.9 1.6 1.7 0.6 3.4 0.6 0.9 0 1.8-0.1 0.8-0.2 1.7-0.5 0.8-0.3 1.6-0.7 0.7-0.4 1.4-1 0.9-0.7 1.7-1.6 0.7-0.9 1.2-2 0.5-1.1 0.8-2.2 0.2-1.1 0.2-2.3 0-1.4-0.4-2.8-0.4-1.4-1.1-2.6-0.8-1.3-1.9-2.3-1-0.9-2.3-1.6h-0.3q-0.5-0.3-1-0.5-0.6-0.2-1.1-0.3-0.6-0.2-1.2-0.2-0.5-0.1-1.1-0.1z"/>
		<path id="Layer" class="s0" d="m471.7 341.4q-1.5-1.6-2.7-3.6-1.2-1.9-2-4-0.8-2-1.2-4.3-0.4-2.2-0.4-4.4 0-0.6 0-1.3 0.1-0.6 0.1-1.3 0.1-0.6 0.2-1.2 0.1-0.7 0.2-1.3l1.9 0.4h2.1v0.4q-0.1 0.5-0.2 1.1-0.1 0.5-0.1 1-0.1 0.6-0.1 1.1 0 0.6 0 1.1 0 1.9 0.3 3.7 0.3 1.8 1 3.6 0.7 1.7 1.7 3.3 0.9 1.6 2.2 3z"/>
		<path id="Layer" class="s0" d="m509.3 339.2l-3.3-2.3q0.9-1.3 1.6-2.7 0.8-1.4 1.2-2.9 0.5-1.5 0.8-3.1 0.2-1.5 0.2-3.1c0-2.6-0.5-5.3-1.6-7.7-1-2.5-2.5-4.7-4.3-6.6-1.9-1.8-4.1-3.3-6.6-4.3-2.4-1.1-5.1-1.6-7.7-1.6q-0.9 0-1.7 0.1-0.9 0-1.7 0.2-0.8 0.1-1.7 0.3-0.8 0.2-1.6 0.5l-1.4-3.7q1-0.3 2-0.6 1-0.3 2-0.4 1-0.2 2-0.3 1.1-0.1 2.1-0.1c3.2 0 6.3 0.6 9.3 1.8 2.9 1.3 5.6 3 7.8 5.3 2.3 2.2 4 4.9 5.3 7.8 1.2 3 1.8 6.1 1.8 9.3q0 1.9-0.3 3.7-0.2 1.9-0.8 3.7-0.6 1.8-1.4 3.5-0.9 1.7-2 3.2z"/>
		<path id="Layer" class="s0" d="m479.9 336.6q-0.8-0.7-1.6-1.5-0.7-0.8-1.3-1.7-0.6-1-1.1-2-0.4-0.9-0.7-2c-0.1-0.2-0.1-0.5-0.2-0.7q-0.1-0.4-0.2-0.9-0.1-0.4-0.1-0.9-0.1-0.4-0.1-0.9 0-0.4 0-0.9c0-2 0.4-3.9 1.1-5.7 0.8-1.9 1.9-3.5 3.3-4.9 1.4-1.4 3-2.5 4.9-3.3 1.8-0.7 3.7-1.1 5.7-1.1h1.9c1.8 0.2 3.5 0.8 5.1 1.6 1.6 0.9 3.1 2 4.3 3.4 1.2 1.3 2.1 2.9 2.7 4.6 0.7 1.7 1 3.5 1 5.3q0 0.2 0 0.5 0 0.2 0 0.5 0 0.2 0 0.4-0.1 0.3-0.1 0.5 0 0.2-0.1 0.5 0 0.2-0.1 0.5 0 0.2-0.1 0.4 0 0.3-0.1 0.5l-3.8-1q0-0.2 0.1-0.3 0-0.2 0-0.4 0.1-0.2 0.1-0.3 0-0.2 0-0.4 0-0.2 0.1-0.3 0-0.2 0-0.4 0-0.2 0-0.3 0-0.2 0-0.4c0-1.3-0.2-2.6-0.7-3.9-0.5-1.2-1.2-2.4-2-3.4-0.9-1-2-1.8-3.1-2.4-1.2-0.6-2.5-1-3.8-1.2h-1.4c-1.7 0-3.3 0.4-4.8 1.1-1.5 0.7-2.8 1.8-3.9 3.1-1 1.3-1.7 2.8-2.1 4.5-0.3 1.6-0.3 3.3 0.1 4.9 0 0.2 0.1 0.3 0.1 0.5q0.2 0.8 0.6 1.5 0.3 0.7 0.7 1.4 0.5 0.7 1 1.3 0.6 0.6 1.2 1.1z"/>
		<path id="Layer" class="s0" d="m157.8 65.2q-0.2 0-0.5-0.1-0.2 0-0.4-0.1-0.2-0.1-0.4-0.3-0.2-0.1-0.3-0.3-0.2-0.3-0.3-0.7-0.1-0.4-0.1-0.8 0.1-0.4 0.3-0.7 0.2-0.4 0.5-0.6c52-39.5 101.8-39.5 102.3-39.5 0.5 0 1 0.2 1.4 0.6 0.4 0.4 0.6 0.9 0.6 1.4 0 0.5-0.2 1-0.6 1.4-0.4 0.4-0.9 0.6-1.4 0.6-1.1 0-49.3 0.4-99.9 38.7q-0.1 0.1-0.3 0.2-0.1 0.1-0.3 0.1-0.1 0.1-0.3 0.1-0.1 0-0.3 0z"/>
		<path id="Layer" class="s0" d="m476.6 641.2h-0.9q-0.4-0.2-0.6-0.5-0.3-0.3-0.4-0.7-0.1-0.3-0.1-0.7 0-0.4 0.2-0.8c19.9-43.8 0.1-96.8-0.1-97.3q-0.1-0.4-0.1-0.8 0-0.4 0.2-0.8 0.1-0.3 0.4-0.6 0.3-0.3 0.7-0.4 0.4-0.1 0.8-0.1 0.4 0 0.7 0.2 0.4 0.1 0.6 0.4 0.3 0.3 0.4 0.7c0.2 0.5 20.7 55 0 100.4q-0.1 0.2-0.3 0.4-0.2 0.2-0.5 0.3-0.2 0.2-0.5 0.2-0.2 0.1-0.5 0.1z"/>
		<path id="Layer" class="s0" d="m50.8 557.9q-0.2 0-0.4 0-0.2-0.1-0.4-0.2-0.1 0-0.3-0.1-0.2-0.2-0.3-0.3c-27.6-27.3-39.4-59.3-44.5-81.2-5.4-23.9-4.4-41-4.3-41.7q0-0.4 0.2-0.8 0.2-0.3 0.5-0.6 0.3-0.3 0.6-0.4 0.4-0.1 0.8-0.1 0.4 0.1 0.8 0.2 0.3 0.2 0.6 0.5 0.2 0.3 0.4 0.7 0.1 0.4 0.1 0.8c-0.1 0.6-3.9 68.8 47.6 119.8q0.3 0.3 0.5 0.6 0.1 0.4 0.1 0.8 0 0.4-0.1 0.8-0.2 0.3-0.5 0.6-0.1 0.1-0.3 0.3-0.2 0.1-0.3 0.2-0.2 0-0.4 0.1-0.2 0-0.4 0z"/>
	</g>
</svg>