<svg version="1.2" xmlns="http://www.w3.org/2000/svg" viewBox="0 0 593 593" width="593" height="593">
	<title>hunting-ic-svg</title>
	<style>
		.s0 { fill: #000000 } 
	</style>
	<g id="Layer_2">
		<path id="Layer" class="s0" d="m140.1 275.1c-9.1 0-15.7-2.9-19.5-6.6-3.8-3.7-4-6-2.9-8.5 0.5-1 2.1-3.3 6.7-3 13 1.2 32-13.8 32.2-13.9l2.5 3.1c-0.9 0.7-20.4 16.1-35 14.8-1.4-0.1-2.5 0.2-2.7 0.7-0.2 0.5 0 2.1 2 4 5 4.8 19.9 9.9 44.3-2.1l1.8 3.6c-11.5 5.7-21.4 7.9-29.4 7.9z"/>
		<path id="Layer" fill-rule="evenodd" class="s0" d="m223.9 293.4l-1-0.2q-4.7-0.9-9.3-2.1-4.6-1.1-9.1-2.6-4.5-1.4-9-3.2-4.4-1.7-8.7-3.7c-23.6-11.3-34.6-26.8-31.8-44.6 1.5-9.3 7.6-15.2 17.2-16.9 9.6-1.7 24.1 1.9 37.3 10.1 10.3 6.4 24.9 18.5 36.2 39.4l0.7 1.3zm-46.1-69.7q-0.6 0-1.2 0-0.6 0-1.3 0.1-0.6 0-1.2 0.1-0.6 0.1-1.2 0.2c-5.6 0.9-12.4 4-13.9 13.5-5.7 36.4 54.9 49.7 63.5 51.5l19-18.9c-16.8-30-44.6-46.5-63.7-46.5z"/>
		<path id="Layer" class="s0" d="m274.6 308.5c-1.5-4.4-37.2-106.6 5.6-129.9 39.8-21.8 76.9-42.9 93.5-62.3l1.9-2.3 1.4 2.6q1.1 2.4 1.8 4.9 0.8 2.5 1.3 5 0.4 2.6 0.6 5.2 0.1 2.6-0.1 5.2c-0.8 10.8-5.9 26.9-26.6 42.2l-2.4-3.2c30.8-22.8 25.8-46.6 23-54.6-17.9 19.2-54 39.7-92.5 60.8-38.5 21.1-4.1 124-3.7 125z"/>
		<path id="Layer" class="s0" d="m358.7 211.7l-2.9-2.8c24.9-25.6 16.6-55 16.5-55.3l3.8-1.1c0.1 0.3 9 31.9-17.4 59.2z"/>
		<path id="Layer" class="s0" d="m358.3 243.1l-2.2-3.3c29-19.2 14.9-51.1 14.3-52.5l3.6-1.6c0.2 0.3 16.2 36.3-15.7 57.4z"/>
		<path id="Layer" class="s0" d="m353.9 274.8l-2.1-3.4c31.3-18.8 20.5-47.8 20-49l3.7-1.5c0.1 0.4 12.6 33.3-21.6 53.9z"/>
		<path id="Layer" class="s0" d="m335.9 309.7l-1.3-3.8c30.2-10.8 24.9-37.4 24.7-38.5l3.9-0.8c0.1 0.3 6.4 31-27.3 43.1z"/>
		<path id="Layer" class="s0" d="m268.6 283.8c-14.5-2.1-25.5-11.3-26-11.7l2.6-3.1c0.1 0.1 10.7 8.9 24 10.8z"/>
		<path id="Layer" class="s0" d="m436.4 360l-1.1-3.9c15.5-4.3 20.8-12.9 22.5-18.2-20.8 13.3-39.2 7.2-40.1 7l-0.5-0.2-0.4-0.4c-32.3-38.2-64.1-45.6-64.4-45.7l0.9-3.9c1.3 0.3 33.1 7.7 66.2 46.5 3.2 0.9 21.2 4.9 40-9.3l3.2-2.4v4c0 0.8-0.3 19.3-26.3 26.5z"/>
		<path id="Layer" class="s0" d="m337.1 390.4q-30.1 0-54.2-12.8c-49.5-26.5-61.5-85.4-61.7-86l4-0.8c0.1 0.6 11.8 57.7 59.6 83.2 34.2 18.3 78.2 16.3 130.8-5.7l0.7-0.3 0.8 0.3c9 3.5 16.5 3.5 22.2 0.1 9.3-5.6 11-18.9 11-19.1l4 0.5c-0.1 0.6-1.9 15.4-13 22.1-6.6 3.9-15 4.1-24.9 0.4-29 12.1-55.5 18.1-79.3 18.1z"/>
		<path id="Layer" class="s0" d="m445.9 422.3h-53.1c-0.5 0-1-0.2-1.4-0.6-0.4-0.4-0.6-0.9-0.6-1.4 0-0.5 0.2-1 0.6-1.4 0.4-0.4 0.9-0.6 1.4-0.6h53.1c0.5 0 1 0.2 1.4 0.6 0.4 0.4 0.6 0.9 0.6 1.4 0 0.5-0.2 1-0.6 1.4-0.4 0.4-0.9 0.6-1.4 0.6z"/>
		<path id="Layer" class="s0" d="m411 457.3h-69.4c-0.5 0-1-0.2-1.4-0.6-0.4-0.4-0.6-0.9-0.6-1.4 0-0.5 0.2-1 0.6-1.4 0.4-0.4 0.9-0.6 1.4-0.6h69.4c0.5 0 1 0.2 1.4 0.6 0.4 0.4 0.6 0.9 0.6 1.4 0 0.5-0.2 1-0.6 1.4-0.4 0.4-0.9 0.6-1.4 0.6z"/>
		<path id="Layer" class="s0" d="m329.6 422.3h-69.9c-0.5 0-1-0.2-1.4-0.6-0.4-0.4-0.6-0.9-0.6-1.4 0-0.5 0.2-1 0.6-1.4 0.4-0.4 0.9-0.6 1.4-0.6h69.9c0.5 0 1 0.2 1.4 0.6 0.4 0.4 0.6 0.9 0.6 1.4 0 0.5-0.2 1-0.6 1.4-0.4 0.4-0.9 0.6-1.4 0.6z"/>
		<path id="Layer" fill-rule="evenodd" class="s0" d="m297 592.8c-141.2 0.1-262.9-99.6-290.5-238.1-27.6-138.5 46.5-277.2 176.9-331.3 130.5-54.1 281-8.5 359.5 108.9 78.5 117.4 63.1 273.9-36.8 373.8-13.7 13.8-28.6 26.1-44.7 36.9-16.1 10.8-33.3 20-51.2 27.4-17.9 7.4-36.5 13.1-55.5 16.8-19 3.8-38.3 5.7-57.7 5.6zm0-587.6c-160.9 0-291.8 130.9-291.8 291.8 0 160.9 130.9 291.8 291.8 291.8 160.9 0 291.8-130.9 291.8-291.8 0-160.9-130.9-291.8-291.8-291.8zm11.5 556.5v-88.1c0-3-1.2-6-3.4-8.1-2.1-2.2-5.1-3.4-8.1-3.4-3 0-6 1.2-8.1 3.4-2.2 2.1-3.4 5.1-3.4 8.1v88.1h-2.1c-32.5-1.7-64.3-9.3-94-22.5-29.7-13.2-56.7-31.8-79.7-54.8-23-23-41.6-50-54.8-79.7-13.2-29.7-20.8-61.5-22.5-94v-2.1h88.1c3 0 6-1.2 8.1-3.4 2.2-2.1 3.4-5.1 3.4-8.1 0-3-1.2-6-3.4-8.1-2.1-2.2-5.1-3.4-8.1-3.4h-88.2v-2.1c1.7-32.5 9.3-64.3 22.5-94 13.2-29.7 31.8-56.7 54.8-79.7 23-23 50-41.6 79.7-54.8 29.7-13.2 61.5-20.8 94-22.5h2.1v88.1c0 3 1.2 6 3.4 8.1 2.1 2.2 5.1 3.4 8.1 3.4 3 0 6-1.2 8.1-3.4 2.2-2.1 3.4-5.1 3.4-8.1v-88.3h2.1c32.5 1.7 64.3 9.3 94 22.5 29.7 13.2 56.7 31.8 79.7 54.8 23 23 41.6 50 54.8 79.7 13.2 29.7 20.8 61.5 22.5 94v2.1h-87.9c-3 0-6 1.2-8.1 3.4-2.2 2.1-3.4 5.1-3.4 8.1 0 3 1.2 6 3.4 8.1 2.1 2.2 5.1 3.4 8.1 3.4h88.1v2.1c-1.7 32.5-9.3 64.3-22.5 94-13.2 29.7-31.8 56.7-54.8 79.7-23 23-50 41.6-79.7 54.8-29.7 13.2-61.5 20.8-94 22.5zm-272-249.2c1.8 31.6 9.3 62.7 22.3 91.6 12.9 28.9 31.1 55.2 53.5 77.6 22.4 22.4 48.7 40.6 77.6 53.5 28.9 13 60 20.5 91.6 22.3v-83.9c0-4.1 1.6-8.1 4.5-11 2.9-2.9 6.9-4.5 11-4.5 4.1 0 8.1 1.6 11 4.5 2.9 2.9 4.5 6.9 4.5 11v83.9c31.6-1.8 62.7-9.3 91.6-22.3 28.9-12.9 55.2-31.1 77.6-53.5 22.4-22.4 40.6-48.7 53.5-77.6 13-28.9 20.5-60 22.3-91.6h-83.9c-4.1 0-8.1-1.6-11-4.5-2.9-2.9-4.5-6.9-4.5-11 0-4.1 1.6-8.1 4.5-11 2.9-2.9 6.9-4.5 11-4.5h83.9c-1.8-31.6-9.3-62.7-22.3-91.6-12.9-28.9-31.1-55.2-53.5-77.6-22.4-22.4-48.7-40.6-77.6-53.5-28.9-13-60-20.5-91.6-22.3v83.9c0 4.1-1.6 8.1-4.5 11-2.9 2.9-6.9 4.5-11 4.5-4.1 0-8.1-1.6-11-4.5-2.9-2.9-4.5-6.9-4.5-11v-83.9c-31.6 1.8-62.7 9.3-91.6 22.3-28.9 12.9-55.2 31.1-77.6 53.5-22.4 22.4-40.6 48.7-53.5 77.6-13 28.9-20.5 60-22.3 91.6h83.9c4.1 0 8.1 1.6 11 4.5 2.9 2.9 4.5 6.9 4.5 11 0 4.1-1.6 8.1-4.5 11-2.9 2.9-6.9 4.5-11 4.5z"/>
	</g>
</svg>