<svg version="1.2" xmlns="http://www.w3.org/2000/svg" viewBox="0 0 706 357" width="706" height="357">
	<title>quadracycle-ic-svg</title>
	<style>
		.s0 { fill: #000000 } 
	</style>
	<g id="Layer_2">
		<path id="Layer" fill-rule="evenodd" class="s0" d="m209.8 310.4c-17.6 0-33.4-10.6-40.1-26.8-6.7-16.2-3-34.9 9.4-47.3 12.5-12.4 31.2-16.1 47.4-9.4 16.2 6.8 26.7 22.6 26.7 40.2 0 5.7-1.1 11.3-3.3 16.6-2.2 5.2-5.4 10-9.4 14-4.1 4-8.9 7.2-14.1 9.4-5.3 2.2-10.9 3.3-16.6 3.3zm0-82.7c-15.9 0-30.3 9.6-36.4 24.3-6.1 14.7-2.7 31.7 8.5 43 11.3 11.2 28.3 14.6 43 8.5 14.7-6.1 24.3-20.5 24.3-36.4 0-5.2-1-10.3-3-15.1-2-4.7-4.9-9.1-8.6-12.7-3.6-3.7-8-6.6-12.7-8.6-4.8-2-9.9-3-15.1-3z"/>
		<path id="Layer" fill-rule="evenodd" class="s0" d="m209.8 356.4c-36.2 0-68.8-21.7-82.7-55.1-13.8-33.5-6.2-71.9 19.4-97.5 25.6-25.6 64-33.2 97.5-19.4 33.4 13.9 55.1 46.5 55.1 82.7 0 11.7-2.3 23.3-6.8 34.2-4.5 10.8-11.1 20.6-19.4 28.9-8.3 8.3-18.1 14.9-28.9 19.4-10.9 4.5-22.5 6.8-34.2 6.8zm0-174.7c-34.6 0-65.7 20.7-79 52.6-13.2 32-5.9 68.7 18.5 93.2 24.4 24.4 61.1 31.7 93.1 18.5 31.9-13.2 52.7-44.3 52.7-78.9 0-11.2-2.2-22.3-6.5-32.7-4.3-10.3-10.6-19.7-18.5-27.7-7.9-7.9-17.3-14.2-27.6-18.5-10.4-4.3-21.5-6.5-32.7-6.5z"/>
		<path id="Layer" fill-rule="evenodd" class="s0" d="m574.2 310.8c-17.6 0-33.4-10.6-40.1-26.8-6.7-16.2-3-34.9 9.4-47.3 12.4-12.4 31.1-16.1 47.3-9.4 16.2 6.7 26.8 22.5 26.8 40.1 0 5.7-1.1 11.3-3.3 16.6-2.2 5.3-5.4 10.1-9.4 14.1-4 4-8.8 7.2-14.1 9.4-5.3 2.2-10.9 3.3-16.6 3.3zm0-82.8c-15.9 0-30.3 9.6-36.4 24.3-6.1 14.7-2.7 31.7 8.5 43 11.3 11.2 28.3 14.6 43 8.5 14.7-6.1 24.3-20.5 24.3-36.4 0-5.2-1-10.3-3-15.1-2-4.8-4.9-9.1-8.5-12.8-3.7-3.6-8-6.5-12.8-8.5-4.8-2-9.9-3-15.1-3z"/>
		<path id="Layer" fill-rule="evenodd" class="s0" d="m574.2 356.7c-36.1 0-68.6-21.8-82.4-55.2-13.8-33.4-6.2-71.8 19.4-97.3 25.5-25.5 63.9-33.1 97.3-19.3 33.4 13.8 55.1 46.4 55.1 82.5 0 11.7-2.4 23.3-6.9 34.2-4.5 10.8-11.1 20.6-19.3 28.9-8.3 8.3-18.2 14.9-29 19.4-10.9 4.5-22.5 6.8-34.2 6.8zm0-174.6c-34.5 0-65.6 20.8-78.7 52.7-13.2 31.9-5.9 68.6 18.5 93 24.4 24.3 61.1 31.6 93 18.4 31.8-13.2 52.6-44.3 52.6-78.8 0-11.2-2.2-22.3-6.5-32.7-4.3-10.3-10.6-19.7-18.5-27.6-8-7.9-17.4-14.2-27.7-18.5-10.4-4.3-21.5-6.5-32.7-6.5z"/>
		<path id="Layer" fill-rule="evenodd" class="s0" d="m425.9 277.9h-79.4c-2.4 0-4.7-0.4-6.9-1.1-2.3-0.7-4.4-1.8-6.3-3.1-1.9-1.4-3.6-3.1-5-5-1.4-1.9-2.5-4-3.3-6.2l-22.5-66.2c-1.7-5.2-4.3-10.1-7.6-14.5-3.2-4.4-7.1-8.2-11.6-11.4-4.4-3.2-9.4-5.7-14.6-7.4-5.2-1.7-10.6-2.5-16.1-2.5h-97.9q-3.7 0-7.3 0.6-3.6 0.7-7.1 1.9-3.5 1.3-6.7 3.1-3.2 1.8-6 4.2l-16.6 13.9q-0.8 0.7-1.9 1.1-1.1 0.3-2.2 0.2-1.1 0-2.1-0.6-1-0.5-1.7-1.3l-25.3-28.7q-0.5-0.6-0.9-1.3-0.4-0.7-0.7-1.5-0.2-0.8-0.3-1.6-0.1-0.8 0-1.6 0.1-0.8 0.3-1.6 0.3-0.8 0.7-1.6 0.4-0.7 1-1.3 0.5-0.6 1.2-1.1l28.5-21.1q4.2-3.1 8.9-5.6 4.7-2.4 9.7-4.1 4.9-1.6 10.1-2.4 5.2-0.9 10.5-0.9h150.5c2.6 0.1 5.2 0.7 7.6 1.6 2.5 0.9 4.8 2.1 6.9 3.7 2.1 1.6 3.9 3.5 5.5 5.6 1.5 2.1 2.7 4.4 3.6 6.9l10.8 29.6q1 1.4 2.3 2.5 1.2 1.1 2.7 1.8 1.5 0.8 3.2 1.2 1.6 0.4 3.3 0.4h89.5q1.7 0 3.4-0.4 1.7-0.4 3.2-1.2 1.5-0.8 2.8-2 1.3-1.2 2.2-2.6c1.7-2.7 3.4-5.6 5.2-8.6 10.2-17.2 22.9-38.6 51-38.6h140.4c3.8 0 7.6 0.5 11.2 1.5 3.7 1 7.2 2.5 10.4 4.4 3.3 1.9 6.3 4.3 9 7 2.6 2.7 4.9 5.7 6.8 9l26.7 46.6q0.4 0.7 0.6 1.5 0.2 0.8 0.2 1.7 0 0.8-0.2 1.6-0.2 0.8-0.6 1.5-0.4 0.7-1 1.3-0.6 0.6-1.3 1-0.8 0.4-1.6 0.6-0.8 0.2-1.6 0.2h-37.6q-1.6 0-3.2-0.4-1.6-0.3-3-1.1-1.4-0.7-2.7-1.8-1.2-1.1-2.1-2.4l-6.3-9c-1.7-2.4-3.7-4.7-6-6.7-2.2-1.9-4.7-3.6-7.4-5-2.6-1.4-5.4-2.4-8.3-3.1-2.9-0.7-5.9-1.1-8.9-1.1h-62.4c-9.1 0-18.2 1.3-27 4-8.7 2.6-17 6.6-24.6 11.8-7.6 5.1-14.3 11.4-20 18.5-5.7 7.2-10.3 15.2-13.6 23.7l-19.5 49.2c-0.8 2.1-1.9 4.1-3.3 5.8-1.5 1.8-3.1 3.3-5 4.6-1.8 1.3-3.9 2.3-6 2.9-2.2 0.7-4.4 1-6.7 1zm-271.2-121.4h97.9c5.9 0 11.7 0.9 17.4 2.7 5.6 1.8 10.9 4.5 15.7 7.9 4.7 3.4 9 7.6 12.5 12.3 3.5 4.8 6.2 10 8.1 15.6l22.5 66.2c0.6 1.8 1.5 3.6 2.7 5.1 1.1 1.6 2.5 3 4.1 4.1 1.6 1.1 3.3 2 5.2 2.6 1.8 0.6 3.8 0.9 5.7 0.9h79.4c1.9 0 3.7-0.3 5.5-0.8 1.8-0.5 3.5-1.4 5-2.4 1.5-1 2.9-2.3 4.1-3.8 1.1-1.4 2-3.1 2.7-4.8l19.5-49.2c3.5-8.9 8.3-17.2 14.2-24.7 6-7.4 13-13.9 20.9-19.3 7.9-5.4 16.5-9.5 25.6-12.3 9.2-2.8 18.7-4.2 28.2-4.2h62.4c3.3 0 6.6 0.4 9.8 1.2 3.2 0.8 6.4 2 9.3 3.5 2.9 1.5 5.7 3.4 8.2 5.6 2.5 2.1 4.7 4.6 6.6 7.3l6.2 9q0.7 0.9 1.5 1.7 0.9 0.7 1.9 1.2 1 0.6 2.1 0.8 1.2 0.3 2.3 0.3h37.6q0.3 0 0.6-0.1 0.3-0.1 0.5-0.2 0.3-0.1 0.5-0.3 0.2-0.2 0.4-0.5 0.2-0.3 0.2-0.6 0.1-0.2 0.1-0.5 0-0.4-0.1-0.6 0-0.3-0.2-0.6l-26.6-46.6c-1.7-3-3.8-5.7-6.2-8.2-2.4-2.4-5.2-4.5-8.1-6.3-3-1.7-6.2-3-9.5-3.9-3.3-0.9-6.8-1.4-10.2-1.4h-140.4c-25.8 0-37.4 19.5-47.6 36.6-1.8 3.1-3.5 6-5.3 8.7q-1.2 1.9-2.8 3.4-1.6 1.5-3.6 2.6-2 1.1-4.1 1.6-2.2 0.5-4.4 0.5h-89.5q-2.2 0-4.3-0.5-2.2-0.5-4.1-1.6-2-1-3.6-2.4-1.7-1.5-2.9-3.3v-0.2l-11-30.2c-3.3-8.7-11.1-14.7-20.1-15.1h-150.4q-4.9 0-9.8 0.8-4.9 0.8-9.6 2.4-4.7 1.5-9.1 3.8-4.4 2.3-8.4 5.2l-28.4 21.1q-0.3 0.2-0.6 0.6-0.3 0.3-0.5 0.6-0.2 0.4-0.3 0.8-0.2 0.4-0.2 0.8 0 0.4 0 0.8 0 0.4 0.1 0.8 0.2 0.4 0.4 0.7 0.1 0.4 0.4 0.7l25.3 28.6q0.2 0.3 0.5 0.4 0.3 0.2 0.6 0.2 0.3 0 0.6-0.1 0.4-0.1 0.6-0.3l16.6-13.9q3.1-2.6 6.6-4.6 3.5-2 7.3-3.4 3.8-1.4 7.8-2.1 4-0.7 8-0.7z"/>
		<path id="Layer" class="s0" d="m189.2 113.2v-4h-0.6c0.7-0.3 4.9-2.9 29.7-20.6q4.8-3.5 10.1-6.1 5.3-2.7 10.9-4.5 5.7-1.9 11.5-2.8 5.9-0.9 11.8-0.9h148.8q2.1 0 4.2-0.4 2-0.4 4-1.1 1.9-0.8 3.7-1.9 1.8-1.2 3.3-2.6l11.9-11q3.3-3.1 7.2-5.6 3.8-2.4 8-4.1 4.3-1.7 8.8-2.5 4.4-0.9 9-0.9h94.5l37 66-3.5 1.9-35.8-63.9h-92.2q-4.2 0-8.3 0.8-4.1 0.8-8 2.3-3.9 1.5-7.4 3.8-3.6 2.2-6.6 5.1l-11.8 11.1q-1.8 1.7-3.9 3-2.1 1.3-4.4 2.2-2.4 0.9-4.8 1.3-2.4 0.5-4.9 0.5h-148.8q-5.6 0-11.2 0.9-5.5 0.8-10.9 2.6-5.3 1.7-10.3 4.2-5 2.5-9.6 5.8c-29.7 21.4-30.5 21.4-31.4 21.4z"/>
		<path id="Layer" class="s0" d="m636.9 94.4h-47.3l-0.6-1-42-74.8 3.5-2 41.4 73.8h45c1.6 0 3.1-0.4 4.5-1.2 1.3-0.7 2.5-1.8 3.3-3.2 0.8-1.3 1.3-2.8 1.4-4.4 0-1.5-0.3-3.1-1-4.5l-28.7-56.9q-1.1-2.1-2.6-3.8-1.6-1.7-3.6-2.9-2-1.2-4.3-1.8-2.3-0.6-4.6-0.6l-36.7 0.9v-4l36.7-0.9q2.9 0 5.7 0.7 2.8 0.8 5.2 2.3 2.5 1.5 4.5 3.6 2 2.1 3.3 4.7l28.6 56.9q0.8 1.5 1.1 3.1 0.4 1.7 0.3 3.4 0 1.6-0.5 3.3-0.5 1.6-1.4 3-0.9 1.4-2.1 2.6-1.2 1.2-2.7 2-1.4 0.8-3.1 1.3-1.6 0.4-3.3 0.4z"/>
		<path id="Layer" fill-rule="evenodd" class="s0" d="m561.1 19.6h-32.5q-1.1 0-2.1-0.4-1-0.4-1.7-1.2-0.8-0.7-1.2-1.7-0.4-1-0.4-2.1v-8.1q0-1.1 0.4-2.1 0.4-1 1.2-1.7 0.7-0.8 1.7-1.2 1-0.4 2.1-0.4h32.5q1.1 0 2.1 0.4 1 0.4 1.8 1.2 0.7 0.7 1.2 1.7 0.4 1 0.4 2.1v8.1q0 1.1-0.4 2.1-0.5 1-1.2 1.7-0.8 0.8-1.8 1.2-1 0.4-2.1 0.4zm-32.5-14.9q-0.3 0-0.5 0.1-0.3 0.1-0.5 0.3-0.2 0.2-0.3 0.5-0.1 0.2-0.1 0.5v8.1q0 0.3 0.1 0.5 0.1 0.3 0.3 0.5 0.2 0.2 0.5 0.3 0.2 0.1 0.5 0.1h32.5q0.3 0 0.6-0.1 0.2-0.1 0.4-0.3 0.2-0.2 0.4-0.5 0.1-0.2 0.1-0.5v-8.1q0-0.3-0.1-0.5-0.2-0.3-0.4-0.5-0.2-0.2-0.4-0.3-0.3-0.1-0.6-0.1z"/>
		<path id="Layer" class="s0" d="m501.1 8.1h24.1v4h-24.1z"/>
		<path id="Layer" class="s0" d="m329.4 155.9l-1.5-3.6 95.6-39.6q1.1-0.4 2-1.1 0.9-0.6 1.7-1.5 0.7-0.8 1.3-1.8 0.5-1 0.8-2.1 0.3-1.1 0.4-2.2 0.1-1.1-0.1-2.2-0.1-1.2-0.6-2.2-0.4-1.1-1-2l-14.1-20.4 3.3-2.2 14.1 20.4q0.9 1.3 1.5 2.7 0.6 1.5 0.8 3 0.3 1.6 0.2 3.1-0.2 1.6-0.6 3.1-0.5 1.5-1.2 2.9-0.8 1.4-1.8 2.5-1.1 1.2-2.4 2.2-1.3 0.9-2.7 1.5z"/>
		<path id="Layer" class="s0" d="m111.1 180.5l3.9-1.1 15.3 55-3.8 1.1z"/>
		<path id="Layer" class="s0" d="m640.6 207.2l11.6-31 3.7 1.4-11.5 31z"/>
		<path id="Layer" class="s0" d="m294.6 281.3l31.7-20.3 2.1 3.3-31.6 20.3z"/>
		<path id="Layer" class="s0" d="m444.5 265.4l1.7-3.7 43.2 20.4-1.7 3.6z"/>
		<path id="Layer" class="s0" d="m627.6 40.1h-34.8c-1.6 0-3.2-0.4-4.6-1.3-1.3-0.9-2.4-2.2-3-3.7-0.6-1.5-0.8-3.1-0.5-4.7 0.3-1.6 1.1-3.1 2.3-4.2q0.6-0.6 1.2-1 0.7-0.5 1.5-0.8 0.7-0.3 1.5-0.4 0.8-0.2 1.6-0.2h28.6v4h-28.6q-0.4 0-0.8 0.1-0.4 0-0.8 0.2-0.4 0.1-0.7 0.4-0.3 0.2-0.6 0.5-0.3 0.3-0.5 0.6-0.3 0.3-0.4 0.7-0.2 0.4-0.3 0.8-0.1 0.4-0.1 0.8 0 0.8 0.3 1.6 0.3 0.8 0.9 1.4 0.6 0.6 1.4 0.9 0.8 0.3 1.6 0.3h34.8z"/>
		<path id="Layer" class="s0" d="m492.4 356.7h-94.6c-0.5 0-1-0.2-1.4-0.6-0.4-0.4-0.6-0.9-0.6-1.4 0-0.5 0.2-1 0.6-1.4 0.4-0.4 0.9-0.6 1.4-0.6h94.6c0.5 0 1 0.2 1.4 0.6 0.4 0.4 0.6 0.9 0.6 1.4 0 0.5-0.2 1-0.6 1.4-0.4 0.4-0.9 0.6-1.4 0.6z"/>
		<path id="Layer" class="s0" d="m70.9 315.4h-68.7c-0.5 0-1-0.2-1.4-0.6-0.4-0.4-0.6-0.9-0.6-1.4 0-0.5 0.2-1 0.6-1.4 0.4-0.4 0.9-0.6 1.4-0.6h68.7c0.5 0 1 0.2 1.4 0.6 0.4 0.4 0.6 0.9 0.6 1.4 0 0.5-0.2 1-0.6 1.4-0.4 0.4-0.9 0.6-1.4 0.6z"/>
		<path id="Layer" class="s0" d="m405 315.4h-68.8c-0.5 0-1-0.2-1.4-0.6-0.4-0.4-0.6-0.9-0.6-1.4 0-0.5 0.2-1 0.6-1.4 0.4-0.4 0.9-0.6 1.4-0.6h68.8c0.5 0 1 0.2 1.4 0.6 0.4 0.4 0.6 0.9 0.6 1.4 0 0.5-0.2 1-0.6 1.4-0.4 0.4-0.9 0.6-1.4 0.6z"/>
		<path id="Layer" class="s0" d="m119.2 352.9h-82.6c-0.5 0-1-0.2-1.4-0.6-0.4-0.4-0.6-0.9-0.6-1.4 0-0.5 0.2-1 0.6-1.4 0.4-0.4 0.9-0.6 1.4-0.6h82.6c0.5 0 1 0.2 1.4 0.6 0.4 0.4 0.6 0.9 0.6 1.4 0 0.5-0.2 1-0.6 1.4-0.4 0.4-0.9 0.6-1.4 0.6z"/>
	</g>
</svg>