<svg version="1.2" xmlns="http://www.w3.org/2000/svg" viewBox="0 0 823 844" width="823" height="844"><style>.a{fill:none;stroke:#ffffff;stroke-linecap:round;stroke-linejoin:round;stroke-width:18}</style><path class="a" d="m411 9v826"/><path class="a" d="m287.5 29l123.1 157.6"/><path class="a" d="m534 29l-123 158"/><path class="a" d="m288 815l123.4-157.6"/><path class="a" d="m535 815l-123.2-158"/><path class="a" d="m768.8 215.3l-715.4 413"/><path class="a" d="m689.7 118.4l-74.9 185.4"/><path class="a" d="m813 331.8l-198.4-27.5"/><path class="a" d="m9.3 511.8l198.2 28"/><path class="a" d="m132.8 725.7l75.2-185.7"/><path class="a" d="m769 628.4l-715.4-413"/><path class="a" d="m813.4 511.4l-198.1 27.9"/><path class="a" d="m690.2 724.9l-75.4-185.5"/><path class="a" d="m132.5 118.9l74.8 185.7"/><path class="a" d="m9 332.8l198.4-27.7"/><path class="a" d="m551 500l-139.5 80-139.5-80v-160l139.5-80 139.5 80z"/></svg>