<svg version="1.2" xmlns="http://www.w3.org/2000/svg" viewBox="0 0 798 933" width="798" height="933"><style>.a{fill:none;stroke:#ffffff;stroke-linecap:round;stroke-linejoin:round;stroke-width:18}</style><path class="a" d="m402 924v-734"/><path class="a" d="m672.9 224.3c13.8 16.3 34.5 26.7 57.6 26.7 8.8 0 17.1-1.5 25-4.2-11.6 15.9-18.5 35.5-18.5 56.7 0 31.3 14.9 59.1 38 76.7q-3.2-0.2-6.5-0.2c-54.4 0-98.5 44.1-98.5 98.5 0 54.1 43.7 98 97.7 98.5l21.1 47c-28.4 13-47.4 41.6-47.7 73.5-17.3-23.9-45.4-39.5-77.1-39.5-52.5 0-95 42.5-95 95 0 6.3 0.6 12.5 1.8 18.5-9.4-5.4-20.2-8.5-31.8-8.5-13.5 0-25.9 4.2-36.2 11.3q0.2-3.4 0.2-6.8c0-56.1-45.4-101.5-101.5-101.5-56.1 0-101.5 45.4-101.5 101.5q0 5.5 0.6 10.9c-11.2-9.6-25.7-15.4-41.6-15.4-11.6 0-22.4 3.1-31.8 8.5 1.2-6 1.8-12.2 1.8-18.5 0-52.5-42.5-95-95-95-31.7 0-59.8 15.6-77.1 39.5-0.3-31.9-19.3-60.5-47.7-73.5l21.1-47c54-0.5 97.7-44.4 97.7-98.5 0-54.4-44.1-98.5-98.5-98.5q-3.3 0-6.5 0.2c23.1-17.6 38-45.4 38-76.7 0-21.2-6.9-40.8-18.5-56.7 7.9 2.7 16.2 4.2 25 4.2 23.1 0 43.8-10.4 57.6-26.7 14.9 37.3 51.3 63.7 93.9 63.7 55.8 0 101-45.2 101-101 0-25.2-9.3-48.3-24.6-66 58.9-0.2 106.6-48 106.6-107 0 57 44.6 103.6 100.8 106.8-15.5 17.7-24.8 40.9-24.8 66.2 0 55.8 45.2 101 101 101 42.6 0 79-26.4 93.9-63.7zm-270.8-215.3q-0.1 2.5-0.1 5 0-2.5-0.1-5z"/><path class="a" d="m604 566h-403"/><path class="a" d="m213 373.5l189.5 189.5"/><path class="a" d="m591 374l-189 190"/></svg>