<svg version="1.2" xmlns="http://www.w3.org/2000/svg" viewBox="0 0 286 287" width="286" height="287"><style></style><path  d="m7.4 0.3h271.2c3.8 0 6.8 3 6.8 6.8v11.1c0 3.8-3 6.8-6.8 6.9h-271.2c-3.8-0.1-6.8-3.1-6.8-6.9v-11.1c0-3.8 3-6.8 6.8-6.8v2.1 2.2c-1.4 0-2.5 1.1-2.5 2.5v11.1c0 1.4 1.1 2.5 2.5 2.5h271.2c1.4 0 2.5-1.1 2.5-2.5v-11.1c0-1.4-1.1-2.5-2.5-2.5h-271.2v-2.2zm-4.6 286.5c-0.6 0-1.2-0.2-1.6-0.6-0.4-0.4-0.6-1-0.6-1.6v-16.1c0-3.7 3-6.8 6.8-6.8h271.2c3.8 0 6.8 3.1 6.8 6.8v16.1c0 0.6-0.2 1.2-0.6 1.6-0.4 0.4-1 0.6-1.6 0.6h-280.4v-2.2h2.1-2.1v-2.1h278.3v-14c0-1.3-1.1-2.5-2.5-2.5h-271.2c-1.4 0-2.5 1.2-2.5 2.5v16.1h-2.1zm7.7-263.2c0-1.2 1-2.2 2.1-2.2 1.2 0 2.2 1 2.2 2.2v240.3c0 1.2-1 2.2-2.2 2.2-1.1 0-2.1-1-2.1-2.2v-240.3m260.7 0c0-1.2 1-2.2 2.2-2.2 1.1 0 2.1 1 2.1 2.2v240.3c0 1.2-1 2.2-2.1 2.2-1.2 0-2.2-1-2.2-2.2v-240.3m-149.1 1.2c0-1.2 1-2.1 2.2-2.1 1.2 0 2.2 0.9 2.2 2.1v240.3c0 1.2-1 2.2-2.2 2.2-1.2 0-2.2-1-2.2-2.2v-240.3m-29.5 97h8.5c3.8 0 6.8 3 6.8 6.8v29.2c0 3.8-3 6.9-6.8 6.9h-8.5c-3.8 0-6.8-3.1-6.8-6.9v-29.2c0-3.8 3-6.8 6.8-6.8v2.1 2.2c-1.4 0-2.5 1.1-2.5 2.5v29.2c0 1.4 1.1 2.5 2.5 2.5h8.5c1.4 0 2.5-1.1 2.5-2.5v-29.2c0-1.4-1.1-2.5-2.5-2.5h-8.5v-2.2zm111.2-26.9v2.2h-2.2v-10.9c0-3.9-3.2-7.1-7.1-7.1h-21c-4 0-7.1 3.2-7.2 7.1v8.7h37.5v2.2h2.1c0 0.5-0.2 1.1-0.6 1.5-0.4 0.4-1 0.6-1.5 0.6h-39.6c-0.6 0-1.1-0.2-1.5-0.6-0.4-0.4-0.7-1-0.7-1.5v-10.9c0-6.3 5.1-11.4 11.5-11.4h21c6.3 0 11.4 5.1 11.4 11.4v10.9h-2.1zm68.9 23.5c1.2 0 2.2 1 2.2 2.2 0 1.2-1 2.1-2.2 2.1h-22.5c-1.2 0-2.2-0.9-2.2-2.1 0-1.2 1-2.2 2.2-2.2h22.5m-104.2-5c0.2-1.2 1.3-2 2.5-1.8 1.2 0.2 2 1.3 1.8 2.5l-2.1 13.6c-0.2 1.2-1.3 2-2.5 1.8-1.2-0.2-2-1.3-1.8-2.5l2.1-13.6m-3.7 27.6c0.2-1.2 1.3-2 2.5-1.8 1.2 0.2 2 1.3 1.8 2.5l-2.2 13.6c-0.1 1.2-1.3 2-2.4 1.8-1.2-0.2-2-1.3-1.8-2.5l2.1-13.6m-4 28.2c0.2-1.2 1.3-2 2.5-1.8 1.2 0.1 2 1.3 1.8 2.4l-2.2 13.7c-0.2 1.1-1.3 1.9-2.5 1.8-1.1-0.2-1.9-1.3-1.8-2.5l2.2-13.6m35.9-55.1c-0.2-1.2 0.6-2.3 1.8-2.5 1.2-0.2 2.3 0.6 2.5 1.8l2.1 13.6c0.2 1.2-0.6 2.3-1.8 2.5-1.2 0.2-2.3-0.6-2.5-1.8l-2.1-13.6m3.7 27.6c-0.2-1.2 0.6-2.3 1.8-2.5 1.2-0.2 2.3 0.6 2.5 1.8l2.1 13.6c0.2 1.2-0.6 2.3-1.8 2.5-1.1 0.2-2.3-0.6-2.4-1.8l-2.2-13.6m4 28.1c-0.2-1.1 0.6-2.3 1.8-2.4 1.2-0.2 2.3 0.6 2.5 1.8l2.2 13.6c0.1 1.2-0.7 2.3-1.8 2.5-1.2 0.1-2.3-0.7-2.5-1.8l-2.2-13.7m42.7-59.5c0-1.2 0.9-2.1 2.1-2.1 1.2 0 2.2 0.9 2.2 2.1v20.5c0 1.2-1 2.2-2.2 2.2-1.2 0-2.1-1-2.1-2.2v-20.5m-64.7 4.1c0-1.2 1-2.2 2.2-2.2 1.2 0 2.2 1 2.2 2.2v13.9c0 1.2-1 2.2-2.2 2.2-1.2 0-2.2-1-2.2-2.2v-13.9m0 26.9c0-1.2 1-2.2 2.2-2.2 1.2 0 2.2 1 2.2 2.2v13.9c0 1.2-1 2.2-2.2 2.2-1.2 0-2.2-1-2.2-2.2v-13.9m0 28.5c0-1.2 1-2.2 2.2-2.2 1.2 0 2.2 1 2.2 2.2v13.9c0 1.2-1 2.2-2.2 2.2-1.2 0-2.2-1-2.2-2.2v-13.9m2.2-91.7c-1.2 0-2.2-0.9-2.2-2.1v-16.1c0-6.4 5.2-11.5 11.5-11.5h78.5c1.2 0 2.2 1 2.2 2.2 0 1.2-1 2.1-2.2 2.1h-78.5c-4 0.1-7.1 3.2-7.1 7.2v16.1c0 1.2-1 2.1-2.2 2.1z"/></svg>