<svg version="1.2" xmlns="http://www.w3.org/2000/svg" viewBox="0 0 416 594" width="416" height="594">
	<title>spa-ic-svg</title>
	<style>
		.s0 { fill: #000000 } 
	</style>
	<g id="Layer_2">
		<path id="Layer" class="s0" d="m202 403.9c-30.1 0-58.7-15.6-80.7-44-22-28.4-34.7-65.8-36.8-106.6l4-0.2c2 39.9 14.8 77 36 104.4 21.2 27.4 48.7 42.4 77.5 42.4 52.4 0 97.8-49.3 110.5-119.9l3.9 0.7c-13 72.5-60 123.2-114.4 123.2z"/>
		<path id="Layer" fill-rule="evenodd" class="s0" d="m87.4 255.9l-1.8-0.9c-0.5-0.2-11.3-5.7-20.6-22.5-8.5-15.2-17.2-43.1-11-89.5 3.9-29.7 17.9-60.1 39.4-85.8 21.5-25.7 47.1-43.4 73.7-51.8 36.5-11.4 70.1-2.8 94.7 24.1 14.6 16.1 20.8 32.5 18.4 48.8-6 39.3-58.9 70.2-101.4 95.1-14.7 8.6-27.3 16-36 22.6-42 31.9-54.4 57.8-54.5 58.1zm110.4-251.4q-3.8 0-7.5 0.3-3.7 0.4-7.4 1-3.7 0.6-7.4 1.5-3.6 0.8-7.2 2c-54.1 16.9-102.6 75.9-110.4 134.3-10.1 76.1 20.2 101.7 27.8 106.8 3.7-6.7 18-29.7 54.7-57.6 8.8-6.7 21.6-14.2 36.4-22.9 39.5-23.1 93.7-54.8 99.4-92.2 2.3-15-3.6-30.4-17.4-45.5-16.7-18.3-37.7-27.7-61-27.7z"/>
		<path id="Layer" class="s0" d="m184.1 62.2l-3.2-2.4c0.3-0.4 7.4-10.1 21.4-18.2 14-8.1 34.2-14.9 62.7-7.8l-1 3.9c-21.8-5.4-41.8-3-59.6 7.2q-2.9 1.7-5.7 3.6-2.7 1.9-5.3 4.1-2.5 2.2-4.9 4.6-2.3 2.4-4.4 5z"/>
		<path id="Layer" class="s0" d="m341.2 162.7l-4-0.2c1-31.8-8.7-57.4-28.7-76.1q-3.3-3.1-6.9-5.8-3.6-2.8-7.5-5.1-3.9-2.3-7.9-4.3-4.1-1.9-8.4-3.4l1.1-3.8c0.7 0.2 16.5 4.8 32.1 19.3 15.6 14.5 31.5 38.1 30.2 79.4z"/>
		<path id="Layer" class="s0" d="m312.2 286.2l0.3-6q0.1-6.9-0.5-13.9-0.5-6.9-1.7-13.7-1.2-6.9-3-13.6-1.7-6.7-4.1-13.2c-9.6-26.7-31.4-62.3-80.4-80.6l1.4-3.7c50.5 18.8 72.9 55.6 82.8 83.1q2.2 6 3.8 12.2 1.7 6.2 2.9 12.5 1.2 6.3 1.9 12.6 0.7 6.4 0.9 12.8c29.7-36.7 41.2-67.4 34.2-91.1-7-23.7-33.1-33-33.4-33.1l1.2-3.8c1.1 0.3 28 8.9 36 35.8 8 26.9-5.2 59.4-38.5 99.1z"/>
		<path id="Layer" class="s0" d="m201.1 353q-3.7 0-7.3-0.6-3.6-0.5-7.2-1.5-3.5-1-6.9-2.4-3.4-1.5-6.5-3.4l2.3-3.3c1 0.6 24.4 16.3 50-0.1l2.2 3.4q-3 1.9-6.2 3.4-3.2 1.5-6.5 2.5-3.4 1-6.9 1.5-3.5 0.5-7 0.5z"/>
		<path id="Layer" class="s0" d="m206.8 569.8h-6.5q-15.7-0.1-31.3-0.8-15.7-0.7-31.3-1.9-15.6-1.2-31.1-2.9-15.6-1.8-31.1-4.1l0.5-3.9q15.4 2.3 30.9 4 15.5 1.7 31.1 2.9 15.5 1.2 31.1 1.9 15.6 0.7 31.2 0.8h3.4q15.6 0.1 31.2-0.4 15.6-0.5 31.1-1.7 15.6-1.1 31.1-2.9 15.5-1.7 30.9-4.1l0.6 3.9q-15.1 2.3-30.3 4.1-15.2 1.7-30.4 2.9-15.3 1.1-30.5 1.7-15.3 0.5-30.6 0.5z"/>
		<path id="Layer" class="s0" d="m203.1 593.5c-25.1 0-47.8-1.2-67.2-2.8-60-5-102.4-15.2-110.6-18.2l-2.2 1.5v-25.3c0-25.7 3.6-54.9 30.7-77.3q3.7-3 7.7-5.6 4-2.7 8.2-4.9 4.2-2.2 8.7-4 4.4-1.8 9-3.1l61.1-18q1.6-0.4 3.2-1.1 1.5-0.7 3-1.6 1.4-1 2.6-2.1 1.3-1.1 2.4-2.4 1.2-1.5 2.1-3.2 0.9-1.6 1.5-3.4 0.7-1.8 1-3.7 0.3-1.9 0.3-3.8v-20.3h4v20.3q0 2.2-0.4 4.5-0.3 2.2-1.1 4.3-0.7 2.1-1.8 4.1-1.1 1.9-2.5 3.7-1.3 1.5-2.8 2.9-1.5 1.3-3.2 2.4-1.6 1.1-3.5 1.9-1.8 0.8-3.7 1.4l-61 17.9q-4.4 1.3-8.7 3-4.2 1.7-8.3 3.8-4.1 2.1-7.9 4.7-3.8 2.5-7.4 5.4c-25.7 21.3-29.2 49.4-29.2 74.2v20.3c7.1 2.5 49.8 12.9 111 17.9 58.3 4.7 147 5.3 238.9-18.2v-20c0-24.8-3.5-52.9-29.3-74.2q-3.5-2.9-7.4-5.4-3.8-2.6-7.8-4.7-4.1-2.1-8.3-3.8-4.3-1.7-8.7-3l-61.1-17.9c-2.7-0.7-5.3-1.9-7.7-3.5-2.3-1.6-4.4-3.6-6.1-5.9-1.7-2.2-3-4.8-3.9-7.4-0.9-2.7-1.3-5.6-1.3-8.4v-20.3h4v20.3q0 1.9 0.3 3.8 0.4 1.9 1 3.7 0.6 1.8 1.6 3.4 0.9 1.7 2.1 3.2 1.1 1.3 2.3 2.4 1.3 1.1 2.7 2.1 1.4 0.9 2.9 1.6 1.6 0.7 3.2 1.1l61.1 18q4.6 1.3 9 3.1 4.5 1.8 8.7 4 4.3 2.2 8.3 4.9 4 2.6 7.7 5.6c27 22.4 30.7 51.6 30.7 77.3v25.3l-2.4-1.6c-62.8 16.1-124.1 21.1-175.5 21.1z"/>
		<path id="Layer" class="s0" d="m198.4 568.4v-0.2q-1-4.5-2.7-8.7-1.7-4.3-3.9-8.3-2.3-4-5.1-7.7-2.8-3.6-6.1-6.8l2.8-2.8q3.5 3.4 6.5 7.2 3 3.9 5.3 8.1 2.4 4.3 4.2 8.8 1.7 4.6 2.8 9.3v0.5h-2z"/>
		<path id="Layer" class="s0" d="m205.5 568.6l-1.6-0.8h-2.2v-0.5q1.1-4.7 2.9-9.3 1.8-4.5 4.2-8.8 2.4-4.2 5.3-8.1 3-3.8 6.5-7.2l2.8 2.8q-3.3 3.2-6.1 6.8-2.8 3.7-5.1 7.7-2.2 4-3.9 8.2-1.7 4.3-2.7 8.8z"/>
		<path id="Layer" fill-rule="evenodd" class="s0" d="m86.5 425c-7.9 0-15-4.8-18-12-3-7.3-1.4-15.7 4.2-21.3 5.6-5.6 14-7.2 21.3-4.2 7.2 3 12 10.1 12 18 0 2.6-0.5 5.1-1.5 7.4-1 2.4-2.4 4.6-4.2 6.4-1.8 1.8-4 3.2-6.4 4.2-2.3 1-4.8 1.5-7.4 1.5zm0-35c-6.3 0-11.9 3.8-14.3 9.6-2.4 5.8-1.1 12.4 3.3 16.9 4.5 4.4 11.1 5.7 16.9 3.3 5.8-2.4 9.6-8 9.6-14.3 0-2-0.4-4.1-1.2-5.9-0.8-1.9-1.9-3.6-3.3-5.1-1.5-1.4-3.2-2.5-5.1-3.3-1.8-0.8-3.9-1.2-5.9-1.2z"/>
		<path id="Layer" fill-rule="evenodd" class="s0" d="m396.5 388.7c-7.9 0-15-4.8-18-12-3-7.3-1.4-15.7 4.2-21.3 5.6-5.6 14-7.2 21.3-4.2 7.2 3 12 10.1 12 18 0 2.6-0.5 5.1-1.5 7.5-1 2.3-2.4 4.5-4.2 6.3-1.8 1.8-4 3.2-6.3 4.2-2.4 1-4.9 1.5-7.5 1.5zm0-35c-6.3 0-11.9 3.8-14.3 9.6-2.4 5.8-1.1 12.4 3.3 16.9 4.5 4.4 11.1 5.7 16.9 3.3 5.8-2.4 9.6-8 9.6-14.3 0-2-0.4-4.1-1.2-5.9-0.7-1.9-1.9-3.6-3.3-5.1-1.5-1.4-3.2-2.6-5.1-3.3-1.8-0.8-3.9-1.2-5.9-1.2z"/>
		<path id="Layer" fill-rule="evenodd" class="s0" d="m24.3 296c-9.4 0-17.9-5.4-22-13.9-4-8.4-2.8-18.5 3.2-25.8 5.9-7.2 15.5-10.4 24.6-8.2 9.1 2.2 16.1 9.5 18 18.7q0.5 2.3 0.5 4.7 0 2.4-0.4 4.8-0.5 2.4-1.4 4.6-0.9 2.2-2.2 4.2-1.3 2-3 3.7-1.7 1.7-3.6 3.1-2 1.3-4.2 2.2-2.3 0.9-4.6 1.4-0.6 0.1-1.2 0.2-0.6 0.1-1.2 0.2-0.6 0.1-1.3 0.1-0.6 0-1.2 0zm0-44.6q-0.5 0-1 0-0.5 0-1.1 0.1-0.5 0-1 0.1-0.5 0.1-1 0.2c-6.6 1.4-12.1 6-14.6 12.3-2.6 6.2-1.8 13.4 2 19 3.8 5.6 10.1 8.9 16.9 8.9 6.8-0.1 13.1-3.5 16.8-9.1q1.1-1.7 1.9-3.5 0.7-1.9 1.1-3.9 0.4-1.9 0.3-3.9 0-2-0.4-4c-0.5-2.3-1.3-4.4-2.5-6.4-1.3-2-2.8-3.8-4.6-5.2-1.8-1.5-3.8-2.6-6-3.4-2.2-0.8-4.5-1.2-6.8-1.2z"/>
		<path id="Layer" fill-rule="evenodd" class="s0" d="m372.1 310.5q-1.8 0-3.5-0.3-1.8-0.2-3.4-0.7-1.7-0.5-3.3-1.3-1.6-0.7-3.1-1.7-2-1.3-3.7-3-1.7-1.7-3-3.7-1.4-2-2.3-4.2-1-2.2-1.5-4.5c-0.6-3.1-0.6-6.3 0-9.5 0.6-3.1 1.8-6.1 3.5-8.7 1.8-2.7 4.1-5 6.7-6.8 2.6-1.8 5.6-3 8.7-3.7q2.3-0.5 4.7-0.5 2.4-0.1 4.8 0.4 2.3 0.4 4.6 1.3 2.2 0.9 4.2 2.2 2 1.3 3.7 3 1.7 1.7 3 3.7 1.4 2 2.3 4.2 1 2.2 1.5 4.5c0.6 3.1 0.6 6.4 0 9.5-0.6 3.1-1.8 6.1-3.5 8.8-1.8 2.7-4 5-6.7 6.8-2.6 1.8-5.6 3-8.7 3.7q-0.6 0.1-1.2 0.2-0.7 0.1-1.3 0.2-0.6 0-1.2 0.1-0.7 0-1.3 0zm0.1-44.7c-8.6 0-16.3 5.3-19.2 13.4-2.9 8.1-0.4 17.2 6.3 22.6 6.6 5.5 16 6.1 23.3 1.7 7.4-4.5 11.1-13.1 9.4-21.5-0.5-2.3-1.3-4.4-2.5-6.4-1.2-2-2.8-3.7-4.5-5.2-1.8-1.5-3.9-2.6-6-3.4-2.2-0.8-4.5-1.2-6.8-1.2z"/>
		<path id="Layer" fill-rule="evenodd" class="s0" d="m24.3 364.8c-5.3 0-10.2-3.2-12.2-8.2-2-4.9-0.9-10.6 2.9-14.4 3.8-3.7 9.5-4.8 14.4-2.8 5 2.1 8.1 7 8.1 12.3 0 1.7-0.4 3.4-1 5-0.7 1.6-1.7 3.1-2.9 4.3-1.2 1.2-2.7 2.1-4.3 2.8-1.6 0.7-3.3 1-5 1zm0-22.3c-3.7 0-7.1 2.2-8.5 5.7-1.4 3.4-0.6 7.4 2 10 2.6 2.6 6.6 3.4 10 2 3.5-1.4 5.7-4.8 5.7-8.5 0-1.2-0.2-2.4-0.7-3.5-0.5-1.1-1.1-2.2-2-3-0.8-0.9-1.9-1.5-3-2-1.1-0.5-2.3-0.7-3.5-0.7z"/>
		<path id="Layer" fill-rule="evenodd" class="s0" d="m300.2 418.7c-5.3 0-10.2-3.2-12.2-8.1-2-5-0.9-10.7 2.9-14.4 3.7-3.8 9.4-4.9 14.4-2.9 4.9 2 8.1 6.9 8.1 12.2 0 1.7-0.3 3.4-1 5.1-0.7 1.6-1.6 3-2.9 4.2-1.2 1.3-2.6 2.2-4.2 2.9-1.7 0.7-3.4 1-5.1 1zm0-22.4c-3.7 0-7.1 2.2-8.5 5.7-1.4 3.4-0.6 7.4 2 10 2.6 2.6 6.6 3.4 10 2 3.5-1.4 5.7-4.8 5.7-8.5 0-1.2-0.2-2.4-0.7-3.5-0.5-1.1-1.1-2.2-2-3-0.8-0.9-1.9-1.5-3-2-1.1-0.5-2.3-0.7-3.5-0.7z"/>
		<path id="Layer" class="s0" d="m75 583.2q-0.4 0-0.8-0.1-0.3-0.2-0.6-0.4-0.3-0.3-0.4-0.6-0.2-0.4-0.2-0.8c-0.2-8.4 0.6-29.9 3-44.3 0.1-0.5 0.4-1 0.9-1.3 0.4-0.3 0.9-0.4 1.4-0.3 0.6 0.1 1 0.4 1.3 0.8 0.3 0.4 0.5 1 0.4 1.5-2.4 14.1-3.2 35.3-3 43.5q0 0.4-0.2 0.8-0.1 0.3-0.4 0.6-0.3 0.3-0.6 0.4-0.4 0.2-0.8 0.2z"/>
		<path id="Layer" class="s0" d="m329.1 583.2h-0.1q-0.4 0-0.8-0.2-0.3-0.1-0.6-0.4-0.2-0.3-0.4-0.6-0.1-0.4-0.1-0.8c0.1-8.2-0.7-29.4-3-43.5q-0.1-0.4 0-0.8 0.1-0.4 0.3-0.7 0.3-0.3 0.6-0.5 0.3-0.2 0.7-0.3 0.4-0.1 0.8 0 0.4 0.1 0.7 0.3 0.3 0.3 0.5 0.6 0.2 0.3 0.3 0.7c2.4 14.4 3.2 35.9 3.1 44.3q0 0.4-0.2 0.8-0.1 0.3-0.4 0.6-0.3 0.2-0.6 0.4-0.4 0.1-0.8 0.1z"/>
	</g>
</svg>