<svg version="1.2" xmlns="http://www.w3.org/2000/svg" viewBox="0 0 646 570" width="646" height="570">
	<title>stroll-ic-svg</title>
	<style>
		.s0 { fill: #000000 } 
	</style>
	<g id="Layer_2">
		<path id="Layer" fill-rule="evenodd" class="s0" d="m384 247.1c-8.8 0-16.9-5.1-20.6-13.2-3.7-8-2.4-17.4 3.4-24.1 5.8-6.7 14.9-9.5 23.4-7 8.5 2.5 14.8 9.6 16.1 18.4l-4 0.6c-1.4-9.3-9.6-16-19-15.6-9.3 0.3-17 7.6-17.7 16.9-0.8 9.4 5.6 17.8 14.8 19.7 9.2 1.8 18.3-3.5 21.2-12.4l3.8 1.3c-0.7 2.2-1.8 4.3-3.2 6.2-1.4 1.9-3.1 3.6-5 4.9-1.9 1.4-4 2.5-6.3 3.2-2.2 0.7-4.5 1.1-6.9 1.1zm9-15.1l-8.2-1.4q-1-0.2-1.9-0.7-0.9-0.6-1.5-1.4-0.7-0.7-1-1.7-0.4-1-0.4-2v-0.7q0.1-1.2 0.7-2.2 0.6-1 1.5-1.7 0.9-0.7 2-1 1.1-0.3 2.3-0.2l7.9 0.4-0.2 4c-3.1-0.1-6-0.2-8.1-0.5q-0.4-0.1-0.7 0-0.4 0.1-0.7 0.3-0.3 0.3-0.5 0.6-0.2 0.3-0.2 0.7v0.3q0 0.3 0.1 0.7 0.1 0.3 0.3 0.5 0.3 0.3 0.6 0.5 0.3 0.1 0.6 0.2c2.6 0.5 5.3 1 8 1.3z"/>
		<path id="Layer" fill-rule="evenodd" class="s0" d="m598.7 569.3h-133.1q-5.8 0-11.6-0.6-5.9-0.6-11.6-1.9-5.7-1.3-11.2-3.1-5.5-1.9-10.8-4.4c-34.6-16.1-100.3-52.3-150.7-113-58.9-71-142.7-134.7-192.7-172.8-10.3-7.9-19.2-14.6-26.2-20.2-19.2-15.2-34.1-31.3-44.3-47.8-2.1-3.4-3.7-7-4.7-10.9-1-3.8-1.4-7.7-1.3-11.7 0.2-4 0.9-7.9 2.2-11.6 1.3-3.8 3.2-7.3 5.5-10.5l27-37.1c1.4-2.1 31.9-50.7 78-88.8q4.4-3.7 8.9-7.1 4.6-3.5 9.3-6.8 4.7-3.2 9.6-6.3 4.8-3 9.8-5.8c4.8-2.7 9.7-5.2 14.6-7.4 1.2-0.5 2.5-0.8 3.9-0.8 1.3 0 2.6 0.3 3.8 0.8 1.3 0.6 2.4 1.3 3.3 2.3 0.9 1 1.6 2.1 2 3.4 8.4 25.5 40.2 110.7 93.8 138.1 39.4 20.2 97.4 5.1 139.1-11.1q2.8-1.1 5.9-1.6 3-0.5 6.1-0.2 3 0.2 5.9 1.1 3 0.9 5.6 2.5 2.7 1.5 4.9 3.6 2.3 2.1 4 4.7 1.7 2.5 2.8 5.4 1.2 2.9 1.6 5.9v0.5c2.5 15 4.6 32.4 6.8 50.7l0.8 6.8-3.9 0.5-0.9-6.8c-2.2-18.3-4.3-35.6-6.7-50.5v-0.6c-0.5-3.5-1.8-6.8-3.8-9.7-1.9-2.9-4.5-5.3-7.5-7-3.1-1.8-6.5-2.8-9.9-3.1-3.5-0.3-7 0.2-10.3 1.5-42.4 16.5-101.6 31.8-142.3 11-54.9-28.1-87.2-114.6-95.8-140.5q-0.2-0.6-0.5-1.1-0.3-0.5-0.7-0.9-0.4-0.4-0.9-0.7-0.5-0.4-1-0.6-0.5-0.2-1.1-0.3-0.6-0.2-1.2-0.1-0.5 0-1.1 0.1-0.6 0.1-1.1 0.4c-4.7 2.1-9.5 4.5-14.3 7.2q-4.9 2.8-9.7 5.8-4.8 2.9-9.4 6.2-4.6 3.2-9.1 6.6-4.5 3.4-8.8 7c-46.4 38.4-76.8 87.4-77.1 87.9h-0.1l-27.1 37.2c-2.1 2.9-3.7 6.1-4.9 9.4-1.2 3.4-1.8 6.9-2 10.5-0.1 3.5 0.3 7.1 1.2 10.5 0.9 3.5 2.3 6.8 4.2 9.8 9.9 16.1 24.5 31.8 43.4 46.8 6.9 5.5 15.8 12.3 26.1 20.1 50.2 38.2 134.1 102.1 193.4 173.5 49.9 60 115 95.9 149.3 111.9q5.1 2.4 10.4 4.2 5.3 1.8 10.8 3 5.5 1.2 11.1 1.8 5.6 0.6 11.2 0.6h133.1c5.6 0 11.2-1.1 16.4-3.3 5.2-2.1 9.9-5.3 13.9-9.2 3.9-4 7.1-8.7 9.2-13.9 2.2-5.2 3.3-10.8 3.3-16.4v-25.1c0-2.4-0.3-4.8-1-7.2-0.7-2.3-1.8-4.5-3.1-6.5-1.3-2.1-3-3.9-4.8-5.4-1.9-1.6-4-2.9-6.2-3.8l-112.5-48.1q-2-0.8-3.8-2-1.9-1.1-3.5-2.6-1.6-1.5-2.9-3.2-1.3-1.7-2.3-3.6c-9.9-19.1-18.2-40.5-25.3-65.2l3.9-1.1c7 24.5 15.2 45.5 25 64.4q0.9 1.6 2 3.1 1.1 1.4 2.4 2.6 1.4 1.3 2.9 2.3 1.5 1 3.2 1.7l112.4 48c2.6 1.1 5 2.6 7.2 4.4 2.2 1.8 4.1 3.9 5.6 6.2 1.6 2.4 2.8 5 3.6 7.7 0.8 2.7 1.2 5.5 1.2 8.3v25.2c0 6.1-1.2 12.2-3.6 17.9-2.3 5.7-5.8 10.8-10.1 15.2-4.4 4.3-9.5 7.8-15.2 10.1-5.7 2.4-11.8 3.6-17.9 3.6zm-139-214.6q-0.9 0-1.8 0-0.9-0.1-1.9-0.1-0.9-0.1-1.8-0.2-0.9-0.1-1.8-0.2l0.6-4q1.5 0.2 2.9 0.4 1.5 0.1 3 0.1 1.5 0 3 0 1.4-0.1 2.9-0.3l0.5 4q-0.7 0.1-1.4 0.1-0.7 0.1-1.4 0.1-0.7 0.1-1.4 0.1-0.7 0-1.4 0zm-4.2-10.2h-1.1v-4q1.1 0 2.1 0 1.1 0 2.1-0.1 1.1-0.1 2.1-0.2 1.1-0.1 2.1-0.2l0.6 4q-1 0.1-2 0.2-1 0.1-1.9 0.2-1 0-2 0.1-1 0-2 0zm17.8-5.3c-4.3-16.1-8-33.6-11.4-53.2l4-0.7c3.4 19.5 7 36.8 11.2 52.9zm-13.1-63.8c-3-18.6-5.3-36.7-7-50.4l4-0.5c1.7 13.7 4 31.7 6.9 50.2zm-67.2-43.4l-8.2-1.4q-1-0.2-1.9-0.7-0.9-0.6-1.5-1.4-0.7-0.7-1-1.7-0.4-1-0.4-2v-0.7q0.1-1.2 0.7-2.2 0.6-1 1.5-1.7 0.9-0.7 2-1 1.1-0.3 2.3-0.2l7.9 0.4-0.2 4c-3.1-0.1-6-0.2-8.1-0.5q-0.4-0.1-0.7 0-0.4 0.1-0.7 0.3-0.3 0.3-0.5 0.6-0.2 0.3-0.2 0.7v0.3q0 0.3 0.1 0.7 0.1 0.3 0.3 0.5 0.3 0.3 0.6 0.5 0.3 0.1 0.6 0.2c2.6 0.5 5.3 1 8 1.3z"/>
		<path id="Layer" class="s0" d="m445.8 290.2l3.9-1.1 15.3 52.7-3.9 1.1z"/>
		<path id="Layer" class="s0" d="m425.8 220.6l-0.9-3c-1.4-4.9-3.6-9.5-6.6-13.6-2.9-4.1-6.5-7.7-10.6-10.7-4.2-2.9-8.7-5.2-13.6-6.6-4.9-1.4-9.9-2-15-1.8-42.2 2-99.8 0.4-134.1-18.4-22.9-12.6-45.9-42.6-68.3-89.2q-3.9-8-7.5-16.2-3.6-8.2-7-16.4-3.4-8.3-6.5-16.7-3.1-8.3-5.9-16.8l3.8-1.2c0.4 1.3 40.3 123.8 93.4 152.9 35.2 19.4 97.8 19.6 131.9 18 5.5-0.3 11 0.4 16.3 2 5.3 1.5 10.3 3.9 14.8 7.2 4.5 3.2 8.4 7.1 11.6 11.6 3.2 4.5 5.6 9.5 7.1 14.8l0.9 3z"/>
		<path id="Layer" class="s0" d="m428.6 231.3l3.9-1.1 14.3 49.3-3.9 1.1z"/>
		<path id="Layer" class="s0" d="m317.5 416.5l-0.7-3.9 115.4-21.3c4.4-0.8 8.7-2.5 12.6-4.8 3.8-2.3 7.2-5.3 10.1-8.9 2.8-3.5 4.9-7.5 6.3-11.8 1.4-4.3 2.1-8.8 1.9-13.3l4-0.2c0.2 5-0.5 10-2 14.7-1.6 4.8-4 9.2-7.1 13.1-3.1 3.9-6.9 7.3-11.2 9.8-4.3 2.6-9 4.4-13.9 5.3z"/>
		<path id="Layer" class="s0" d="m608.5 531h-122.2q-8 0-15.9-1.1-7.9-1.1-15.6-3.3-7.7-2.2-15-5.5-7.2-3.2-14-7.5c-75.6-47.9-126.4-115.3-175.5-180.4-10.2-13.6-20.7-27.5-31.2-40.9-64.9-83-182.2-165-183.4-165.8l2.3-3.3c1.2 0.9 119 83.1 184.3 166.7 10.5 13.3 21 27.3 31.2 40.8 48.9 64.9 99.5 132.1 174.4 179.5q6.5 4.1 13.6 7.3 7 3.1 14.4 5.3 7.4 2.1 15.1 3.2 7.6 1 15.3 1h122.2q3.5 0 6.9-0.8 3.4-0.9 6.4-2.5 3.1-1.6 5.8-3.9 2.6-2.3 4.6-5.1l9.7-13.9 3.3 2.3-9.7 13.8q-2.3 3.3-5.2 5.9-3 2.6-6.6 4.5-3.5 1.8-7.4 2.8-3.8 0.9-7.8 0.9z"/>
		<path id="Layer" class="s0" d="m211.5 282.1c0-0.5-1.9-56-39.5-117.1-37.6-61.1-59.2-127.3-59.4-127.9l3.8-1.3c0.2 0.7 22.3 67.3 59 127.1 38.2 62 40 118.6 40.1 119.1z"/>
		<path id="Layer" fill-rule="evenodd" class="s0" d="m384 237.4c-3.4 0-6.7-1.3-9.1-3.7-2.4-2.4-3.7-5.7-3.7-9.1 0-3.4 1.3-6.7 3.7-9.1 2.4-2.4 5.7-3.7 9.1-3.7q2.1 0 4 0.6 2 0.7 3.6 1.9 1.7 1.2 2.9 2.9 1.1 1.7 1.7 3.7l0.8 2.6h-2.8c-3.1-0.1-6-0.2-8.1-0.5q-0.4-0.1-0.7 0-0.4 0.1-0.7 0.3-0.3 0.3-0.5 0.6-0.2 0.3-0.2 0.7v0.3q0 0.3 0.1 0.7 0.1 0.3 0.3 0.5 0.3 0.3 0.6 0.5 0.3 0.1 0.6 0.2c2.6 0.5 5.3 1 8 1.3l2.9 0.5-1.5 2.4q-0.8 1.4-2 2.6-1.2 1.2-2.7 2.1-1.4 0.8-3 1.2-1.6 0.5-3.3 0.5zm0-21.6c-2.3 0-4.6 0.9-6.2 2.6-1.7 1.6-2.6 3.9-2.6 6.2 0 2.3 0.9 4.6 2.6 6.2 1.6 1.7 3.9 2.6 6.2 2.6q0.7 0 1.5-0.1 0.7-0.2 1.4-0.4 0.7-0.3 1.4-0.7 0.6-0.3 1.2-0.8l-4.7-0.8q-1-0.2-1.9-0.7-0.9-0.6-1.5-1.4-0.7-0.7-1-1.7-0.4-1-0.4-2v-0.7q0.1-1.2 0.7-2.2 0.6-1 1.5-1.7 0.9-0.7 2-1 1.1-0.3 2.3-0.2l4.5 0.3q-0.6-0.8-1.4-1.5-0.8-0.6-1.7-1.1-0.9-0.4-1.9-0.7-1-0.2-2-0.2z"/>
		<path id="Layer" class="s0" d="m409.4 304.6c-9 0.1-17.2-5.2-20.8-13.4-3.6-8.3-2.1-17.9 4-24.5 6.1-6.6 15.5-9 24-6.1 8.5 3 14.5 10.6 15.2 19.6l-4 0.3c-0.9-9.3-8.6-16.4-18-16.5-9.3-0.1-17.2 6.8-18.4 16-1.1 9.3 4.9 17.9 13.9 20.1 9.1 2.2 18.3-2.8 21.5-11.6l3.7 1.3c-0.8 2.2-1.9 4.2-3.3 6-1.4 1.8-3 3.4-4.9 4.7-1.9 1.4-4 2.4-6.1 3.1-2.2 0.7-4.5 1-6.8 1z"/>
		<path id="Layer" class="s0" d="m409.4 294.9c-4.9 0-9.4-2.8-11.5-7.3-2.1-4.4-1.5-9.6 1.5-13.5 3.1-3.8 8.1-5.6 12.9-4.5 4.7 1.1 8.5 4.8 9.6 9.6l-3.9 0.9q-0.4-1.4-1.2-2.7-0.8-1.2-1.9-2.2-1.2-0.9-2.6-1.4-1.4-0.5-2.9-0.5c-2.3 0-4.6 0.9-6.2 2.6-1.7 1.6-2.6 3.9-2.6 6.2 0 2.3 0.9 4.6 2.6 6.2 1.6 1.7 3.9 2.6 6.2 2.6q1.1 0 2.2-0.3 1-0.3 2-0.8 1-0.6 1.8-1.3 0.8-0.8 1.4-1.7l3.4 2.1q-0.9 1.4-2 2.5-1.2 1.1-2.6 1.9-1.5 0.8-3 1.2-1.6 0.4-3.2 0.4z"/>
		<path id="Layer" class="s0" d="m433.9 366.4c-9 0-17.2-5.3-20.8-13.6-3.6-8.3-1.9-17.9 4.3-24.5 6.1-6.5 15.6-8.8 24.1-5.8 8.5 3.1 14.3 10.9 14.9 19.9l-4 0.2c-0.7-9.3-8.2-16.5-17.5-17-9.3-0.4-17.4 6.1-19 15.3-1.5 9.2 4 18.1 12.9 20.7 8.9 2.7 18.4-1.7 22.1-10.2l3.6 1.6c-0.9 2-2 3.8-3.5 5.5-1.4 1.6-3 3.1-4.8 4.2-1.8 1.2-3.8 2.1-5.9 2.8-2.1 0.6-4.2 0.9-6.4 0.9z"/>
		<path id="Layer" class="s0" d="m433.9 356.6c-4.9 0-9.4-2.8-11.6-7.3-2.1-4.4-1.5-9.7 1.6-13.5 3.1-3.9 8.1-5.6 12.9-4.5 4.8 1.2 8.6 5 9.6 9.8l-3.9 0.9q-0.3-1.5-1.1-2.8-0.8-1.3-1.9-2.2-1.2-1-2.6-1.5-1.5-0.5-3-0.5c-2.3 0-4.6 0.9-6.2 2.6-1.7 1.6-2.6 3.9-2.6 6.2 0 2.3 0.9 4.6 2.6 6.2 1.6 1.7 3.9 2.6 6.2 2.6q1.1 0 2.1-0.2 1.1-0.3 2-0.8 1-0.5 1.8-1.2 0.8-0.7 1.4-1.6l3.3 2.2q-0.9 1.3-2 2.3-1.2 1.1-2.6 1.8-1.4 0.7-2.9 1.1-1.5 0.4-3.1 0.4z"/>
		<path id="Layer" fill-rule="evenodd" class="s0" d="m439.3 291.7c-10.9 0-21-1.8-27.8-3l-2.6-0.5c-1.4-0.4-2.6-1.2-3.4-2.4-0.8-1.2-1.1-2.7-0.9-4.1 0.2-1.4 0.9-2.7 2-3.7 1.1-0.9 2.5-1.4 3.9-1.4l3 0.3c12.4 1.5 35.4 4.3 51.9-5.9q0.4-0.2 0.7-0.3 0.4-0.1 0.8-0.1 0.4-0.1 0.8 0 0.4 0.1 0.8 0.2 0.4 0.2 0.7 0.4 0.3 0.3 0.5 0.6 0.2 0.3 0.4 0.7 0.1 0.3 0.2 0.7l1 6.1q0.2 1.1 0 2.2-0.2 1-0.7 2-0.5 0.9-1.3 1.7-0.8 0.7-1.8 1.2c-9.1 4-19 5.3-28.2 5.3zm-29.4-11.2q-0.3 0-0.7 0.1-0.3 0.2-0.6 0.4-0.2 0.2-0.4 0.5-0.1 0.4-0.2 0.7 0 0.4 0.1 0.7 0.1 0.4 0.3 0.7 0.2 0.2 0.5 0.4 0.3 0.2 0.7 0.3l2.6 0.4c12.2 2.2 35.1 6.3 53.7-2q0.4-0.2 0.7-0.5 0.3-0.3 0.5-0.7 0.2-0.3 0.3-0.8 0-0.4 0-0.8l-0.8-4.9c-17.6 10.2-40.9 7.4-53.5 5.9l-3-0.3z"/>
		<path id="Layer" class="s0" d="m413.9 233.4l-10.6-0.3c-3.3-0.3-6.8-0.6-10.3-1.1l0.6-4c3.4 0.5 6.7 0.9 10 1.1q3.4 0.2 6.7 0.3 3.4 0.1 6.8 0 3.3-0.1 6.7-0.3 3.4-0.2 6.7-0.6 3.1-0.4 6.1-0.9 3.1-0.5 6.1-1.2 3-0.7 5.9-1.6 3-0.9 5.9-1.9l3.8-1.6q0.4-0.2 0.7-0.5 0.3-0.3 0.5-0.7 0.2-0.3 0.2-0.8 0.1-0.4 0-0.8l-0.8-4.9q-0.5 0.3-1 0.6-0.6 0.3-1.1 0.6-0.5 0.2-1.1 0.5-0.5 0.2-1.1 0.4c-6.7 2.9-15.7 5.1-26.7 6.4-7.2 0.8-15.4 1.3-23.6 1.4-3.4 0.1-6.8 0.1-10.1-0.1l0.2-4c3.2 0.2 6.5 0.2 9.9 0.1q2.9 0 5.8-0.1 2.9-0.1 5.8-0.3 2.9-0.2 5.8-0.4 2.9-0.3 5.8-0.6c10.6-1.3 19.2-3.3 25.6-6.1q0.6-0.2 1.2-0.5 0.6-0.3 1.2-0.6 0.6-0.3 1.2-0.6 0.5-0.3 1.1-0.7 0.3-0.2 0.7-0.3 0.4-0.1 0.8-0.1 0.4-0.1 0.8 0 0.3 0.1 0.7 0.2 0.4 0.2 0.7 0.4 0.3 0.3 0.5 0.6 0.3 0.3 0.5 0.6 0.1 0.4 0.2 0.8l1 6.1q0.2 1.1 0 2.2-0.2 1-0.7 2-0.5 1-1.3 1.7-0.8 0.8-1.8 1.2l-4 1.6q-3 1.1-6.1 2-3.1 0.9-6.2 1.7-3.1 0.7-6.3 1.2-3.1 0.6-6.3 0.9-2.1 0.3-4.3 0.4-2.1 0.2-4.2 0.4-2.2 0.1-4.3 0.1-2.2 0.1-4.3 0.1z"/>
		<path id="Layer" class="s0" d="m452.4 354.2q-1.3-0.2-2.6-0.4-1.2-0.3-2.5-0.6-1.3-0.3-2.5-0.6-1.3-0.4-2.5-0.8c-2-0.6-3.9-1.2-5.7-1.9l-3.9-1.3q-1.1-0.3-1.9-1-0.9-0.7-1.4-1.7-0.6-1-0.7-2.1-0.1-1.1 0.2-2.2 0.3-0.9 0.8-1.6 0.5-0.8 1.3-1.4 0.7-0.5 1.6-0.8 0.9-0.3 1.8-0.3h1.4c2.5 0.7 5.6 1.4 9 2q1.2 0.2 2.4 0.3 1.2 0.2 2.4 0.3 1.3 0.1 2.5 0.2 1.2 0.1 2.4 0.1v4q-1.3 0-2.6-0.1-1.2-0.1-2.5-0.2-1.3-0.1-2.6-0.3-1.2-0.2-2.5-0.4c-3.6-0.6-6.8-1.3-9.4-2h-0.4q-0.3 0-0.5 0.1-0.3 0.1-0.5 0.2-0.2 0.2-0.4 0.4-0.1 0.2-0.2 0.5-0.1 0.3-0.1 0.7 0 0.3 0.2 0.6 0.1 0.3 0.4 0.5 0.3 0.2 0.6 0.3l4 1.4 5.5 1.8q1.2 0.4 2.4 0.7 1.2 0.3 2.4 0.6 1.2 0.3 2.4 0.5 1.2 0.2 2.4 0.4z"/>
		<path id="Layer" class="s0" d="m465.3 354.4l-0.5-4q1.6-0.2 3.2-0.5 1.6-0.2 3.2-0.6 1.5-0.4 3.1-0.9 1.5-0.5 3-1.1l1.4-0.5q0.3-0.1 0.5-0.3 0.2-0.2 0.3-0.5 0.2-0.2 0.2-0.5 0.1-0.3 0-0.6l-1.1-5.5-2.6 1.2q-1.5 0.6-3.1 1.1-1.5 0.5-3.1 0.9-1.5 0.5-3.1 0.8-1.6 0.3-3.2 0.6l-0.6-4q1.5-0.2 2.9-0.5 1.5-0.3 2.9-0.7 1.5-0.4 2.9-0.9 1.4-0.4 2.8-1l3.2-1.4q0.3-0.2 0.7-0.3 0.4-0.1 0.8-0.1 0.4 0 0.8 0.1 0.4 0.1 0.7 0.3 0.4 0.2 0.7 0.4 0.3 0.3 0.5 0.6 0.2 0.4 0.4 0.7 0.1 0.4 0.2 0.8l1.2 6.1q0.2 1 0 1.9-0.1 1-0.6 1.9-0.4 0.9-1.2 1.5-0.7 0.7-1.6 1.1l-1.4 0.5q-1.6 0.6-3.3 1.2-1.6 0.5-3.3 0.9-1.7 0.5-3.4 0.8-1.8 0.3-3.5 0.5z"/>
		<path id="Layer" fill-rule="evenodd" class="s0" d="m170.3 321.3q-1.2 0-2.3-0.2-1.1-0.2-2.2-0.7-1.1-0.4-2.1-1-1-0.6-1.8-1.4-13-12.5-26.4-24.6-13.4-12-27.2-23.7-13.8-11.6-27.9-22.7-14.2-11.2-28.7-21.9c-2.8-1.7-4.8-4.6-5.5-7.8-0.6-3.3 0.1-6.7 2-9.4 2-2.7 4.9-4.5 8.2-4.9 3.3-0.4 6.6 0.5 9.2 2.6 0.6 0.4 54.6 38.9 113 95.1q0.8 0.8 1.5 1.8 0.7 1 1.2 2 0.5 1.1 0.7 2.3 0.3 1.1 0.3 2.3 0 1.2-0.2 2.3-0.2 1.2-0.7 2.3-0.4 1.1-1 2.1-0.7 1-1.5 1.8-0.8 0.9-1.8 1.6-1 0.7-2.1 1.1-1.1 0.5-2.3 0.8-1.2 0.2-2.4 0.2zm-111.6-113.9c-1.7 0-3.4 0.5-4.7 1.5-1.4 1-2.4 2.4-2.9 4-0.6 1.6-0.6 3.4 0 5 0.5 1.6 1.5 3 2.9 4 0.6 0.4 53.2 37.9 110.7 93.2q0.6 0.5 1.2 0.9 0.7 0.4 1.4 0.7 0.7 0.3 1.5 0.5 0.7 0.1 1.5 0.1 0.8 0 1.6-0.1 0.8-0.2 1.5-0.5 0.7-0.3 1.4-0.8 0.7-0.4 1.2-1 0.5-0.6 1-1.2 0.4-0.7 0.7-1.4 0.3-0.8 0.4-1.5 0.2-0.8 0.2-1.6 0-0.8-0.2-1.6-0.2-0.7-0.5-1.4-0.3-0.8-0.8-1.4-0.4-0.7-1-1.2-13.3-12.8-26.9-25.1-13.7-12.3-27.8-24.2-14.1-11.8-28.5-23.2-14.5-11.4-29.3-22.3-0.5-0.4-1.1-0.6-0.5-0.3-1.1-0.5-0.6-0.1-1.2-0.2-0.6-0.1-1.2-0.1z"/>
		<path id="Layer" class="s0" d="m204.2 569.3h-167.3c-0.5 0-1-0.2-1.4-0.6-0.4-0.4-0.6-0.9-0.6-1.4 0-0.5 0.2-1 0.6-1.4 0.4-0.4 0.9-0.6 1.4-0.6h167.3c0.5 0 1 0.2 1.4 0.6 0.4 0.4 0.6 0.9 0.6 1.4 0 0.5-0.2 1-0.6 1.4-0.4 0.4-0.9 0.6-1.4 0.6z"/>
		<path id="Layer" class="s0" d="m466.3 569.3h-143c-0.5 0-1-0.2-1.4-0.6-0.4-0.4-0.6-0.9-0.6-1.4 0-0.5 0.2-1 0.6-1.4 0.4-0.4 0.9-0.6 1.4-0.6h143c0.5 0 1 0.2 1.4 0.6 0.4 0.4 0.6 0.9 0.6 1.4 0 0.5-0.2 1-0.6 1.4-0.4 0.4-0.9 0.6-1.4 0.6z"/>
		<path id="Layer" class="s0" d="m261.3 511.1h-130.6c-0.5 0-1-0.2-1.4-0.6-0.4-0.4-0.6-0.9-0.6-1.4 0-0.5 0.2-1 0.6-1.4 0.4-0.4 0.9-0.6 1.4-0.6h130.6c0.5 0 1 0.2 1.4 0.6 0.4 0.4 0.6 0.9 0.6 1.4 0 0.5-0.2 1-0.6 1.4-0.4 0.4-0.9 0.6-1.4 0.6z"/>
	</g>
</svg>