<svg version="1.2" xmlns="http://www.w3.org/2000/svg" viewBox="0 0 684 542" width="684" height="542">
	<title>waterSports-ic-svg</title>
	<style>
		.s0 { fill: #000000 } 
	</style>
	<g id="Layer_2">
		<path id="Layer" class="s0" d="m653.1 289.1c16.1-17.9 15.2-32.7 15.4-34.6 0.2-1.9 0.6-15.2-13.1-31.9-20.5-25-73-57.3-206-68.9l-0.4 4c131.3 11.5 182.9 42.9 203.1 67.2 13.6 16.4 12.5 29.3 12.5 29.4q0 0-0.1 0.1 0 0 0 0.1 0 0.1 0 0.1 0.1 0.1 0.1 0.1c0 0.2 2.3 13.2-14.7 32-17 18.8-46.4 34.1-87.3 45.6-55.5 15.6-131.3 23.5-225.1 23.5-10.8 0-21.2-0.1-30.9-0.3v4c9.8 0.2 20.2 0.3 31 0.3 208.4 0 286.7-38.4 315.5-70.7zm-379.4 65.4c-165.3-7.2-229.7-41.7-254.7-69.5-15.1-16.8-14.5-30.2-14.5-30.3v-0.3c0-0.1-1.9-12.8 15.8-31.7 17.7-18.9 47.7-34.3 89.3-45.8 56.6-15.7 133.3-23.6 228-23.6 28.1 0 54.9 0.7 79.6 2.1l0.2-4c-24.8-1.4-51.6-2.1-79.8-2.1-210.3 0-290.4 38.6-320.5 70.9-16.8 18-16.6 32.6-16.6 34.3 0 1.7-0.2 15.6 15.3 32.9 25.3 28.4 90.6 63.8 257.7 71.1z"/>
		<path id="Layer" fill-rule="evenodd" class="s0" d="m492.2 326.6q-0.2 0-0.5 0-0.2-0.1-0.4-0.2-0.2-0.1-0.4-0.2-0.2-0.2-0.3-0.4-0.2-0.2-0.3-0.4-0.1-0.3-0.2-0.6 0-0.2 0-0.5 0.1-0.3 0.2-0.5c19.6-46 19.6-92.6 0-138.5q-0.1-0.2-0.2-0.5 0-0.3 0-0.5 0.1-0.3 0.2-0.6 0.1-0.2 0.3-0.4 0.1-0.2 0.3-0.4 0.2-0.2 0.5-0.3 0.2-0.1 0.5-0.1 0.2 0 0.5 0c63.7 8.5 108 23.1 131.5 43.2 16.9 14.4 16.7 26.8 16.5 28.8-0.2 2 0.4 14.4-16.5 28.9-23.5 20.1-67.8 34.6-131.5 43.2zm3.1-139.7c18.3 44.9 18.3 90.3 0 135.2 145.5-20.2 141.2-66.8 141.1-67.3v-0.5c0.1-0.1 1.2-11.9-15.7-26.1-16.9-14.2-50-30.8-125.4-41.3z"/>
		<path id="Layer" fill-rule="evenodd" class="s0" d="m176.8 326h-0.3c-147.4-20.5-147.9-67.7-147.7-71.5 0.2-3.8 0.3-51 147.7-71.4q0.3 0 0.5 0 0.3 0 0.5 0.1 0.3 0.1 0.5 0.2 0.2 0.2 0.4 0.4 0.1 0.2 0.2 0.5 0.1 0.2 0.2 0.5 0 0.2 0 0.5 0 0.2-0.1 0.5c-19.3 45.6-19.3 91.8 0 137.4q0.1 0.3 0.1 0.5 0 0.3 0 0.5-0.1 0.3-0.2 0.5-0.1 0.3-0.2 0.5-0.1 0.2-0.3 0.3-0.2 0.2-0.4 0.3-0.2 0.1-0.4 0.1-0.3 0.1-0.5 0.1zm-3.2-138.5c-74 10.7-108.4 28.2-124.3 41.2-15.9 13-16.6 25.6-16.5 25.7v0.3c-0.1 0.1-0.6 11.7 16.5 25.7 17.1 14 50.3 30.5 124.3 41.1-17.9-44.5-17.9-89.5 0-134z"/>
		<path id="Layer" class="s0" d="m337.3 335.3h-13.5v-4h13.5c44.8 0 85.5-1.7 121.1-4.9 25.2-48.4 25.2-95.4 0-143.7-8.4-0.8-17-1.5-25.5-2l0.2-1.9v-2.1h0.2c8.9 0.6 17.8 1.3 26.6 2.1q0.3 0 0.5 0.1 0.2 0.1 0.4 0.3 0.2 0.1 0.4 0.3 0.2 0.2 0.3 0.4c26.6 50.2 26.6 99.1 0 149.3q-0.1 0.2-0.3 0.4-0.1 0.2-0.4 0.3-0.2 0.2-0.4 0.2-0.3 0.1-0.5 0.1c-36 3.4-77.2 5.1-122.6 5.1z"/>
		<path id="Layer" class="s0" d="m290.5 334.7c-29.4-0.9-56.8-2.5-81.3-4.9q-0.3 0-0.5-0.1-0.2-0.1-0.4-0.3-0.2-0.1-0.4-0.3-0.2-0.2-0.3-0.4c-26.3-49.9-26.3-98.4 0-148.4q0.1-0.2 0.3-0.4 0.1-0.2 0.4-0.3 0.2-0.2 0.4-0.2 0.3-0.1 0.5-0.1c37.3-3.7 80.4-5.5 128.1-5.5 22.1 0 43.4 0.4 63.4 1.2v4c-20-0.8-41.3-1.2-63.3-1.2-47.1 0-89.7 1.8-126.7 5.3-24.9 48.1-24.9 94.8 0 142.8 24.2 2.4 51.1 4 79.9 4.8z"/>
		<path id="Layer" fill-rule="evenodd" class="s0" d="m211.9 541.6q-1.4 0-2.7-0.2-1.4-0.2-2.7-0.6-1.3-0.5-2.5-1.1-1.3-0.6-2.4-1.4l-52.9-37.4c-1.9-1.4-3.6-3.1-4.8-5.1-1.3-2-2.1-4.2-2.5-6.5-0.4-2.3-0.4-4.7 0.1-7 0.6-2.3 1.5-4.5 2.9-6.4l66.1-93.4c4.8-6.9 11-10.7 19.4-12.2l17.8-3.6c17.3-3.6 19.6-4.8 25.4-12.9l226.6-320.3q0.9-1.2 2-2.3 1.1-1 2.3-1.8 1.3-0.8 2.7-1.4 1.4-0.5 2.9-0.8h0.2q1.5-0.2 3-0.1 1.6 0.1 3 0.4 1.5 0.4 2.9 1.1 1.4 0.6 2.6 1.5 1.3 0.8 2.4 1.9 1.1 1.1 1.9 2.4 0.9 1.3 1.4 2.7 0.6 1.4 0.9 2.9v0.2q0.3 1.5 0.2 3 0 1.5-0.3 3-0.4 1.4-1 2.8-0.6 1.4-1.5 2.6l-226.5 320.4c-5.7 8.1-6 10.7-3.7 28.2l2.5 18q0.6 2.9 0.6 5.9 0 2.9-0.7 5.8-0.6 2.9-1.8 5.6-1.2 2.7-3 5.1l-66.1 93.4q-1 1.4-2.3 2.7-1.3 1.2-2.8 2.1-1.5 0.9-3.1 1.6-1.7 0.6-3.4 0.9-0.4 0.1-0.8 0.1-0.4 0.1-0.7 0.1-0.4 0.1-0.8 0.1-0.4 0-0.8 0zm300.1-510.6l-1.6 0.2h-0.2q-1.1 0.2-2.1 0.6-1.1 0.4-2 1-0.9 0.6-1.8 1.3-0.8 0.8-1.4 1.7l-226.6 320.3c-6.6 9.4-10.6 10.9-27.7 14.5l-17.9 3.6q-2.6 0.4-5 1.2-2.4 0.9-4.6 2.3-2.2 1.4-4.1 3.2-1.9 1.8-3.3 3.9l-66.1 93.4c-1.1 1.5-1.8 3.2-2.2 5-0.4 1.8-0.4 3.6-0.1 5.4 0.3 1.8 1 3.5 1.9 5.1 1 1.5 2.3 2.9 3.8 3.9l52.9 37.5q1.1 0.8 2.4 1.3 1.2 0.6 2.6 0.9 1.3 0.2 2.7 0.3 1.3 0 2.7-0.2 1.4-0.2 2.6-0.7 1.3-0.5 2.5-1.2 1.2-0.7 2.1-1.7 1-1 1.8-2.1l66.1-93.4q1.5-2.1 2.6-4.4 1.1-2.3 1.6-4.8 0.6-2.5 0.6-5.1 0-2.6-0.5-5.1l-2.5-18.2c-2.4-17.4-2.3-21.6 4.3-31l226.6-320.4q0.6-0.9 1.1-1.9 0.4-1 0.7-2.1 0.2-1.1 0.3-2.2 0-1.1-0.2-2.2v-0.2q-0.2-1.1-0.6-2.2-0.5-1-1.1-2-0.6-0.9-1.4-1.8-0.8-0.8-1.8-1.4-0.8-0.6-1.6-1-0.9-0.4-1.8-0.7-0.9-0.3-1.8-0.4-0.9-0.2-1.9-0.2z"/>
		<path id="Layer" class="s0" d="m646.3 427.5c-15.6 0-23.5-3.1-31.2-6.1-7.7-3-14.8-5.9-29.6-5.9-14.8 0-22.1 2.8-29.7 5.9-7.6 3.1-15.6 6.1-31.2 6.1-15.6 0-23.5-3.1-31.2-6.1-7.7-3-14.8-5.9-29.6-5.9q-0.4 0-0.8-0.2-0.3-0.1-0.6-0.4-0.3-0.3-0.4-0.6-0.2-0.4-0.2-0.8 0-0.4 0.1-0.8 0.2-0.4 0.5-0.6 0.2-0.3 0.6-0.5 0.4-0.1 0.8-0.1c15.6 0 23.5 3.1 31.1 6.1 7.6 3 14.9 5.9 29.7 5.9 14.8 0 22.1-2.8 29.7-5.9 7.6-3.1 15.6-6.1 31.2-6.1 15.6 0 23.5 3.1 31.1 6.1 7.6 3 14.9 5.9 29.7 5.9 0.5 0 1 0.2 1.4 0.6 0.4 0.4 0.6 0.9 0.6 1.4 0 0.5-0.2 1-0.6 1.4-0.4 0.4-0.9 0.6-1.4 0.6z"/>
		<path id="Layer" class="s0" d="m681.5 494.2c-15.6 0-23.5-3.1-31.2-6.2-7.7-3.1-14.8-5.9-29.7-5.9-14.9 0-22 2.9-29.7 5.9-7.7 3-15.5 6.2-31.1 6.2-15.6 0-23.5-3.1-31.2-6.2-7.7-3.1-14.8-5.9-29.7-5.9-0.5 0-1-0.2-1.4-0.6-0.4-0.4-0.6-0.9-0.6-1.4 0-0.5 0.2-1 0.6-1.4 0.4-0.4 0.9-0.6 1.4-0.6 15.6 0 23.5 3.2 31.2 6.2 7.7 3 14.9 5.9 29.7 5.9 14.8 0 22-2.9 29.7-5.9 7.7-3 15.5-6.2 31.1-6.2 15.6 0 23.5 3.2 31.2 6.2 7.7 3 14.8 5.9 29.7 5.9 0.5 0 1 0.2 1.4 0.6 0.4 0.4 0.6 0.9 0.6 1.4 0 0.5-0.2 1-0.6 1.4-0.4 0.4-0.9 0.6-1.4 0.6z"/>
		<path id="Layer" class="s0" d="m213.3 16.5c-15.6 0-23.5-3.2-31.2-6.2-7.7-3-14.8-5.9-29.7-5.9-14.9 0-22 2.9-29.7 5.9-7.7 3-15.5 6.2-31.1 6.2-15.6 0-23.5-3.2-31.2-6.2-7.7-3-14.8-5.9-29.7-5.9-0.5 0-1-0.2-1.4-0.6-0.4-0.4-0.6-0.9-0.6-1.4 0-0.5 0.2-1 0.6-1.4 0.4-0.4 0.9-0.6 1.4-0.6 15.6 0 23.6 3.1 31.2 6.2 7.6 3.1 14.9 5.9 29.7 5.9 14.8 0 22-2.9 29.7-5.9 7.7-3 15.5-6.2 31.1-6.2 15.6 0 23.5 3.1 31.2 6.2 7.7 3.1 14.8 5.9 29.7 5.9 0.5 0 1 0.2 1.4 0.6 0.4 0.4 0.6 0.9 0.6 1.4 0 0.5-0.2 1-0.6 1.4-0.4 0.4-0.9 0.6-1.4 0.6z"/>
		<path id="Layer" class="s0" d="m260.7 83.1c-15.5 0-23.5-3.1-31.1-6.1-7.6-3-14.9-5.9-29.7-5.9-14.8 0-22 2.8-29.7 5.9-7.7 3.1-15.5 6.1-31.1 6.1-15.6 0-23.5-3.1-31.2-6.1-7.7-3-14.9-5.9-29.7-5.9q-0.4 0-0.8-0.2-0.3-0.1-0.6-0.4-0.3-0.3-0.4-0.6-0.2-0.4-0.2-0.8 0-0.4 0.1-0.8 0.2-0.4 0.5-0.6 0.2-0.3 0.6-0.5 0.4-0.1 0.8-0.1c15.6 0 23.5 3.1 31.2 6.1 7.7 3 14.8 5.9 29.7 5.9 14.9 0 22-2.8 29.6-5.9 7.6-3.1 15.6-6.1 31.2-6.1 15.6 0 23.5 3.1 31.2 6.1 7.7 3 14.8 5.9 29.6 5.9 0.5 0 1 0.2 1.4 0.6 0.4 0.4 0.6 0.9 0.6 1.4 0 0.5-0.2 1-0.6 1.4-0.4 0.4-0.9 0.6-1.4 0.6z"/>
	</g>
</svg>