<svg version="1.2" xmlns="http://www.w3.org/2000/svg" viewBox="0 0 236 297" width="236" height="297"><style>.a{fill:#15130f}</style><path class="a" d="m21.5 0.1h192.7c11.4 0 20.7 9.3 20.7 20.7l0.3 255.2c0 11.5-9.3 20.8-20.7 20.8h-193c-11.4 0-20.7-9.3-20.7-20.8v-255.2c0-11.4 9.3-20.7 20.7-20.7v2.2 2.1c-9 0-16.4 7.4-16.4 16.4v255.2c0 9.1 7.4 16.4 16.4 16.4h193c9 0 16.4-7.3 16.4-16.4l-0.3-255.2c0-9-7.4-16.4-16.4-16.4h-192.7v-2.1zm152.3 240c1.1 0 2.2 0.8 2.2 1.8 0 1.1-1 2-2.2 2h-14.8c-1.8 0-3.5-0.6-3.5-2.3v-29.4c0-1.1 1.1-2.2 2.6-2.2h15.1c1.2 0 2.2 0.9 2.2 1.9 0 1.1-1 1.8-2.2 1.8h-13.2v11.3h12.2c1.1 0 2.1 0.8 2.1 1.9 0 1-0.9 1.8-2.1 1.8h-12.2v11.4zm-30.6 0c1.2 0 2.2 0.8 2.2 1.8 0 1.1-1 2-2.2 2h-14.8c-1.8 0-3.5-0.6-3.5-2.3v-29.4c0-1.1 1.1-2.2 2.6-2.2h15.1c1.3 0 2.3 0.9 2.3 1.9 0 1.1-1 1.8-2.3 1.8h-13.2v11.3h12.2c1.1 0 2.1 0.8 2.1 1.9 0 1-0.9 1.8-2.1 1.8h-12.2v11.4zm-33.4-20.5c0-2.8-1.5-5.9-7.9-5.9h-7.6v11.6h7.9c4.9 0 7.6-2 7.6-5.7zm5 22.9c0 1-1.5 1.8-2.4 1.8-0.8 0-1.5-0.3-1.8-0.9l-9.9-14.4h-6.4v13.3c0 1.1-1.1 2-2.3 2-1.2 0-2.2-0.9-2.2-2v-30c0-1.3 1.2-2.3 2.6-2.3h9.7c9.2 0 12.1 4.8 12.1 9.6 0 5.1-3.3 8.2-8.6 9.1l8.9 12.7c0.2 0.3 0.3 0.7 0.3 1.1zm-37.8-28.8h-13.3v11.3h12.2c1.1 0 2.2 0.8 2.2 1.9 0 1-1 1.8-2.2 1.8h-12.2v13.7c0 1-1 1.9-2.2 1.9-1.2 0-2.2-0.9-2.2-1.9v-30.2c0-1.1 1.1-2.2 2.6-2.2h15.1c1.2 0 2.2 0.9 2.2 1.9 0 1.1-1 1.8-2.2 1.8zm-36.6-23.8h155.5c6.3 0 11.5 5.1 11.5 11.5v52.6c0 6.3-5.2 11.5-11.5 11.5h-155.5c-6.4 0-11.5-5.2-11.5-11.5v-52.6c0-6.4 5.1-11.5 11.5-11.5v2.2 2.1c-4 0-7.1 3.2-7.2 7.2v52.6c0.1 3.9 3.2 7.1 7.2 7.1h155.5c3.9 0 7.1-3.2 7.1-7.1v-52.6c0-4-3.2-7.2-7.1-7.2h-155.5v-2.1zm77.7-59.2c9.2 0 16.6 7.4 16.6 16.6 0 9.1-7.4 16.5-16.6 16.5-9.1 0-16.5-7.4-16.5-16.5 0-9.2 7.4-16.6 16.5-16.6v2.2 2.1c-6.7 0.1-12.2 5.5-12.2 12.3 0 6.7 5.5 12.2 12.2 12.2 6.8 0 12.2-5.5 12.3-12.2-0.1-6.8-5.5-12.2-12.3-12.3v-2.1zm-30.3-23.3c9.2-6 19.7-8.9 30.2-8.9 10.5 0 20.9 2.9 30.2 8.9 4.9 3.1 7.5 8 7.5 12.4 0 2.3-0.7 4.5-2.4 6.2v-0.1c-2.1 2.1-4.8 2.9-7.5 2.9-3 0-6-1-8.6-2.6-5.9-3.7-12.6-5.6-19.2-5.6-6.7 0-13.3 1.9-19.2 5.6h-0.1c-2.5 1.6-5.5 2.6-8.5 2.6-2.7 0-5.5-0.8-7.6-2.9v0.1c-1.6-1.7-2.4-3.9-2.3-6.2 0-4.4 2.6-9.3 7.5-12.4l1.1 1.8 1.2 1.8c-3.7 2.4-5.5 6.2-5.5 8.8 0 1.4 0.4 2.4 1 3h0.1c1.1 1.1 2.6 1.7 4.5 1.7 2 0 4.3-0.7 6.2-1.9l1.2 1.8-1.2-1.8c6.6-4.2 14.1-6.4 21.6-6.4 7.5 0 14.9 2.2 21.5 6.4l-1.1 1.8 1.1-1.8c2 1.2 4.3 1.9 6.3 1.9 1.8 0 3.4-0.6 4.5-1.7 0.7-0.6 1.1-1.6 1.1-3 0-2.6-1.8-6.4-5.5-8.8-8.6-5.5-18.3-8.2-27.9-8.2-9.7 0-19.3 2.7-27.9 8.2l-1.2-1.8zm-22.8-25.5c15.8-10.8 34.5-16.2 53.2-16.2 18.7 0 37.4 5.4 53.2 16.2 4.7 3.2 7.2 7.8 7.3 12.2 0 2.5-1 5-2.9 6.7-2.4 2.1-5.3 3-8.3 3-3.5 0-7-1.2-10-3.2-11.7-7.9-25.5-11.9-39.3-11.9-13.8 0-27.6 4-39.3 11.9-3 2-6.5 3.2-10 3.2-3 0-5.9-0.9-8.3-3-1.9-1.7-2.9-4.2-2.9-6.7 0.1-4.4 2.6-9 7.3-12.2l1.2 1.8 1.2 1.8c-3.7 2.5-5.3 5.9-5.3 8.6q0 2.2 1.4 3.5c1.4 1.2 3.3 1.8 5.4 1.8 2.5 0 5.3-0.8 7.5-2.4v0.1c12.5-8.5 27.1-12.8 41.8-12.8 14.7 0 29.3 4.3 41.8 12.8v-0.1c2.2 1.6 5 2.4 7.5 2.4 2.1 0 4-0.6 5.4-1.8q1.4-1.3 1.4-3.5c0-2.7-1.7-6.1-5.3-8.6-15.1-10.3-33-15.5-50.8-15.5-17.8 0-35.7 5.2-50.8 15.5l-1.2-1.8zm-25-22.1c22.8-18 50.5-27 78.2-27 27.7 0 55.5 9 78.2 27 3.9 3 6 7.3 6 11.3 0 2.6-0.9 5.2-2.9 7.1-2.2 2-5.1 3-7.9 2.9-3.5 0-6.9-1.2-9.8-3.4-18.5-14.6-41-21.9-63.6-21.9-22.5 0-45.1 7.3-63.5 21.9-2.9 2.2-6.4 3.4-9.8 3.4-2.9 0.1-5.8-0.9-8-2.9-2-1.9-2.9-4.5-2.9-7.1 0-4 2.1-8.3 6-11.3l1.4 1.7 1.3 1.7c-3 2.3-4.4 5.4-4.4 7.9q0.1 2.5 1.6 3.9c1.2 1.2 3 1.8 5 1.8 2.3 0 5-0.9 7.1-2.6v0.1c19.3-15.3 42.7-22.8 66.2-22.8 23.5 0 47 7.5 66.2 22.8v-0.1c2.2 1.7 4.8 2.6 7.2 2.6 2 0 3.7-0.6 5-1.8q1.5-1.4 1.5-3.9c0-2.5-1.4-5.6-4.4-7.9-21.9-17.3-48.7-26-75.5-26-26.8 0-53.5 8.7-75.5 26l-1.3-1.7z"/></svg>