<svg version="1.2" xmlns="http://www.w3.org/2000/svg" viewBox="0 0 626 606" width="626" height="606">
	<title>wineEvenings-ic-svg</title>
	<style>
		.s0 { fill: #000000 } 
	</style>
	<g id="Layer_2">
		<path id="Layer" fill-rule="evenodd" class="s0" d="m453.6 605.2c-2.2 0-4.5-0.5-6.4-1.6-2-1.1-3.7-2.7-4.8-4.6-1.2-1.9-1.9-4.1-2-6.3 0-2.3 0.5-4.5 1.5-6.5q0.6-1.1 1.5-2.2 0.8-1 1.8-1.8 1-0.8 2.2-1.4 1.1-0.6 2.4-1l67-19.5-51.1-175.5c-18.3 3.5-37.2 3-55.4-1.3-18.1-4.3-35.1-12.4-50-23.8-14.8-11.3-27.1-25.6-36-42-8.9-16.4-14.2-34.5-15.7-53.1q-0.9-12.8-1.3-25.6-0.4-12.8-0.3-25.6 0.2-12.8 0.9-25.6 0.7-12.8 1.9-25.6 0.2-2.5 1.2-4.8 0.9-2.3 2.5-4.2 1.6-1.9 3.6-3.3 2.1-1.3 4.5-2l158.3-46.1q2.2-0.7 4.5-0.7 2.3 0 4.6 0.6 2.2 0.6 4.2 1.8 1.9 1.2 3.5 2.9 8.8 9.4 17 19.4 8.2 9.9 15.7 20.4 7.6 10.4 14.6 21.2 7 10.9 13.3 22.1c9.2 16.5 14.7 34.7 16.3 53.5 1.5 18.9-0.9 37.8-7.2 55.6-6.3 17.7-16.4 34-29.4 47.6-13.1 13.6-28.9 24.3-46.4 31.3l51.2 175.5 67-19.5q1.2-0.4 2.5-0.5 1.3-0.1 2.6 0 1.2 0.2 2.5 0.6 1.2 0.4 2.3 1 1.1 0.6 2.1 1.4 1 0.8 1.8 1.8 0.8 1 1.4 2.2 0.5 1.1 0.9 2.3 0.4 1.2 0.5 2.5 0.1 1.3 0 2.6-0.2 1.2-0.6 2.5-0.4 1.2-1 2.3-0.6 1.1-1.4 2.1-0.8 1-1.8 1.8-1 0.8-2.1 1.4-1.2 0.6-2.4 0.9l-158.8 46.3q-0.4 0.1-0.9 0.2-0.5 0.1-0.9 0.2-0.5 0.1-1 0.1-0.4 0-0.9 0zm13.5-224.7q0.3 0 0.6 0.1 0.3 0.1 0.6 0.3 0.2 0.2 0.4 0.4 0.2 0.3 0.3 0.6l52.2 179.2q0.1 0.4 0.1 0.8-0.1 0.4-0.3 0.7-0.2 0.4-0.5 0.6-0.3 0.3-0.7 0.4l-68.9 20.1q-0.9 0.2-1.7 0.6-0.8 0.5-1.5 1-0.7 0.6-1.2 1.3-0.6 0.7-1 1.5-0.4 0.8-0.7 1.7-0.3 0.8-0.3 1.7-0.1 0.9 0 1.8 0.1 0.9 0.4 1.8 0.5 1.4 1.3 2.5 0.9 1.1 2.1 2 1.1 0.8 2.5 1.2 1.4 0.4 2.8 0.4 0.3 0 0.7 0 0.3 0 0.6-0.1 0.3 0 0.7-0.1 0.3 0 0.6-0.1l158.7-46.3q0.9-0.2 1.7-0.6 0.7-0.4 1.4-1 0.7-0.5 1.3-1.2 0.6-0.7 1-1.5 0.4-0.8 0.7-1.6 0.3-0.9 0.4-1.8 0.1-0.9 0-1.7-0.1-0.9-0.3-1.8c-0.3-1.1-0.9-2.2-1.7-3.1-0.7-0.9-1.6-1.7-2.7-2.2-1-0.6-2.1-1-3.3-1.1-1.2-0.1-2.4 0-3.5 0.3l-68.9 20.1q-0.4 0.1-0.8 0.1-0.4-0.1-0.7-0.3-0.4-0.2-0.6-0.5-0.3-0.3-0.4-0.7l-52.2-179.1q-0.1-0.4-0.1-0.7 0.1-0.4 0.2-0.8 0.2-0.3 0.5-0.6 0.2-0.2 0.6-0.4c17.2-6.6 32.8-16.9 45.7-30.1 12.9-13.1 22.8-28.9 29.1-46.2 6.3-17.4 8.8-35.9 7.3-54.2-1.4-18.4-6.8-36.3-15.8-52.4q-6.2-11.1-13.1-21.9-6.9-10.8-14.4-21.1-7.6-10.3-15.7-20.2-8.1-9.8-16.8-19.2-1.2-1.3-2.7-2.2-1.5-0.9-3.2-1.3-1.6-0.5-3.4-0.5-1.7 0-3.4 0.5l-158.4 46.1q-1.8 0.6-3.4 1.6-1.5 1.1-2.7 2.5-1.2 1.5-1.9 3.2-0.7 1.7-0.9 3.6-1.2 12.7-1.9 25.4-0.7 12.7-0.9 25.4-0.1 12.8 0.3 25.5 0.4 12.7 1.3 25.4c1.4 18.2 6.7 35.9 15.5 51.9 8.8 16 20.8 29.9 35.4 40.9 14.6 11 31.3 18.7 49.1 22.8 17.8 4 36.2 4.2 54.1 0.6z"/>
		<path id="Layer" class="s0" d="m475.5 316.5c-22.8 0-47.4-3.8-73.5-11.2q-12-3.5-23.8-7.8-11.7-4.2-23.2-9.1-11.5-5-22.7-10.6-11.2-5.6-22-11.9l2.1-3.4q10.7 6.2 21.7 11.8 11.1 5.5 22.5 10.4 11.3 4.9 23 9.1 11.6 4.1 23.5 7.6c46.8 13.4 113.2 21.3 163.9-17.5l2.5 3.2c-23 17.6-51 27.4-83.2 29.1q-5.4 0.3-10.8 0.3z"/>
		<path id="Layer" class="s0" d="m172.4 605.2q-0.5 0-0.9 0-0.5 0-1-0.1-0.4-0.1-0.9-0.2-0.5-0.1-0.9-0.2l-158.8-46.3q-1.2-0.3-2.4-0.9-1.1-0.6-2.1-1.4-1-0.8-1.8-1.8-0.8-1-1.4-2.1-0.6-1.1-1-2.3-0.4-1.3-0.6-2.5-0.1-1.3 0-2.6 0.1-1.3 0.5-2.5 0.4-1.2 0.9-2.3 0.6-1.2 1.4-2.2 0.8-1 1.8-1.8 1-0.8 2.1-1.4 1.1-0.6 2.3-1 1.3-0.4 2.5-0.6 1.3-0.1 2.6 0 1.3 0.1 2.5 0.5l67 19.5 51.2-175.5c-8.5-3.4-16.7-7.7-24.3-12.8-7.6-5.1-14.7-10.9-21.1-17.5-6.4-6.5-12.2-13.7-17.1-21.5-4.9-7.7-9.1-15.9-12.3-24.5q-0.6-1.7-1.2-3.4-0.6-1.6-1.2-3.3-0.5-1.7-1-3.5-0.5-1.7-1-3.4c-2.1-8.2-3.5-16.5-4.1-25-0.5-8.4-0.2-16.9 0.8-25.3 1.1-8.3 3-16.6 5.6-24.6 2.7-8.1 6.1-15.8 10.2-23.2q6.3-11.2 13.3-22.1 6.9-10.8 14.5-21.2 7.6-10.5 15.8-20.4 8.2-10 17-19.4 1.6-1.7 3.5-2.9 2-1.2 4.2-1.8 2.3-0.6 4.6-0.6 2.3 0 4.5 0.7l158.3 46.1q1.7 0.5 3.3 1.4 1.6 0.8 2.9 2 1.3 1.2 2.4 2.6 1.1 1.5 1.8 3.1c0.3 0.5 0.4 1.1 0.3 1.7-0.2 0.5-0.6 1-1.1 1.2-0.6 0.3-1.2 0.3-1.7 0-0.6-0.2-1-0.7-1.1-1.3q-0.6-1.2-1.4-2.3-0.8-1.1-1.8-2-1-0.9-2.2-1.5-1.2-0.7-2.5-1.1l-158.4-46.1q-1.7-0.5-3.4-0.5-1.8 0-3.4 0.5-1.7 0.4-3.2 1.3-1.5 0.9-2.7 2.2-8.7 9.4-16.8 19.2-8.1 9.9-15.7 20.2-7.5 10.3-14.4 21.1-6.9 10.8-13.1 21.9c-4 7.2-7.3 14.7-9.9 22.5-2.5 7.7-4.3 15.7-5.4 23.9-1 8.1-1.3 16.3-0.7 24.5 0.5 8.2 1.8 16.3 3.9 24.2q1.8 6.8 4.2 13.2c3.2 8.5 7.3 16.5 12.2 24.1 4.9 7.6 10.6 14.7 16.9 21.1 6.4 6.4 13.5 12.1 21 17.1 7.6 4.9 15.7 9 24.1 12.3q0.4 0.2 0.6 0.4 0.3 0.3 0.5 0.6 0.1 0.4 0.2 0.8 0 0.3-0.1 0.7l-52.2 179.1q-0.1 0.4-0.4 0.7-0.2 0.3-0.6 0.5-0.3 0.2-0.7 0.3-0.4 0-0.8-0.1l-68.9-20.1c-1.1-0.3-2.3-0.4-3.5-0.3-1.2 0.1-2.3 0.5-3.3 1.1-1.1 0.5-2 1.3-2.7 2.2-0.8 0.9-1.4 2-1.7 3.1q-0.2 0.9-0.3 1.8-0.1 0.8 0 1.7 0.1 0.9 0.4 1.8 0.3 0.8 0.7 1.6 0.4 0.8 1 1.5 0.5 0.6 1.2 1.2 0.7 0.5 1.5 0.9 0.8 0.5 1.6 0.7l158.8 46.3q0.3 0.1 0.6 0.1 0.4 0.1 0.7 0.1 0.3 0.1 0.6 0.1 0.4 0 0.7 0 1.4 0 2.8-0.4 1.4-0.4 2.5-1.2 1.2-0.9 2.1-2 0.8-1.1 1.3-2.5c0.4-1.1 0.5-2.3 0.4-3.5-0.1-1.2-0.4-2.4-1-3.5-0.6-1-1.3-2-2.3-2.7-0.9-0.8-1.9-1.4-3.1-1.7l-69-20.1q-0.2-0.1-0.3-0.2-0.2-0.1-0.4-0.2-0.1-0.1-0.2-0.3-0.1-0.1-0.2-0.3-0.1-0.2-0.2-0.3-0.1-0.2-0.1-0.4 0-0.2 0-0.4 0-0.2 0.1-0.4l52.2-179.2q0.1-0.4 0.3-0.7 0.3-0.3 0.6-0.4 0.3-0.2 0.7-0.3 0.3-0.1 0.7 0c8.8 1.8 17.7 2.6 26.7 2.5 9-0.1 17.9-1.1 26.7-3 8.7-1.9 17.3-4.8 25.4-8.5 8.2-3.7 16-8.2 23.2-13.5 6.3-4.6 12.2-9.8 17.6-15.5 5.3-5.7 10.2-11.9 14.4-18.5 4.3-6.6 7.9-13.5 10.9-20.8 2.9-7.2 5.2-14.7 6.8-22.4q0.1-0.3 0.3-0.6 0.1-0.3 0.4-0.6 0.3-0.2 0.6-0.3 0.3-0.1 0.7-0.1 0.4 0 0.8 0.2 0.3 0.1 0.6 0.4 0.3 0.3 0.4 0.6 0.2 0.4 0.2 0.8v0.4c-3.5 16.9-10.3 32.9-20 47.1-9.6 14.3-21.9 26.5-36.3 36.1-14.3 9.6-30.3 16.2-47.2 19.7-16.9 3.4-34.3 3.5-51.2 0.3l-51.1 175.5 67 19.5q1.3 0.4 2.4 1 1.2 0.6 2.2 1.4 1 0.8 1.8 1.8 0.9 1.1 1.5 2.2c1 2 1.5 4.2 1.5 6.5-0.1 2.2-0.8 4.4-2 6.3-1.1 1.9-2.8 3.5-4.8 4.6-1.9 1.1-4.2 1.6-6.4 1.6z"/>
		<path id="Layer" class="s0" d="m149.1 317.8c-3.2 0-6.4 0-9.5-0.2-31.8-1.6-59.6-11.3-82.7-28.9l2.5-3.2c50.7 38.8 116.1 30.5 162 16.8q11.7-3.6 23.1-7.9 11.4-4.3 22.6-9.3 11.1-4.9 21.9-10.6 10.9-5.7 21.3-12l2.2 3.4q-10.6 6.4-21.5 12.1-10.9 5.7-22.2 10.7-11.2 5.1-22.8 9.4-11.5 4.4-23.3 8c-26.1 7.8-50.8 11.7-73.6 11.7z"/>
		<path id="Layer" class="s0" d="m313 81.4q-0.4 0-0.8-0.2-0.3-0.1-0.6-0.4-0.3-0.3-0.4-0.6-0.2-0.4-0.2-0.8v-76.6c0-0.5 0.2-1 0.6-1.4 0.4-0.4 0.9-0.6 1.4-0.6 0.5 0 1 0.2 1.4 0.6 0.4 0.4 0.6 0.9 0.6 1.4v76.6q0 0.4-0.2 0.8-0.1 0.3-0.4 0.6-0.3 0.3-0.6 0.4-0.4 0.2-0.8 0.2z"/>
		<path id="Layer" class="s0" d="m256.6 81.4q-0.3 0-0.5-0.1-0.3-0.1-0.5-0.2-0.3-0.2-0.5-0.4-0.2-0.2-0.3-0.4l-35.3-68q-0.2-0.4-0.2-0.8 0-0.4 0.1-0.7 0.1-0.4 0.4-0.7 0.2-0.3 0.6-0.5 0.4-0.2 0.7-0.2 0.4 0 0.8 0.1 0.4 0.1 0.7 0.3 0.3 0.3 0.5 0.6l35.3 68q0.2 0.4 0.2 0.8 0 0.4-0.1 0.7-0.1 0.4-0.4 0.7-0.2 0.3-0.6 0.5-0.1 0.1-0.2 0.1-0.1 0.1-0.2 0.1-0.1 0.1-0.3 0.1-0.1 0-0.2 0z"/>
		<path id="Layer" class="s0" d="m369.4 81.4q-0.1 0-0.2 0-0.2 0-0.3-0.1-0.1 0-0.2-0.1-0.1 0-0.2-0.1-0.4-0.2-0.6-0.5-0.3-0.3-0.4-0.7-0.1-0.3-0.1-0.7 0-0.4 0.2-0.8l35.3-68q0.2-0.3 0.5-0.6 0.3-0.2 0.7-0.3 0.4-0.1 0.8-0.1 0.3 0 0.7 0.2 0.4 0.2 0.6 0.5 0.3 0.3 0.4 0.7 0.1 0.3 0.1 0.7 0 0.4-0.2 0.8l-35.3 68q-0.1 0.2-0.3 0.4-0.2 0.2-0.5 0.4-0.2 0.1-0.5 0.2-0.2 0.1-0.5 0.1z"/>
	</g>
</svg>