<svg version="1.2" xmlns="http://www.w3.org/2000/svg" viewBox="0 0 742 574" width="742" height="574">
	<title>airplane-ic-svg</title>
	<style>
		.s0 { fill: #000000 } 
	</style>
	<g id="Layer_2">
		<path id="Layer" fill-rule="evenodd" class="s0" d="m602.4 221.7c-4.1 0-8.2-0.6-12.1-1.8-3.9-1.3-7.6-3.1-10.9-5.4-3.4-2.4-6.4-5.2-8.8-8.5-2.5-3.2-4.5-6.8-5.9-10.7q-1.4 0.4-2.9 0.8-1.5 0.4-2.9 0.6-1.5 0.3-3 0.5-1.5 0.2-3 0.3c-15 1-29.6-4.6-40-15.4-10.5-10.8-15.6-25.7-14.1-40.6 1.6-14.9 9.6-28.4 22-36.9 12.4-8.4 27.9-10.9 42.4-6.9 1.6-3.5 3.6-6.7 6.1-9.7 2.5-2.9 5.3-5.5 8.5-7.7 3.1-2.2 6.6-3.9 10.2-5.1 3.6-1.3 7.4-2.1 11.2-2.3 4.9-0.3 9.8 0.2 14.6 1.5 4.7 1.4 9.2 3.5 13.2 6.4 4 2.8 7.5 6.4 10.3 10.4 2.8 4.1 4.9 8.5 6.2 13.3q1.5-0.5 3-1 1.5-0.4 3-0.8 1.5-0.3 3.1-0.5 1.5-0.2 3.1-0.3c5.8-0.4 11.6 0.4 17.1 2.2 5.5 1.9 10.6 4.8 14.9 8.6 4.4 3.8 8 8.5 10.6 13.7 2.6 5.2 4.1 10.8 4.5 16.6 0.4 5.8-0.4 11.6-2.2 17.1-1.9 5.5-4.8 10.6-8.6 14.9-3.8 4.4-8.5 8-13.7 10.6-5.2 2.6-10.8 4.1-16.6 4.5q-2.5 0.2-4.9 0-2.5-0.1-4.9-0.4-2.4-0.4-4.8-1.1-2.4-0.6-4.7-1.5c-0.7 4.5-2.1 8.9-4.2 13-2.1 4-4.9 7.7-8.3 10.8-3.3 3.1-7.2 5.6-11.4 7.5-4.2 1.8-8.6 2.9-13.2 3.2zm-35.1-31.5l0.6 2c1.2 3.9 3 7.5 5.4 10.8 2.4 3.3 5.4 6.1 8.7 8.4 3.3 2.3 7.1 4 11 5.1 3.9 1 8 1.4 12 1.1 4.3-0.3 8.5-1.4 12.5-3.2 3.9-1.8 7.5-4.3 10.6-7.4 3-3 5.5-6.6 7.4-10.5 1.8-4 2.9-8.2 3.2-12.5l0.2-2.9 2.6 1.2c11.3 5.4 24.4 5.2 35.5-0.5 11.1-5.6 19-16.1 21.3-28.4 2.3-12.2-1.2-24.8-9.5-34.1-8.3-9.4-20.5-14.3-32.9-13.4q-1.7 0.1-3.3 0.4-1.7 0.2-3.3 0.6-1.7 0.4-3.3 0.9-1.6 0.6-3.1 1.2l-2.3 1-0.5-2.4c-1.7-8.1-6-15.5-12.2-21-6.2-5.5-14-8.9-22.3-9.7-8.2-0.7-16.5 1.2-23.6 5.5-7.1 4.3-12.7 10.8-15.8 18.5l-0.7 1.7-1.8-0.6c-13.3-4.2-27.8-2.3-39.6 5.3-11.7 7.5-19.5 19.9-21.1 33.8-1.7 13.8 2.9 27.7 12.5 37.8 9.5 10.2 23.2 15.5 37.1 14.6q1.6-0.1 3.2-0.3 1.6-0.3 3.2-0.6 1.6-0.3 3.2-0.7 1.6-0.5 3.1-1z"/>
		<path id="Layer" fill-rule="evenodd" class="s0" d="m211.8 370.1q-3 0-6.1-0.4-3-0.4-5.9-1.3-2.9-0.8-5.7-2-2.8-1.2-5.4-2.8-3.7-2.3-6.9-5.2-3.3-3-5.8-6.5-2.6-3.6-4.4-7.6-1.8-3.9-2.8-8.2c-0.1-0.2-0.1-0.4-0.2-0.6l-2.6 0.8c-10.2 2.8-21.1 1.3-30.3-4.1-9.1-5.4-15.6-14.3-18.1-24.6-2.5-10.3-0.7-21.1 5-30.1 5.7-9 14.7-15.2 25.1-17.4q3.8-0.9 7.7-1.1 4-0.1 7.8 0.5 3.9 0.6 7.6 2 3.7 1.4 7 3.5c3-8.8 8.7-16.5 16.2-21.9 7.6-5.5 16.7-8.5 26-8.5 9.3-0.1 18.4 2.7 26.1 8.1 7.6 5.3 13.4 12.9 16.5 21.7 10 0.3 19.4 4.8 25.9 12.3 6.6 7.5 9.7 17.5 8.6 27.4-1 9.9-6.2 19-14.2 24.9-8 6-18.1 8.4-27.9 6.6-0.9 4-2.4 7.9-4.3 11.5-2 3.6-4.5 6.9-7.3 9.8-2.9 2.9-6.2 5.4-9.8 7.4-3.6 2-7.4 3.5-11.4 4.5q-1.3 0.3-2.6 0.6-1.3 0.2-2.6 0.4-1.3 0.1-2.6 0.2-1.3 0.1-2.6 0.1zm-40.1-39.9l0.4 2.3 0.6 2.7c1.2 5.1 3.5 10 6.6 14.3 3.1 4.2 7 7.9 11.5 10.6 4.6 2.8 9.6 4.7 14.8 5.5 5.2 0.8 10.6 0.6 15.7-0.6 3.8-0.9 7.4-2.4 10.8-4.3 3.3-2 6.4-4.4 9.1-7.3 2.6-2.8 4.9-6 6.6-9.5 1.8-3.5 3-7.2 3.7-11l0.4-2 2 0.5q1.8 0.4 3.6 0.6 1.8 0.2 3.6 0.1 1.8 0 3.6-0.2 1.7-0.3 3.5-0.7c7.5-1.8 14.2-6.3 18.6-12.7 4.5-6.4 6.5-14.1 5.6-21.8-0.9-7.7-4.5-14.9-10.2-20.1-5.8-5.2-13.2-8.2-21-8.3h-1.5l-0.4-1.3c-2.7-8.4-8.1-15.7-15.3-20.7-7.2-5.1-15.8-7.8-24.6-7.6-8.8 0.2-17.3 3.3-24.3 8.7-6.9 5.4-12 12.9-14.3 21.4l-0.8 2.8-2.3-1.8q-3.1-2.3-6.6-3.8-3.5-1.6-7.3-2.3-3.8-0.8-7.6-0.7-3.9 0.1-7.6 1c-4.5 1.1-8.7 3-12.5 5.7-3.7 2.7-6.9 6.2-9.3 10.1-2.4 3.9-4 8.3-4.8 12.9-0.7 4.5-0.5 9.2 0.6 13.7 1.1 4.5 3 8.7 5.7 12.5 2.7 3.7 6.2 6.9 10.1 9.3 3.9 2.4 8.3 4 12.9 4.8 4.5 0.7 9.2 0.5 13.7-0.6q0.6-0.1 1.1-0.3 0.6-0.1 1.1-0.3 0.6-0.2 1.1-0.4 0.6-0.2 1.1-0.4z"/>
		<path id="Layer" fill-rule="evenodd" class="s0" d="m489.3 486q-3.5 0-6.9-0.7-3.5-0.8-6.7-2.2-3.2-1.4-6.1-3.4-2.8-2-5.2-4.6l-1.6 0.5c-4.3 1.2-8.8 1.6-13.2 1-4.4-0.5-8.7-1.9-12.5-4.1-3.9-2.1-7.3-5-10.1-8.5-2.7-3.5-4.8-7.5-6-11.8q-0.9-3.2-1.2-6.5-0.3-3.3 0.1-6.7 0.4-3.3 1.4-6.4 1.1-3.2 2.7-6.1 1.6-2.9 3.8-5.5 2.2-2.5 4.8-4.6 2.6-2.1 5.6-3.6 3-1.5 6.2-2.4 2-0.6 4-0.9 2.1-0.3 4.1-0.4 2.1 0 4.1 0.2 2.1 0.2 4.1 0.6c1.1-6.5 4.4-12.4 9.4-16.8 4.9-4.4 11.2-6.9 17.8-7.3 6.6-0.4 13.1 1.5 18.4 5.3 5.4 3.8 9.4 9.4 11.2 15.7q0.1 0.6 0.3 1.2 0.1 0.6 0.2 1.2 0.1 0.6 0.2 1.2 0.1 0.6 0.2 1.2l2.1-0.7c3.7-1.1 7.5-1.4 11.3-0.9 3.8 0.4 7.5 1.6 10.9 3.5 3.3 1.8 6.3 4.4 8.6 7.4 2.4 3 4.2 6.4 5.2 10.1 1 3.7 1.3 7.5 0.9 11.3-0.5 3.8-1.6 7.5-3.5 10.9-1.9 3.3-4.4 6.2-7.4 8.6-3 2.4-6.4 4.2-10.1 5.2q-2 0.6-4.1 0.8-2.1 0.3-4.2 0.3-2.1-0.1-4.2-0.4-2.1-0.3-4.1-0.9-1.5 3.3-3.7 6.1-2.2 2.9-5 5.2-2.7 2.3-5.9 4-3.2 1.7-6.7 2.6-1.1 0.3-2.3 0.6-1.1 0.2-2.3 0.4-1.1 0.1-2.3 0.2-1.1 0.1-2.3 0.1zm-23.7-15.6l0.9 1.1c3.3 3.9 7.6 6.9 12.4 8.7 4.8 1.7 10 2.2 15 1.4 5.1-0.8 9.9-2.9 13.9-6 4-3.2 7.1-7.4 9.1-12.1l0.7-1.8 1.9 0.7q1.9 0.7 3.9 1.2 1.9 0.4 3.9 0.5 2.1 0.1 4.1-0.2 2-0.2 3.9-0.8c6-2.1 11.1-6.5 14-12.2 3-5.7 3.6-12.3 1.9-18.4-1.8-6.2-5.8-11.5-11.3-14.8-5.5-3.3-12-4.4-18.3-3q-0.5 0.2-1.1 0.4-0.5 0.1-1 0.3-0.6 0.2-1.1 0.5-0.5 0.2-1 0.4l-2.8 1.4v-3.2c0.2-6.7-2.1-13.1-6.7-18-4.5-4.9-10.7-7.8-17.4-8.1-6.7-0.2-13.1 2.1-18 6.7-4.9 4.5-7.8 10.7-8.1 17.4l-0.2 2.5-2.4-0.7c-9-2.5-18.6-0.7-26 4.9-7.5 5.6-11.9 14.4-11.9 23.7 0 9.4 4.4 18.1 11.8 23.8 7.4 5.6 17 7.5 26 5l2.6-0.8z"/>
		<path id="Layer" class="s0" d="m335.7 312.7l-0.6-0.1-40.9-8.3 0.8-3.9 41.6 8.4-0.9 3.9z"/>
		<path id="Layer" class="s0" d="m132.5 271.7l-130.2-26.4q-0.3-0.1-0.6-0.2-0.3-0.2-0.6-0.5-0.2-0.2-0.3-0.5-0.1-0.4-0.1-0.7v-71.6q0-0.4 0.1-0.7 0.2-0.4 0.4-0.7 0.3-0.3 0.7-0.4 0.3-0.2 0.7-0.2l312.6-9.3v4h-0.6l-310 9.3v67.9l128.6 26z"/>
		<path id="Layer" class="s0" d="m356.4 473.1l-4.3-30-41.5-294.6q-1.1-8.2-1.6-16.4-0.6-8.3-0.5-16.5 0.1-8.3 0.8-16.5 0.6-8.2 1.9-16.4l6.3-39.4q0.3-1.7 1-3.2 0.7-1.6 1.8-2.9 1.1-1.3 2.6-2.2 1.4-1 3-1.5l35.3-11.6q2.4-0.8 4.8-1.2 2.5-0.4 5-0.4 2.5 0 5 0.4 2.4 0.4 4.8 1.2l35.3 11.6q1.6 0.5 3 1.5 1.5 0.9 2.6 2.2 1.1 1.3 1.8 2.9 0.7 1.5 1 3.2l6.3 39.4q1.3 8.2 1.9 16.4 0.7 8.2 0.8 16.5 0.1 8.2-0.5 16.5-0.5 8.2-1.6 16.4l-41.5 294.6-4.3 30-1.8-0.3h-2.1v-0.3l4.2-30 41.5-294.5q1.1-8 1.7-16.1 0.5-8.1 0.4-16.2-0.1-8.1-0.8-16.2-0.6-8.1-1.9-16.1l-6.3-39.4q-0.2-1.1-0.6-2.2-0.5-1-1.3-1.9-0.7-0.9-1.7-1.6-0.9-0.6-2-1l-35.4-11.6q-2.1-0.7-4.2-1-2.2-0.4-4.3-0.4-2.2 0-4.4 0.4-2.1 0.3-4.2 1l-35.3 11.6q-1.1 0.4-2 1-1 0.7-1.7 1.6-0.8 0.9-1.3 1.9-0.4 1.1-0.6 2.2l-6.3 39.4q-1.3 8-1.9 16.1-0.7 8.1-0.8 16.2-0.1 8.1 0.4 16.2 0.6 8.1 1.7 16.1l41.5 294.5 4.2 30.1z"/>
		<path id="Layer" class="s0" d="m360.2 527.3l-144.5-4.4q-0.4 0-0.8-0.2-0.3-0.1-0.6-0.4-0.3-0.3-0.4-0.6-0.2-0.4-0.2-0.8v-54.7q0-0.4 0.1-0.7 0.1-0.3 0.4-0.6 0.2-0.3 0.5-0.5 0.3-0.1 0.7-0.2l138.4-23.4h0.7l0.5 4h-0.6l-136.7 23.1v51l142.6 4.4z"/>
		<path id="Layer" class="s0" d="m391.2 29l-12.5-20.7c-0.8-1.3-1.9-2.4-3.3-3.2-1.3-0.7-2.9-1.1-4.4-1.1-1.5 0-3.1 0.4-4.4 1.1-1.4 0.8-2.5 1.9-3.3 3.2l-12.5 20.7-3.4-2 12.5-20.8c1.2-1.9 2.8-3.5 4.7-4.6 2-1.1 4.2-1.6 6.4-1.6 2.2 0 4.4 0.5 6.4 1.6 1.9 1.1 3.5 2.7 4.7 4.6l12.5 20.8z"/>
		<path id="Layer" fill-rule="evenodd" class="s0" d="m395.9 280.2q-0.2 0-0.3 0-0.2 0-0.4-0.1-0.2 0-0.3-0.1-0.2-0.1-0.3-0.2c-15.9-13-31.3-13-47.2 0q-0.2 0.2-0.5 0.3-0.2 0.1-0.5 0.2-0.3 0-0.6 0-0.2-0.1-0.5-0.2-0.2-0.1-0.5-0.3-0.2-0.2-0.3-0.4-0.2-0.2-0.3-0.5-0.1-0.2-0.1-0.5l-8.3-87.7q-0.4-3.7 0-7.4 0.5-3.6 1.6-7.2 1.2-3.5 3-6.7 1.9-3.2 4.4-5.9c3.3-3.7 7.4-6.6 11.9-8.6 4.5-2 9.4-3 14.3-3 4.9 0 9.8 1 14.3 3 4.5 2 8.6 4.9 11.9 8.6q2.5 2.7 4.4 5.9 1.8 3.2 3 6.7 1.1 3.6 1.6 7.2 0.4 3.7 0 7.4l-8.3 87.7q0 0.3-0.1 0.5-0.1 0.3-0.3 0.5-0.1 0.2-0.3 0.4-0.3 0.2-0.5 0.3zm-24.9-124.3q-3.3 0-6.5 0.7-3.2 0.7-6.2 2-3 1.3-5.6 3.3-2.7 1.9-4.9 4.3-2.2 2.4-3.9 5.2-1.7 2.9-2.7 6-1 3.1-1.4 6.4-0.3 3.2 0 6.5l8 84.1c15.4-11.1 31-11.1 46.4 0l8-84.1q0.3-3.3 0-6.5-0.4-3.3-1.4-6.4-1-3.1-2.7-6-1.7-2.8-3.9-5.2-2.2-2.4-4.9-4.3-2.6-2-5.6-3.3-3-1.3-6.2-2-3.2-0.7-6.5-0.7z"/>
		<path id="Layer" class="s0" d="m2.7 200.5h317.6v4h-317.6z"/>
		<path id="Layer" class="s0" d="m503.9 166.8l-77.2-2.3 0.1-4h0.6l76.6 2.3-0.1 4z"/>
		<path id="Layer" class="s0" d="m406.2 312.7l-0.7-3.9h0.6l331.2-67v-68l-44.3-1.4v-4l46.3 1.4q0.4 0 0.7 0.2 0.4 0.1 0.7 0.4 0.2 0.3 0.4 0.7 0.1 0.3 0.1 0.7v71.6q0 0.3-0.1 0.7-0.1 0.3-0.3 0.5-0.3 0.3-0.6 0.5-0.3 0.1-0.6 0.2l-332.7 67.3z"/>
		<path id="Layer" class="s0" d="m634.4 200.5h104.9v4h-104.9z"/>
		<path id="Layer" class="s0" d="m421.7 200.5h148.9v4h-148.9z"/>
		<path id="Layer" fill-rule="evenodd" class="s0" d="m371 574q-0.3 0-0.6-0.1-0.3-0.1-0.5-0.3-0.3-0.1-0.5-0.4-0.2-0.2-0.3-0.5c-4.4-13.3-7.8-26.9-10-40.7-2.3-13.8-3.4-27.8-3.4-41.8 0-14 1.1-28 3.4-41.8 2.2-13.8 5.6-27.4 10-40.7q0.2-0.6 0.7-1 0.6-0.4 1.2-0.4 0.6 0 1.2 0.4 0.5 0.4 0.7 1c4.4 13.3 7.8 26.9 10 40.7 2.3 13.8 3.4 27.8 3.4 41.8 0 14-1.1 28-3.4 41.8-2.2 13.8-5.6 27.4-10 40.7q-0.1 0.3-0.3 0.5-0.2 0.3-0.5 0.4-0.2 0.2-0.5 0.3-0.3 0.1-0.6 0.1zm0-159.2c-3.6 12.1-11.3 41.4-11.3 75.4 0 34 7.7 63.3 11.3 75.3 3.6-12 11.3-41.4 11.3-75.3 0-33.9-7.7-63.3-11.3-75.4z"/>
		<path id="Layer" class="s0" d="m454.7 4h-167.4c-0.5 0-1-0.2-1.4-0.6-0.4-0.4-0.6-0.9-0.6-1.4 0-0.5 0.2-1 0.6-1.4 0.4-0.4 0.9-0.6 1.4-0.6h167.4c0.5 0 1 0.2 1.4 0.6 0.4 0.4 0.6 0.9 0.6 1.4 0 0.5-0.2 1-0.6 1.4-0.4 0.4-0.9 0.6-1.4 0.6z"/>
		<path id="Layer" class="s0" d="m215.7 492.5h142v4h-142z"/>
		<path id="Layer" class="s0" d="m381.8 527.3v-4l142.6-4.4v-51l-6.1-1.1 0.6-3.9 7.8 1.3q0.4 0.1 0.7 0.2 0.3 0.2 0.5 0.5 0.3 0.3 0.4 0.6 0.1 0.3 0.1 0.7v54.7q0 0.4-0.2 0.8-0.1 0.3-0.4 0.6-0.3 0.3-0.6 0.4-0.4 0.2-0.8 0.2z"/>
		<path id="Layer" class="s0" d="m421.9 450.6l-34.9-5.9 0.5-4 0.6 0.1 34.5 5.8-0.7 4z"/>
		<path id="Layer" class="s0" d="m384.3 492.5h142v4h-142z"/>
		<path id="Layer" class="s0" d="m428.2 85c-9.3-2.7-18.7-4.8-28.3-6.1-9.6-1.4-19.2-2.1-28.9-2.1-9.7 0-19.3 0.7-28.9 2.1-9.6 1.3-19 3.4-28.3 6.1l-1.1-3.9c9.5-2.8 19.1-4.8 28.9-6.2 9.7-1.4 19.5-2.1 29.4-2.1 9.9 0 19.7 0.7 29.4 2.1 9.8 1.4 19.4 3.4 28.9 6.2z"/>
	</g>
</svg>