<svg version="1.2" xmlns="http://www.w3.org/2000/svg" viewBox="0 0 610 777" width="610" height="777">
	<title>barbecue-ic-svg</title>
	<style>
		.s0 { fill: #000000 } 
	</style>
	<g id="Layer_2">
		<path id="Layer" class="s0" d="m335.8 437.9c-108.9 0-201.5-19.8-225.2-48.3l3.1-2.5c22.6 27.1 116 46.8 222.1 46.8 61 0 118.3-6.3 161.4-17.7 43.1-11.4 65.6-26 65.6-41 0-15-23.9-30-65.6-41.1-41.7-11.1-100.4-17.7-161.4-17.7-85.5 0-163 12.5-202.4 32.5l-0.4 0.3h-0.5v-2.1l-0.9-1.7c39.9-20.4 118.1-33 204.2-33 61.3 0 119 6.3 162.4 17.9 43.4 11.6 68.6 27.6 68.6 44.8 0 17.2-24.3 33.2-68.6 45-44.3 11.8-101.1 17.8-162.4 17.8z"/>
		<path id="Layer" fill-rule="evenodd" class="s0" d="m335.8 419.7c-101.6 0-206.8-16.7-206.8-44.5 0-27.8 105.2-44.6 206.8-44.6 101.6 0 206.7 16.7 206.7 44.6 0 27.9-105.1 44.5-206.7 44.5zm0-85.1c-121.3 0-202.8 21-202.8 40.6 0 19.6 81.5 40.5 202.8 40.5 121.3 0 202.7-21 202.7-40.5 0-19.5-81.4-40.6-202.7-40.6z"/>
		<path id="Layer" class="s0" d="m335.8 606.2h-5.4q-9.6-0.2-19.2-1.2-9.6-1-19.1-2.8-9.4-1.8-18.7-4.4-9.3-2.6-18.3-6l1.4-3.8q8.9 3.3 18 5.9 9.1 2.5 18.4 4.3 9.3 1.8 18.7 2.8 9.4 1 18.9 1.2c4.7 0.1 9.5 0.1 13.8-0.1q9.1-0.3 18.1-1.4 9-1 17.9-2.8 8.9-1.8 17.6-4.2 8.7-2.5 17.2-5.7l1.4 3.8q-8.6 3.2-17.5 5.7-8.9 2.5-17.9 4.3-9.1 1.8-18.2 2.9-9.2 1.1-18.4 1.4z"/>
		<path id="Layer" class="s0" d="m230.1 580.7c-13.1-6.8-25.5-14.8-37.1-23.9-11.6-9.1-22.3-19.3-32-30.5-9.6-11.2-18.2-23.2-25.5-36-7.4-12.8-13.5-26.2-18.3-40.2-1.2-3.5-2.4-7.1-3.4-10.8-1-3.7-2.6-9.3-3.6-14.1q-0.8-3.4-1.4-6.9-0.7-3.5-1.2-6.9-0.6-3.5-1-7-0.5-3.5-0.8-7v-0.2h2.1l1.9-0.2q0.3 3.4 0.8 6.9 0.4 3.4 0.9 6.8 0.6 3.4 1.2 6.8 0.7 3.4 1.4 6.8c1 4.7 2.2 9.4 3.5 13.9 1.3 4.5 2.2 7.1 3.4 10.6 4.7 13.7 10.7 27 17.9 39.6 7.2 12.5 15.6 24.4 25.1 35.4 9.5 10.9 20 21 31.4 29.9 11.4 9 23.7 16.8 36.6 23.4z"/>
		<path id="Layer" class="s0" d="m441.4 580.6l-1.8-3.5c13.7-7.1 26.6-15.5 38.6-25.2 12-9.7 23-20.6 32.8-32.5 9.8-11.9 18.4-24.8 25.6-38.4 7.2-13.7 13-28 17.3-42.8 1.3-4.5 2.5-9.2 3.6-13.8l0.6-3.1q1.2-5.7 2-11.4 0.9-5.8 1.5-11.5 0.6-5.8 0.9-11.6 0.3-5.8 0.3-11.6h4q0 5.9-0.3 11.8-0.3 5.9-0.9 11.8-0.6 5.8-1.5 11.7-0.9 5.8-2.1 11.6l-0.6 3.1q-1.6 7.2-3.6 14.1c-4.4 15.1-10.3 29.7-17.6 43.5-7.4 13.9-16.1 27-26.1 39.1-10 12.1-21.1 23.2-33.4 33.1-12.2 9.8-25.4 18.4-39.3 25.6z"/>
		<path id="Layer" class="s0" d="m143.9 389.9l-3.6-1.9 19.4-36.1 1.7 0.9h2v0.5l-0.2 0.5-19.3 36.1z"/>
		<path id="Layer" class="s0" d="m171.3 400.5l31.3-58.4 3.6 1.9-31.3 58.4z"/>
		<path id="Layer" class="s0" d="m204.6 407.8l38.1-71.1 3.5 1.9-38.1 71z"/>
		<path id="Layer" class="s0" d="m271.9 359.2l-1.4-1.5h-2v-0.6l5.9-10.9 1.8 1h2v0.5l-0.3 0.4-5.4 10.1v0.3l-0.6 0.7z"/>
		<path id="Layer" class="s0" d="m277.2 341.5l4.3-8.1 3.6 1.9-4.4 8.1z"/>
		<path id="Layer" class="s0" d="m239.1 411.4l9.1-17 3.5 1.9-9 17z"/>
		<path id="Layer" class="s0" d="m311.4 344.5l6.9-13.1 3.5 1.8-6.9 13.1z"/>
		<path id="Layer" class="s0" d="m274.9 415.4l7.8-14.7 3.5 1.8-7.8 14.8z"/>
		<path id="Layer" class="s0" d="m304.2 362.1l-0.5-2.2 1.9-1.2v2l1.4-1.4-1.4 1.4 1.8 0.7-1.8-0.7-1.4 1.4z"/>
		<path id="Layer" class="s0" d="m304.1 365.6v-2h-2.1l2.1-2v2h1.9-1.9v2z"/>
		<path id="Layer" class="s0" d="m311.4 416.9l45.3-84.5 3.6 1.9-45.4 84.5z"/>
		<path id="Layer" class="s0" d="m390.5 337.6l2.3-4.4 3.5 1.9-2.3 4.4z"/>
		<path id="Layer" class="s0" d="m348.2 416.1l4.9-9.2 3.5 1.9-4.8 9.1z"/>
		<path id="Layer" class="s0" d="m423.8 353.7l-1.5-1.4-1.8-1 8-14.8 3.5 1.9-8.1 15.1-0.1 0.2z"/>
		<path id="Layer" class="s0" d="m386.4 415.6l4.8-8.8 3.5 1.9-4.7 8.8z"/>
		<path id="Layer" class="s0" d="m425.2 412.6l38.2-71.2 3.5 1.9-38.1 71.1z"/>
		<path id="Layer" class="s0" d="m468.8 408.7l-1.8-0.9h-2v-0.5l31.6-59 3.5 1.9-31.3 58.5z"/>
		<path id="Layer" class="s0" d="m508.3 397.3l19.5-36.4 3.5 1.9-19.5 36.4z"/>
		<path id="Layer" fill-rule="evenodd" class="s0" d="m101.1 415.3l-1.8-0.9c-18.2-8.9-34.4-21.4-47.7-36.6-13.4-15.2-23.6-32.9-30.1-52.1-6.5-19.1-9.2-39.4-7.9-59.6 1.4-20.2 6.6-39.9 15.6-58.1l68-137.9c37.6-76.3 130.2-107.7 206.4-70.1l1.8 0.9-0.9 1.8zm134.6-427.2c-14 0-27.9 1.9-41.3 5.8-13.4 3.8-26.3 9.5-38.1 16.8-11.9 7.4-22.7 16.4-32 26.7-9.4 10.4-17.3 22-23.5 34.5l-68 137.8c-8.6 17.5-13.8 36.6-15.1 56.1-1.4 19.5 1.1 39.1 7.3 57.6 6.2 18.6 15.9 35.8 28.6 50.6 12.8 14.8 28.3 27 45.7 35.9l200.8-407.2q-7.5-3.6-15.4-6.3-7.9-2.8-16-4.6-8.1-1.8-16.4-2.8-8.3-0.9-16.6-0.9z"/>
		<path id="Layer" fill-rule="evenodd" class="s0" d="m35.8 203.7l-24.5-12.1c-2.3-1.1-4.4-2.7-6.1-4.6-1.7-2-3-4.2-3.8-6.6-0.8-2.5-1.2-5.1-1-7.6 0.2-2.6 0.9-5.1 2-7.4l44.7-90.7q0.8-1.7 2-3.3 1.2-1.5 2.6-2.8 1.5-1.2 3.1-2.2 1.7-1 3.5-1.6 1.8-0.6 3.8-0.8 1.9-0.3 3.8-0.2 1.9 0.2 3.8 0.7 1.9 0.5 3.6 1.3l24.5 12.1zm28.9-135.9q-2.2 0-4.3 0.6-2.1 0.6-4 1.7-1.8 1.2-3.3 2.8-1.4 1.6-2.4 3.6l-44.7 90.6c-0.9 1.8-1.4 3.8-1.6 5.9-0.1 2 0.2 4.1 0.8 6 0.7 2 1.7 3.8 3.1 5.3 1.3 1.5 3 2.8 4.8 3.7l20.9 10.3 58.4-118.6-20.9-10.3q-0.8-0.4-1.6-0.7-0.8-0.3-1.7-0.5-0.9-0.2-1.7-0.3-0.9-0.1-1.8-0.1z"/>
		<path id="Layer" class="s0" d="m119.1 451.4h-42.8c-4.1 0-8.1-1.6-11-4.5-2.9-2.9-4.5-6.9-4.5-11 0-4.1 1.6-8.1 4.5-11 2.9-2.9 6.9-4.5 11-4.5h34.7v4h-34.7c-3 0-6 1.2-8.1 3.4-2.2 2.1-3.4 5.1-3.4 8.1 0 3 1.2 6 3.4 8.1 2.1 2.2 5.1 3.4 8.1 3.4h42.8z"/>
		<path id="Layer" class="s0" d="m594.6 451.4h-42.1v-4h42.1c3 0 6-1.2 8.1-3.4 2.2-2.1 3.4-5.1 3.4-8.1 0-3-1.2-6-3.4-8.1-2.1-2.2-5.1-3.4-8.1-3.4h-34.7v-4h34.7c4.1 0 8.1 1.6 11 4.5 2.9 2.9 4.5 6.9 4.5 11 0 4.1-1.6 8.1-4.5 11-2.9 2.9-6.9 4.5-11 4.5z"/>
		<path id="Layer" fill-rule="evenodd" class="s0" d="m512.7 760.4q-2.1 0-4.1-0.6-2.1-0.5-3.9-1.6-1.8-1.1-3.3-2.6-1.4-1.5-2.4-3.4l-90.9-172.6q-0.7-1.4-1.1-2.8-0.5-1.5-0.6-3-0.1-1.5 0-3 0.2-1.5 0.6-3 0.4-1.5 1.2-2.8 0.7-1.4 1.7-2.6 1-1.2 2.1-2.1 1.2-1 2.6-1.7c1.8-1 3.8-1.5 5.8-1.7 2-0.2 4.1 0 6 0.6 1.9 0.6 3.8 1.6 5.3 2.9 1.6 1.3 2.9 2.9 3.8 4.7l90.9 172.6q0.7 1.3 1.2 2.8 0.4 1.5 0.6 3 0.1 1.5 0 3-0.2 1.5-0.7 3-0.4 1.5-1.2 2.8-0.7 1.4-1.7 2.6-1 1.2-2.1 2.1-1.2 1-2.6 1.7-0.8 0.4-1.7 0.7-0.9 0.4-1.8 0.6-0.9 0.2-1.8 0.3-1 0.1-1.9 0.1zm-90.9-199.6q-0.7 0-1.4 0.1-0.7 0.1-1.3 0.3-0.7 0.1-1.4 0.4-0.6 0.3-1.2 0.6-1 0.5-1.9 1.2-0.9 0.7-1.6 1.6-0.8 0.8-1.3 1.8-0.6 1-0.9 2.1-0.3 1.1-0.5 2.2-0.1 1.2 0 2.3 0.2 1.1 0.5 2.2 0.3 1.1 0.9 2.1l90.8 172.6c0.7 1.3 1.7 2.5 2.9 3.5 1.1 0.9 2.5 1.6 3.9 2.1 1.5 0.4 3 0.6 4.5 0.4 1.5-0.1 3-0.5 4.3-1.2q1-0.5 1.9-1.2 0.9-0.7 1.6-1.6 0.7-0.9 1.2-1.8 0.6-1 0.9-2.1 0.3-1.1 0.4-2.2 0.2-1.1 0.1-2.3-0.1-1.1-0.5-2.2-0.3-1.1-0.8-2.1l-90.9-172.6q-0.5-1-1.2-1.9-0.7-0.9-1.6-1.6-0.9-0.7-1.9-1.2-1-0.6-2.1-0.9-0.4-0.2-0.8-0.3-0.4-0.1-0.9-0.2-0.4 0-0.8-0.1-0.5 0-0.9 0z"/>
		<path id="Layer" fill-rule="evenodd" class="s0" d="m158.8 760.4c-1.6 0-3.3-0.2-4.9-0.7-1.5-0.5-3-1.3-4.3-2.3-1.4-0.9-2.5-2.1-3.5-3.5-0.9-1.3-1.6-2.8-2.1-4.4q-0.4-1.5-0.6-3-0.1-1.5 0-3 0.1-1.5 0.6-3 0.4-1.4 1.1-2.8l90.9-172.6q0.7-1.3 1.7-2.5 1-1.2 2.1-2.2 1.2-0.9 2.5-1.7 1.4-0.7 2.8-1.2 1.5-0.4 3-0.6 1.5-0.2 3.1 0 1.5 0.1 3 0.6 1.4 0.4 2.8 1.1 1.3 0.7 2.5 1.7 1.2 1 2.2 2.2 0.9 1.1 1.6 2.5 0.8 1.3 1.2 2.8 0.5 1.5 0.6 3 0.2 1.5 0.1 3-0.1 1.5-0.6 3-0.4 1.4-1.1 2.8l-90.9 172.6q-1 1.9-2.5 3.4-1.4 1.5-3.3 2.6-1.8 1.1-3.8 1.7-2.1 0.5-4.2 0.5zm91-199.6q-0.4 0-0.9 0-0.4 0.1-0.9 0.2-0.4 0-0.8 0.1-0.5 0.2-0.9 0.3-1.1 0.3-2.1 0.9-0.9 0.5-1.8 1.2-0.9 0.7-1.6 1.6-0.7 0.9-1.2 1.9l-90.9 172.6c-0.7 1.3-1.1 2.8-1.3 4.3-0.1 1.5 0.1 3 0.5 4.4 0.4 1.5 1.2 2.8 2.1 4 1 1.1 2.2 2.1 3.5 2.8q0.6 0.3 1.3 0.6 0.6 0.2 1.3 0.4 0.6 0.2 1.3 0.2 0.7 0.1 1.4 0.1 1.6 0 3.1-0.4 1.5-0.4 2.9-1.2 1.3-0.8 2.4-2 1.1-1.1 1.8-2.5l90.9-172.6q0.5-1 0.8-2.1 0.4-1.1 0.5-2.2 0.1-1.2-0.1-2.3-0.1-1.1-0.4-2.2-0.6-1.7-1.6-3.2-1.1-1.5-2.6-2.6-1.4-1.1-3.1-1.7-1.8-0.6-3.6-0.6z"/>
		<path id="Layer" class="s0" d="m337.4 755.3c-2 0-4.1-0.4-5.9-1.2-1.9-0.8-3.6-1.9-5.1-3.3-1.4-1.5-2.5-3.2-3.3-5.1-0.8-1.8-1.2-3.9-1.2-5.9v-135.6h4v135.6c0 3 1.2 6 3.4 8.1 2.1 2.2 5.1 3.4 8.1 3.4 3 0 6-1.2 8.1-3.4 2.2-2.1 3.4-5.1 3.4-8.1v-135.7h4v135.7c0 2-0.4 4.1-1.2 5.9-0.7 1.9-1.9 3.6-3.3 5.1-1.5 1.4-3.2 2.6-5.1 3.3-1.8 0.8-3.9 1.2-5.9 1.2z"/>
		<path id="Layer" class="s0" d="m367.7 411.2c-9.8 0-19.3-1.1-23.8-4.5q-0.6-0.4-1.2-1-0.5-0.6-0.9-1.3-0.4-0.6-0.6-1.4-0.2-0.7-0.3-1.5-0.2-2-0.3-3.9-0.1-2-0.2-4-0.1-2-0.1-3.9 0-2 0-4h4q0 1.9 0 3.9 0 1.9 0.1 3.8 0.1 1.9 0.2 3.9 0.1 1.9 0.3 3.8 0 0.4 0.1 0.7 0.1 0.3 0.3 0.6 0.2 0.3 0.4 0.6 0.3 0.2 0.6 0.4c8.3 6.3 42.5 3 52.2 1 5.2-1 10.3-2.4 12.5-5.9 2.2-3.5 1.8-5.2 0.9-9-2.8-11.9 2.5-20.7 6-26.5 0.5-1 1.1-1.9 1.5-2.7 2.5-4.7-0.1-12.3-0.1-12.4l3.8-1.3c0.1 0.4 3.2 9.3-0.1 15.6l-1.7 2.9c-3.4 5.6-7.9 13.2-5.5 23.4 1.1 4.9 0.6 9-1.4 12.1-3.1 4.8-9.1 6.6-15.1 7.8q-3.9 0.6-7.9 1.1-3.9 0.5-7.8 0.9-4 0.3-8 0.5-3.9 0.2-7.9 0.3z"/>
		<path id="Layer" fill-rule="evenodd" class="s0" d="m368.2 396.9c-11.8 0-23.5-1.5-26.9-7.3-2.1-3.6-1-8.1 3.5-13.5 10.5-12.7 18.4-18.3 23.1-21.6 4.7-3.3 5.6-4 4.2-7.6-1.4-3.6-0.4-5.9 0.7-7.2 3.8-4.5 15.4-4.5 37.7 0 8.2 1.7 11.8 3.6 12.6 6.5 0.8 2.9-2.6 6.3-6.6 9.6-4 3.3-5.8 4.9-7.6 7.7-1.8 2.8 0.1 6.5 2 10.4 1.9 3.9 4.2 8.8 2.1 12.9-2.1 4.1-6.5 6.1-14.9 7.7q-3.7 0.5-7.4 1-3.8 0.4-7.5 0.7-3.8 0.3-7.5 0.5-3.7 0.1-7.5 0.2zm16.2-56.6c-5.7 0-7.8 1-8.6 2-0.8 1-0.8 1 0 3.2 2.6 6.5-0.5 8.7-5.6 12.2-5.1 3.5-12.2 8.6-22.3 20.9-3.3 4-4.3 7-3.1 9 5 8.6 44.5 4.5 52.6 3 8.1-1.5 10.8-3.2 12-5.6 1.2-2.4-0.4-5.7-2.1-9.3-1.7-3.6-4.7-9.7-1.8-14.3 2.9-4.6 5.5-6.2 8.5-8.7 3-2.5 5.4-4.5 5.2-5.5-0.2-1-0.5-1.7-9.5-3.6-12.3-2.5-20.2-3.3-25.3-3.3z"/>
		<path id="Layer" class="s0" d="m271.2 403.6c-8.5 0-16.7-0.9-20.5-3.8q-0.6-0.4-1-0.9-0.5-0.5-0.9-1.1-0.3-0.6-0.5-1.3-0.2-0.6-0.3-1.3c-0.7-8.2-0.6-13.3-0.6-13.5h4c0 0-0.1 5.1 0.5 13q0 0.3 0.1 0.5 0.1 0.3 0.3 0.5 0.1 0.3 0.3 0.5 0.3 0.2 0.5 0.3c6.9 5.3 35.9 2.4 44.2 0.8 4.3-0.8 8.6-2 10.5-4.9 1.9-2.9 1.4-4.3 0.6-7.5-2.3-10.2 2.2-17.7 5.2-22.7l1.3-2.3c1.8-3.3 0.5-8.6-0.1-10.4l3.8-1.3c0.1 0.3 2.8 8.1-0.1 13.5-0.5 0.8-0.9 1.6-1.5 2.5-2.8 4.7-6.7 11.2-4.7 19.8 1 4.2 0.6 7.8-1.1 10.5-1.7 2.7-7.9 5.7-13.1 6.8q-3.3 0.5-6.7 0.9-3.3 0.4-6.7 0.7-3.4 0.3-6.7 0.5-3.4 0.2-6.8 0.2z"/>
		<path id="Layer" fill-rule="evenodd" class="s0" d="m271.7 391.5c-10.3 0-20.4-1.4-23.3-6.3-1.9-3.2-0.9-7.2 2.9-11.9 9-10.9 15.8-15.7 19.8-18.5 4-2.8 4.6-3.3 3.5-6.1-1.1-2.8-0.4-5.3 0.6-6.4 2.2-2.7 7.9-5.1 32.4-0.1 7.1 1.4 10.3 3.1 11 5.7 0.7 2.6-2.2 5.6-5.7 8.5-3.5 2.9-4.9 4.1-6.4 6.5-1.5 2.4-0.2 4.7 1.7 8.6 1.9 3.9 3.6 7.6 1.8 11.2-1.8 3.6-5.7 5.4-12.9 6.7q-3.1 0.5-6.3 0.9-3.2 0.4-6.4 0.6-3.1 0.3-6.3 0.4-3.2 0.2-6.4 0.2zm13.7-48.2c-5 0-6.6 0.9-7.2 1.5-0.6 0.6-0.6 0.8 0.1 2.5 2.3 5.7-0.4 7.6-4.9 10.8-4.5 3.2-10.4 7.3-19 17.7-1.8 2.2-3.8 5.3-2.6 7.3 4.3 7.2 37.7 3.7 44.6 2.4 7.1-1.3 9.3-3.2 10-4.6 0.7-1.4-0.4-4.7-1.8-7.6-1.4-2.9-4.1-8.4-1.5-12.6 2.6-4.2 4.7-5.3 7.2-7.4 2.5-2.1 4.4-3.6 4.4-4.4 0-0.8-0.7-1.3-7.9-2.8-10.5-2.1-17.2-2.8-21.4-2.8z"/>
		<path id="Layer" class="s0" d="m338.7 262.2q-0.4 0-0.8-0.2-0.3-0.1-0.6-0.4-0.3-0.3-0.4-0.6-0.2-0.4-0.2-0.8 0-1.8 0.2-3.6 0.2-1.7 0.7-3.4 0.5-1.8 1.3-3.4 0.7-1.6 1.7-3.1c1.6-3 3.2-5.8 3.2-11.5q0-1.5-0.2-3-0.1-1.5-0.5-3-0.5-1.4-1.1-2.8-0.6-1.4-1.4-2.7c-1.8-3.2-3.9-6.8-3.9-13.5q0-1.8 0.2-3.6 0.2-1.7 0.7-3.4 0.5-1.8 1.3-3.4 0.7-1.6 1.7-3.1c1.6-3 3.2-5.8 3.2-11.5q0-1.5-0.2-3-0.1-1.5-0.5-3-0.5-1.4-1.1-2.8-0.6-1.4-1.4-2.7c-1.8-3.2-3.9-6.8-3.9-13.5q0-1.8 0.2-3.6 0.2-1.7 0.7-3.4 0.5-1.8 1.3-3.4 0.7-1.6 1.7-3.1c1.6-3 3.2-5.8 3.2-11.5 0-0.5 0.2-1 0.6-1.4 0.4-0.4 0.9-0.6 1.4-0.6 0.5 0 1 0.2 1.4 0.6 0.4 0.4 0.6 0.9 0.6 1.4q0 1.8-0.2 3.5-0.2 1.8-0.7 3.5-0.5 1.7-1.2 3.4-0.7 1.6-1.7 3.1-0.8 1.3-1.5 2.6-0.6 1.4-1 2.9-0.5 1.5-0.7 3-0.1 1.5-0.1 3c0 5.7 1.6 8.5 3.3 11.5q1 1.5 1.7 3.1 0.7 1.6 1.2 3.4 0.5 1.7 0.7 3.4 0.2 1.8 0.2 3.6 0 1.8-0.2 3.5-0.2 1.8-0.7 3.5-0.5 1.7-1.2 3.4-0.7 1.6-1.7 3.1-0.8 1.3-1.5 2.6-0.6 1.4-1 2.9-0.5 1.5-0.7 3-0.1 1.5-0.1 3c0 5.7 1.6 8.5 3.3 11.5q1 1.5 1.7 3.1 0.7 1.6 1.2 3.4 0.5 1.7 0.7 3.4 0.2 1.8 0.2 3.6 0 1.8-0.2 3.5-0.2 1.8-0.7 3.5-0.5 1.7-1.2 3.4-0.7 1.6-1.7 3.1-0.8 1.3-1.5 2.6-0.6 1.4-1 2.9-0.5 1.5-0.7 3-0.1 1.5-0.1 3 0 0.4-0.2 0.8-0.1 0.3-0.4 0.6-0.3 0.3-0.6 0.4-0.4 0.2-0.8 0.2z"/>
		<path id="Layer" class="s0" d="m271.7 280q-0.4 0-0.8-0.1-0.4-0.2-0.6-0.5-0.3-0.2-0.5-0.6-0.1-0.4-0.1-0.8 0-1.8 0.2-3.6 0.2-1.7 0.7-3.4 0.5-1.8 1.2-3.4 0.7-1.6 1.7-3.1 0.8-1.3 1.4-2.7 0.7-1.3 1.1-2.8 0.4-1.5 0.6-3 0.1-1.5 0.1-3 0-1.5-0.1-3-0.2-1.5-0.6-3-0.4-1.5-1.1-2.8-0.6-1.4-1.4-2.7-1-1.5-1.7-3.1-0.7-1.7-1.2-3.4-0.5-1.7-0.7-3.5-0.2-1.7-0.2-3.5 0-1.8 0.2-3.6 0.2-1.7 0.7-3.4 0.5-1.8 1.2-3.4 0.7-1.6 1.7-3.1 0.8-1.3 1.4-2.7 0.7-1.3 1.1-2.8 0.4-1.5 0.6-3 0.1-1.5 0.1-3 0-1.5-0.1-3-0.2-1.5-0.6-3-0.4-1.5-1.1-2.8-0.6-1.4-1.4-2.7-1-1.5-1.7-3.1-0.7-1.7-1.2-3.4-0.5-1.7-0.7-3.5-0.2-1.7-0.2-3.5 0-1.8 0.2-3.6 0.2-1.7 0.7-3.4 0.5-1.8 1.2-3.4 0.7-1.6 1.7-3.1 0.8-1.3 1.4-2.7 0.7-1.3 1.1-2.8 0.4-1.5 0.6-3 0.1-1.5 0.1-3 0-0.4 0.2-0.8 0.1-0.3 0.4-0.6 0.3-0.3 0.6-0.4 0.4-0.2 0.8-0.2 0.4 0 0.8 0.1 0.4 0.2 0.6 0.5 0.3 0.2 0.5 0.6 0.1 0.4 0.1 0.8 0 1.8-0.2 3.5-0.2 1.8-0.7 3.5-0.5 1.7-1.2 3.4-0.7 1.6-1.7 3.1-0.8 1.3-1.4 2.7-0.6 1.4-1 2.8-0.5 1.5-0.6 3-0.2 1.5-0.2 3c0 5.7 1.6 8.5 3.2 11.5q1 1.5 1.7 3.1 0.7 1.6 1.2 3.4 0.5 1.7 0.7 3.4 0.2 1.8 0.2 3.6 0 1.8-0.2 3.5-0.2 1.8-0.7 3.5-0.5 1.7-1.2 3.4-0.7 1.6-1.7 3.1-0.8 1.3-1.4 2.7-0.6 1.4-1 2.8-0.5 1.5-0.6 3-0.2 1.5-0.2 3c0 5.7 1.6 8.5 3.2 11.5q1 1.5 1.7 3.1 0.7 1.6 1.2 3.4 0.5 1.7 0.7 3.4 0.2 1.8 0.2 3.6 0 1.8-0.2 3.5-0.2 1.8-0.7 3.5-0.5 1.7-1.2 3.4-0.7 1.6-1.7 3.1-0.8 1.3-1.4 2.7-0.6 1.4-1 2.8-0.5 1.5-0.6 3-0.2 1.5-0.2 3 0 0.4-0.2 0.8-0.1 0.3-0.4 0.6-0.3 0.3-0.6 0.4-0.4 0.2-0.8 0.2z"/>
		<path id="Layer" class="s0" d="m405.8 271.7q-0.4 0-0.8-0.2-0.3-0.1-0.6-0.4-0.3-0.3-0.4-0.6-0.2-0.4-0.2-0.8c0-6.8 2.1-10.3 3.8-13.5q0.8-1.3 1.5-2.7 0.6-1.3 1-2.8 0.5-1.5 0.6-3 0.2-1.5 0.2-3c0-5.7-1.6-8.5-3.3-11.5-1.7-3-3.8-6.7-3.8-13.5 0-6.8 2.1-10.3 3.8-13.5q0.8-1.3 1.5-2.6 0.6-1.4 1-2.9 0.5-1.5 0.7-3 0.1-1.5 0.1-3c0-5.7-1.6-8.5-3.3-11.5-1.7-3-3.8-6.7-3.8-13.5 0-6.8 2.1-10.3 3.8-13.5q0.8-1.3 1.5-2.7 0.6-1.3 1-2.8 0.5-1.5 0.6-3 0.2-1.5 0.2-3c0-0.5 0.2-1 0.6-1.4 0.4-0.4 0.9-0.6 1.4-0.6 0.5 0 1 0.2 1.4 0.6 0.4 0.4 0.6 0.9 0.6 1.4q0 1.8-0.2 3.6-0.2 1.7-0.7 3.4-0.5 1.8-1.2 3.4-0.7 1.6-1.7 3.1c-1.7 3-3.3 5.8-3.3 11.5q0 1.5 0.2 3 0.1 1.5 0.6 3 0.4 1.5 1 2.8 0.7 1.4 1.5 2.7 1 1.5 1.7 3.1 0.7 1.7 1.2 3.4 0.5 1.7 0.7 3.5 0.2 1.7 0.2 3.5 0 1.8-0.2 3.6-0.2 1.7-0.7 3.4-0.5 1.8-1.2 3.4-0.7 1.6-1.7 3.1c-1.7 3-3.3 5.8-3.3 11.5q0 1.5 0.2 3 0.1 1.5 0.6 3 0.4 1.5 1 2.8 0.7 1.4 1.5 2.7 1 1.5 1.7 3.1 0.7 1.7 1.2 3.4 0.5 1.7 0.7 3.5 0.2 1.7 0.2 3.5 0 1.8-0.2 3.6-0.2 1.7-0.7 3.4-0.5 1.8-1.2 3.4-0.7 1.6-1.7 3.1c-1.7 3-3.3 5.8-3.3 11.5q0 0.4-0.2 0.8-0.1 0.3-0.4 0.6-0.3 0.3-0.6 0.4-0.4 0.2-0.8 0.2z"/>
	</g>
</svg>