<svg version="1.2" xmlns="http://www.w3.org/2000/svg" viewBox="0 0 567 555" width="567" height="555">
	<title>Пляж-svg</title>
	<style>
		.s0 { fill: #000000 } 
	</style>
	<g id="Layer_2">
		<path id="Layer" fill-rule="evenodd" class="s0" d="m12.6 340.1l-1.8-5.2c-32.9-96.9 19.1-202.6 116.1-235.5 97-32.9 202.5 19.1 235.4 116.1l1.7 4.9-4.5-2.5c-23.6-13.3-44.2-17.1-61.3-11.4-17.1 5.7-31.6 21.4-42.6 46.7l-0.8 1.9-1.9-1c-28.2-13.8-53.8-16.5-76.1-7.9-34.9 13.4-50 50.3-50.1 50.7l-0.8 2-2-1c-24.7-12.2-47.1-14.5-66.5-7-30.1 11.8-42.7 43.7-42.8 44.1zm173.8-246.6q-7.4 0-14.8 0.6-7.4 0.6-14.8 1.8-7.3 1.3-14.5 3.1-7.2 1.8-14.2 4.2c-93.2 31.7-144 132-115.1 225.5 4.9-9.8 18.1-31.8 42.9-41.5 20-7.8 42.8-5.7 67.9 6.2 3.7-8.1 19.3-38.6 51.6-51 22.9-8.8 48.9-6.4 77.4 7.2 11.4-25.1 26.2-40.9 44.2-46.9 18-6 37.1-2.6 59.8 9.2-27-72.7-96.4-118.4-170.4-118.4z"/>
		<path id="Layer" class="s0" d="m5.5 285.4l-3.6-1.7q2.4-4.5 5.2-8.7 2.8-4.2 6.1-8.1 3.3-3.9 6.9-7.4 3.7-3.5 7.7-6.6c15.8-11.9 42-22.5 78.2-6 4-7.9 21.7-38.6 55.5-50.7 22.8-8.3 48.1-6.1 75 6.3 3.3-6.8 15.9-29.3 40.6-38.7 18.2-6.9 38.8-5 61.1 5.6l-1.7 3.6c-21.3-10.1-40.8-12-57.9-5.5-27.1 10.3-39.1 38.1-39.3 38.4l-0.8 1.9-1.9-0.9c-26.6-12.7-51.4-15-73.8-7-36.5 13.2-53.9 50.1-54.1 50.4l-0.8 1.9-1.9-0.9c-28.2-13.5-53.7-11.9-75.7 4.8q-3.8 3-7.3 6.3-3.5 3.3-6.6 7-3.2 3.7-5.9 7.7-2.7 4-5 8.3z"/>
		<path id="Layer" fill-rule="evenodd" class="s0" d="m567.1 554.6h-555.3l1.6-3c0.5-0.8 12-20.9 52-41.1 36.6-18.5 105.1-40.6 224-40.6 118.9 0 187.5 22.1 224.1 40.6 40 20.2 51.5 40.3 51.9 41.1zm-548.1-4h540.9c-4.8-6.3-18.5-21.6-48.7-36.8-36.2-18.2-104-39.9-221.8-39.9-117.8 0-186 21.8-222.2 40.1-30 15.2-43.5 30.3-48.2 36.6z"/>
		<path id="Layer" fill-rule="evenodd" class="s0" d="m457.9 156.7c-21.8 0-41.5-13.1-49.8-33.3-8.3-20.1-3.7-43.3 11.7-58.7 15.4-15.4 38.6-20 58.7-11.7 20.2 8.3 33.3 28 33.3 49.8 0 7.1-1.4 14.1-4.1 20.6-2.7 6.6-6.7 12.5-11.7 17.5-5 5-10.9 9-17.5 11.7-6.5 2.7-13.5 4.1-20.6 4.1zm0-103.8c-20.2 0-38.4 12.2-46.1 30.8-7.7 18.7-3.5 40.1 10.8 54.4 14.3 14.3 35.7 18.5 54.4 10.8 18.6-7.7 30.8-25.9 30.8-46.1 0-6.6-1.3-13-3.8-19.1-2.5-6.1-6.2-11.6-10.8-16.2-4.6-4.6-10.1-8.3-16.2-10.8-6.1-2.5-12.5-3.8-19.1-3.8z"/>
		<path id="Layer" fill-rule="evenodd" class="s0" d="m457.9 40.5c-1.1 0-2.3-0.2-3.3-0.6-1.1-0.5-2-1.1-2.8-1.9-0.9-0.8-1.5-1.7-1.9-2.8-0.5-1-0.7-2.2-0.7-3.3v-23.9c0.2-2.1 1.2-4.1 2.8-5.5 1.6-1.5 3.7-2.3 5.8-2.3 2.2 0 4.3 0.8 5.9 2.3 1.6 1.4 2.6 3.4 2.8 5.5v23.9c0 1.1-0.2 2.2-0.7 3.3-0.4 1-1 2-1.8 2.8-0.8 0.8-1.8 1.4-2.8 1.8-1.1 0.5-2.2 0.7-3.3 0.7zm0-37.1q-0.9 0-1.8 0.3-0.8 0.4-1.5 1-0.6 0.7-1 1.5-0.4 0.9-0.4 1.8v23.9c0.2 1.1 0.7 2.1 1.6 2.9 0.8 0.7 1.9 1.1 3 1.1 1.2 0 2.3-0.4 3.1-1.1 0.9-0.8 1.4-1.8 1.6-2.9v-23.9q0-0.9-0.4-1.7-0.3-0.9-1-1.5-0.6-0.7-1.5-1-0.8-0.4-1.7-0.4z"/>
		<path id="Layer" fill-rule="evenodd" class="s0" d="m552.6 111.5h-23.8c-2.5 0.3-4.9-0.5-6.7-2.2-1.9-1.6-2.9-4-2.9-6.4 0-2.5 1-4.9 2.9-6.5 1.8-1.7 4.2-2.5 6.7-2.2h23.8c2.5-0.3 4.9 0.5 6.7 2.2 1.9 1.6 2.9 4 2.9 6.5 0 2.4-1 4.8-2.9 6.4-1.8 1.7-4.2 2.5-6.7 2.2zm-23.8-13.3c-1.4-0.2-2.7 0.2-3.8 1.1-1 0.9-1.6 2.2-1.6 3.6 0 1.3 0.6 2.6 1.6 3.5 1.1 0.9 2.4 1.3 3.8 1.1h23.8c1.4 0.2 2.7-0.2 3.8-1.1 1-0.9 1.6-2.2 1.6-3.5 0-1.4-0.6-2.7-1.6-3.6-1.1-0.9-2.4-1.3-3.8-1.1z"/>
		<path id="Layer" fill-rule="evenodd" class="s0" d="m457.9 206.2c-1.1 0-2.3-0.2-3.3-0.6-1.1-0.5-2-1.1-2.8-1.9-0.9-0.8-1.5-1.7-1.9-2.8-0.5-1-0.7-2.2-0.7-3.3v-23.9c0.2-2.1 1.2-4.1 2.8-5.5 1.6-1.5 3.7-2.3 5.8-2.3 2.2 0 4.3 0.8 5.9 2.3 1.6 1.4 2.6 3.4 2.8 5.5v23.9c0 1.1-0.2 2.2-0.7 3.3-0.4 1-1 2-1.8 2.8-0.8 0.8-1.8 1.4-2.8 1.8-1.1 0.5-2.2 0.7-3.3 0.7zm0-37.1q-0.9 0-1.8 0.3-0.8 0.4-1.5 1-0.6 0.7-1 1.5-0.4 0.9-0.4 1.8v23.9c0.2 1.1 0.7 2.1 1.6 2.9 0.8 0.7 1.9 1.1 3 1.1 1.2 0 2.3-0.4 3.1-1.1 0.9-0.8 1.4-1.8 1.6-2.9v-23.9q0-0.9-0.4-1.7-0.3-0.9-1-1.5-0.6-0.7-1.5-1-0.8-0.4-1.7-0.4z"/>
		<path id="Layer" fill-rule="evenodd" class="s0" d="m386.9 111.5h-23.8c-2.5 0.3-4.9-0.5-6.7-2.2-1.9-1.6-2.9-4-2.9-6.4 0-2.5 1-4.9 2.9-6.5 1.8-1.7 4.2-2.5 6.7-2.2h23.8c2.5-0.3 4.9 0.5 6.7 2.2 1.9 1.6 2.9 4 2.9 6.5 0 2.4-1 4.8-2.9 6.4-1.8 1.7-4.2 2.5-6.7 2.2zm-23.8-13.3c-1.4-0.2-2.7 0.2-3.8 1.1-1 0.9-1.6 2.2-1.6 3.6 0 1.3 0.6 2.6 1.6 3.5 1.1 0.9 2.4 1.3 3.8 1.1h23.8c1.4 0.2 2.7-0.2 3.8-1.1 1-0.9 1.6-2.2 1.6-3.5 0-1.4-0.6-2.7-1.6-3.6-1.1-0.9-2.4-1.3-3.8-1.1z"/>
		<path id="Layer" fill-rule="evenodd" class="s0" d="m407.3 61.8q-0.9 0-1.7-0.1-0.8-0.2-1.6-0.5-0.8-0.3-1.6-0.8-0.7-0.4-1.3-1l-17-16.7c-0.8-0.8-1.5-1.7-1.9-2.8-0.4-1-0.7-2.1-0.7-3.3 0-1.1 0.2-2.2 0.6-3.3 0.5-1 1.1-2 1.9-2.8 0.8-0.8 1.7-1.4 2.8-1.9 1-0.4 2.1-0.7 3.3-0.7 1.1 0 2.2 0.2 3.3 0.6 1 0.4 2 1 2.8 1.8l17 16.7q0.6 0.6 1.1 1.3 0.5 0.7 0.8 1.5 0.4 0.8 0.5 1.6 0.2 0.8 0.2 1.7c0 1.1-0.2 2.3-0.6 3.3-0.4 1.1-1 2-1.8 2.8-0.8 0.9-1.8 1.5-2.8 1.9-1 0.5-2.2 0.7-3.3 0.7zm-17.2-29.9q-0.5 0-0.9 0.1-0.5 0.1-0.9 0.2-0.4 0.2-0.8 0.5-0.4 0.3-0.7 0.6-0.6 0.7-1 1.5-0.3 0.9-0.3 1.8 0 0.9 0.4 1.7 0.3 0.9 1 1.5l17 16.7q0.3 0.3 0.7 0.6 0.4 0.2 0.8 0.4 0.4 0.1 0.9 0.2 0.4 0.1 0.9 0.1 0.5 0 0.9-0.1 0.5-0.1 0.9-0.3 0.4-0.1 0.8-0.4 0.4-0.3 0.7-0.6 0.3-0.3 0.6-0.7 0.2-0.3 0.4-0.8 0.2-0.4 0.2-0.8 0.1-0.5 0.1-0.9 0-0.5-0.1-0.9-0.1-0.5-0.3-0.9-0.1-0.4-0.4-0.8-0.3-0.4-0.6-0.7l-17-16.7q-0.3-0.3-0.7-0.6-0.4-0.2-0.8-0.4-0.4-0.1-0.9-0.2-0.4-0.1-0.9-0.1z"/>
		<path id="Layer" fill-rule="evenodd" class="s0" d="m508.5 61.8q-0.9 0-1.7-0.2-0.8-0.1-1.6-0.5-0.8-0.3-1.5-0.8-0.7-0.5-1.3-1.1-0.6-0.6-1.1-1.3-0.4-0.7-0.8-1.5-0.3-0.8-0.4-1.6-0.2-0.9-0.2-1.7 0-0.9 0.2-1.7 0.1-0.8 0.5-1.6 0.3-0.8 0.8-1.5 0.5-0.7 1.1-1.3l17-16.7q0.6-0.6 1.3-1 0.7-0.5 1.5-0.8 0.8-0.3 1.6-0.4 0.9-0.2 1.7-0.2 0.9 0 1.7 0.2 0.9 0.1 1.7 0.5 0.8 0.3 1.5 0.8 0.7 0.5 1.3 1.1c0.8 0.8 1.4 1.8 1.8 2.8 0.4 1.1 0.6 2.2 0.6 3.3 0 1.2-0.3 2.3-0.7 3.3-0.5 1.1-1.1 2-1.9 2.8l-17 16.7q-0.6 0.6-1.3 1-0.7 0.5-1.5 0.8-0.8 0.3-1.6 0.5-0.9 0.1-1.7 0.1zm17.1-29.9q-0.5 0-0.9 0.1-0.4 0.1-0.9 0.3-0.4 0.1-0.8 0.4-0.4 0.2-0.7 0.5l-17 16.7q-0.3 0.3-0.6 0.7-0.3 0.4-0.4 0.8-0.2 0.4-0.3 0.9-0.1 0.4-0.1 0.9 0 0.4 0.1 0.9 0.1 0.4 0.2 0.8 0.2 0.4 0.4 0.8 0.3 0.4 0.6 0.7 0.3 0.3 0.7 0.6 0.4 0.2 0.8 0.4 0.4 0.2 0.9 0.3 0.4 0.1 0.9 0.1 0.5 0 0.9-0.1 0.5 0 0.9-0.2 0.4-0.2 0.8-0.4 0.4-0.3 0.7-0.6l17-16.7c0.7-0.6 1.1-1.5 1.3-2.4 0.2-0.8 0.1-1.8-0.2-2.6-0.4-0.9-1-1.6-1.7-2.1-0.8-0.5-1.7-0.8-2.6-0.8z"/>
		<path id="Layer" fill-rule="evenodd" class="s0" d="m525.7 177.8q-0.9 0-1.7-0.2-0.8-0.1-1.6-0.4-0.8-0.4-1.6-0.8-0.7-0.5-1.3-1.1l-17-16.7q-0.6-0.6-1.1-1.3-0.5-0.7-0.8-1.5-0.4-0.8-0.5-1.6-0.2-0.8-0.2-1.7 0-0.8 0.2-1.7 0.1-0.8 0.4-1.6 0.4-0.8 0.8-1.5 0.5-0.7 1.1-1.3 0.6-0.6 1.3-1.1 0.7-0.5 1.4-0.8 0.8-0.4 1.6-0.5 0.9-0.2 1.7-0.2h0.1q0.8 0 1.7 0.2 0.8 0.1 1.6 0.4 0.8 0.4 1.5 0.8 0.7 0.5 1.3 1.1l17 16.6c0.8 0.8 1.5 1.8 1.9 2.8 0.4 1 0.7 2.2 0.7 3.3 0 1.1-0.2 2.3-0.6 3.3-0.4 1.1-1 2.1-1.8 2.9q-0.6 0.6-1.3 1.1-0.7 0.4-1.5 0.8-0.8 0.3-1.6 0.5-0.9 0.2-1.7 0.2zm-17.2-30q-0.5 0-0.9 0.1-0.5 0.1-0.9 0.3-0.4 0.2-0.8 0.4-0.4 0.3-0.7 0.6-0.3 0.3-0.6 0.7-0.2 0.4-0.4 0.8-0.1 0.5-0.2 0.9-0.1 0.4-0.1 0.9 0 0.5 0.1 0.9 0.1 0.4 0.3 0.8 0.1 0.5 0.4 0.8 0.3 0.4 0.6 0.7l17 16.7q0.3 0.3 0.7 0.6 0.4 0.2 0.8 0.4 0.4 0.2 0.9 0.3 0.4 0.1 0.9 0.1 0.5 0 0.9-0.1 0.4-0.1 0.9-0.3 0.4-0.2 0.8-0.4 0.4-0.3 0.7-0.6 0.7-0.7 1-1.5 0.4-0.9 0.3-1.8 0-1-0.3-1.8-0.4-0.9-1.1-1.5l-17-16.7q-0.3-0.3-0.7-0.6-0.4-0.2-0.8-0.4-0.4-0.2-0.9-0.2-0.4-0.1-0.9-0.1z"/>
		<path id="Layer" fill-rule="evenodd" class="s0" d="m390.1 177.7q-0.8 0-1.7-0.2-0.8-0.1-1.6-0.4-0.8-0.4-1.5-0.8-0.7-0.5-1.3-1.1-0.6-0.6-1.1-1.3-0.4-0.8-0.7-1.6-0.4-0.8-0.5-1.6-0.2-0.8-0.2-1.7 0-0.9 0.2-1.7 0.1-0.8 0.5-1.6 0.3-0.8 0.8-1.5 0.5-0.7 1.1-1.3l17-16.6c0.8-0.8 1.8-1.4 2.8-1.9 1.1-0.4 2.2-0.6 3.4-0.6 1.1 0 2.2 0.2 3.3 0.7 1 0.4 2 1.1 2.8 1.9q0.6 0.6 1 1.3 0.5 0.7 0.8 1.5 0.3 0.8 0.5 1.6 0.1 0.9 0.1 1.7 0 0.9-0.2 1.7-0.1 0.8-0.5 1.6-0.3 0.8-0.8 1.5-0.5 0.7-1.1 1.3l-17 16.7q-0.6 0.6-1.3 1-0.7 0.5-1.5 0.8-0.8 0.3-1.6 0.5-0.9 0.1-1.7 0.1zm17.1-29.9q-0.5 0-0.9 0.1-0.5 0-0.9 0.2-0.4 0.2-0.8 0.4-0.4 0.3-0.7 0.6l-17 16.7q-0.3 0.3-0.6 0.7-0.3 0.4-0.4 0.8-0.2 0.4-0.3 0.9-0.1 0.4-0.1 0.9 0 0.5 0.1 0.9 0.1 0.4 0.3 0.9 0.1 0.4 0.4 0.8 0.2 0.4 0.5 0.7 0.3 0.3 0.7 0.6 0.4 0.2 0.8 0.4 0.4 0.1 0.9 0.2 0.4 0.1 0.9 0.1 0.5 0 0.9-0.1 0.5 0 0.9-0.2 0.4-0.2 0.8-0.4 0.4-0.3 0.7-0.6l17-16.7q0.3-0.3 0.6-0.7 0.3-0.3 0.4-0.8 0.2-0.4 0.3-0.8 0.1-0.4 0.1-0.9 0-0.5-0.1-0.9 0-0.5-0.2-0.9-0.2-0.4-0.4-0.8-0.3-0.4-0.6-0.7-0.3-0.3-0.7-0.6-0.4-0.3-0.8-0.4-0.4-0.2-0.9-0.3-0.4-0.1-0.9-0.1z"/>
		<path id="Layer" class="s0" d="m377.9 408.1c-9.2 0-13.9-2.7-18.4-5.3-4.5-2.6-8.2-4.7-16.3-4.7-8.1 0-12.2 2.3-16.4 4.7-4.2 2.4-9.1 5.3-18.3 5.3-9.2 0-13.9-2.7-18.4-5.3-4.5-2.6-8.2-4.7-16.3-4.7-0.5 0-1-0.2-1.4-0.6-0.4-0.4-0.6-0.9-0.6-1.4 0-0.5 0.2-1 0.6-1.4 0.4-0.4 0.9-0.6 1.4-0.6 9.2 0 13.9 2.7 18.3 5.3 4.4 2.6 8.3 4.7 16.4 4.7 8.1 0 12.1-2.3 16.3-4.7 4.2-2.4 9.2-5.3 18.4-5.3 9.2 0 13.8 2.7 18.3 5.3 4.5 2.6 8.2 4.7 16.4 4.7 8.2 0 12.1-2.3 16.3-4.7 4.2-2.4 9.1-5.3 18.3-5.3 0.5 0 1 0.2 1.4 0.6 0.4 0.4 0.6 0.9 0.6 1.4 0 0.5-0.2 1-0.6 1.4-0.4 0.4-0.9 0.6-1.4 0.6-8.1 0-12.1 2.3-16.3 4.7-4.2 2.4-9.1 5.3-18.3 5.3z"/>
		<path id="Layer" class="s0" d="m447.2 376.9c-9.2 0-13.8-2.7-18.3-5.3-4.5-2.6-8.2-4.7-16.4-4.7-8.2 0-12.1 2.3-16.3 4.7-4.2 2.4-9.1 5.3-18.3 5.3-9.2 0-13.9-2.7-18.4-5.3-4.5-2.6-8.2-4.7-16.3-4.7-0.5 0-1-0.2-1.4-0.6-0.4-0.4-0.6-0.9-0.6-1.4 0-0.5 0.2-1 0.6-1.4 0.4-0.4 0.9-0.6 1.4-0.6 9.2 0 13.8 2.7 18.3 5.3 4.5 2.6 8.2 4.7 16.4 4.7 8.2 0 12.1-2.3 16.3-4.7 4.2-2.4 9.1-5.3 18.3-5.3 9.2 0 13.9 2.7 18.4 5.3 4.5 2.6 8.2 4.7 16.3 4.7 8.1 0 12.1-2.3 16.4-4.7 4.3-2.4 9.1-5.3 18.3-5.3 0.5 0 1 0.2 1.4 0.6 0.4 0.4 0.6 0.9 0.6 1.4 0 0.5-0.2 1-0.6 1.4-0.4 0.4-0.9 0.6-1.4 0.6-8.1 0-12.1 2.3-16.3 4.7-4.2 2.4-9.2 5.3-18.4 5.3z"/>
		<path id="Layer" class="s0" d="m440.1 439.3c-9.2 0-13.8-2.6-18.3-5.2-4.5-2.6-8.2-4.8-16.4-4.8-8.2 0-12.1 2.3-16.3 4.8-4.2 2.5-9.1 5.2-18.3 5.2-9.2 0-13.9-2.6-18.4-5.2-4.5-2.6-8.2-4.8-16.3-4.8-0.5 0-1-0.2-1.4-0.6-0.4-0.4-0.6-0.9-0.6-1.4 0-0.5 0.2-1 0.6-1.4 0.4-0.4 0.9-0.6 1.4-0.6 9.2 0 13.8 2.7 18.3 5.3 4.5 2.6 8.2 4.7 16.4 4.7 8.2 0 12.1-2.3 16.3-4.7 4.2-2.4 9.1-5.3 18.3-5.3 9.2 0 13.9 2.7 18.4 5.3 4.5 2.6 8.2 4.7 16.3 4.7 8.1 0 12.2-2.3 16.4-4.7 4.2-2.4 9.1-5.3 18.3-5.3 0.5 0 1 0.2 1.4 0.6 0.4 0.4 0.6 0.9 0.6 1.4 0 0.5-0.2 1-0.6 1.4-0.4 0.4-0.9 0.6-1.4 0.6-8.1 0-12.1 2.3-16.3 4.8-4.2 2.5-9.2 5.2-18.4 5.2z"/>
		<path id="Layer" class="s0" d="m164.3 249.5l3.7-1.3 75.9 224.1-3.8 1.3z"/>
		<path id="Layer" class="s0" d="m184.9 241.6l3.8-1.3 78.3 231.1-3.8 1.3z"/>
		<path id="Layer" class="s0" d="m115.9 105.6l-12.5-36.9q-0.4-1.2-0.6-2.5-0.2-1.2-0.1-2.5 0.1-1.3 0.4-2.5 0.3-1.3 0.9-2.4 0.6-1.1 1.4-2.2 0.8-1 1.7-1.8 1-0.9 2.1-1.5 1.1-0.7 2.3-1.1c1.6-0.5 3.3-0.7 5-0.6 1.7 0.1 3.4 0.5 4.9 1.3 1.6 0.8 2.9 1.8 4.1 3.1 1.1 1.3 1.9 2.8 2.5 4.4l12.5 36.9-3.8 1.3-12.5-36.9c-0.6-1.7-1.6-3.2-3-4.3-1.5-1-3.2-1.7-4.9-1.8-1.8-0.1-3.6 0.3-5.1 1.2-1.6 0.9-2.8 2.2-3.6 3.8q-0.4 0.8-0.6 1.7-0.2 0.8-0.3 1.7 0 0.9 0.1 1.8 0.1 0.9 0.4 1.7l12.5 36.8z"/>
	</g>
</svg>