<svg version="1.2" xmlns="http://www.w3.org/2000/svg" viewBox="0 0 322 232" width="322" height="232"><style></style><path  d="m309.9 135h-9.8-277.2-9.8c-6.7 0-12.1-5.4-12.1-12.1v-9.8-5-86.1c0-12.2 9.8-22 21.9-22h277.2c12.1 0 21.9 9.8 21.9 22v86.1 5 9.8c0 6.7-5.4 12.1-12.1 12.1v-2.3-2.3c4.2 0 7.5-3.4 7.5-7.5v-9.8-5-86.1c0-9.6-7.7-17.4-17.3-17.4h-277.2c-9.6 0-17.3 7.8-17.3 17.4v86.1 5 9.8c0 4.1 3.3 7.5 7.5 7.5h9.8 277.2 9.8v2.3zm-215.6 96.7c-1.1 0.6-2.5 0.3-3.2-0.8-2.2-3.6-3.2-8.1-3.2-12.6 0-4.5 1-9 3.2-12.6l9.9-16c1.6-2.7 2.5-6.4 2.5-10.2 0-3.8-0.9-7.5-2.5-10.2-0.7-1.1-0.4-2.5 0.7-3.1 1.1-0.7 2.5-0.4 3.1 0.7 2.3 3.6 3.3 8.1 3.3 12.6 0 4.5-1 9-3.3 12.6l-9.8 16c-1.7 2.7-2.6 6.4-2.6 10.2 0 3.8 0.9 7.5 2.6 10.2 0.7 1.1 0.3 2.5-0.7 3.2zm63.3-17.4c-1.1 0.7-2.5 0.3-3.1-0.7-2.3-3.7-3.3-8.2-3.3-12.7 0-4.4 1-8.9 3.3-12.6l9.8-15.9c1.7-2.7 2.6-6.5 2.6-10.2 0-3.8-0.9-7.6-2.6-10.2-0.7-1.1-0.3-2.5 0.8-3.2 1-0.7 2.4-0.3 3.1 0.7 2.2 3.7 3.2 8.2 3.3 12.7-0.1 4.4-1.1 8.9-3.3 12.6l-9.8 15.9c-1.7 2.7-2.6 6.5-2.6 10.2 0 3.8 0.9 7.6 2.6 10.2 0.6 1.1 0.3 2.5-0.8 3.2zm63.4 17.4c-1.1 0.6-2.5 0.3-3.2-0.8-2.2-3.6-3.2-8.1-3.2-12.6 0-4.5 1-9 3.2-12.6l9.9-16c1.6-2.7 2.5-6.4 2.5-10.2 0-3.8-0.9-7.5-2.5-10.2-0.7-1.1-0.4-2.5 0.7-3.1 1.1-0.7 2.5-0.4 3.1 0.7 2.3 3.6 3.3 8.1 3.3 12.6 0 4.5-1 9-3.3 12.6l-9.8 16c-1.7 2.7-2.6 6.4-2.6 10.2 0 3.8 0.9 7.5 2.6 10.2 0.7 1.1 0.3 2.5-0.7 3.2zm-191.6-97.3c-1.3 0-2.3-1.1-2.3-2.3v-17.6c0-6.7 5.4-12.1 12.1-12.1h244.6c6.7 0 12.1 5.4 12.1 12.1v17.6c0 1.2-1 2.3-2.3 2.3-1.3 0-2.3-1.1-2.3-2.3v-17.6c0-4.1-3.4-7.5-7.5-7.5h-244.6c-4.1 0-7.5 3.4-7.5 7.5v17.6c0 1.2-1 2.3-2.3 2.3zm106.9-80h50.1c4.5 0.1 7.6 4.1 7.6 8.5v7.5c0 4.5-3.1 8.5-7.6 8.6h-50.1c-4.5-0.1-7.6-4.1-7.6-8.6v-7.5c0-4.4 3.1-8.4 7.6-8.5v2.3 2.3c-1.4 0-3 1.5-3 3.9v7.5c0 2.5 1.6 4 3 4h50.1c1.4 0 3-1.5 3-4v-7.5c0-2.4-1.6-3.9-3-3.9h-50.1v-2.3zm-102.5-36.7c5.7 0 10.3 4.6 10.3 10.3 0 5.7-4.6 10.3-10.3 10.3-5.7 0-10.3-4.6-10.3-10.3 0-5.7 4.6-10.3 10.3-10.3v2.3 2.3c-3.1 0-5.7 2.6-5.7 5.7 0 3.2 2.6 5.8 5.7 5.8 3.2 0 5.7-2.6 5.7-5.8 0-3.1-2.5-5.7-5.7-5.7v-2.3zm24.8 0c5.7 0 10.3 4.6 10.3 10.3 0 5.7-4.6 10.3-10.3 10.3-5.6 0-10.2-4.6-10.3-10.3 0.1-5.7 4.7-10.3 10.3-10.3v2.3 2.3c-3.1 0-5.7 2.5-5.7 5.7 0 3.2 2.6 5.7 5.7 5.7 3.2 0 5.7-2.5 5.8-5.7-0.1-3.2-2.6-5.7-5.8-5.7v-2.3zm24.5 0c5.7 0 10.3 4.6 10.3 10.3 0 5.7-4.6 10.3-10.3 10.3-5.7 0-10.3-4.6-10.3-10.3 0-5.7 4.6-10.3 10.3-10.3v2.3 2.3c-3.1 0-5.7 2.5-5.7 5.7 0 3.2 2.6 5.7 5.7 5.7 3.2 0 5.7-2.5 5.7-5.7 0-3.2-2.5-5.7-5.7-5.7v-2.3z"/></svg>