<svg version="1.2" xmlns="http://www.w3.org/2000/svg" viewBox="0 0 670 584" width="670" height="584">
	<title>fishing-ic-svg</title>
	<style>
		.s0 { fill: #000000 } 
	</style>
	<g id="Layer_2">
		<path id="Layer" class="s0" d="m504.3 498.8q-0.3 0-0.6-0.1-0.3-0.1-0.6-0.3-0.2-0.2-0.4-0.5-0.1-0.3-0.2-0.6-0.1-0.2-0.1-0.3-0.1-0.2-0.1-0.4-0.1-0.2-0.1-0.3-0.1-0.2-0.1-0.4-1.1-5.3-2.1-10.7-1-5.3-1.8-10.7-0.8-5.4-1.5-10.8-0.7-5.4-1.2-10.8-1.3-12.4-2-24.8-0.7-12.4-0.8-24.8-0.1-12.4 0.5-24.8 0.6-12.4 1.8-24.8c4.4-44.9 15.2-86.4 32.1-123.4 5.6-12.2 10.4-24.8 14.5-37.6 4.1-12.8 7.5-25.8 10.1-38.9 2.6-13.2 4.5-26.5 5.5-39.9 1.1-13.4 1.4-26.9 0.9-40.3-1.1-31.4-6.3-54.4-8.7-63.4-17.2 28.9-37.6 51.2-60.7 66.5q-7.1 4.8-14.7 8.7-7.5 3.9-15.5 6.8-8 3-16.3 5.1-8.2 2-16.7 3.1-8.3 1.1-16.6 1.2-8.3 0.2-16.6-0.6-8.3-0.8-16.4-2.4-8.2-1.7-16.1-4.3c-2.9 27-11.6 50.6-26 70.3-11.9 16.2-27.7 29.8-46.8 40.3q-7.3 4-15 7.2-7.6 3.3-15.5 5.9-7.9 2.6-16 4.5-8.2 1.9-16.4 3c-1.4 41.3-11 74.3-28.5 98.2q-4.8 6.6-10.6 12.4-5.8 5.8-12.5 10.6-6.7 4.8-14 8.5-7.4 3.7-15.2 6.1-0.3 0.1-0.7 0.1-0.4 0-0.7-0.2-0.3-0.2-0.6-0.5-0.2-0.2-0.3-0.6-0.1-0.3-0.1-0.7 0-0.4 0.2-0.7 0.2-0.3 0.5-0.6 0.2-0.2 0.6-0.3c34.3-11 75.7-43.1 78.2-134v-1.6l1.6-0.2c0.3 0 31.3-2.9 63.2-20.5 42.6-23.4 66.5-60.4 71-110l0.2-2.5 2.4 0.9c0.3 0.2 28.9 11.6 66.3 6.8 34.6-4.4 84-24 123.2-92.1l2.1-3.7 1.3 4.1c0.1 0.2 8.5 27.1 10 68.3 0.5 13.6 0.2 27.2-0.9 40.7-1 13.6-2.9 27.1-5.5 40.4-2.6 13.4-6.1 26.5-10.2 39.5-4.2 12.9-9.1 25.6-14.7 38-38.6 84.2-36.2 174.4-31.3 220.6q0.5 5.4 1.2 10.7 0.6 5.4 1.5 10.7 0.8 5.3 1.8 10.6 1 5.3 2.1 10.6l0.3 1.3q0.1 0.4 0 0.7 0 0.4-0.2 0.7-0.2 0.4-0.5 0.6-0.3 0.2-0.7 0.3z"/>
		<path id="Layer" class="s0" d="m106.3 356.8l-3.2-1.9c33.1-55.5 66.2-103.4 101.2-146.2 45.6-55.7 93-100.8 140.9-134.1 51.1-35.6 103.3-57.9 155.6-66.7-83.8 11.3-162.7 51.4-239.8 121.5-60.8 55.2-132.6 154.1-173.7 222.6l-3.2-1.9c41.2-68.7 113.3-168 174.4-223.5 45.7-41.5 90.6-71.8 137.4-92.6 49.4-22 99.4-32.9 153-33.2q0.6 0 1.2 0.3 0.6 0.2 1 0.6 0.5 0.5 0.8 1 0.2 0.6 0.3 1.2v0.2q0 0.7-0.3 1.3-0.2 0.6-0.7 1-0.4 0.5-1 0.7-0.6 0.3-1.3 0.3c-67.5 0.6-135.4 24.2-201.6 70.2-47.6 33.1-94.8 78-140.1 133.5-34.9 42.6-67.9 90.3-100.9 145.7z"/>
		<path id="Layer" class="s0" d="m33.2 555.9q-0.5 0-1 0-0.5-0.1-1-0.2-0.5-0.1-1-0.2-0.4-0.1-0.9-0.3l-20.1-6.7c-1.6-0.6-3.1-1.5-4.4-2.7-1.3-1.1-2.3-2.5-3.1-4.1-0.7-1.6-1.2-3.3-1.3-5-0.1-1.7 0.1-3.5 0.7-5.1l2.1-6.9c9.4-29.7 34.3-108.5 76.6-173.6q0.5-0.8 1.3-1.4 0.8-0.6 1.7-0.8 0.9-0.2 1.9-0.1 1 0.1 1.8 0.6h0.1l13.2 7.2-1.8 3.3-13.3-7.2q-0.2-0.1-0.5-0.2-0.3 0-0.5 0.1-0.3 0-0.5 0.2-0.2 0.2-0.3 0.4c-42 64.6-66.8 143.1-76.1 172.6-0.8 2.7-1.6 5-2.2 7-0.4 1.2-0.6 2.4-0.5 3.7 0.1 1.2 0.4 2.4 0.9 3.5 0.6 1.2 1.3 2.2 2.2 3 1 0.8 2 1.5 3.2 1.9l20.1 6.8q0.9 0.3 1.8 0.4 0.9 0.1 1.8 0 1-0.1 1.8-0.4 0.9-0.3 1.7-0.8 0.9-0.5 1.6-1.2 0.8-0.7 1.4-1.5 0.6-0.8 0.9-1.8 0.4-0.9 0.6-1.9c3.1-16.1 15.3-61.2 36.2-119.4l3.5 1.2c-20.8 58.1-33 102.9-36 118.9q-0.3 1.4-0.8 2.7-0.5 1.3-1.4 2.5-0.8 1.2-1.8 2.1-1.1 1-2.3 1.7-0.7 0.4-1.5 0.7-0.7 0.3-1.5 0.6-0.8 0.2-1.7 0.3-0.8 0.1-1.6 0.1z"/>
		<path id="Layer" class="s0" d="m141 441.6l3.6-0.9 4.1 16.7-3.6 0.9z"/>
		<path id="Layer" class="s0" d="m132.5 445.3l3.5-0.9 3.9 15.6-3.6 0.9z"/>
		<path id="Layer" fill-rule="evenodd" class="s0" d="m119.6 449.2c-19.7 0-37.5-12-45-30.2-7.5-18.2-3.3-39.2 10.6-53.1 14-14 35-18.1 53.2-10.6 18.2 7.6 30.1 25.4 30.1 45.1 0 6.4-1.3 12.8-3.8 18.7-2.4 5.9-6 11.3-10.6 15.8-4.5 4.5-9.9 8.1-15.8 10.6-5.9 2.4-12.3 3.7-18.7 3.7zm0-93.9c-18.2 0-34.7 11-41.7 27.8-6.9 16.9-3.1 36.3 9.8 49.2 12.9 12.9 32.3 16.7 49.2 9.8 16.8-7 27.8-23.5 27.8-41.7 0-5.9-1.2-11.8-3.4-17.3-2.3-5.4-5.6-10.4-9.8-14.6-4.2-4.2-9.2-7.5-14.6-9.8-5.5-2.2-11.4-3.4-17.3-3.4z"/>
		<path id="Layer" fill-rule="evenodd" class="s0" d="m119.6 425.8c-10.3 0-19.5-6.2-23.5-15.7-3.9-9.5-1.7-20.4 5.5-27.7 7.3-7.2 18.2-9.4 27.7-5.5 9.5 4 15.7 13.2 15.7 23.5 0 3.3-0.7 6.6-1.9 9.7-1.3 3.1-3.2 5.9-5.5 8.3-2.4 2.3-5.2 4.2-8.3 5.5-3.1 1.2-6.4 1.9-9.7 1.9zm0-47c-8.7 0-16.6 5.3-19.9 13.4-3.3 8.1-1.4 17.4 4.8 23.5 6.1 6.2 15.4 8 23.5 4.6 8-3.3 13.3-11.2 13.3-19.9 0-2.8-0.6-5.7-1.7-8.3-1-2.6-2.6-5-4.7-7-2-2-4.4-3.6-7-4.7-2.6-1.1-5.5-1.6-8.3-1.6z"/>
		<path id="Layer" fill-rule="evenodd" class="s0" d="m145.7 485.5q-1.1 0-2.1-0.2-1.1-0.1-2.1-0.4-1.1-0.3-2-0.8-1-0.4-1.9-1-1.2-0.8-2.3-1.8-1-1-1.8-2.2-0.8-1.2-1.4-2.5-0.5-1.4-0.8-2.8c-0.6-2.8-0.3-5.8 0.8-8.5 1.1-2.7 3-5 5.4-6.6 2.4-1.6 5.2-2.5 8.1-2.5 2.9 0 5.8 0.8 8.2 2.4q1.2 0.8 2.2 1.8 1.1 1 1.9 2.2 0.8 1.2 1.4 2.6 0.5 1.3 0.8 2.7 0.3 1.4 0.3 2.9 0 1.4-0.3 2.8-0.2 1.4-0.8 2.8-0.5 1.3-1.3 2.5-1 1.5-2.4 2.8-1.3 1.2-2.9 2.1-1.6 0.8-3.4 1.3-1.8 0.4-3.6 0.4zm0-25.6c-1.6 0-3.3 0.3-4.7 1-1.5 0.7-2.8 1.7-3.9 3-1 1.3-1.7 2.8-2.1 4.4-0.4 1.5-0.4 3.2 0 4.8q0.2 1.1 0.6 2 0.5 1 1.1 1.9 0.6 0.9 1.3 1.7 0.8 0.7 1.7 1.3c1.2 0.8 2.5 1.3 3.9 1.6 1.4 0.3 2.9 0.3 4.3 0 1.4-0.3 2.7-0.9 3.9-1.7 1.2-0.8 2.2-1.8 3-3q0.6-0.9 1-1.9 0.5-1 0.7-2.1 0.2-1.1 0.2-2.1-0.1-1.1-0.3-2.2-0.4-1.8-1.4-3.5-0.9-1.6-2.4-2.8-1.5-1.1-3.2-1.8-1.8-0.6-3.7-0.6z"/>
		<path id="Layer" class="s0" d="m204.6 211.4l2.4-2.8 16.5 14-2.3 2.8z"/>
		<path id="Layer" class="s0" d="m344.5 77.2l2.9-2.3 12.2 16-2.9 2.2z"/>
		<path id="Layer" fill-rule="evenodd" class="s0" d="m543.5 583.2q-33 0-69.2-9.5c-35.9-9.5-79.5-14.1-121.6-18.6-63.3-6.7-118-12.5-126.2-33.7-3-7.7 0.2-16.6 9.6-27.2 18.2-20.4 45.4-32.6 85.6-38.6 36.5-5.4 80.4-5.3 131.1-5.2h22c107.4 0 194.8 28.4 194.8 63.5 0 12.3-9.6 27.1-25.6 39.5-12.1 9.3-33.5 21.5-66.4 27q-4.2 0.7-8.5 1.2-4.2 0.5-8.5 0.9-4.3 0.3-8.5 0.5-4.3 0.2-8.6 0.2zm-111.6-129.1c-91.1 0-157.3 2.7-193 42.6-8.4 9.5-11.3 17.1-8.9 23.4 7.3 19 63.6 25 123.1 31.3 42.3 4.5 86 9.1 122.1 18.7 36.1 9.6 70.7 11.8 101.8 6.7 31.1-5.1 52.9-17.2 64.7-26.3 14.9-11.5 24.2-25.5 24.2-36.5 0-28.9-76.8-59.8-191.1-59.8h-42.9z"/>
		<path id="Layer" class="s0" d="m450.1 508.3q-2.1 0-4.1-0.1-2.1-0.2-4.1-0.6-2.1-0.3-4.1-0.9-2-0.5-3.9-1.3-1.8-0.7-3.6-1.2-1.9-0.6-3.8-0.9-1.9-0.4-3.8-0.5-1.9-0.1-3.8-0.1-1.9 0-3.8 0.1-1.9 0.1-3.8 0.5-1.9 0.3-3.7 0.9-1.8 0.5-3.6 1.2-3.9 1.4-8 2.2-4.1 0.7-8.3 0.7-4.1 0-8.2-0.7-4.1-0.8-8-2.2-1.8-0.7-3.6-1.2-1.8-0.6-3.7-0.9-1.9-0.4-3.8-0.5-1.9-0.1-3.8-0.1-0.4 0-0.7-0.1-0.4-0.2-0.7-0.4-0.2-0.3-0.4-0.7-0.1-0.3-0.1-0.7 0-0.4 0.1-0.7 0.2-0.4 0.5-0.6 0.2-0.3 0.6-0.4 0.3-0.1 0.7-0.1 2.1 0 4.1 0.1 2.1 0.2 4.1 0.6 2.1 0.3 4.1 0.9 2 0.5 3.9 1.3 3.6 1.3 7.4 2 3.7 0.7 7.5 0.7 3.9 0 7.6-0.7 3.8-0.7 7.4-2 3.9-1.4 8-2.2 4.1-0.7 8.2-0.7 4.1 0 8.2 0.7 4.1 0.8 8 2.2 1.8 0.7 3.6 1.2 1.9 0.6 3.8 0.9 1.9 0.4 3.8 0.5 1.9 0.1 3.8 0.1c0.6-0.1 1.2 0 1.6 0.4 0.5 0.3 0.7 0.9 0.7 1.5 0 0.5-0.2 1.1-0.7 1.4-0.4 0.4-1 0.5-1.6 0.4z"/>
		<path id="Layer" class="s0" d="m519.9 542.6q-2.1 0-4.1-0.1-2.1-0.2-4.1-0.6-2.1-0.3-4.1-0.9-2-0.5-3.9-1.3-1.8-0.7-3.6-1.2-1.9-0.6-3.8-0.9-1.9-0.4-3.8-0.5-1.9-0.1-3.8-0.1-1.9 0-3.8 0.1-1.9 0.1-3.8 0.5-1.9 0.3-3.7 0.9-1.8 0.5-3.6 1.2-3.9 1.4-8 2.2-4.1 0.7-8.3 0.7-4.1 0-8.2-0.7-4.1-0.8-8-2.2-1.8-0.7-3.6-1.2-1.8-0.6-3.7-0.9-1.9-0.4-3.8-0.5-1.9-0.1-3.8-0.1c-0.5 0-1-0.2-1.3-0.6-0.4-0.3-0.6-0.8-0.6-1.3 0-0.5 0.2-1 0.6-1.3 0.3-0.4 0.8-0.6 1.3-0.6q2.1-0.1 4.1 0.1 2.1 0.2 4.2 0.6 2 0.3 4 0.9 2 0.6 3.9 1.4 3.6 1.3 7.4 1.9 3.7 0.7 7.5 0.7 3.9 0 7.6-0.7 3.8-0.6 7.4-1.9 3.9-1.5 8-2.2 4-0.8 8.2-0.8 4.2 0 8.2 0.8 4.1 0.7 8 2.2 1.8 0.7 3.6 1.2 1.9 0.5 3.8 0.8 1.9 0.3 3.8 0.5 1.9 0.1 3.8 0.1c0.5 0 1 0.2 1.3 0.6 0.4 0.3 0.6 0.8 0.6 1.3 0 0.5-0.2 1-0.6 1.3-0.3 0.4-0.8 0.6-1.3 0.6z"/>
		<path id="Layer" class="s0" d="m568.3 500.1q-2.1 0.1-4.1-0.1-2.1-0.1-4.1-0.5-2.1-0.4-4.1-1-2-0.5-3.9-1.3-1.8-0.7-3.6-1.2-1.9-0.6-3.8-0.9-1.9-0.4-3.8-0.5-1.9-0.1-3.8-0.1-1.9-0.1-3.8 0.1-1.9 0.1-3.8 0.5-1.9 0.3-3.7 0.8-1.8 0.6-3.6 1.3-3.9 1.4-8 2.2-4.1 0.7-8.3 0.7-4.1 0-8.2-0.7-4.1-0.8-8-2.2-1.8-0.7-3.6-1.2-1.8-0.6-3.7-0.9-1.9-0.4-3.8-0.5-1.9-0.1-3.8-0.1-0.4 0-0.7-0.1-0.4-0.1-0.6-0.4-0.3-0.2-0.5-0.6-0.1-0.3-0.1-0.7 0-0.4 0.1-0.7 0.2-0.4 0.4-0.7 0.3-0.2 0.7-0.4 0.3-0.1 0.7-0.1 2.1 0 4.1 0.1 2.1 0.2 4.1 0.6 2.1 0.3 4.1 0.9 2 0.5 3.9 1.3 1.8 0.7 3.6 1.2 1.8 0.6 3.7 0.9 1.9 0.4 3.8 0.5 1.9 0.1 3.8 0.1 1.9 0 3.8-0.1 1.9-0.1 3.8-0.5 1.9-0.3 3.8-0.9 1.8-0.5 3.6-1.2 3.9-1.4 8-2.2 4.1-0.7 8.2-0.7 4.1 0 8.2 0.7 4.1 0.8 8 2.2 1.8 0.7 3.6 1.2 1.9 0.6 3.8 0.9 1.9 0.4 3.8 0.5 1.9 0.1 3.8 0.1c0.6-0.1 1.2 0 1.6 0.4 0.5 0.3 0.7 0.9 0.7 1.5 0 0.5-0.2 1.1-0.7 1.4-0.4 0.4-1 0.5-1.6 0.4z"/>
	</g>
</svg>