<svg version="1.2" xmlns="http://www.w3.org/2000/svg" viewBox="0 0 282 273" width="282" height="273"><style>.a{fill:#15130f}</style><path class="a" d="m220.5 5c-6.2 0.1-11.1 5-11.2 11.2v240.6c0.1 6.2 5 11.1 11.2 11.2 6.1-0.1 11.1-5 11.1-11.2v-240.6c0-6.2-5-11.1-11.1-11.2v-2.1-2.2c8.5 0 15.4 6.9 15.4 15.5v240.6c0 8.6-6.9 15.5-15.4 15.5-8.6 0-15.5-6.9-15.5-15.5v-240.6c0-8.6 6.9-15.5 15.5-15.5v2.2zm-26.6 0c-6.2 0-11.1 5-11.2 11.1v240.6c0.1 6.2 5 11.2 11.2 11.2 6.1 0 11.1-5 11.1-11.2v-240.6c0-6.1-5-11.1-11.1-11.1v-2.2-2.2c8.5 0 15.4 7 15.4 15.5v240.6c0 8.6-6.9 15.5-15.4 15.5-8.6 0-15.5-6.9-15.5-15.5v-240.6c0-8.5 6.9-15.5 15.5-15.5v2.2zm-133 0c-6.1 0-11.1 5-11.1 11.2v240.6c0 6.1 5 11.1 11.1 11.1 6.2 0 11.1-5 11.1-11.1v-240.6c0-6.2-4.9-11.2-11.1-11.2v-2.2-2.1c8.5 0 15.5 6.9 15.5 15.5v240.6c0 8.5-7 15.5-15.5 15.5-8.5 0-15.5-7-15.5-15.5v-240.6c0-8.6 7-15.5 15.5-15.5v2.1zm26.6 0c-6.1 0.1-11.1 5-11.1 11.2v240.6c0 6.2 5 11.1 11.1 11.2 6.1-0.1 11.1-5 11.1-11.2v-240.6c0-6.2-5-11.1-11.1-11.2v-2.1-2.2c8.5 0 15.5 6.9 15.5 15.5v240.6c0 8.6-7 15.5-15.5 15.5-8.5 0-15.5-6.9-15.5-15.5v-240.6c0-8.6 7-15.5 15.5-15.5v2.2zm26.6 0c-6.2 0-11.1 5-11.1 11.1v240.6c0 6.2 4.9 11.2 11.1 11.2 6.1 0 11.1-5 11.1-11.2v-240.6c0-6.1-5-11.1-11.1-11.1v-2.2-2.2c8.5 0 15.5 7 15.5 15.5v240.6c0 8.6-7 15.5-15.5 15.5-8.5 0-15.5-6.9-15.5-15.5v-240.6c0-8.5 7-15.5 15.5-15.5v2.2zm26.6 0c-6.2 0-11.1 5-11.1 11.2v240.6c0 6.1 4.9 11.1 11.1 11.1 6.1 0 11.1-5 11.1-11.1v-240.6c0-6.2-5-11.2-11.1-11.2v-2.2-2.1c8.5 0 15.5 6.9 15.5 15.5v240.6c0 8.5-7 15.5-15.5 15.5-8.5 0-15.5-7-15.5-15.5v-240.6c0-8.6 7-15.5 15.5-15.5v2.1zm26.6 0c-6.2 0-11.1 5-11.1 11.2v240.6c0 6.2 4.9 11.1 11.1 11.1 6.1 0 11.1-4.9 11.1-11.1v-240.6c0-6.2-5-11.2-11.1-11.2v-2.1-2.2c8.5 0 15.4 6.9 15.4 15.5v240.6c0 8.6-6.9 15.5-15.4 15.5-8.6 0-15.5-6.9-15.5-15.5v-240.6c0-8.6 6.9-15.5 15.5-15.5v2.2zm107.9 9.9h-10.8c-1.4 0-2.5 1.1-2.5 2.5v29.4c0 1.3 1.1 2.5 2.5 2.5h10.8c1.4 0 2.5-1.2 2.5-2.5v-29.4c0-1.4-1.1-2.5-2.5-2.5v-2.2-2.2c3.8 0 6.8 3.1 6.8 6.9v29.4c0 3.7-3 6.8-6.8 6.8h-10.8c-3.8 0-6.8-3.1-6.8-6.8v-29.4c0-3.8 3-6.9 6.8-6.9h10.8v2.2zm0 207.5h-10.8c-1.4 0-2.5 1.1-2.5 2.5v29.4c0 1.4 1.1 2.5 2.5 2.5h10.8c1.4 0 2.5-1.1 2.5-2.5v-29.4c0-1.4-1.1-2.5-2.5-2.5v-2.2-2.1c3.8 0 6.8 3 6.8 6.8v29.4c0 3.8-3 6.8-6.8 6.8h-10.8c-3.8 0-6.8-3-6.8-6.8v-29.4c0-3.8 3-6.8 6.8-6.8h10.8v2.1zm-16.1-202.2c1.2 0 2.2 1 2.2 2.2 0 1.2-1 2.1-2.2 2.1h-24.7c-1.2 0-2.2-0.9-2.2-2.1 0-1.2 1-2.2 2.2-2.2h24.7m0 19.5c1.2 0 2.2 1 2.2 2.2 0 1.2-1 2.2-2.2 2.2h-24.7c-1.2 0-2.2-1-2.2-2.2 0-1.2 1-2.2 2.2-2.2h24.7m0 188c1.2 0 2.2 1 2.2 2.2 0 1.2-1 2.1-2.2 2.1h-24.7c-1.2 0-2.2-0.9-2.2-2.1 0-1.2 1-2.2 2.2-2.2h24.7m0 19.5c1.2 0 2.2 1 2.2 2.2 0 1.2-1 2.1-2.2 2.1h-24.7c-1.2 0-2.2-0.9-2.2-2.1 0-1.2 1-2.2 2.2-2.2h24.7m-27-66.6c0-1.2 0.9-2.1 2.1-2.1 23.5-0.1 42.5-19.1 42.6-42.6-0.1-23.5-19.1-42.6-42.6-42.6-1.2 0-2.1-1-2.1-2.2 0-1.2 0.9-2.1 2.1-2.1 25.9 0 46.9 21 46.9 46.9 0 25.9-21 46.9-46.9 46.9-1.2 0-2.1-1-2.1-2.2zm-0.2-18.6c0-1.2 1-2.1 2.2-2.1 13.1-0.1 23.8-10.7 23.8-23.9 0-13.1-10.7-23.8-23.8-23.8-1.2 0-2.2-1-2.2-2.2 0-1.2 1-2.2 2.2-2.2 15.5 0 28.1 12.7 28.1 28.2 0 15.6-12.6 28.2-28.1 28.2-1.2 0-2.2-1-2.2-2.2zm-182.9-50.4c0 1.2-1 2.1-2.2 2.1-25.8 0-46.8-21-46.8-46.9 0-25.9 21-46.9 46.8-46.9 1.2 0 2.2 1 2.2 2.2 0 1.2-1 2.1-2.2 2.1-23.5 0.1-42.4 19.1-42.5 42.6 0.1 23.5 19 42.6 42.5 42.6 1.2 0 2.2 1 2.2 2.2zm0.2-18.6c0 1.2-1 2.1-2.2 2.1-15.6 0-28.2-12.6-28.2-28.1 0-15.6 12.6-28.2 28.2-28.2 1.2 0 2.2 1 2.2 2.2 0 1.2-1 2.1-2.2 2.1-13.2 0-23.8 10.7-23.8 23.9 0 13.1 10.6 23.8 23.8 23.8 1.2 0 2.2 1 2.2 2.2zm0.4 156.4c0 1.2-1 2.1-2.2 2.1-25.8 0-46.8-21-46.8-46.9 0-25.9 21-46.9 46.8-46.9 1.2 0 2.2 1 2.2 2.2 0 1.2-1 2.1-2.2 2.1-23.4 0.1-42.4 19.1-42.5 42.6 0.1 23.5 19.1 42.6 42.5 42.6 1.2 0 2.2 1 2.2 2.2zm0.2-18.6c0 1.2-1 2.2-2.2 2.2-15.5 0-28.1-12.7-28.1-28.2 0-15.6 12.6-28.2 28.1-28.2 1.2 0 2.2 1 2.2 2.2 0 1.2-1 2.1-2.2 2.1-13.1 0.1-23.8 10.7-23.8 23.9 0 13.1 10.7 23.8 23.8 23.8 1.2 0 2.2 1 2.2 2.2z"/></svg>