<svg version="1.2" xmlns="http://www.w3.org/2000/svg" viewBox="0 0 23 28" width="23" height="28"><style>.a{fill:none;stroke:#f13333;stroke-linecap:round;stroke-linejoin:round}</style><path class="a" d="m22 11.4q0 1-0.2 1.9 0 0-0.1 0.4-0.2 1-0.7 2c-1 2.5-3.5 6.6-8.9 11.1-0.4 0.3-0.9 0.3-1.2 0-5.4-4.5-7.9-8.6-8.9-11.1q-0.5-1-0.7-2-0.1-0.4-0.1-0.4-0.3-1.4-0.1-2.9c0.5-5.2 4.8-9.2 10-9.4 6-0.2 10.9 4.5 10.9 10.4zm-10.5 5.1c-2.8 0-5.1-2.2-5.1-5 0-2.8 2.3-5 5.1-5 2.8 0 5.1 2.2 5.1 5 0 2.8-2.3 5-5.1 5z"/></svg>