<svg version="1.2" xmlns="http://www.w3.org/2000/svg" viewBox="0 0 189 40" width="189" height="40"><style>.a{fill:#fff}.b{fill:#f13333}</style><path class="a" d="m0 1.2c0-0.5 0.4-0.8 0.8-0.8h12.2q8.1 0 12.9 4.2 4.7 4.3 4.7 10.9 0 6.6-4.7 10.9-4.8 4.2-12.9 4.2h-4.4c-0.4 0-0.8 0.3-0.8 0.8v7.4c0 0.5-0.4 0.8-0.8 0.8h-6.2c-0.4 0-0.8-0.3-0.8-0.8zm7.8 21.3c0 0.5 0.4 0.8 0.8 0.8h5q4.1 0 6.9-1.9 2.7-2 2.7-5.9 0-3.8-2.7-5.8-2.8-2-6.9-2h-5c-0.4 0-0.8 0.4-0.8 0.8zm35.9-16.7q5.9-5.8 14.3-5.8 8.3 0 14.2 5.8 5.9 5.9 5.9 14.2 0 8.3-5.9 14.1-5.9 5.9-14.2 5.9-8.4 0-14.3-5.9-5.9-5.8-5.9-14.1 0-8.3 5.9-14.2m23.1 5.1q-3.6-3.6-8.8-3.6-5.3 0-8.8 3.6-3.6 3.5-3.6 9.1 0 5.6 3.6 9.1 3.5 3.6 8.8 3.6 5.3 0 8.8-3.6 3.5-3.5 3.5-9.1 0-5.6-3.5-9.1m71.7 28.7h-3.4c-0.3 0-0.5-0.1-0.6-0.3l-16.6-21.8c-0.6-0.9-1.9-0.4-1.9 0.6v20.7c0 0.4-0.4 0.8-0.8 0.8h-6.2c-0.4 0-0.8-0.4-0.8-0.8v-37.6c0-0.5 0.4-0.8 0.8-0.8h3.4c0.2 0 0.5 0.1 0.6 0.3l16.6 21.8c0.6 0.8 1.9 0.4 1.9-0.6v-20.7c0-0.5 0.4-0.8 0.8-0.8h6.2c0.5 0 0.8 0.3 0.8 0.8v37.6c0 0.4-0.3 0.8-0.8 0.8m27-29.5v28.7c0 0.4-0.4 0.8-0.8 0.8h-6.2c-0.4 0-0.8-0.4-0.8-0.8v-28.7c0-1.3-1.1-2.4-2.5-2.4h-7.6c-0.4 0-0.8-0.4-0.8-0.8v-5.7c0-0.5 0.4-0.8 0.8-0.8h27.9c0.5 0 0.8 0.3 0.8 0.8v5.7c0 0.4-0.3 0.8-0.8 0.8h-7.5c-1.4 0-2.5 1.1-2.5 2.4m-76.5 29.5c-0.4 0-0.8-0.4-0.8-0.8v-37.6c0-0.5 0.4-0.8 0.8-0.8h6.2c0.4 0 0.8 0.3 0.8 0.8v37.6c0 0.4-0.4 0.8-0.8 0.8h-6.2"/><path class="b" d="m185.1 32q1.6 0 2.8 1.1 1.1 1.1 1.1 2.7 0 1.6-1.1 2.7-1.2 1.1-2.8 1.1-1.6 0-2.8-1.1-1.1-1.1-1.1-2.7 0-1.6 1.1-2.7 1.2-1.1 2.8-1.1"/></svg>