<svg version="1.2" xmlns="http://www.w3.org/2000/svg" viewBox="0 0 724 517" width="724" height="517">
	<title>paintball-ic-svg</title>
	<style>
		.s0 { fill: #000000 } 
	</style>
	<g id="Layer_2">
		<path id="Layer" class="s0" d="m123.4 286.1h159.1v4h-159.1z"/>
		<path id="Layer" class="s0" d="m123.4 316.9h159.1v4h-159.1z"/>
		<path id="Layer" fill-rule="evenodd" class="s0" d="m310.9 272h-28.5q-0.4 0-0.8-0.2-0.3-0.1-0.6-0.4-0.3-0.3-0.4-0.6-0.2-0.4-0.2-0.8v-9.1q0-1.1 0.3-2.2 0.3-1.1 0.9-2 0.7-1 1.5-1.7 0.9-0.7 1.9-1.2l20.1-9.1q0.6-0.3 1.3-0.4 0.7-0.2 1.4-0.1 0.7 0 1.4 0.3 0.6 0.2 1.2 0.6 0.6 0.4 1 0.9 0.5 0.5 0.8 1.1 0.3 0.6 0.5 1.3 0.2 0.6 0.2 1.3v20.3q0 0.4-0.2 0.8-0.1 0.3-0.4 0.6-0.3 0.3-0.6 0.4-0.4 0.2-0.8 0.2zm-26.5-4h24.5v-18.3q0-0.2 0-0.4-0.1-0.2-0.2-0.3-0.1-0.2-0.2-0.4-0.1-0.1-0.3-0.2-0.2-0.1-0.3-0.2-0.2 0-0.4 0-0.2 0-0.4 0-0.1 0-0.3 0.1l-20.1 9.1q-0.5 0.2-0.9 0.6-0.5 0.3-0.8 0.8-0.3 0.5-0.4 1-0.2 0.5-0.2 1.1z"/>
		<path id="Layer" fill-rule="evenodd" class="s0" d="m713.7 272h-57.1q-0.4 0-0.8-0.2-0.3-0.1-0.6-0.4-0.3-0.3-0.4-0.6-0.2-0.4-0.2-0.8v-8.2q0-1.3 0.4-2.6 0.4-1.2 1.3-2.3 0.8-1 1.9-1.7 1.1-0.7 2.4-1l48.4-10.9q0.6-0.1 1.2-0.2 0.7 0 1.3 0.2 0.6 0.1 1.1 0.4 0.6 0.2 1.1 0.6 0.5 0.4 0.9 0.9 0.3 0.5 0.6 1 0.2 0.6 0.4 1.2 0.1 0.6 0.1 1.2v21.4q0 0.4-0.2 0.8-0.1 0.3-0.4 0.6-0.3 0.3-0.6 0.4-0.4 0.2-0.8 0.2zm-55.1-4h53.1v-19.4q0-0.2 0-0.3 0-0.2-0.1-0.3-0.1-0.2-0.2-0.3-0.1-0.1-0.2-0.2-0.1-0.1-0.3-0.2-0.1-0.1-0.3-0.1-0.2-0.1-0.4-0.1-0.1 0-0.3 0.1l-48.4 10.9q-0.6 0.2-1.2 0.5-0.5 0.3-0.9 0.8-0.4 0.6-0.6 1.2-0.2 0.6-0.2 1.2z"/>
		<path id="Layer" fill-rule="evenodd" class="s0" d="m117.6 326.8h-54.2q-1.6 0-3-0.6-1.4-0.6-2.5-1.7-1.1-1.1-1.7-2.5-0.6-1.4-0.6-3v-31q0-1.6 0.6-3 0.6-1.4 1.7-2.5 1.1-1.1 2.5-1.7 1.4-0.6 3-0.6h54.2q1.6 0 3 0.6 1.4 0.6 2.5 1.7 1.1 1.1 1.7 2.5 0.6 1.4 0.6 3v31q0 1.6-0.6 3-0.6 1.4-1.7 2.5-1.1 1.1-2.5 1.7-1.4 0.6-3 0.6zm-54.2-42.6q-0.8 0-1.5 0.3-0.7 0.3-1.2 0.8-0.5 0.5-0.8 1.2-0.3 0.7-0.3 1.5v31q0 0.8 0.3 1.5 0.3 0.7 0.8 1.2 0.5 0.5 1.2 0.8 0.7 0.3 1.5 0.3h54.2q0.8 0 1.5-0.3 0.7-0.3 1.2-0.8 0.5-0.5 0.8-1.2 0.3-0.7 0.3-1.5v-31q0-0.8-0.3-1.5-0.3-0.7-0.8-1.2-0.5-0.5-1.2-0.8-0.7-0.3-1.5-0.3z"/>
		<path id="Layer" class="s0" d="m400.5 241.6h4v28.4h-4z"/>
		<path id="Layer" class="s0" d="m365 241.6h4v28.4h-4z"/>
		<path id="Layer" fill-rule="evenodd" class="s0" d="m407.4 243.6h-45.3q-1 0-1.9-0.4-0.9-0.4-1.6-1.1-0.7-0.7-1.1-1.6-0.4-0.9-0.4-1.9v-25.4q0-1 0.4-1.9 0.4-0.9 1.1-1.6 0.7-0.7 1.6-1.1 0.9-0.4 1.9-0.4h45.3q1 0 1.9 0.4 0.9 0.4 1.6 1.1 0.7 0.7 1.1 1.6 0.4 0.9 0.4 1.9v25.4q0 1-0.4 1.9-0.4 0.9-1.1 1.6-0.7 0.7-1.6 1.1-0.9 0.4-1.9 0.4zm-45.3-31.4q-0.2 0-0.4 0-0.2 0.1-0.3 0.3-0.2 0.1-0.3 0.3 0 0.2 0 0.4v25.4q0 0.2 0.1 0.4 0.1 0.2 0.2 0.3 0.1 0.1 0.3 0.2 0.2 0.1 0.4 0.1h45.3q0.2 0 0.4-0.1 0.2-0.1 0.3-0.2 0.1-0.1 0.2-0.3 0.1-0.2 0.1-0.4v-25.4q0-0.2 0-0.4-0.1-0.2-0.3-0.3-0.1-0.2-0.3-0.3-0.2 0-0.4 0z"/>
		<path id="Layer" class="s0" d="m402 210.6c-0.1-0.7-3.1-17.4 7-29.4 6.5-7.8 16.9-11.8 30.8-11.8 34.8 0 91.7-39.2 115.1-71.9l-81.4-87.3c-6.8 3.4-37.1 17-91.6 17q-6.1 0-12.3-0.2-6.1-0.3-12.3-0.7-6.1-0.4-12.2-1-6.1-0.7-12.2-1.5c-72.9-9.7-110 30-122.5 47.5q-1.1 1.5-1.8 3.3-0.7 1.8-0.9 3.7-0.2 1.9 0.2 3.8 0.3 1.9 1.1 3.6c15.7 33.8 82.8 83.7 122.1 83.7 13.9 0 24.3 4 30.8 11.8 10.1 12 7.2 28.7 7 29.4l-3.9-0.8c0-0.1 2.7-15.5-6.2-26.1-5.7-6.8-15-10.3-27.7-10.3-18.7 0-44.9-10.8-71.7-29.6-26.8-18.8-46.1-39.4-54.1-56.4q-1-2.2-1.4-4.6-0.4-2.4-0.1-4.8 0.2-2.5 1.1-4.7 0.8-2.3 2.2-4.3c13-18.1 51.3-59.2 126.4-49.2 91.7 12.2 139-13.6 139.5-13.9q0.3-0.2 0.6-0.2 0.3-0.1 0.7 0 0.3 0 0.6 0.2 0.3 0.2 0.5 0.4l83.5 89.6q0.2 0.2 0.4 0.6 0.1 0.3 0.1 0.6 0.1 0.4 0 0.7-0.1 0.3-0.3 0.6c-23.3 33.8-82.9 75-119.3 75-12.7 0-22 3.5-27.7 10.3-8.9 10.7-6.2 26-6.2 26.1z"/>
		<path id="Layer" class="s0" d="m559.1 98.5l-3.3-2.3 4.8-6.8q0.6-0.9 0.9-1.9 0.2-1 0.2-2-0.1-1-0.5-2-0.4-0.9-1.1-1.7l-70-75.5q-0.7-0.7-1.6-1.2-0.9-0.5-1.8-0.6-1-0.2-2 0-1 0.1-1.9 0.6l-7.9 4.3-1.9-3.5 7.9-4.3q1.5-0.8 3.1-1.1 1.7-0.3 3.3 0 1.6 0.3 3.1 1.1 1.5 0.8 2.6 2l70 75.5q1.2 1.3 1.9 2.8 0.6 1.6 0.8 3.3 0.1 1.8-0.4 3.4-0.4 1.7-1.4 3.1z"/>
		<path id="Layer" class="s0" d="m544.2 383.2q-0.6 0-1.1-0.3-0.4-0.3-0.7-0.8-0.2-0.5-0.2-1.1 0.1-0.5 0.4-1c15.7-22 0.2-41.6 0-41.7l3.1-2.6c0.2 0.2 13 16.4 5.6 36.4 4.3-6 8.7-16.7 8.7-35.1h4c0 38.5-18.3 45.8-19.1 46.1z"/>
		<path id="Layer" class="s0" d="m382 478.8h-20.5c-1.8 0-3.6-0.3-5.3-0.8-1.8-0.6-3.4-1.4-4.8-2.5-1.5-1.1-2.8-2.4-3.8-3.8-1.1-1.5-1.9-3.2-2.4-4.9l-38.7-129.2 3.8-1.2 38.7 129.3q0.6 2 1.8 3.7 1.3 1.7 3 2.9 1.6 1.2 3.6 1.9 2 0.6 4.1 0.6h20.5c2.1 0 4.1-0.5 5.9-1.4 1.8-0.9 3.4-2.3 4.6-3.9 1.2-1.7 2-3.6 2.4-5.6 0.3-2.1 0.1-4.1-0.5-6.1l-36.1-120.2 3.8-1.2 36.2 120.3q0.6 1.9 0.7 3.9 0.2 2-0.2 4-0.3 2-1.1 3.8-0.8 1.9-2 3.5-1.2 1.6-2.7 2.9-1.5 1.3-3.3 2.2-1.8 0.9-3.7 1.4-2 0.4-4 0.4z"/>
		<path id="Layer" fill-rule="evenodd" class="s0" d="m629.2 496.2l-29.9-96.1h-73.1c-3.8 0-7.6-0.8-11.2-2.2-3.5-1.5-6.7-3.6-9.4-6.4-2.8-2.7-4.9-5.9-6.4-9.4-1.4-3.6-2.2-7.4-2.2-11.2v-31.9h-200.6c-2.1 0-4.2-0.4-6.1-1.2-1.9-0.8-3.7-2-5.2-3.5-1.5-1.4-2.6-3.2-3.5-5.1-0.8-1.9-1.2-4-1.2-6.1v-53.1q0-0.4 0.2-0.8 0.1-0.3 0.4-0.6 0.3-0.3 0.6-0.4 0.4-0.2 0.8-0.2h431.3q0.4 0 0.8 0.2 0.3 0.1 0.6 0.4 0.3 0.3 0.4 0.6 0.2 0.4 0.2 0.8v67q0 0.4-0.2 0.8-0.1 0.3-0.4 0.6-0.3 0.3-0.6 0.4-0.4 0.2-0.8 0.2h-129.3l15 48.1q0.1 0.1 0.1 0.3 0 0.1 0 0.2 0 0.2 0 0.3 0 0.2 0 0.3-0.1 0.3-0.3 0.6-0.2 0.3-0.5 0.5-0.2 0.2-0.5 0.3-0.4 0.1-0.7 0.1h-68.8c-11.8 0-21.4-10.1-21.4-22.5v-30.2q0-0.3 0.1-0.5 0.1-0.3 0.2-0.5 0.2-0.3 0.4-0.5 0.2-0.2 0.4-0.3l0.9-0.2h202.4v-63h-427.3v51.1c0 1.6 0.3 3.1 0.9 4.6 0.7 1.4 1.5 2.7 2.6 3.8 1.2 1.1 2.5 2 3.9 2.6 1.5 0.6 3 0.9 4.6 0.9h202.6q0.3 0 0.6 0.1 0.3 0.1 0.6 0.3 0.3 0.2 0.5 0.4 0.2 0.3 0.3 0.6c0 0.3 0.1 0.5 0 0.7v33.8c0 3.3 0.7 6.6 1.9 9.6 1.3 3.1 3.1 5.9 5.5 8.2 2.3 2.4 5.1 4.2 8.2 5.5 3 1.2 6.3 1.9 9.6 1.9h74.6q0.2 0 0.4 0 0.1 0.1 0.3 0.1 0.2 0.1 0.3 0.2 0.2 0.1 0.3 0.2 0.1 0.1 0.2 0.2 0.1 0.1 0.2 0.2 0 0.1 0.1 0.3 0.1 0.1 0.1 0.2l30.3 97.5zm-117.9-157.2v28.2c0 10.2 7.8 18.5 17.4 18.5h66.1l-14.5-46.7z"/>
		<path id="Layer" class="s0" d="m715.8 495.8l-33.7-116.1q-0.5-1.5-0.8-3-0.3-1.6-0.6-3.1-0.2-1.6-0.3-3.2-0.1-1.5-0.1-3.1 0-1 0.1-2 0-1 0.1-2 0.1-1 0.3-2 0.1-1 0.3-2 0.5-2.9 1.7-5.5 1.2-2.7 3.1-4.9 1.9-2.3 4.2-4 2.4-1.7 5.1-2.8l17.8-7 1.5 3.8-17.8 6.9q-2.2 0.9-4.2 2.3-1.9 1.4-3.5 3.3-1.5 1.9-2.5 4-1.1 2.2-1.5 4.6-0.2 0.9-0.3 1.8-0.1 0.9-0.2 1.8-0.1 0.9-0.1 1.9-0.1 0.9-0.1 1.8 0 1.4 0.1 2.9 0.1 1.4 0.3 2.8 0.2 1.4 0.6 2.8 0.3 1.4 0.7 2.8l33.6 116.1z"/>
		<path id="Layer" class="s0" d="m648.1 512.5h55.1v4h-55.1z"/>
		<path id="Layer" class="s0" d="m282.4 293.5h431.3v4h-431.3z"/>
		<path id="Layer" fill-rule="evenodd" class="s0" d="m716.3 516.5h-94.1q-1.2 0-2.3-0.5-1.1-0.4-2-1.3-0.8-0.8-1.3-1.9-0.5-1.1-0.5-2.3v-10.8q0-1.2 0.5-2.3 0.5-1.1 1.3-2 0.9-0.8 2-1.3 1.1-0.5 2.3-0.5h8.9l86.6-0.4q0.3 0 0.6 0.1 0.3 0.1 0.6 0.3 0.2 0.2 0.4 0.4 0.2 0.3 0.3 0.6l3.8 12.1q0.3 0.8 0.4 1.7 0.1 0.9-0.1 1.8-0.1 0.9-0.5 1.7-0.3 0.8-0.9 1.5-0.5 0.7-1.2 1.3-0.6 0.6-1.4 1-0.8 0.4-1.7 0.6-0.8 0.2-1.7 0.2zm-94.1-18.9q-0.4 0-0.8 0.2-0.4 0.2-0.7 0.4-0.2 0.3-0.4 0.7-0.2 0.4-0.2 0.8v10.8q0 0.4 0.2 0.8 0.2 0.3 0.4 0.6 0.3 0.3 0.7 0.5 0.4 0.1 0.8 0.1h94.1q0.4 0 0.8-0.1 0.4-0.1 0.8-0.3 0.3-0.2 0.6-0.4 0.4-0.3 0.6-0.6 0.3-0.3 0.4-0.7 0.2-0.4 0.3-0.8 0-0.5 0-0.9-0.1-0.4-0.2-0.8l-3.4-10.7-85.1 0.4z"/>
		<path id="Layer" class="s0" d="m339.4 371.3h-20.6c-0.5 0-1-0.2-1.4-0.6-0.4-0.4-0.6-0.9-0.6-1.4 0-0.5 0.2-1 0.6-1.4 0.4-0.4 0.9-0.6 1.4-0.6h20.6c0.5 0 1 0.2 1.4 0.6 0.4 0.4 0.6 0.9 0.6 1.4 0 0.5-0.2 1-0.6 1.4-0.4 0.4-0.9 0.6-1.4 0.6z"/>
		<path id="Layer" class="s0" d="m348.1 400.1h-20.6c-0.5 0-1-0.2-1.4-0.6-0.4-0.4-0.6-0.9-0.6-1.4 0-0.5 0.2-1 0.6-1.4 0.4-0.4 0.9-0.6 1.4-0.6h20.6c0.5 0 1 0.2 1.4 0.6 0.4 0.4 0.6 0.9 0.6 1.4 0 0.5-0.2 1-0.6 1.4-0.4 0.4-0.9 0.6-1.4 0.6z"/>
		<path id="Layer" class="s0" d="m356.5 428.9h-20.7c-0.5 0-1-0.2-1.4-0.6-0.4-0.4-0.6-0.9-0.6-1.4 0-0.5 0.2-1 0.6-1.4 0.4-0.4 0.9-0.6 1.4-0.6h20.7c0.5 0 1 0.2 1.4 0.6 0.4 0.4 0.6 0.9 0.6 1.4 0 0.5-0.2 1-0.6 1.4-0.4 0.4-0.9 0.6-1.4 0.6z"/>
		<path id="Layer" class="s0" d="m30.1 305.5h-27.9c-0.5 0-1-0.2-1.4-0.6-0.4-0.4-0.6-0.9-0.6-1.4 0-0.5 0.2-1 0.6-1.4 0.4-0.4 0.9-0.6 1.4-0.6h27.9c0.5 0 1 0.2 1.4 0.6 0.4 0.4 0.6 0.9 0.6 1.4 0 0.5-0.2 1-0.6 1.4-0.4 0.4-0.9 0.6-1.4 0.6z"/>
		<path id="Layer" class="s0" d="m30.1 284.2l-0.8-0.2-25.9-10.2c-0.5-0.2-0.8-0.6-1-1.1-0.2-0.5-0.2-1 0-1.5 0.2-0.4 0.6-0.8 1-1 0.5-0.2 1-0.3 1.5-0.1l25.9 10.2q0.4 0.2 0.6 0.4 0.3 0.3 0.5 0.7 0.1 0.3 0.1 0.7 0 0.4-0.1 0.8-0.1 0.3-0.3 0.5-0.1 0.3-0.4 0.4-0.2 0.2-0.5 0.3-0.3 0.1-0.6 0.1z"/>
		<path id="Layer" class="s0" d="m4.2 337.1q-0.3 0-0.6-0.1-0.3-0.1-0.5-0.3-0.3-0.1-0.5-0.4-0.2-0.2-0.3-0.5-0.1-0.4-0.1-0.8 0-0.4 0.1-0.7 0.2-0.4 0.5-0.7 0.2-0.2 0.6-0.4l25.9-10.2q0.4-0.1 0.8-0.1 0.4 0 0.7 0.1 0.4 0.2 0.7 0.5 0.2 0.2 0.4 0.6 0.1 0.4 0.1 0.8 0 0.4-0.1 0.7-0.2 0.4-0.5 0.7-0.2 0.2-0.6 0.4l-25.9 10.2z"/>
	</g>
</svg>