<svg version="1.2" xmlns="http://www.w3.org/2000/svg" viewBox="0 0 286 286" width="286" height="286"><style>.a{fill:#15130f}</style><path class="a" d="m149.3 149.9c1.1-0.6 2.4-0.2 3 0.8 5.5 9.4 9.8 16.9 9.8 16.9 0.4 0.7 0.4 1.5 0 2.2-0.4 0.6-1.1 1.1-1.9 1.1 0 0-5.1 0-9.5 0-1.2 0-2.2-1-2.2-2.2 0-1.2 1-2.2 2.2-2.2 4.4 0 9.5 0 9.5 0v2.2l-1.8 1.1c-0.1-0.1-4.3-7.5-9.8-16.9-0.6-1-0.3-2.3 0.7-3zm-14.3-33.5c-2.4 0-4.3 0-4.3 0-0.8 0-1.5 0.4-1.9 1.1-0.4 0.7-0.4 1.5 0 2.2 0 0 2 3.2 4.8 8.1 0.6 1 1.9 1.3 3 0.7 1-0.6 1.3-1.9 0.7-3-2.8-4.8-4.7-8-4.7-8l-1.9 1.1v2.1c0 0 1.9 0 4.3 0 1.2 0 2.1-0.9 2.1-2.1 0-1.2-0.9-2.2-2.1-2.2zm0.3 112.8c-42 0-97.5 0-97.6 0v2.1l1.8 1.1 36.9-62.6c0.4-0.7 0.4-1.5 0-2.2-0.4-0.7-1.1-1.1-1.9-1.1h-12.1l27.6-46.8c0.4-0.7 0.4-1.5 0-2.2-0.4-0.7-1.1-1.1-1.9-1.1h-9.6l32.8-55.7-1.9-1.1-1.8 1.1c0 0 15.4 26.3 25.7 43.8 0.6 1 2 1.4 3 0.8 1-0.6 1.4-2 0.7-3-10.2-17.5-25.7-43.8-25.7-43.8-0.4-0.7-1.1-1.1-1.9-1.1-0.7 0-1.5 0.4-1.8 1.1l-34.7 59c-0.4 0.6-0.4 1.5 0 2.1 0.3 0.7 1.1 1.1 1.8 1.1h9.6l-27.6 46.9c-0.4 0.7-0.4 1.5 0 2.2 0.4 0.6 1.1 1.1 1.9 1.1h12.1l-34.9 59.3c-0.4 0.7-0.4 1.5 0 2.2 0.4 0.7 1.1 1.1 1.9 1.1 0.1 0 55.6 0 97.6 0 1.2 0 2.2-1 2.2-2.2 0-1.2-1-2.1-2.2-2.1zm13.5-48.6c10.6 18 30.5 51.8 30.5 51.8l1.9-1.1v-2.1c0 0-12.3 0-30.4 0-1.2 0-2.2 0.9-2.2 2.1 0 1.2 1 2.2 2.2 2.2 18.1 0 30.4 0 30.4 0 0.7 0 1.4-0.4 1.8-1.1 0.4-0.7 0.4-1.5 0-2.2 0 0-19.9-33.8-30.4-51.8-0.6-1-2-1.3-3-0.7-1 0.6-1.4 1.9-0.8 2.9zm-23.1 48.9c1.2 0 2.2 1 2.2 2.2v11.8c0 2.2-1.8 4-4 4h-29.3c-2.3 0-4-1.8-4-4v-11.8c0-1.2 0.9-2.2 2.1-2.2 1.2 0 2.2 1 2.2 2.2v11.8h-0.3v-0.3c0.1 0 0.3 0.1 0.3 0.3h-0.3v-0.3h29.3v0.3h-0.3c0-0.2 0.1-0.3 0.3-0.3v0.3h-0.3v-11.8c0-1.2 0.9-2.2 2.1-2.2zm-1.8-141.2c-1-0.6-1.3-1.9-0.7-2.9 3.3-5.7 7.2-12.2 10.7-18.3 0.6-1 2-1.4 3-0.8 1 0.6 1.4 1.9 0.8 3-3.6 6.1-7.5 12.6-10.8 18.3-0.6 1-1.9 1.3-3 0.7zm24.5-33.4c7.8 13.2 27.5 46.7 27.5 46.7l1.8-1.1v-2.1h-11.7c-0.8 0-1.5 0.4-1.9 1-0.4 0.7-0.4 1.6 0 2.2l24 40.8h-10.2c-0.8 0-1.5 0.5-1.9 1.1-0.3 0.7-0.3 1.5 0.1 2.2l32.3 55.1 1.9-1.1v-2.2c0 0-22 0-47.6 0-1.2 0-2.1 1-2.1 2.2 0 1.2 0.9 2.2 2.1 2.2 25.6 0 47.6 0 47.6 0 0.8 0 1.5-0.5 1.9-1.1 0.3-0.7 0.3-1.5-0.1-2.2l-30.4-51.8h10.2c0.8 0 1.5-0.5 1.9-1.1 0.4-0.7 0.4-1.5 0-2.2l-24-40.8h7.9c0.8 0 1.5-0.4 1.9-1.1 0.4-0.7 0.4-1.5 0-2.2 0 0-19.7-33.5-27.4-46.7-0.6-1-2-1.3-3-0.7-1 0.6-1.4 1.9-0.8 2.9zm97 146.6c0.8-0.8 2.2-0.8 3 0 0.9 0.9 0.9 2.2 0 3.1l-44.5 44.6c-0.8 0.8-2.2 0.8-3.1 0-0.8-0.9-0.8-2.3 0-3.1l44.6-44.6m-19.5-159.2c0.8-0.8 2.2-0.8 3.1 0 0.8 0.9 0.8 2.3 0 3.1l-25.7 25.7c-0.9 0.9-2.2 0.9-3.1 0-0.8-0.8-0.8-2.2 0-3.1l25.7-25.7m12.7 85.2c0.8-0.9 2.2-0.9 3 0 0.9 0.8 0.9 2.2 0 3.1l-15.7 15.8c-0.9 0.8-2.3 0.8-3.1 0-0.8-0.9-0.8-2.3 0-3.1l15.8-15.8m-172.3-90.7c0.9-0.9 2.2-0.9 3.1 0 0.8 0.8 0.8 2.2 0 3l-27.5 27.6c-0.9 0.8-2.3 0.8-3.1 0-0.8-0.9-0.8-2.2 0-3.1l27.5-27.5m-61.8-36.9h277c2.1 0 3.8 1.7 3.8 3.7v278.7c0 2.1-1.7 3.7-3.8 3.7h-277c-2.1 0-3.8-1.6-3.8-3.7v-278.7c0-2 1.7-3.7 3.8-3.7v2.2 2.1-0.6h0.6c0 0.4-0.3 0.6-0.6 0.6v-0.6h0.6v278.7h-0.6v-0.6c0.3 0 0.6 0.3 0.6 0.6h-0.6v-0.6h277v0.6h-0.6c0-0.3 0.3-0.6 0.6-0.6v0.6h-0.6v-278.7h0.6v0.6c-0.3 0-0.6-0.2-0.6-0.6h0.6v0.6h-277v-2.1zm14.8 14.8h114.7c2.1 0 3.7 1.7 3.7 3.7v249c0 2.1-1.6 3.7-3.7 3.7h-114.7c-2.1 0-3.7-1.6-3.7-3.7v-249c0-2 1.6-3.7 3.7-3.7v2.2 2.2-0.7h0.6c0 0.4-0.3 0.7-0.6 0.7v-0.7h0.6v249h-0.6v-0.6c0.3 0 0.6 0.3 0.6 0.6h-0.6v-0.6h114.7v0.6h-0.6c0-0.3 0.3-0.6 0.6-0.6v0.6h-0.6v-249h0.6v0.7c-0.3 0-0.6-0.3-0.6-0.7h0.6v0.7h-114.7v-2.2zm132.7 0h114.7c2.1 0 3.7 1.7 3.7 3.7v249c0 2-1.6 3.7-3.7 3.7h-114.7c-2.1 0-3.7-1.7-3.7-3.7v-249c0-2 1.6-3.7 3.7-3.7v2.2 2.1-0.6h0.6c0 0.4-0.3 0.6-0.6 0.6v-0.6h0.6v249h-0.6v-0.6c0.3 0 0.6 0.2 0.6 0.6h-0.6v-0.6h114.7v0.6h-0.6c0-0.4 0.3-0.6 0.6-0.6v0.6h-0.6v-249h0.6v0.6c-0.3 0-0.6-0.2-0.6-0.6h0.6v0.6h-114.7v-2.1z"/></svg>