<svg version="1.2" xmlns="http://www.w3.org/2000/svg" viewBox="0 0 675 742" width="675" height="742"><style>.a{fill:none;stroke:#ffffff;stroke-linecap:round;stroke-linejoin:round;stroke-width:18}</style><path class="a" d="m338 544.2q0 0.1-0.1 0.1c-37.8 65.6-123.6 86.8-191.7 47.6-87.1-50.4-136.5-237.1-136.5-237.1 0 0 186.4-50.5 273.5-0.2 23.9 13.8 42.5 33.2 54.8 55.5"/><path class="a" d="m338 109v624"/><path class="a" d="m337.9 409.7c12.4-22.2 30.9-41.6 54.8-55.4 87.1-50.3 273.3 0.2 273.3 0.2 0 0-49.3 186.5-136.4 236.8-68 39.2-153.8 18-191.6-47.5q0-0.1-0.1-0.1"/><path class="a" d="m224.9 335.8c-20.6-24.5-32.9-55.9-32.9-90.1 0-100.6 145.5-236.7 145.5-236.7 0 0 145.5 136.1 145.5 236.7 0 34.1-12.3 65.4-32.7 89.9"/><path class="a" d="m477.4 465.9c-71.2 40.5-135.4 77.1-135.4 77.1"/><path class="a" d="m203 466c71 40.5 135 77 135 77"/></svg>