<svg version="1.2" xmlns="http://www.w3.org/2000/svg" viewBox="0 0 914 914" width="914" height="914"><style>.a{fill:none;stroke:#ffffff;stroke-linecap:round;stroke-linejoin:round;stroke-width:18}</style><path class="a" d="m457 249c114.9 0 208 93.1 208 208 0 114.9-93.1 208-208 208-114.9 0-208-93.1-208-208 0-114.9 93.1-208 208-208z"/><path class="a" d="m457 249c114.9 0 208 93.1 208 208 0 114.9-93.1 208-208 208-114.9 0-208-93.1-208-208 0-114.9 93.1-208 208-208z"/><path class="a" d="m476 327c57.9 7.1 103.9 53.1 111 111"/><path class="a" d="m436 672h40v40h-40z"/><path class="a" d="m195 457h-186"/><path class="a" d="m905 457h-186"/><path class="a" d="m457 719v186"/><path class="a" d="m457 9v186"/><path class="a" d="m271.7 642.3l-131.5 131.5"/><path class="a" d="m773.8 140.2l-131.5 131.5"/><path class="a" d="m271.6 271.6l-131.6-131.6"/><path class="a" d="m774 774l-131.6-131.6"/><path class="a" d="m214.9 356.7l-97.9-40.5"/><path class="a" d="m797 597.8l-97.9-40.5"/><path class="a" d="m356.7 214.9l-40.5-97.9"/><path class="a" d="m597.8 797l-40.5-97.9"/><path class="a" d="m699.1 356.7l97.9-40.5"/><path class="a" d="m117 597.8l97.9-40.5"/><path class="a" d="m557.3 214.9l40.5-97.9"/><path class="a" d="m316.2 797l40.5-97.9"/></svg>