<svg version="1.2" xmlns="http://www.w3.org/2000/svg" viewBox="0 0 569 560" width="569" height="560">
	<title>silentHunting-svg</title>
	<style>
		.s0 { fill: #000000 } 
	</style>
	<g id="Layer_2">
		<path id="Layer" fill-rule="evenodd" class="s0" d="m359.5 160.6q-0.3 0-0.5 0-0.3 0-0.6-0.1-0.2 0-0.5-0.1-0.3-0.1-0.5-0.2-0.5-0.2-0.9-0.5-0.5-0.3-0.8-0.7-0.4-0.4-0.6-0.9-0.3-0.5-0.4-1l-0.5-2.2-0.3-0.2-1.8-1.5q-0.4-0.3-0.8-0.8-0.3-0.4-0.5-0.9-0.3-0.5-0.4-1 0-0.6 0-1.1 0-0.6 0.2-1.2 0.2-0.6 0.5-1.1 0.4-0.5 0.8-0.9 0.5-0.4 1-0.7l2.1-1.3q0.1 0 0.1-0.1 0.1 0 0.2-0.1 0 0 0.1-0.1 0.1 0 0.1-0.1l1.1-2.1q0.2-0.5 0.6-1 0.4-0.4 0.8-0.8 0.5-0.3 1-0.6 0.5-0.2 1.1-0.3 0.5-0.2 1.1-0.2 0.6 0 1.1 0.1 0.6 0.1 1.1 0.3 0.5 0.3 1 0.6l1.9 1.4 0.6 0.2h2.5q0.6 0 1.2 0.2 0.6 0.2 1.1 0.5 0.5 0.3 1 0.7 0.4 0.5 0.7 1 0.3 0.5 0.4 1 0.2 0.5 0.2 1.1 0 0.5-0.1 1.1-0.1 0.5-0.3 1l-1 2.1c-0.1 0.1-0.1 0.2-0.1 0.4l0.5 2.1q0.1 0.5 0.1 1.1 0 0.5-0.1 1-0.1 0.5-0.4 1-0.2 0.5-0.6 0.9-0.4 0.5-0.9 0.9-0.5 0.3-1.1 0.6-0.5 0.2-1.2 0.3-0.6 0.1-1.2 0.1h-2.5q-0.1 0-0.2 0-0.1 0-0.2 0-0.1 0.1-0.2 0.1-0.1 0-0.2 0.1l-2.1 1.1q-0.3 0.2-0.6 0.3-0.4 0.2-0.7 0.3-0.3 0.1-0.7 0.1-0.3 0.1-0.7 0.1zm1.9-17.8h-0.4q-0.1 0-0.3 0.1-0.1 0-0.2 0.1-0.1 0.1-0.2 0.2-0.1 0.1-0.2 0.2l-1 2.1q-0.2 0.3-0.4 0.6-0.3 0.3-0.5 0.6-0.3 0.2-0.6 0.5-0.3 0.2-0.6 0.4l-2.1 1.2q-0.1 0.1-0.2 0.1-0.1 0.1-0.1 0.2-0.1 0.1-0.1 0.2-0.1 0.1-0.1 0.2c-0.1 0.2 0 0.3 0.2 0.5l1.8 1.4q0.3 0.2 0.6 0.5 0.2 0.3 0.4 0.6 0.2 0.4 0.4 0.7 0.1 0.4 0.2 0.8l0.6 2.1c0 0.2 0.2 0.3 0.4 0.4q0.2 0.1 0.3 0.1 0.2 0 0.4 0 0.1 0 0.3-0.1 0.2 0 0.3-0.1l2.1-1.2q0.3-0.2 0.7-0.3 0.3-0.1 0.7-0.2 0.4-0.1 0.8-0.1 0.3 0 0.7 0h2.5q0.2 0 0.3 0 0.2-0.1 0.3-0.1 0.1-0.1 0.3-0.2 0.1-0.1 0.2-0.2c0.1-0.2 0.3-0.4 0.2-0.6l-0.5-2.1q-0.1-0.4-0.1-0.8 0-0.4 0-0.7 0.1-0.4 0.2-0.8 0.1-0.4 0.3-0.7l1-2.1q0-0.1 0-0.1 0.1-0.1 0.1-0.2 0 0-0.1-0.1 0 0 0-0.1l-0.8-0.4h-2.5q-0.4 0-0.7-0.1-0.4-0.1-0.8-0.2-0.3-0.1-0.7-0.3-0.3-0.2-0.6-0.4l-1.8-1.4z"/>
		<path id="Layer" fill-rule="evenodd" class="s0" d="m366.8 200.9h-3.5c-14.3-1.4-26.4-11.2-30.7-25-4.2-13.7 0.3-28.7 11.4-37.9 11.1-9.1 26.6-10.7 39.3-4 12.7 6.7 20.2 20.5 18.8 34.8-0.4 4.4-1.6 8.6-3.6 12.5-1.9 4-4.6 7.5-7.8 10.4-3.3 3-7 5.3-11.1 6.9-4.1 1.6-8.4 2.4-12.8 2.4zm-0.2-67.2c-12.5 0-23.8 7.4-28.9 18.8-5 11.5-2.8 24.8 5.6 34.1 8.4 9.2 21.5 12.6 33.3 8.7 11.9-4 20.3-14.6 21.5-27 0.4-4.1 0-8.3-1.2-12.3-1.2-3.9-3.2-7.6-5.9-10.8-2.6-3.2-5.8-5.8-9.5-7.8-3.7-1.9-7.7-3.1-11.8-3.5z"/>
		<path id="Layer" fill-rule="evenodd" class="s0" d="m79 259.4l-0.8-1.9c-18.8-47.7 14.9-105.8 75-129.6 60.1-23.8 124.5-4.2 143.3 43.5l0.7 1.9zm126.3-137.6q-6.5 0-12.9 0.7-6.5 0.6-12.9 1.8-6.3 1.3-12.5 3.1-6.3 1.8-12.3 4.2c-57.3 22.7-89.9 77.3-73.5 122.6l210.8-83.2c-13.3-31.2-47.6-49.2-86.7-49.2z"/>
		<path id="Layer" class="s0" d="m173.7 272.9c-2.7-17.2-5.7-35.1-10.4-49.1l3.8-1.2c4.8 14.2 7.8 32.3 10.5 49.7z"/>
		<path id="Layer" class="s0" d="m251.4 275.7c-4.1-6.2-8.3-12.4-12.5-18.5-4.2-6.1-9.1-13.2-13.3-19.7-4.2-6.5-7.5-11.7-10.4-16.6q-1-1.7-2-3.5-1-1.8-1.9-3.6-1-1.8-1.9-3.6-0.9-1.9-1.7-3.7l3.6-1.6c2 4.3 4.4 8.9 7.4 14 3 5.1 6 10 10.3 16.4 4.3 6.4 8.6 12.9 13.2 19.7 4.6 6.8 8.4 12.3 12.5 18.5z"/>
		<path id="Layer" class="s0" d="m355.8 274.4l-129.1-36 1.1-3.9 125.2 35c3.2-13.9-0.3-28.8-10-42.1-9.7-13.3-26.1-24.6-44.8-29.8-32.1-9-65.6 0.8-79.5 23.4l-3.4-2.1c15.1-24.4 49.6-34.8 84-25.2 19.5 5.5 36.2 16.6 47 31.4 10.8 14.8 14.4 31.7 10.1 47.4z"/>
		<path id="Layer" class="s0" d="m257.6 275.5l-3.5-1.8c4.8-9 9.6-18.4 12.3-26.4l3.8 1.2c-2.8 8.4-7.7 18-12.6 27z"/>
		<path id="Layer" class="s0" d="m297.2 274.9l-4-0.3q0.2-2.4 0.4-4.8 0.3-2.3 0.6-4.7 0.3-2.4 0.7-4.7 0.4-2.4 0.9-4.7l3.9 0.9q-0.5 2.3-0.9 4.5-0.4 2.3-0.7 4.6-0.3 2.3-0.5 4.6-0.3 2.3-0.4 4.6z"/>
		<path id="Layer" fill-rule="evenodd" class="s0" d="m402.1 271q-0.3 0-0.6 0-0.3 0-0.6-0.1-0.3-0.1-0.6-0.2-0.2-0.1-0.5-0.2-0.5-0.2-0.9-0.5-0.5-0.4-0.8-0.8-0.3-0.4-0.6-0.9-0.2-0.5-0.3-1l-0.5-2.1c-0.1-0.2-0.2-0.3-0.2-0.4l-1.9-1.4q-0.4-0.4-0.8-0.8-0.3-0.5-0.5-1-0.2-0.5-0.3-1.1-0.1-0.5 0-1.1 0.1-0.6 0.3-1.2 0.2-0.6 0.5-1.1 0.4-0.5 0.8-0.9 0.5-0.4 1-0.7l2.2-1.2q0.1 0 0.1-0.1 0.1 0 0.2-0.1 0 0 0.1-0.1 0.1 0 0.1-0.1l1.1-2.1q0.3-0.5 0.7-0.9 0.4-0.5 0.8-0.8 0.5-0.3 1-0.6 0.5-0.2 1.1-0.3 0.6-0.1 1.1-0.2 0.6 0 1.2 0.2 0.6 0.1 1.1 0.3 0.5 0.2 1 0.6l1.9 1.4c0.1 0.2 0.4 0.2 0.6 0.3l2.5 0.2q0.6 0 1.2 0.2 0.6 0.2 1.1 0.5 0.5 0.3 1 0.7 0.4 0.5 0.7 1 0.3 0.5 0.4 1 0.2 0.6 0.2 1.1 0 0.6-0.1 1.1-0.2 0.6-0.4 1.1l-1.1 2.1c0 0.1-0.1 0.2 0 0.4l0.4 2.2q0.1 0.5 0.1 1.1 0 0.5-0.2 1-0.1 0.6-0.4 1-0.2 0.5-0.6 0.9-0.4 0.5-0.9 0.8-0.6 0.4-1.1 0.6-0.6 0.2-1.3 0.3-0.6 0.1-1.2 0.1h-2.5q-0.1 0-0.2 0-0.1 0-0.2 0-0.1 0-0.2 0.1-0.1 0-0.2 0.1l-2.3 1.1q-0.3 0.1-0.6 0.2-0.3 0.1-0.6 0.2-0.3 0.1-0.7 0.1-0.3 0-0.6 0zm2.1-18h-0.3q-0.2 0-0.3 0.1-0.1 0-0.3 0.1-0.1 0.1-0.2 0.2-0.1 0.1-0.2 0.2l-1.1 2.1q-0.2 0.3-0.4 0.6-0.2 0.3-0.5 0.6-0.3 0.3-0.6 0.5-0.3 0.2-0.6 0.4l-2.2 1.2q-0.1 0-0.2 0.1-0.1 0.1-0.2 0.2-0.1 0.1-0.1 0.2-0.1 0.1-0.1 0.2c0 0.2 0.1 0.3 0.3 0.5l1.8 1.4q0.3 0.3 0.5 0.6 0.3 0.3 0.5 0.6 0.2 0.3 0.3 0.7 0.2 0.3 0.3 0.7l0.5 2.2c0 0.2 0.2 0.3 0.4 0.4q0.2 0.1 0.3 0.1 0.2 0 0.4 0 0.1 0 0.3-0.1 0.2 0 0.3-0.1l2.2-1.1q0.3-0.2 0.7-0.3 0.3-0.1 0.7-0.2 0.4-0.1 0.7-0.1 0.4 0 0.8 0h2.5q0.2 0 0.4 0 0.1 0 0.3-0.1 0.2 0 0.3-0.2 0.2-0.1 0.3-0.2 0-0.1 0.1-0.1 0-0.1 0-0.1 0.1-0.1 0.1-0.2 0 0 0-0.1l-0.5-2.2q-0.1-0.4-0.1-0.8 0-0.3 0.1-0.7 0-0.4 0.1-0.8 0.1-0.4 0.3-0.7l1.1-2.1q0-0.1 0-0.1 0.1-0.1 0.1-0.1 0-0.1-0.1-0.2 0 0 0-0.1-0.1-0.1-0.2-0.2 0-0.1-0.1-0.1-0.2-0.1-0.3-0.1-0.1 0-0.2 0l-2.5-0.2q-0.4 0-0.7-0.1-0.4-0.1-0.8-0.3-0.3-0.1-0.7-0.3-0.3-0.2-0.6-0.4l-1.8-1.4q-0.1 0-0.2-0.1-0.1 0-0.2 0-0.1 0-0.2 0-0.1 0-0.2 0z"/>
		<path id="Layer" fill-rule="evenodd" class="s0" d="m434.2 232.4q-0.4 0-0.8-0.1-0.4 0-0.8-0.1-0.3-0.1-0.7-0.3-0.4-0.2-0.7-0.4-0.4-0.3-0.8-0.7-0.4-0.4-0.6-0.8-0.3-0.5-0.5-1-0.2-0.5-0.2-1l-0.2-2.3c0-0.1-0.1-0.2-0.1-0.3l-1.6-1.8q-0.4-0.4-0.6-0.9-0.3-0.5-0.4-1-0.2-0.6-0.2-1.1 0-0.6 0.1-1.1 0.2-0.6 0.5-1.2 0.3-0.5 0.7-0.9 0.4-0.5 1-0.8 0.5-0.3 1.1-0.5l2.3-0.9q0.1 0 0.2-0.1 0.1 0 0.1 0 0.1-0.1 0.2-0.2 0 0 0.1-0.1l1.4-1.8q0.3-0.5 0.8-0.9 0.4-0.3 1-0.6 0.5-0.3 1-0.4 0.6-0.2 1.2-0.2 0.6 0 1.2 0 0.5 0.1 1.1 0.3 0.5 0.2 1 0.6 0.5 0.3 0.9 0.7l1.6 1.7q0 0.1 0.1 0.1 0.1 0.1 0.2 0.1 0 0.1 0.1 0.1 0.1 0 0.2 0l2.4 0.6q0.6 0.1 1.2 0.4 0.5 0.3 1 0.7 0.5 0.4 0.8 0.9 0.4 0.5 0.6 1.1 0.2 0.5 0.2 1.1 0.1 0.5 0 1.1-0.1 0.5-0.3 1-0.2 0.6-0.5 1l-1.4 1.9c0 0.1-0.1 0.2-0.1 0.4v2.2q0 0.5-0.1 1.1-0.1 0.5-0.4 1-0.2 0.5-0.5 0.9-0.3 0.4-0.7 0.8-0.5 0.4-1 0.7-0.6 0.3-1.2 0.4-0.6 0.2-1.3 0.2-0.6 0-1.2-0.2l-2.5-0.5c-0.2-0.1-0.5 0-0.8 0l-2.4 0.8q-0.2 0.1-0.4 0.1-0.2 0.1-0.4 0.1-0.3 0.1-0.5 0.1-0.2 0-0.4 0zm3.8-17.5h-0.1q-0.1 0-0.3 0-0.1 0.1-0.3 0.1-0.1 0.1-0.2 0.2-0.1 0.1-0.2 0.2l-1.4 1.8q-0.2 0.3-0.5 0.6-0.3 0.2-0.6 0.4-0.3 0.3-0.6 0.5-0.3 0.2-0.7 0.3l-2.4 0.8q-0.1 0.1-0.2 0.1-0.1 0.1-0.2 0.2-0.1 0.1-0.2 0.2 0 0.1-0.1 0.2 0 0.1 0 0.1 0 0.1 0 0.2 0.1 0 0.1 0.1 0 0.1 0.1 0.1l1.5 1.7q0.3 0.3 0.5 0.6 0.2 0.3 0.3 0.7 0.2 0.4 0.3 0.7 0.1 0.4 0.1 0.8l0.2 2.2q0 0.1 0 0.1 0.1 0.1 0.1 0.2 0 0 0.1 0.1 0 0.1 0.1 0.1 0.1 0.1 0.3 0.1 0.2 0.1 0.3 0.1 0.2 0 0.4 0 0.1 0 0.3-0.1l2.4-0.8q0.4-0.1 0.7-0.2 0.4 0 0.8 0 0.4-0.1 0.8 0 0.3 0 0.7 0.1l2.4 0.5q0.2 0 0.3 0 0.2 0 0.4 0 0.1-0.1 0.3-0.1 0.2-0.1 0.3-0.2 0.1 0 0.1-0.1 0.1-0.1 0.1-0.1 0-0.1 0.1-0.2 0 0 0-0.1v-2.3q0-0.4 0.1-0.7 0-0.4 0.1-0.8 0.1-0.3 0.3-0.7 0.2-0.3 0.4-0.6l1.3-1.9c0.2-0.2 0.2-0.4 0.1-0.5q0-0.1-0.1-0.2-0.1-0.1-0.2-0.2-0.1-0.1-0.2-0.1-0.1-0.1-0.2-0.1l-2.5-0.6q-0.4-0.1-0.7-0.2-0.3-0.1-0.7-0.3-0.3-0.2-0.6-0.4-0.2-0.2-0.5-0.5l-1.6-1.7q-0.1-0.1-0.2-0.2-0.2-0.1-0.3-0.1-0.1-0.1-0.3-0.1-0.1 0-0.3 0z"/>
		<path id="Layer" class="s0" d="m456.6 269.9q-0.1-0.5-0.1-1-0.1-0.4 0-0.9 0.1-0.5 0.3-0.9 0.1-0.5 0.4-0.9l1.3-1.9q0 0 0.1-0.1 0 0 0-0.1 0 0 0-0.1 0 0 0-0.1l-0.2-2.3q-0.1-0.6 0-1.1 0.1-0.6 0.4-1.1 0.2-0.5 0.6-0.9 0.3-0.5 0.8-0.8 0.5-0.4 1-0.6 0.6-0.3 1.2-0.4 0.6-0.1 1.2 0 0.6 0.1 1.2 0.3l2.4 0.8c0.2 0 0.5 0.1 0.7 0l2.2-0.6q0.6-0.2 1.1-0.2 0.6 0 1.2 0.1 0.6 0.1 1.1 0.4 0.5 0.2 1 0.6 0.5 0.3 0.9 0.7 0.4 0.4 0.7 0.9 0.3 0.5 0.5 1.1 0.1 0.5 0.2 1.1l0.2 2.3c0.1 0.3 0.1 0.5 0.3 0.7l1.6 2c0.1 0.1 0.1 0.1 0.1 0.2l-1.6 1.1-1.6 1.2h-0.1l-1.5-1.9q-0.2-0.3-0.5-0.6-0.2-0.4-0.3-0.7-0.2-0.4-0.3-0.7-0.1-0.4-0.1-0.8l-0.2-2.3q0-0.2 0-0.3-0.1-0.1-0.2-0.3 0-0.1-0.2-0.2-0.1-0.1-0.2-0.2-0.1-0.1-0.3-0.1-0.1-0.1-0.2-0.1-0.2 0-0.3 0-0.2 0-0.3 0l-2.2 0.6q-0.4 0.1-0.7 0.1-0.4 0.1-0.8 0-0.4 0-0.8 0-0.3-0.1-0.7-0.2l-2.4-0.8q-0.1-0.1-0.2-0.1-0.1 0-0.3 0-0.1 0-0.2 0-0.1 0-0.2 0.1c-0.1 0.2-0.2 0.3-0.2 0.5l0.2 2.4q0 0.4 0 0.8-0.1 0.3-0.2 0.7-0.1 0.4-0.2 0.7-0.2 0.4-0.4 0.7l-1.3 1.8q0 0.1 0 0.1 0 0.1 0 0.2 0 0 0 0.1 0 0 0 0.1z"/>
		<path id="Layer" class="s0" d="m377.1 273.4l-3.9-0.2q0-0.2 0-0.4 0-0.1 0-0.3 0-0.2 0-0.4 0.1-0.1 0.1-0.3c0.6-4.7 2-9.3 4.4-13.4 2.3-4.1 5.4-7.8 9.1-10.7 3.7-2.9 8-5.1 12.6-6.4 4.5-1.3 9.3-1.7 14-1.1 3.8 0.5 7.6 1.6 11.1 3.2 3.5 1.7 6.7 3.9 9.5 6.5 2.8 2.7 5.1 5.8 6.9 9.2 1.9 3.4 3.1 7.1 3.8 10.9l-4 0.7c-0.6-3.4-1.7-6.7-3.3-9.7-1.6-3.1-3.7-5.8-6.2-8.2-2.5-2.4-5.3-4.3-8.4-5.8-3.2-1.4-6.5-2.4-9.9-2.8-4.2-0.5-8.4-0.2-12.5 1-4 1.1-7.8 3-11.1 5.6-3.3 2.6-6.1 5.8-8.1 9.5-2.1 3.7-3.4 7.7-3.9 11.9-0.1 0.4-0.1 0.8-0.2 1.2z"/>
		<path id="Layer" class="s0" d="m473.5 250.2l-3.8-1.2c0.2-1 0.5-2 0.7-3.1 0.8-4.1 0.7-8.4-0.2-12.5-0.8-4.1-2.5-8-4.9-11.5-2.3-3.5-5.4-6.4-8.9-8.7-3.5-2.3-7.5-3.9-11.6-4.7-4.1-0.8-8.4-0.7-12.5 0.1-4.1 0.9-8 2.6-11.5 4.9-3.5 2.4-6.5 5.5-8.8 9-2.3 3.5-3.8 7.5-4.6 11.6q-0.2 1-0.3 2-0.2 1-0.2 2-0.1 1-0.1 2 0 1 0.1 2l-4 0.2q-0.1-1.1-0.1-2.2 0-1.1 0.1-2.3 0-1.1 0.2-2.2 0.1-1.1 0.3-2.2 0.7-3.5 2-6.8 1.3-3.3 3.2-6.3 2-2.9 4.5-5.5 2.5-2.5 5.4-4.5 2.9-2 6.2-3.4 3.2-1.4 6.7-2.2 3.5-0.7 7.1-0.7 3.5-0.1 7 0.6c4.7 0.9 9.1 2.7 13.1 5.3 3.9 2.5 7.3 5.9 10 9.8 2.7 3.9 4.6 8.3 5.5 12.9 1 4.7 1.1 9.4 0.2 14.1-0.2 1.2-0.5 2.3-0.8 3.5z"/>
		<path id="Layer" class="s0" d="m490.7 268c-2.3-4.5-5.6-8.4-9.6-11.4-4.1-3-8.8-5-13.8-5.9-5-0.8-10.1-0.5-14.9 1.1-4.9 1.5-9.3 4.1-12.9 7.6l-2.9-2.8q2.9-2.8 6.4-5 3.4-2.1 7.2-3.4 3.9-1.3 7.9-1.8 4.1-0.4 8.1 0.1c3 0.3 5.9 1 8.6 2.1 2.8 1.1 5.5 2.5 7.9 4.2 2.4 1.7 4.7 3.7 6.6 6 1.9 2.2 3.6 4.7 4.9 7.4z"/>
		<path id="Layer" class="s0" d="m538.2 263.2c-1-143-114.6-259.3-253.2-259.3-138.6 0-252.2 116.3-253.2 259.3h-4c0.5-70.5 27.5-136.6 75.9-186.3 48.4-49.7 112.9-77 181.3-77 68.4 0 132.8 27.3 181.3 77 48.5 49.7 75.4 115.8 75.9 186.3z"/>
		<path id="Layer" class="s0" d="m519.6 265.3h-4c0-131.2-103.5-237.9-230.6-237.9-127.1 0-230.6 106.7-230.6 237.9h-4c0-64.6 24.4-125.4 68.7-171 44.3-45.6 103.2-70.9 165.9-70.9 62.7 0 121.6 25.2 165.9 70.9 44.3 45.7 68.7 106.4 68.7 171z"/>
		<path id="Layer" class="s0" d="m285 560.1c-53 0-92.6-3.8-124.6-11.9-32-8.1-58.2-21.8-76.9-41-40.1-41-51.3-108-55.7-196.1l4-0.2c9.2 184 47.1 245.2 253.2 245.2 206.1 0 243.9-61.2 253.2-245.2l4 0.2c-4.5 88.1-15.6 155.1-55.7 196.1-18.7 19.2-43.9 32.6-76.9 41-33 8.4-71.6 11.9-124.6 11.9z"/>
		<path id="Layer" fill-rule="evenodd" class="s0" d="m285.8 324.7h-6.4c-15.7 0-31.4-0.1-46.6-0.4h-7.1c-14.4-0.3-28.6-0.7-42-1.2-19.3-0.7-38.5-1.5-57.2-2.6-31.9-1.7-64.5-4-96.8-6.8l-6-0.5c-6.6-0.8-12.6-4-16.9-9.1-4.2-5-6.4-11.5-6.1-18.1 0.3-6.6 3.1-12.9 7.8-17.5 4.7-4.6 11-7.3 17.6-7.5l2.4 0.2 24.1 2c41 3.4 82.4 5.9 123.1 7.5 25.7 1 51.7 1.7 77.4 2h2.8c13.5 0.1 26.8 0.2 39.3 0.1 26.8-0.1 53.6-0.5 79.9-1.4 22.5-0.7 45.2-1.7 67.5-3l15.8-0.9 18.8-1.2 15.1-1.1c8.9-0.6 17.1-1.3 25.1-2 8-0.7 16.2-1.3 24.1-2.1 6.7-0.2 13.2 2.1 18.3 6.5 5 4.4 8.1 10.6 8.8 17.3 0.6 6.6-1.4 13.3-5.5 18.6-4.2 5.2-10.2 8.7-16.8 9.7l-6 0.5c-32.3 2.8-64.9 5.1-96.8 6.8-31.9 1.7-66.2 3.1-99.2 3.8-17.5 0.3-35.1 0.5-52.2 0.5zm-259.7-59.8c-2.9 0-5.8 0.6-8.5 1.7-2.6 1.1-5.1 2.8-7.1 4.8-2.1 2.1-3.7 4.5-4.8 7.2-1.1 2.7-1.7 5.6-1.7 8.5 0 2.7 0.5 5.5 1.5 8 0.9 2.6 2.4 4.9 4.2 6.9 1.9 2.1 4.1 3.7 6.5 4.9 2.5 1.2 5.2 2 7.9 2.2l5.9 0.5c32.3 2.8 64.8 5.1 96.7 6.9 18.7 1 37.9 1.8 57.1 2.5 13.4 0.5 27.6 0.9 42 1.2h7.1c15.2 0.3 30.8 0.4 46.5 0.4h12.7c17.1 0 34.6-0.2 52.1-0.5 33-0.7 66.3-2 99.1-3.7 32.8-1.7 64.4-4.1 96.7-6.9l5.9-0.5c4.3-0.4 8.3-2.1 11.7-4.7 3.3-2.7 5.8-6.3 7.2-10.3 1.3-4.1 1.5-8.4 0.4-12.6-1-4.1-3.3-7.9-6.4-10.8q-1.7-1.5-3.7-2.7-2-1.2-4.2-1.9-2.1-0.8-4.4-1-2.3-0.3-4.6-0.1c-8 0.8-16.1 1.5-24.2 2.1l-25.1 2-15.1 1.1-18.9 1.2-15.8 0.9c-22.3 1.3-45 2.3-67.6 3-26.3 0.8-53.2 1.3-80 1.4-12.6 0.1-25.8 0-39.3-0.1h-2.8c-25.8-0.3-51.8-1-77.5-2-40.8-1.6-82.3-4.1-123.3-7.5-8.1-0.6-16.2-1.3-24.2-2.1z"/>
		<path id="Layer" class="s0" d="m282.2 383.4c-18.4 0-36.8-0.3-55-0.9-32.8-1-65.5-3-97-5.8-35-3.2-61.6-6.7-77.4-8.9-9.5-1.3-17-2.3-18.3-2.1q0.3-0.1 0.5-0.2 0.2-0.1 0.4-0.3 0.2-0.2 0.3-0.5 0.1-0.2 0.1-0.5l-2-0.2h-2v-0.3q0-0.2 0.1-0.4 0.1-0.2 0.2-0.4 0.1-0.1 0.2-0.3 0.1-0.2 0.3-0.3c1.3-1 2.6-0.9 20.7 1.5 15.8 2.2 42.4 5.8 77.2 8.9 31.5 2.8 64.1 4.8 96.9 5.8 37.9 1.2 76.7 1.1 115.2-0.1 32.1-1.1 64.8-3 97.2-5.8 32.4-2.8 64.2-6.3 96.1-10.6l0.6 4c-32.1 4.3-64.5 7.9-96.4 10.6-31.9 2.7-65.2 4.7-97.3 5.8-20.2 0.6-40.4 1-60.6 1z"/>
		<path id="Layer" class="s0" d="m271.1 454.3c-21.8 0-43.3-0.5-64.7-1.5-84.6-3.8-141.1-14.3-161.4-18.6l0.8-4c34.1 7.3 217.5 41.5 478.7-0.8l0.6 3.9q-31.5 5.2-63.1 9.1-31.7 3.9-63.5 6.5-31.8 2.6-63.6 4-31.9 1.3-63.8 1.4z"/>
		<path id="Layer" class="s0" d="m277 518.8q-23.2 0-46.2-0.9c-31.2-1.4-62.2-4.1-91.9-8-21.8-3-42.7-6.6-62.1-10.7l0.4-2v-2h0.5c19.2 4.1 40 7.7 61.7 10.6 29.7 4 60.5 6.6 91.6 8 35.8 1.5 72.1 1.2 108-0.8 31-1.8 62.2-4.9 92.6-9.3 21-3.1 42.2-6.8 62.8-11.1l0.8 3.9c-20.7 4.3-41.9 8.1-63 11.1-30.6 4.5-61.8 7.6-93 9.4-20.6 1.3-41.5 1.8-62.2 1.8z"/>
		<path id="Layer" class="s0" d="m125 318.2l4-0.3 14.6 221-4 0.3z"/>
		<path id="Layer" class="s0" d="m230 557l-1.1-41.1-5.1-194 3.9-0.1 0.1 0.3 6.2 234.8-4 0.1z"/>
		<path id="Layer" class="s0" d="m427.8 539.6l13.5-221.6 4 0.3-13.5 221.6z"/>
		<path id="Layer" class="s0" d="m340 557l-4-0.1 6.3-235.1 3.9 0.1v0.3l-6.2 234.8z"/>
		<path id="Layer" class="s0" d="m343.1 124.6h-0.4q-0.4-0.1-0.7-0.3-0.3-0.3-0.5-0.6-0.2-0.3-0.3-0.7-0.1-0.4 0-0.8l7.1-35.8q0.1-0.4 0.3-0.7 0.2-0.4 0.6-0.6 0.3-0.2 0.7-0.3 0.4-0.1 0.8 0 0.4 0.1 0.7 0.3 0.3 0.3 0.5 0.6 0.2 0.3 0.3 0.7 0.1 0.4 0 0.8l-7.1 35.8q-0.1 0.4-0.2 0.7-0.2 0.3-0.5 0.5-0.3 0.2-0.6 0.3-0.3 0.1-0.7 0.1z"/>
		<path id="Layer" class="s0" d="m379.4 104.6h-0.4q-0.4-0.1-0.7-0.3-0.4-0.2-0.6-0.5-0.2-0.3-0.3-0.7-0.1-0.4 0-0.8l5.2-28.8q0.1-0.4 0.3-0.7 0.2-0.3 0.5-0.6 0.3-0.2 0.7-0.3 0.4-0.1 0.8 0 0.4 0.1 0.7 0.3 0.4 0.2 0.6 0.6 0.2 0.3 0.3 0.7 0.1 0.4 0 0.8l-5.1 28.7q-0.1 0.3-0.3 0.6-0.2 0.3-0.4 0.5-0.3 0.3-0.6 0.4-0.4 0.1-0.7 0.1z"/>
		<path id="Layer" class="s0" d="m405.5 136.1h-0.4q-0.4-0.1-0.7-0.3-0.3-0.2-0.6-0.5-0.2-0.3-0.3-0.7-0.1-0.4 0-0.8l6.9-38q0.1-0.4 0.3-0.7 0.2-0.3 0.5-0.6 0.3-0.2 0.7-0.3 0.4-0.1 0.8 0 0.4 0.1 0.7 0.3 0.4 0.2 0.6 0.5 0.2 0.3 0.3 0.7 0.1 0.4 0 0.8l-6.8 38q-0.1 0.3-0.3 0.6-0.2 0.3-0.4 0.5-0.3 0.3-0.6 0.4-0.4 0.1-0.7 0.1z"/>
	</g>
</svg>