<svg version="1.2" xmlns="http://www.w3.org/2000/svg" viewBox="0 0 175 301" width="175" height="301"><style>.a{fill:#20120f}</style><path class="a" d="m73.9 25.7c-1.2 0-2.2-1-2.2-2.2 0-1.2 1-2.1 2.2-2.1h26.9c1.2 0 2.1 0.9 2.1 2.1 0 1.2-0.9 2.2-2.1 2.2h-26.9m58.9 197.8c0.8-0.8 2.2-0.8 3 0 0.9 0.9 0.9 2.3 0 3.1l-15.3 15.4c-0.9 0.8-2.3 0.8-3.1 0-0.8-0.9-0.8-2.2 0-3.1l15.4-15.4m0-125.6c0.8-0.9 2.2-0.9 3 0 0.9 0.8 0.9 2.2 0 3.1l-84.1 84.1c-0.8 0.9-2.2 0.8-3 0-0.9-0.8-0.9-2.2 0-3.1l84.1-84.1m-66.4-29.9c0.8-0.8 2.2-0.8 3 0 0.9 0.9 0.9 2.2 0 3.1l-17.7 17.7c-0.8 0.8-2.2 0.8-3 0-0.9-0.9-0.9-2.2 0-3.1l17.7-17.7m-45.4-68h132.6c11.5 0 20.8 9.3 20.8 20.7v259.6c0 11.4-9.3 20.7-20.8 20.7h-132.6c-11.5 0-20.7-9.3-20.7-20.7v-259.6c0-11.4 9.2-20.7 20.7-20.7v2.2 2.1c-9.1 0.1-16.4 7.4-16.4 16.4v259.6c0 9 7.3 16.3 16.4 16.4h132.6c9.1-0.1 16.4-7.4 16.4-16.4v-259.6c0-9-7.3-16.3-16.4-16.4h-132.6v-2.1zm91 26.3c2.5-3.1 6.5-5 11-5h26.9c6.4 0 11.5 5.2 11.5 11.5v244.6c0 6.4-5.1 11.5-11.5 11.5h-125.5c-6.3 0-11.5-5.1-11.5-11.5v-244.6c0-6.3 5.2-11.5 11.5-11.5h27.6c4.3 0 8.2 1.8 10.6 4.7 1.3 1.5 4.8 5.6 4.8 5.6 0.9 1.2 3.9 2.5 6 2.4h28.1c2.1 0.1 5.1-1.2 6-2.4 0 0 3.5-3.9 4.5-5.3l1.7 1.4 1.7 1.3c-1.2 1.6-4.6 5.5-4.6 5.5l-1.7-1.5 1.7 1.4c-2.2 2.6-5.8 3.9-9.3 4h-28.1c-3.4-0.1-7-1.4-9.3-4l1.7-1.4-1.7 1.4c0 0-3.5-4.1-4.8-5.6-1.5-1.8-4.2-3.1-7.3-3.1h-27.6c-4 0-7.1 3.2-7.1 7.1v244.6c0 4 3.1 7.1 7.1 7.2h125.5c4-0.1 7.1-3.2 7.1-7.2v-244.6c0-3.9-3.1-7.1-7.1-7.1h-26.9c-3.3 0-6.1 1.4-7.6 3.3l-1.7-1.3z"/></svg>