<svg version="1.2" xmlns="http://www.w3.org/2000/svg" viewBox="0 0 314 260" width="314" height="260"><style></style><path  d="m97.3 227.8c-1.2 0-2.3-1-2.3-2.2 0-1.3 1.1-2.3 2.3-2.3h119.4c1.2 0 2.3 1 2.3 2.3 0 1.2-1.1 2.2-2.3 2.2h-119.4m19.2-29.2c0-1.3 1-2.3 2.2-2.3 1.3 0 2.3 1 2.3 2.3v26.3c0 1.3-1 2.3-2.3 2.3-1.2 0-2.2-1-2.2-2.3v-26.3m76.8 0c0-1.3 1-2.3 2.3-2.3 1.3 0 2.3 1 2.3 2.3v26.3c0 1.3-1 2.3-2.3 2.3-1.3 0-2.3-1-2.3-2.3v-26.3m61.7 61.4c-11.8 0-21.4-9.2-21.5-20.6v-19.7-19-44.4c0.1-4 3.4-7.1 7.4-7.1h28.1c4 0 7.4 3.1 7.4 7.1v44.4 19 19.7c0 11.4-9.7 20.6-21.4 20.6v-2.3-2.3c9.3 0 16.8-7.2 16.8-16v-19.7-19-44.4c0-1.3-1.2-2.6-2.8-2.6h-28.1c-1.6 0-2.8 1.3-2.8 2.6v44.4 19 19.7c0 8.8 7.5 16 16.9 16v2.3zm-10.1-89.7c-1.3 0-2.3-1-2.3-2.2 0-1.3 1-2.3 2.3-2.3h5.2c1.2 0 2.3 1 2.3 2.3 0 1.2-1.1 2.2-2.3 2.2h-5.2m0 16.6c-1.3 0-2.3-1-2.3-2.3 0-1.2 1-2.2 2.3-2.2h5.2c1.2 0 2.3 1 2.3 2.2 0 1.3-1.1 2.3-2.3 2.3h-5.2m0 16.9c-1.3 0-2.3-1-2.3-2.3 0-1.2 1-2.2 2.3-2.2h5.2c1.2 0 2.3 1 2.3 2.2 0 1.3-1.1 2.3-2.3 2.3h-5.2m0 16.6c-1.3 0-2.3-1-2.3-2.3 0-1.3 1-2.3 2.3-2.3h5.2c1.2 0 2.3 1 2.3 2.3 0 1.3-1.1 2.3-2.3 2.3h-5.2m-112.9-150c0-0.8 0.4-1.5 1.1-2 0.9-0.6 1.9-0.8 2.9-0.8 1 0 1.9 0.2 2.9 0.8l44.6 28.3c0.9 0.5 1.7 1.6 1.7 2.9 0 1.4-0.8 2.5-1.7 3l-44.6 28.3c-1 0.5-1.9 0.7-2.9 0.8-1-0.1-2-0.3-2.9-0.8-0.7-0.5-1.1-1.2-1.1-2v-58.5h2.3l1.2 1.9-1.2-1.9h2.3v58.5h-2.3l1.2-1.9c0 0 0.2 0.1 0.5 0.1 0.2 0 0.5-0.1 0.5-0.1l44.5-28.2 0.6 0.8h-0.9c0-0.5 0.3-0.8 0.3-0.8l0.6 0.8h-0.9 0.9l-0.6 0.9c0 0-0.3-0.3-0.3-0.9h0.9l-0.6 0.9-44.5-28.2c0 0-0.3-0.1-0.5-0.1-0.3 0-0.5 0.1-0.5 0.1l-1.2-1.9zm127.5 116.5c-1.3 0-2.3-1-2.3-2.3 0-1.2 1-2.2 2.3-2.2h5.2c1.2 0 2.2 1 2.2 2.2 0 1.3-1 2.3-2.2 2.3h-5.2m0 16.9c-1.3 0-2.3-1-2.3-2.3 0-1.2 1-2.2 2.3-2.2h5.2c1.2 0 2.2 1 2.2 2.2 0 1.3-1 2.3-2.2 2.3h-5.2m0 16.6c-1.3 0-2.3-1-2.3-2.3 0-1.3 1-2.3 2.3-2.3h5.2c1.2 0 2.2 1 2.2 2.3 0 1.3-1 2.3-2.2 2.3h-5.2m-21.6-23.1c0 1.3-1 2.3-2.3 2.3-79.3 0-213.9 0-213.9 0-12 0-21.7-9.8-21.7-21.8v-156c0-12 9.7-21.8 21.7-21.8h270.5c12 0 21.8 9.8 21.8 21.8v156c0 12-9.8 21.8-21.8 21.8 0 0-6.9 0-18.5 0-1.2 0-2.2-1-2.2-2.3 0-1.3 1-2.3 2.2-2.3 11.6 0 18.5 0 18.5 0 9.5 0 17.2-7.7 17.2-17.2v-156c0-9.5-7.7-17.2-17.2-17.2h-270.5c-9.5 0-17.2 7.7-17.2 17.2v156c0 9.5 7.7 17.2 17.2 17.2 0.1 0 33.7 0 77.2 0 43.6 0 97.1 0 136.7 0 1.3 0 2.3 1 2.3 2.3zm0.2-21.4c0 1.2-1.1 2.2-2.3 2.2-35 0-85.2 0-126.7 0-41.4 0-74 0-74.1 0-6.6 0-12-5.4-12-12v-132.6c0-6.6 5.4-12 12-12h243.9c6.7 0 12 5.4 12 12v132.6c0 6.6-5.3 12-12 12 0 0-1.6 0-4.7 0-1.2 0-2.2-1-2.2-2.2 0-1.3 1-2.3 2.2-2.3 3.1 0 4.7 0 4.7 0 4.2 0 7.5-3.4 7.5-7.5v-132.6c0-4.1-3.3-7.5-7.5-7.5h-243.9c-4.1 0-7.4 3.4-7.5 7.5v132.6c0.1 4.1 3.4 7.5 7.5 7.5 0.1 0 32.7 0 74.1 0 41.5 0 91.7 0 126.7 0 1.2 0 2.3 1 2.3 2.3z"/></svg>