<svg version="1.2" xmlns="http://www.w3.org/2000/svg" viewBox="0 0 716 416" width="716" height="416">
	<title>snowmobile-ic-svg</title>
	<style>
		.s0 { fill: #000000 } 
	</style>
	<g id="Layer_2">
		<path id="Layer" class="s0" d="m346.4 318.4h-311.3l13.7-57.6 3.9 0.9-12.5 52.7h306.2c43.8 0 91.8-2.6 131.6-7.3 8.4-1 16.5-2.1 24-3.2l14-2.3c8.1-1.4 15.8-2.9 23-4.5 7.2-1.6 14.3-3.5 21-5.7l1.6-0.5c4-1.3 8-2.7 11.8-4.2l1.5-0.6c53.6-21.1 82-55.6 86.8-61.8-11.1-21.3-27.9-43.3-49.9-65.3q-5.6-5.6-11.4-11-5.8-5.4-11.8-10.6-5.9-5.2-12.1-10.2-6.1-5-12.4-9.8-8.2-6.3-16.6-12.4-8.4-6-17.1-11.8-8.6-5.7-17.4-11.2-8.8-5.4-17.8-10.6c-4.3 1.2-28.4 9.3-42.9 45.8l-3.7-1.5c16.7-42.1 45.3-48.1 46.5-48.4h0.7l0.7 0.3q9.1 5.2 18.1 10.8 9 5.5 17.7 11.3 8.8 5.9 17.3 12 8.6 6.2 16.9 12.6 6.3 4.8 12.5 9.9 6.2 5 12.2 10.3 6 5.2 11.9 10.7 5.8 5.4 11.5 11c22.7 22.8 39.9 45.5 51.2 67.5l0.6 1.1-0.8 1c-0.2 0.4-29.3 40.5-89.2 64.1l-1.6 0.6c-3.8 1.6-7.9 3-12 4.3l-1.6 0.5c-6.8 2.2-14 4.2-21.3 5.8-7.3 1.6-15.1 3.2-23.3 4.6l-14 2.2c-7.5 1.2-15.7 2.2-24.2 3.2-39.9 4.6-88 7.3-132 7.3z"/>
		<path id="Layer" class="s0" d="m289.2 263.5h-17.9v-4h5c18.9 0.4 76.4 1.6 117.5-19.8 27.6-14.4 42.3-36.3 43.5-65.2 0.3-5.8 0.7-11.5 1.4-17v-0.6q0.3-2.5 0.6-5 0.3-2.5 0.7-4.9 0.4-2.5 0.8-5 0.5-2.4 1-4.9l3.9 0.9q-0.5 2.4-1 4.8-0.4 2.4-0.8 4.9-0.4 2.4-0.7 4.8-0.3 2.5-0.5 4.9v0.5c-0.6 5.5-1 11.1-1.3 16.8-1.4 30.3-16.8 53.3-45.7 68.4-34.9 18.2-80.9 20.4-106.5 20.4z"/>
		<path id="Layer" class="s0" d="m217.7 243.4h-151.2l-11.3-46.7q-0.2-1-0.2-2.1 0-1 0.3-2 0.2-1.1 0.7-2 0.5-0.9 1.2-1.7l22.7-24.9c0.1-12 12.2-18 18.8-19.5 20.7-6.7 128.2 25 173.5 39q2.9 0.9 5.9 1.3 3 0.5 6.1 0.4 3 0 6-0.5 3-0.5 5.9-1.5l76.8-25.2q1.8-0.6 3.7-1.1 1.9-0.4 3.8-0.7 1.9-0.3 3.8-0.5 2-0.1 3.9-0.1h52.7v4h-52.7q-1.8 0-3.5 0.2-1.8 0.1-3.5 0.4-1.8 0.2-3.5 0.7-1.7 0.4-3.4 0.9l-76.8 25.2q-3.2 1.1-6.5 1.6-3.3 0.6-6.7 0.6-3.3 0-6.7-0.4-3.3-0.5-6.5-1.5c-35.1-10.8-151.2-45.6-171.1-39h-0.2c-0.7 0.2-16.3 3.9-15.8 16.4v0.8l-23.7 26.1q-0.4 0.4-0.6 0.9-0.3 0.5-0.4 1.1-0.2 0.5-0.2 1.1 0 0.5 0.1 1.1l10.6 43.6h148z"/>
		<path id="Layer" class="s0" d="m274.2 263.3h-47.7l-0.4-1.3q-0.9-2.6-2-5.1-1.2-2.5-2.4-5-1.3-2.4-2.7-4.8-1.4-2.3-2.9-4.6c-12.1-17.9-31.6-34-58.1-47.9-37.5-19.6-76.1-27.8-76.5-27.9l0.8-3.9c0.4 0.1 39.5 8.4 77.5 28.3 27.1 14.2 47.1 30.7 59.6 49.2q1.5 2.2 2.9 4.5 1.4 2.3 2.6 4.7 1.3 2.4 2.4 4.8 1 2.5 2 5h42.2l6.1-14.4q0.5-1.2 1.4-2.2 0.9-1.1 2-1.8 1.1-0.7 2.4-1.1 1.3-0.4 2.6-0.4h108.7v4h-108.7q-0.8 0-1.5 0.2-0.7 0.2-1.3 0.6-0.6 0.5-1.1 1-0.5 0.6-0.8 1.3z"/>
		<path id="Layer" class="s0" d="m227.9 263.3h-179.2v-18.4q0-1.1 0.5-2.1 0.4-1 1.2-1.8 0.8-0.8 1.8-1.2 1-0.4 2.1-0.4h13.8v4h-13.8q-0.3 0-0.6 0.1-0.3 0.1-0.5 0.3-0.2 0.2-0.4 0.5-0.1 0.3-0.1 0.6v14.4h175.2z"/>
		<path id="Layer" fill-rule="evenodd" class="s0" d="m51.2 415.7c-20.5 0-39-12.4-46.9-31.3-7.8-19-3.4-40.8 11.1-55.3 14.5-14.5 36.3-18.8 55.3-10.9 18.9 7.9 31.2 26.4 31.2 46.9 0 6.6-1.3 13.2-3.9 19.4-2.5 6.1-6.3 11.7-11 16.4-4.7 4.7-10.3 8.4-16.4 11-6.2 2.5-12.8 3.8-19.4 3.8zm0-97.3c-18.9 0-35.9 11.4-43.1 28.8-7.3 17.5-3.3 37.6 10.1 50.9 13.3 13.4 33.4 17.4 50.9 10.1 17.4-7.2 28.8-24.2 28.8-43.1 0-6.1-1.2-12.2-3.6-17.9-2.3-5.6-5.7-10.8-10.1-15.1-4.3-4.4-9.5-7.8-15.1-10.1-5.7-2.4-11.8-3.6-17.9-3.6z"/>
		<path id="Layer" fill-rule="evenodd" class="s0" d="m284.7 415.7c-20.5 0-39-12.3-46.9-31.3-7.9-18.9-3.6-40.7 10.9-55.3 14.6-14.5 36.4-18.8 55.3-10.9 19 7.9 31.3 26.4 31.3 46.9 0 6.6-1.3 13.2-3.9 19.3-2.5 6.2-6.3 11.8-10.9 16.5-4.7 4.6-10.3 8.4-16.5 10.9-6.1 2.6-12.7 3.9-19.3 3.9zm0-97.3c-18.9 0-36 11.3-43.2 28.8-7.3 17.4-3.3 37.5 10 50.9 13.4 13.4 33.5 17.4 50.9 10.2 17.5-7.3 28.9-24.3 28.9-43.2 0-6.1-1.2-12.2-3.5-17.8-2.4-5.7-5.8-10.9-10.1-15.2-4.4-4.3-9.5-7.8-15.2-10.1-5.6-2.4-11.7-3.6-17.8-3.6z"/>
		<path id="Layer" fill-rule="evenodd" class="s0" d="m170 415.7c-20.5 0-39-12.3-46.9-31.3-7.9-18.9-3.6-40.7 10.9-55.3 14.6-14.5 36.4-18.8 55.3-10.9 19 7.9 31.3 26.4 31.3 46.9 0 6.6-1.3 13.2-3.9 19.3-2.5 6.2-6.3 11.8-10.9 16.5-4.7 4.6-10.3 8.4-16.5 10.9-6.1 2.6-12.7 3.9-19.3 3.9zm0-97.3c-18.9 0-36 11.3-43.2 28.8-7.3 17.4-3.3 37.5 10 50.9 13.4 13.4 33.5 17.4 50.9 10.2 17.5-7.3 28.9-24.3 28.9-43.2 0-6.1-1.2-12.2-3.6-17.8-2.3-5.7-5.7-10.8-10.1-15.2-4.3-4.3-9.4-7.7-15.1-10.1-5.6-2.3-11.7-3.6-17.8-3.6z"/>
		<path id="Layer" fill-rule="evenodd" class="s0" d="m284.7 415.7h-233.4c-10 0-19.8-2.9-28.2-8.5-8.3-5.5-14.8-13.4-18.7-22.7-3.8-9.2-4.8-19.4-2.9-29.3 2-9.8 6.8-18.8 13.9-25.9l1.3-1.3 1-0.8q0.3-0.3 0.6-0.6 0.3-0.2 0.6-0.5 0.3-0.3 0.6-0.5 0.4-0.3 0.7-0.5l0.6-0.5 1.1-0.8 1.3-0.9 1.2-0.8 1.7-1 1.5-0.8 1.7-0.9 2.1-0.9 1.3-0.5 2.3-0.9 1.5-0.5 0.8-0.2h0.3l1.3-0.4 1.6-0.3h0.6l1.8-0.4h1l2.1-0.3h238.7c6.6 0 13.2 1.3 19.4 3.9 6.1 2.5 11.7 6.3 16.4 11 4.7 4.7 8.4 10.3 11 16.4 2.5 6.2 3.8 12.8 3.8 19.4v2.3c0 0.3-0.1 0.6-0.1 0.9v1q0 0.1-0.1 0.2 0 0.1 0 0.1 0 0.1 0 0.2 0 0.1 0 0.2v0.3l-0.3 2.1-0.2 1-0.3 1.9q0 0.1 0 0.1 0 0.1-0.1 0.1 0 0.1 0 0.2 0 0 0 0.1 0 0.2-0.1 0.4 0 0.2-0.1 0.4 0 0.1-0.1 0.3 0 0.2-0.1 0.4v0.2l-0.3 1.2v0.3l-0.3 0.9c-0.1 0.4-0.3 0.9-0.4 1.4l-0.9 2.3c-0.2 0.6-0.5 1.3-0.8 2q-0.1 0.2-0.1 0.4-0.1 0.1-0.2 0.3-0.1 0.2-0.2 0.4-0.1 0.1-0.2 0.3-0.1 0.2-0.2 0.4-0.1 0.3-0.2 0.5-0.1 0.2-0.2 0.4-0.1 0.2-0.2 0.4l-0.2 0.3-0.7 1.3q-0.6 1.1-1.3 2.2-0.7 1.1-1.5 2.2-0.7 1-1.5 2-0.8 1-1.7 2l-0.9 1-1.2 1.2-1.2 1.1-1 1q-1 0.8-2 1.6-1 0.8-2.1 1.6-1 0.7-2.1 1.4-1.1 0.7-2.2 1.4l-1.3 0.7-0.3 0.2-1.6 0.8-1.5 0.7-2 0.8-2.3 0.8-1.5 0.5-0.8 0.3h-0.3l-1.2 0.3h-0.2l-1.5 0.4h-0.5l-1.9 0.3-1 0.2-2.1 0.2h-5.2zm-246.5-95.4h-0.5l-1.4 0.5-2.1 0.8-1.2 0.5h-0.1l-0.5 0.2h-0.1l-1.3 0.5-3 1.6-1.5 0.9-1.1 0.7-1.2 0.8-1 0.8-0.6 0.4-2.3 2q-0.1 0.1-0.2 0.2-0.1 0.1-0.2 0.2-0.1 0.1-0.2 0.2-0.1 0.1-0.2 0.2-0.2 0.1-0.3 0.2-0.2 0.2-0.3 0.3-0.2 0.1-0.3 0.3-0.2 0.1-0.3 0.3c-6.5 6.5-11 14.8-12.8 23.9-1.8 9-0.9 18.4 2.7 26.9 3.5 8.6 9.5 15.9 17.2 21 7.6 5.1 16.7 7.8 25.9 7.8h238.3l1.8-0.3h1l1.7-0.3h0.4l1.4-0.4h0.2l1.3-0.4h0.4l0.4-0.2 1.4-0.4 2.2-0.8 1.8-0.8 1.3-0.6 1.3-0.7h0.2l1.5-0.8q1-0.6 2-1.2 1-0.7 2-1.4 0.9-0.7 1.9-1.4 0.9-0.7 1.8-1.5l1-0.9 2.1-2.1 0.9-1q0.8-0.9 1.5-1.8 0.8-0.9 1.5-1.9 0.6-1 1.3-2 0.6-1 1.2-2l0.9-1.5v-0.3l0.6-1.2 0.6-1.3 0.8-1.8c0.3-0.8 0.6-1.5 0.8-2.2l0.4-1.3c0.1-0.2 0.1-0.4 0.2-0.6v-0.3l0.3-1.3v-0.2l0.3-1.4c0-0.1 0.1-0.2 0.1-0.3l0.3-1.7v-1l0.3-1.9v-0.3c0-0.2 0.1-0.4 0.1-0.6v-0.9q0-0.1 0-0.2 0.1-0.1 0.1-0.2 0-0.2 0-0.3 0-0.1 0-0.2v-2.1c0-6.1-1.2-12.2-3.5-17.8-2.4-5.7-5.8-10.9-10.1-15.2-4.4-4.3-9.5-7.8-15.2-10.1-5.6-2.4-11.7-3.6-17.8-3.6h-237.9l-1.9 0.2-1 0.2-1.7 0.3h-0.4l-1.5 0.3-1.4 0.4z"/>
		<path id="Layer" fill-rule="evenodd" class="s0" d="m675.3 415.7h-271.4c-0.8 0-1.6-0.2-2.3-0.7-0.6-0.4-1.1-1-1.5-1.8-0.3-0.7-0.4-1.5-0.2-2.3 0.1-0.8 0.5-1.5 1-2.1l13.7-14.4q0.3-0.3 0.6-0.5 0.4-0.3 0.8-0.4 0.4-0.2 0.8-0.3 0.4-0.1 0.8-0.1h247.3q0.6 0 1.1-0.1 0.6-0.2 1.1-0.4 0.5-0.3 1-0.6 0.4-0.4 0.8-0.8l21.2-26.4q0.3-0.4 0.7-0.7 0.4-0.3 0.9-0.5 0.4-0.3 0.9-0.4 0.5-0.1 1-0.1h17.3q0.6 0 1.2 0.2 0.6 0.1 1.2 0.5 0.5 0.3 0.9 0.8 0.4 0.4 0.7 1 0.3 0.6 0.4 1.2 0.1 0.6 0.1 1.2-0.1 0.6-0.3 1.2-0.2 0.6-0.6 1.1l-31.9 41.8q-0.6 0.8-1.5 1.5-0.8 0.7-1.7 1.1-1 0.5-2 0.8-1 0.2-2.1 0.2zm-257.7-18.6q0 0 0 0-0.1 0-0.1 0 0 0 0 0.1 0 0 0 0l-13.7 14.4h271.5q0.6 0 1.2-0.1 0.6-0.2 1.1-0.4 0.5-0.3 1-0.7 0.4-0.3 0.8-0.8l31.9-41.8q0-0.1 0.1-0.1 0-0.1 0-0.2 0-0.1 0-0.2-0.1 0-0.1-0.1c0-0.1-0.2-0.2-0.4-0.2h-17.3c-0.1 0-0.2 0-0.3 0.2l-21.3 26.5q-0.6 0.8-1.4 1.4-0.8 0.7-1.8 1.1-0.9 0.4-1.9 0.7-1 0.2-2 0.2z"/>
		<path id="Layer" class="s0" d="m548.4 298.2l3.5-2 58.1 98.3-3.4 2z"/>
		<path id="Layer" class="s0" d="m632.9 396.2l-5.2-8.2-57.5-97.6 3.4-2 57.5 97.5 5.2 8.2-3.4 2.1z"/>
		<path id="Layer" class="s0" d="m486.6 306.5h4v88.6h-4z"/>
		<path id="Layer" class="s0" d="m509.7 304.4h4v90.8h-4z"/>
		<path id="Layer" fill-rule="evenodd" class="s0" d="m51.2 398.9c-13.7 0-26.1-8.3-31.3-21-5.3-12.6-2.4-27.2 7.4-36.9 9.7-9.7 24.3-12.6 36.9-7.3 12.7 5.3 20.9 17.7 20.9 31.4 0 4.4-0.9 8.8-2.6 12.9-1.7 4.1-4.2 7.9-7.4 11-3.1 3.1-6.8 5.6-11 7.3-4.1 1.7-8.5 2.6-12.9 2.6zm0-63.7c-12.1 0-23 7.3-27.6 18.5-4.7 11.1-2.1 24 6.5 32.5 8.5 8.6 21.4 11.2 32.5 6.5 11.2-4.6 18.5-15.5 18.5-27.6 0-3.9-0.8-7.8-2.3-11.4-1.5-3.7-3.7-7-6.5-9.7-2.7-2.8-6-5-9.7-6.5-3.6-1.5-7.5-2.3-11.4-2.3z"/>
		<path id="Layer" fill-rule="evenodd" class="s0" d="m170 398.9c-13.7 0-26.1-8.2-31.4-20.9-5.3-12.7-2.4-27.3 7.3-37 9.7-9.7 24.3-12.6 37-7.3 12.7 5.3 20.9 17.7 20.9 31.4 0 4.4-0.9 8.8-2.6 12.9-1.7 4.1-4.2 7.8-7.3 11-3.2 3.1-6.9 5.6-11 7.3-4.1 1.7-8.5 2.6-12.9 2.6zm0-63.7c-12.1 0-23 7.2-27.7 18.4-4.7 11.2-2.1 24 6.4 32.6 8.6 8.6 21.4 11.2 32.6 6.5 11.2-4.6 18.5-15.5 18.5-27.6 0-3.9-0.8-7.8-2.3-11.4-1.5-3.6-3.7-6.9-6.4-9.7-2.8-2.8-6.1-5-9.7-6.5-3.6-1.5-7.5-2.3-11.4-2.3z"/>
		<path id="Layer" fill-rule="evenodd" class="s0" d="m284 398.9c-13.7 0-26.1-8.2-31.4-20.9-5.3-12.7-2.4-27.3 7.3-37 9.7-9.7 24.3-12.6 37-7.3 12.7 5.3 20.9 17.7 20.9 31.4 0 4.4-0.9 8.8-2.6 12.9-1.7 4.1-4.2 7.8-7.3 11-3.2 3.1-6.9 5.6-11 7.3-4.1 1.7-8.5 2.6-12.9 2.6zm0-63.7c-12.1 0-23 7.2-27.7 18.4-4.7 11.2-2.1 24 6.4 32.6 8.6 8.6 21.4 11.2 32.6 6.5 11.2-4.6 18.5-15.5 18.5-27.6 0-3.9-0.8-7.8-2.3-11.4-1.5-3.6-3.7-6.9-6.4-9.7-2.8-2.8-6.1-5-9.7-6.5-3.6-1.5-7.5-2.3-11.4-2.3z"/>
		<path id="Layer" class="s0" d="m470.7 149.2q-0.6 0-1.2-0.1-0.6 0-1.2-0.1-0.6-0.1-1.2-0.3-0.6-0.2-1.2-0.4l-18.3-7.2-61.6-24.5 0.9-1.8 0.7-1.8 61.5 24.4 18.2 7.2q0.4 0.2 0.8 0.3 0.4 0.1 0.9 0.2 0.4 0 0.8 0.1 0.5 0 0.9 0 1.3 0 2.6-0.4 1.3-0.4 2.4-1.1 1.1-0.8 2-1.8 0.8-1.1 1.3-2.3 0.3-0.8 0.5-1.7 0.2-0.9 0.2-1.8 0-0.9-0.2-1.7-0.2-0.9-0.6-1.7-0.3-0.8-0.8-1.5-0.5-0.8-1.2-1.4-0.6-0.6-1.3-1.1-0.8-0.5-1.6-0.8l-19.6-7.7-60.5-24.1 1.5-3.7 60.5 24.1 19.6 7.7c1.6 0.6 3 1.6 4.3 2.8 1.2 1.1 2.2 2.6 2.8 4.1 0.7 1.6 1.1 3.3 1.1 5 0 1.7-0.4 3.4-1 5q-0.7 1.8-1.9 3.3-1.2 1.5-2.8 2.6-1.7 1.1-3.5 1.7-1.9 0.5-3.8 0.5z"/>
		<path id="Layer" fill-rule="evenodd" class="s0" d="m390.6 117.5q-0.6 0-1.1-0.1-0.6 0-1.1-0.1-0.6-0.1-1.1-0.3-0.6-0.1-1.1-0.3c-1.6-0.6-3-1.5-4.2-2.7-1.2-1.1-2.2-2.5-2.9-4.1-0.7-1.5-1-3.2-1.1-4.9 0-1.7 0.3-3.3 0.9-4.9q0.4-1.2 1.1-2.2 0.6-1.1 1.5-2 0.8-1 1.9-1.7 1-0.8 2.1-1.3 1.1-0.6 2.4-0.9 1.2-0.3 2.5-0.4 1.3-0.1 2.5 0.1 1.3 0.2 2.5 0.7 1.2 0.5 2.3 1.2 1 0.6 2 1.5 0.9 0.9 1.6 2 0.7 1 1.2 2.2c0.6 1.6 0.9 3.2 1 4.9 0 1.7-0.3 3.3-0.9 4.9-0.6 1.5-1.5 3-2.6 4.2-1.2 1.2-2.5 2.3-4 3q-0.6 0.3-1.3 0.5-0.7 0.2-1.3 0.4-0.7 0.1-1.4 0.2-0.7 0.1-1.4 0.1zm0.4-21.9q-0.5 0-1 0.1-0.4 0-0.9 0.1-0.5 0.1-0.9 0.3-0.5 0.2-0.9 0.4-0.8 0.4-1.5 0.9-0.7 0.5-1.3 1.1-0.6 0.7-1 1.4-0.5 0.8-0.8 1.6c-0.4 1.1-0.7 2.2-0.7 3.4 0.1 1.2 0.3 2.3 0.8 3.4 0.4 1 1.1 2 1.9 2.8 0.8 0.8 1.8 1.5 2.9 1.9q0.8 0.3 1.7 0.4 0.8 0.2 1.7 0.1 0.8 0 1.7-0.2 0.8-0.2 1.6-0.6 0.8-0.4 1.5-0.9 0.7-0.6 1.3-1.2 0.6-0.7 1-1.4 0.5-0.8 0.8-1.6 0.3-0.8 0.5-1.7 0.1-0.8 0.1-1.7 0-0.9-0.2-1.7-0.2-0.9-0.5-1.7-0.4-0.8-0.8-1.5-0.5-0.7-1.2-1.3-0.6-0.6-1.3-1.1-0.7-0.5-1.5-0.8-0.4-0.1-0.7-0.2-0.4-0.1-0.8-0.2-0.4 0-0.7-0.1-0.4 0-0.8 0z"/>
		<path id="Layer" class="s0" d="m57.2 190.9h102.8v4h-102.8z"/>
		<path id="Layer" class="s0" d="m535 161c-1.5 0-3-0.5-4.3-1.3-1.3-0.9-2.3-2.1-2.9-3.5-0.6-1.4-0.8-3-0.5-4.5 0.3-1.5 1-2.9 2-4l33-34.5 2.9 2.8-33 34.5q-0.4 0.4-0.7 0.9-0.2 0.5-0.3 1.1-0.1 0.6 0 1.1 0.1 0.6 0.3 1.1 0.2 0.5 0.6 1 0.3 0.4 0.8 0.7 0.5 0.4 1.1 0.5 0.5 0.1 1.1 0.1l78.1-1.4v4l-78 1.4z"/>
		<path id="Layer" class="s0" d="m384.5 358.9h-51.7v-4h51.7q5.9 0 11.7-1.2 5.8-1.2 11.2-3.6 5.4-2.3 10.3-5.7 4.8-3.5 8.8-7.8l24.3-26.2 3 2.7-24.4 26.2c-2.9 3.1-6 5.9-9.4 8.3-3.5 2.4-7.1 4.5-11 6.2-3.9 1.7-7.9 3-12 3.8-4.1 0.9-8.3 1.3-12.5 1.3z"/>
		<path id="Layer" class="s0" d="m377.9 53l-0.9-0.2-62.2-33.4q-0.4-0.2-0.6-0.5-0.3-0.3-0.4-0.7-0.1-0.3-0.1-0.7 0-0.4 0.2-0.8 0.2-0.3 0.5-0.6 0.3-0.2 0.7-0.3 0.4-0.1 0.8-0.1 0.3 0 0.7 0.2l62.3 33.3q0.3 0.2 0.6 0.5 0.2 0.3 0.4 0.7 0.1 0.4 0 0.8 0 0.4-0.2 0.7-0.1 0.2-0.3 0.4-0.2 0.2-0.5 0.4-0.2 0.1-0.5 0.2-0.2 0.1-0.5 0.1z"/>
		<path id="Layer" class="s0" d="m365.3 46.3q-0.3 0-0.6-0.1-0.2-0.1-0.5-0.3-0.2-0.1-0.4-0.3-0.2-0.2-0.3-0.5-0.2-0.4-0.2-0.8 0-0.4 0.2-0.7 0.1-0.4 0.4-0.7 0.2-0.3 0.6-0.5l13.6-6c0.5-0.4 1.1-0.5 1.7-0.3 0.6 0.2 1.1 0.6 1.3 1.2 0.2 0.5 0.2 1.2-0.1 1.7-0.3 0.5-0.8 0.9-1.4 1l-13.4 6.1z"/>
		<path id="Layer" class="s0" d="m367.8 60.9q-0.4 0-0.7-0.1-0.3-0.2-0.6-0.4-0.3-0.2-0.5-0.5-0.1-0.3-0.2-0.7c-0.2-1.1-2.3-14.1-2.4-14.6 0-0.5 0.1-1 0.4-1.3 0.3-0.4 0.8-0.7 1.2-0.7 0.5-0.1 1 0 1.4 0.2 0.4 0.3 0.8 0.6 0.9 1.1 0.8 4.7 2.3 13.7 2.5 14.6q0.1 0.4 0 0.8-0.1 0.4-0.3 0.7-0.3 0.3-0.6 0.5-0.3 0.2-0.7 0.3z"/>
		<path id="Layer" class="s0" d="m314.8 32.5c-0.5 0.1-1-0.1-1.4-0.4-0.4-0.3-0.7-0.7-0.8-1.2-0.1-0.5 0-1 0.3-1.4 0.2-0.4 0.6-0.8 1.1-0.9l13.5-6c0.5-0.3 1.1-0.4 1.7-0.3 0.5 0.2 1 0.6 1.2 1.1 0.3 0.6 0.3 1.2 0 1.7-0.2 0.6-0.7 1-1.3 1.1l-13.6 6.1z"/>
		<path id="Layer" class="s0" d="m328.3 26.4q-0.4 0-0.7-0.1-0.3-0.1-0.6-0.3-0.3-0.3-0.4-0.6-0.2-0.3-0.3-0.6c-0.8-4.7-2.3-13.7-2.4-14.6q-0.1-0.4 0-0.8 0-0.3 0.3-0.7 0.2-0.3 0.5-0.5 0.3-0.2 0.7-0.3 0.4-0.1 0.8-0.1 0.4 0.1 0.7 0.3 0.4 0.2 0.6 0.6 0.2 0.3 0.3 0.7l2.5 14.7q0 0.4-0.1 0.8-0.1 0.4-0.3 0.7-0.2 0.3-0.6 0.5-0.3 0.2-0.7 0.3z"/>
		<path id="Layer" class="s0" d="m330.2 67.5q-0.1 0-0.3 0-0.1 0-0.2-0.1-0.2 0-0.3-0.1-0.1 0-0.2-0.1-0.3-0.2-0.6-0.5-0.2-0.3-0.4-0.7-0.1-0.4 0-0.8 0-0.4 0.2-0.7l33.3-62.2c0.2-0.5 0.7-0.9 1.2-1.1 0.5-0.2 1.1-0.1 1.6 0.1 0.5 0.3 0.8 0.8 1 1.3 0.1 0.6 0 1.1-0.3 1.6l-33.3 62.2q-0.1 0.2-0.3 0.5-0.2 0.2-0.4 0.3-0.2 0.2-0.5 0.2-0.2 0.1-0.5 0.1z"/>
		<path id="Layer" class="s0" d="m343 68.4q-0.3 0-0.6-0.1-0.3-0.1-0.5-0.2-0.3-0.2-0.5-0.4-0.2-0.2-0.3-0.5c-0.3-0.9-4.1-9.2-6-13.5q-0.2-0.4-0.2-0.8 0-0.4 0.1-0.8 0.2-0.3 0.4-0.6 0.3-0.3 0.7-0.5 0.4-0.2 0.7-0.2 0.4 0 0.8 0.2 0.4 0.1 0.7 0.4 0.2 0.2 0.4 0.6l6.1 13.6q0.1 0.4 0.1 0.8 0 0.4-0.1 0.7-0.2 0.4-0.5 0.7-0.2 0.2-0.6 0.4z"/>
		<path id="Layer" class="s0" d="m322.3 57.3q-0.4 0-0.7-0.1-0.3-0.1-0.6-0.3-0.3-0.3-0.4-0.6-0.2-0.3-0.3-0.6-0.1-0.4 0-0.8 0.1-0.4 0.3-0.7 0.3-0.3 0.6-0.5 0.3-0.2 0.7-0.3l14.7-2.5c0.6-0.2 1.2-0.1 1.7 0.2 0.5 0.3 0.8 0.8 0.9 1.4 0.1 0.6-0.1 1.2-0.5 1.6-0.4 0.5-0.9 0.7-1.5 0.7l-14.5 2.5z"/>
		<path id="Layer" class="s0" d="m356.7 17.8q-0.3 0-0.6-0.1-0.2-0.1-0.5-0.2-0.2-0.2-0.4-0.4-0.2-0.2-0.3-0.5c-0.2-0.5-5.6-12.5-6.1-13.5q-0.2-0.4-0.2-0.8 0.1-0.4 0.2-0.8 0.2-0.3 0.4-0.6 0.3-0.3 0.7-0.5 0.4-0.1 0.8-0.1 0.4 0 0.7 0.1 0.4 0.2 0.7 0.5 0.2 0.2 0.4 0.6c0.4 0.8 4.1 9.2 6.1 13.5q0.2 0.4 0.2 0.7 0 0.4-0.2 0.8-0.1 0.4-0.4 0.7-0.2 0.2-0.6 0.4-0.1 0.1-0.2 0.1-0.1 0-0.2 0.1-0.1 0-0.3 0-0.1 0-0.2 0z"/>
		<path id="Layer" class="s0" d="m356.7 17.8q-0.4 0-0.7-0.1-0.3-0.1-0.6-0.4-0.2-0.2-0.4-0.5-0.2-0.3-0.2-0.7-0.1-0.4 0-0.8 0.1-0.4 0.3-0.7 0.3-0.3 0.6-0.5 0.3-0.2 0.7-0.3l14.6-2.4c0.5 0 1 0.1 1.3 0.4 0.4 0.3 0.7 0.8 0.7 1.2 0.1 0.5 0 1-0.2 1.4-0.3 0.4-0.6 0.8-1.1 0.9l-14.6 2.5z"/>
		<path id="Layer" class="s0" d="m200.6 111.2q-0.2 0-0.5-0.1-0.2 0-0.4-0.1-0.2-0.2-0.4-0.3-0.2-0.2-0.3-0.4-0.2-0.3-0.3-0.7-0.1-0.4 0-0.8 0.1-0.4 0.3-0.7 0.2-0.4 0.5-0.6l41.1-27.6q0.3-0.2 0.7-0.3 0.4-0.1 0.8 0 0.4 0 0.7 0.3 0.4 0.2 0.6 0.5 0.2 0.3 0.3 0.7 0 0.4 0 0.8-0.1 0.4-0.4 0.7-0.2 0.4-0.5 0.6l-41 27.7q-0.1 0.1-0.3 0.1-0.1 0.1-0.3 0.1-0.1 0.1-0.3 0.1-0.1 0-0.3 0z"/>
		<path id="Layer" class="s0" d="m233.4 89.1h-0.1q-0.4 0-0.8-0.2-0.3-0.1-0.6-0.4-0.3-0.3-0.4-0.7-0.1-0.4-0.1-0.8c0.1-1 0.6-9.6 0.7-10.4 0.1-0.5 0.3-1 0.7-1.3 0.4-0.4 1-0.5 1.5-0.5 0.5 0.1 1 0.3 1.3 0.7 0.4 0.4 0.5 1 0.5 1.5-0.1 0.5-0.5 6.4-0.7 10.3q0 0.4-0.2 0.7-0.2 0.3-0.5 0.6-0.2 0.2-0.6 0.4-0.3 0.1-0.7 0.1z"/>
		<path id="Layer" class="s0" d="m243.3 92.4h-0.6l-9.9-3.3q-0.4-0.1-0.7-0.4-0.3-0.2-0.5-0.6-0.2-0.3-0.2-0.7 0-0.4 0.1-0.8 0.1-0.4 0.4-0.7 0.3-0.3 0.6-0.4 0.3-0.2 0.7-0.3 0.4 0 0.8 0.1l9.8 3.3q0.4 0.1 0.7 0.4 0.3 0.2 0.5 0.6 0.2 0.3 0.3 0.7 0 0.4-0.1 0.8-0.1 0.3-0.3 0.5-0.2 0.3-0.5 0.4-0.2 0.2-0.5 0.3-0.3 0.1-0.6 0.1z"/>
		<path id="Layer" class="s0" d="m208.3 116h-0.2q-0.4 0-0.8-0.2-0.3-0.2-0.6-0.5-0.2-0.3-0.3-0.7-0.1-0.4-0.1-0.8c0-0.6 0.4-6.5 0.7-10.3q0-0.4 0.2-0.8 0.1-0.3 0.4-0.6 0.3-0.3 0.7-0.4 0.4-0.1 0.8-0.1 0.4 0 0.7 0.2 0.4 0.2 0.7 0.5 0.2 0.3 0.4 0.6 0.1 0.4 0.1 0.8c-0.1 1-0.7 9.6-0.7 10.5q0 0.4-0.2 0.7-0.2 0.3-0.5 0.6-0.2 0.2-0.6 0.4-0.3 0.1-0.7 0.1z"/>
		<path id="Layer" class="s0" d="m209 105.6h-0.7l-9.8-3.2q-0.4-0.1-0.7-0.4-0.3-0.3-0.4-0.6-0.2-0.3-0.3-0.7 0-0.4 0.1-0.8 0.1-0.4 0.4-0.7 0.2-0.3 0.6-0.5 0.3-0.2 0.7-0.3 0.4 0 0.8 0.1l9.9 3.3q0.4 0.1 0.7 0.4 0.3 0.3 0.4 0.6 0.2 0.3 0.3 0.7 0 0.4-0.1 0.8-0.1 0.3-0.3 0.5-0.2 0.3-0.4 0.5-0.3 0.1-0.6 0.2-0.3 0.1-0.6 0.1z"/>
		<path id="Layer" class="s0" d="m235 117.9q-0.3 0-0.5-0.1-0.2 0-0.5-0.1-0.2-0.2-0.4-0.3-0.2-0.2-0.3-0.4l-27.6-41c-0.3-0.4-0.4-1-0.3-1.5 0.1-0.5 0.4-1 0.8-1.3 0.4-0.3 1-0.4 1.5-0.3 0.5 0.1 1 0.4 1.3 0.8l27.7 41.1q0.2 0.3 0.3 0.7 0 0.4 0 0.8-0.1 0.4-0.4 0.7-0.2 0.4-0.5 0.6-0.1 0.1-0.3 0.1-0.1 0.1-0.2 0.1-0.2 0.1-0.3 0.1-0.2 0-0.3 0z"/>
		<path id="Layer" class="s0" d="m239.8 110.3h-0.2l-10.3-0.7c-0.5 0-1-0.3-1.4-0.7-0.3-0.4-0.5-0.9-0.5-1.4 0-0.5 0.3-1 0.7-1.4 0.4-0.3 0.9-0.5 1.4-0.5l10.5 0.7q0.4 0 0.8 0.2 0.3 0.2 0.6 0.5 0.2 0.3 0.3 0.7 0.1 0.4 0.1 0.8 0 0.4-0.2 0.7-0.2 0.3-0.5 0.6-0.2 0.2-0.6 0.4-0.3 0.1-0.7 0.1z"/>
		<path id="Layer" class="s0" d="m226.1 119.5h-0.5q-0.4-0.1-0.7-0.4-0.3-0.2-0.5-0.6-0.2-0.3-0.3-0.7 0-0.4 0.1-0.8c0.3-0.8 3-9 3.3-9.9q0.1-0.4 0.4-0.7 0.2-0.3 0.6-0.5 0.3-0.2 0.7-0.2 0.4 0 0.8 0.1 0.4 0.1 0.7 0.4 0.3 0.2 0.5 0.6 0.2 0.3 0.2 0.7 0 0.4-0.1 0.8c-1.2 3.7-3.1 9.3-3.2 9.8q-0.1 0.3-0.3 0.6-0.2 0.2-0.5 0.4-0.2 0.2-0.6 0.3-0.3 0.1-0.6 0.1z"/>
		<path id="Layer" class="s0" d="m213 85.2h-0.2l-10.4-0.6c-0.5-0.1-1-0.3-1.3-0.7-0.4-0.4-0.5-1-0.5-1.5 0.1-0.5 0.3-1 0.7-1.3 0.4-0.4 1-0.5 1.5-0.5l10.3 0.7q0.4 0 0.7 0.2 0.4 0.2 0.7 0.5 0.2 0.3 0.3 0.6 0.1 0.4 0.1 0.8 0 0.4-0.2 0.7-0.2 0.3-0.4 0.6-0.3 0.2-0.6 0.3-0.3 0.2-0.7 0.2z"/>
		<path id="Layer" class="s0" d="m212.9 85.2l-0.6-0.2q-0.4-0.1-0.7-0.4-0.3-0.2-0.4-0.6-0.2-0.3-0.2-0.7 0-0.4 0.1-0.8l3.2-9.8c0.2-0.5 0.5-0.8 1-1 0.5-0.3 1-0.3 1.5-0.1 0.4 0.1 0.8 0.4 1.1 0.9 0.2 0.4 0.3 0.9 0.2 1.4-0.2 0.7-2.9 9-3.3 9.9q-0.1 0.3-0.3 0.6-0.2 0.2-0.4 0.4-0.3 0.2-0.6 0.3-0.3 0.1-0.6 0.1z"/>
	</g>
</svg>