<svg version="1.2" xmlns="http://www.w3.org/2000/svg" viewBox="0 0 313 290" width="313" height="290"><style>.a{fill:#15130f}</style><path class="a" d="m24.9 201.3c0 5 4.1 9.1 9.1 9.1h48.9c5.1 0 9.1-4.1 9.1-9.1 0 0 0-9.6 0-12.8v-2.9c0-1.9-1.5-3.4-3.4-3.4-1.8 0-3.3 1.5-3.3 3.4v2.9c0 3.2 0 1.9 0 5v2.5c0 4.4-3.6 8-8 8h-37.6c-4.4 0-8-3.6-8-8v-2.5c0-3.1 0-1.8 0-5v-2.9c0-1.9-1.5-3.4-3.4-3.4-1.8 0-3.4 1.5-3.4 3.4v2.9c0 3.2 0 12.8 0 12.8h-2.3-2.3c0 0 0-9.6 0-12.8v-2.9c0-4.4 3.6-8.1 8-8.1 4.4 0 8 3.7 8 8.1v2.9c0 3.2 0 1.9 0 5v2.5c0 1.9 1.5 3.4 3.4 3.4h37.6c1.8 0 3.3-1.5 3.3-3.4v-2.5c0-3.1 0-1.8 0-5v-2.9c0.1-4.4 3.6-8.1 8-8.1 4.5 0 8 3.7 8 8.1v2.9c0 3.2 0 12.8 0 12.8 0 7.6-6.1 13.7-13.7 13.7h-48.9c-7.6 0-13.7-6.1-13.7-13.7h2.3zm3.6-19.3c-1.3 0-2.3-1.1-2.3-2.3v-10.5c0-7.5 6.1-13.7 13.7-13.7h37.4c7.5 0 13.6 6.2 13.6 13.7v10.5c0 1.2-1 2.3-2.3 2.3-1.2 0-2.3-1.1-2.3-2.3v-10.5c0-5-4-9.1-9-9.1h-37.4c-5 0-9.1 4.1-9.1 9.1v10.5c0 1.2-1 2.3-2.3 2.3zm2.8 30.5c0.2-1.2 1.4-2.1 2.7-1.9 1.2 0.2 2.1 1.4 1.9 2.6l-2.5 15.4c-0.2 1.3-1.4 2.1-2.6 1.9-1.3-0.2-2.1-1.4-1.9-2.6l2.4-15.4m49.9 0.7c-0.2-1.2 0.7-2.4 1.9-2.6 1.3-0.2 2.5 0.7 2.7 1.9l2.5 15.4c0.2 1.2-0.7 2.4-2 2.6-1.2 0.2-2.4-0.6-2.6-1.9l-2.5-15.4m32-174c0-1.3 1.1-2.3 2.3-2.3 1.3 0 2.3 1 2.3 2.3v162.8c0 1.3-1 2.3-2.3 2.3-1.2 0-2.3-1-2.3-2.3v-162.8m81.1 0c0-1.3 1.1-2.3 2.3-2.3 1.3 0 2.3 1 2.3 2.3v160.5c0 1.3-1 2.3-2.3 2.3-1.2 0-2.3-1-2.3-2.3v-160.5m31.2 250.8c-1.3-0.2-2.2-1.4-2-2.7l3.5-22.4q0 0 0-0.1c0-0.3 0-0.8-0.1-1.1l2.3-0.3-2.3 0.4-3.4-17.3v-0.2q-0.1-0.2-0.1-0.5c0-1.8 1.5-3.5 3.5-3.5h29c1.9 0 3.4 1.7 3.4 3.5q0 0.3 0 0.5l-0.1 0.3-4.2 17.3-2.3-0.5 2.3 0.3h-0.1 0.1-0.1 0.1c0 0.2 0.1 0.8 0.2 1.2l-2.3 0.4 2.2-0.5 4.3 22.5c0.3 1.2-0.6 2.4-1.8 2.7-1.3 0.2-2.5-0.6-2.7-1.9l-4.3-22.4v-0.1c0-0.4-0.2-1.1-0.2-1.9q0-0.3 0-0.7l0.1-0.2 4.2-17.3 2.3 0.5-2.3-0.3 0.8 0.1h-0.8q0-0.1 0-0.1l0.8 0.1h-0.8 1.2v1.1c-0.7 0-1.2-0.7-1.2-1.1h1.2v1.1h-29v-1.1h1.1c0 0.4-0.5 1.1-1.1 1.1v-1.1h1.1-0.8l0.8-0.1q0 0 0 0.1h-0.8l0.8-0.1-2.3 0.3 2.3-0.4 3.5 17.3v0.1c0 0.5 0.1 1.1 0.1 1.8q0 0.4 0 0.8l-3.5 22.4c-0.2 1.3-1.4 2.2-2.6 2zm3.1-10.1c-1.2 0-2.3-1-2.3-2.3 0-1.2 1.1-2.3 2.3-2.3h25.8c1.3 0 2.3 1.1 2.3 2.3 0 1.3-1 2.3-2.3 2.3h-25.8m12.2-135.6c7.5 0.1 13.8 5.7 18.1 13.9 4.3 8.2 6.9 19.3 6.9 31.6 0 12.2-2.6 23.3-6.9 31.5-4.3 8.2-10.6 13.8-18.1 13.9-7.6-0.1-13.8-5.7-18.1-13.9-4.4-8.2-6.9-19.3-7-31.5 0.1-12.3 2.6-23.4 7-31.6 4.3-8.2 10.5-13.8 18.1-13.9v2.3 2.3c-5 0-10.1 4-14.1 11.4-3.9 7.4-6.4 17.9-6.3 29.5-0.1 11.5 2.4 22 6.3 29.4 4 7.4 9.1 11.4 14.1 11.4 4.9 0 10.1-4 14-11.4 3.9-7.4 6.4-17.9 6.4-29.4 0-11.6-2.5-22.1-6.4-29.5-3.9-7.4-9.1-11.4-14-11.4v-2.3zm-1.9 45.7c0-1.3 1-2.3 2.3-2.3 1.2 0 2.3 1 2.3 2.3l0.1 53.5c0 1.3-1.1 2.3-2.3 2.3-1.3 0-2.3-1-2.3-2.3l-0.1-53.5m-9.2 13.3c-0.9-0.9-0.9-2.3 0.1-3.2 0.9-0.9 2.3-0.9 3.2 0l9.3 9.3c0.9 0.9 0.9 2.3 0 3.2-0.9 0.9-2.4 0.9-3.3 0l-9.3-9.3m-172.3-152.5c0.9-0.9 2.3-0.9 3.2 0 0.9 0.9 0.9 2.4 0 3.3l-12.1 12.1c-0.9 0.9-2.4 0.9-3.3 0-0.9-0.9-0.9-2.3 0-3.2l12.2-12.2m26 33.1c0.9-0.9 2.4-0.9 3.3 0 0.9 0.9 0.9 2.4 0 3.3l-32.7 32.6c-0.9 0.9-2.3 0.9-3.2 0-0.9-0.9-0.9-2.4 0-3.3l32.6-32.6m166.6-25c0.9-0.9 2.4-0.9 3.3 0 0.9 0.9 0.9 2.4 0 3.3l-25 24.9c-0.9 1-2.4 0.9-3.3 0-0.9-0.9-0.9-2.3 0-3.2l25-25m-221.5 112.8c-1.3 0-2.4-1.1-2.4-2.3 0-47.8 0-131.7 0-131.9 0-1.2 1.1-2.3 2.4-2.3 1.2 0 2.3 1.1 2.3 2.3 0 0.2 0 84.1 0 131.9 0 1.2-1.1 2.3-2.3 2.3zm189.1 27.6c-38.8 0-83.9 0-123.6 0-1.3 0-2.3 1-2.3 2.3 0 1.3 1 2.3 2.3 2.3 39.7 0 84.8 0 123.6 0 1.3 0 2.3-1 2.3-2.3 0-1.3-1-2.3-2.3-2.3zm63.8-161.8v164.1h2.3v-2.3c0 0-4.1 0-20.9 0-1.3 0-2.3 1-2.3 2.3 0 1.3 1 2.3 2.3 2.3 16.8 0 20.9 0 20.9 0 0.6 0 1.2-0.2 1.6-0.7 0.5-0.4 0.7-1 0.7-1.6v-164.1c0-1.2-1-2.3-2.3-2.3-1.3 0-2.3 1.1-2.3 2.3zm25.8-1.6c0-1.3 1-2.3 2.3-2.3 1.3 0 2.3 1 2.3 2.3v193.3c0 1.3-1 2.3-2.3 2.3-1.3 0-2.3-1-2.3-2.3v-193.3m-26.6 167.1c-0.9-0.9-0.9-2.4 0-3.3 0.9-0.9 2.3-0.9 3.2 0l24.3 24.4c0.9 0.9 0.9 2.3 0 3.2-0.9 0.9-2.3 0.9-3.2 0l-24.3-24.3m-278.2-168.4c1.3 0 2.3 1 2.3 2.3v185.8l14.8-18.3c0.8-1 2.3-1.1 3.3-0.3 0.9 0.8 1.1 2.2 0.3 3.2l-18.9 23.4c-0.6 0.7-1.6 1-2.5 0.7-1-0.3-1.6-1.2-1.6-2.2v-192.3c0-1.3 1.1-2.3 2.3-2.3zm126.9 76c0-1.3 1.1-2.3 2.3-2.3h12.6c0.6 0 1.2 0.2 1.6 0.7 0.5 0.4 0.7 1 0.7 1.6v13.2c0 1.2-1 2.3-2.3 2.3-1.3 0-2.3-1.1-2.3-2.3v-10.9h-10.3c-1.2 0-2.3-1-2.3-2.3zm-126.8-106v-2.3h2.3v30.5h302.6v-28.2h-304.9v-2.3h-2.3c0-0.6 0.2-1.2 0.6-1.6 0.5-0.5 1.1-0.7 1.7-0.7h307.2c0.6 0 1.2 0.2 1.6 0.7 0.5 0.4 0.7 1 0.7 1.6v32.8c0 0.7-0.2 1.2-0.7 1.7-0.4 0.4-1 0.6-1.6 0.6h-307.2c-0.6 0-1.2-0.2-1.7-0.6-0.4-0.5-0.6-1-0.6-1.7v-32.8h2.3zm227.3 256.6c0 1.3-1 2.3-2.3 2.3-45.5 0-101.8 0-146.7 0-44.9 0-78.4 0-78.5 0-1.3 0-2.3-1-2.3-2.3v-32.9c0-0.6 0.2-1.2 0.7-1.6 0.4-0.4 1-0.7 1.6-0.7 0 0 33.8 0 79.1 0 45.2 0 101.8 0 147.5 0 1.3 0 2.3 1.1 2.3 2.3 0 1.3-1 2.3-2.3 2.3-45.7 0-102.3 0-147.5 0-45.3 0-79 0-79.1 0v-2.3h2.3v32.9h-2.3v-2.3c0.1 0 33.6 0 78.5 0 44.9 0 101.2 0 146.7 0 1.3 0 2.3 1 2.3 2.3zm21.5-30.6c29 0 58.1 0 58.1 0v-2.3h-2.3v32.9h2.3v-2.3c0 0-21.3 0-54.7 0-1.3 0-2.3 1-2.3 2.3 0 1.3 1 2.3 2.3 2.3 33.4 0 54.7 0 54.7 0 0.6 0 1.2-0.2 1.6-0.7 0.4-0.4 0.7-1 0.7-1.6v-32.9c0-0.6-0.3-1.2-0.7-1.6-0.4-0.4-1-0.7-1.6-0.7 0 0-29.1 0-58.1 0-1.2 0-2.3 1.1-2.3 2.3 0 1.3 1.1 2.3 2.3 2.3zm-135.7 31.1c-1.3 0-2.3-1-2.3-2.3v-31.1c0-1.2 1-2.3 2.3-2.3 1.3 0 2.3 1.1 2.3 2.3v31.1c0 1.3-1 2.3-2.3 2.3zm78.9-33.4v31.1c0 1.3 1 2.3 2.3 2.3 1.3 0 2.3-1 2.3-2.3v-31.1c0-1.2-1-2.3-2.3-2.3-1.3 0-2.3 1.1-2.3 2.3zm-78.5 18.6c-1.3 0-2.3-1-2.3-2.3 0-1.3 1-2.3 2.3-2.3h80.4c1.3 0 2.3 1 2.3 2.3 0 1.3-1 2.3-2.3 2.3h-80.4"/></svg>